<svg width="71" height="71" viewBox="0 0 71 71" fill="none" xmlns="http://www.w3.org/2000/svg">
<g clip-path="url(#clip0_1038_5553)">
<path fill-rule="evenodd" clip-rule="evenodd" d="M0.167969 0.5H70.168V70.5H0.167969V0.5Z" fill="white"/>
<path fill-rule="evenodd" clip-rule="evenodd" d="M6.4343 29.9609H9.53745L10.3135 30.7366L4.39774 36.6847L5.1738 37.4604L3.68632 38.9479L1.19727 36.5881L7.04839 30.7693L6.4343 29.9609V29.9609ZM9.47317 34.2603L10.9922 35.8767L7.33964 39.5613L8.08302 40.37L6.62822 41.9214L4.20381 39.5613L9.47317 34.2603V34.2603Z" fill="#CC2229"/>
<path fill-rule="evenodd" clip-rule="evenodd" d="M9.63482 33.1607H12.6737L16.0354 36.5224L9.66751 42.9556L7.34005 42.4058L12.9969 36.4904L9.63482 33.1607V33.1607ZM6.78516 28.8246C6.86578 28.5733 6.94168 28.4106 7.06914 28.1589C7.10764 27.9135 7.11817 27.7377 6.92098 27.539C6.85897 27.3938 6.83124 27.2362 6.83994 27.0785C6.84863 26.9208 6.8935 26.7673 6.97109 26.6297C7.12943 26.4122 7.30592 26.2135 7.49548 26.0276C7.65854 25.9343 7.7664 25.9946 7.725 26.1845L7.39489 26.8959C7.34841 27.1704 7.4352 27.4308 7.60697 27.5616C7.73626 27.6723 7.81215 28.0003 7.62259 28.2654C7.46607 28.521 7.26488 28.6986 6.98271 28.8751C6.86904 28.9045 6.80331 28.9172 6.78516 28.8246V28.8246ZM7.90803 28.8246C7.98865 28.5733 8.06455 28.4106 8.19201 28.1589C8.23051 27.9135 8.2414 27.7377 8.04385 27.539C7.98185 27.3938 7.95411 27.2362 7.96281 27.0785C7.9715 26.9208 8.01637 26.7673 8.09396 26.6297C8.2523 26.4122 8.42879 26.2135 8.61836 26.0276C8.78141 25.9343 8.8889 25.9946 8.84787 26.1845L8.51776 26.8959C8.47128 27.1704 8.55807 27.4308 8.73021 27.5616C8.85949 27.6723 8.93539 28.0003 8.74582 28.2654C8.5893 28.521 8.38812 28.6986 8.10595 28.8751C7.99155 28.9045 7.92582 28.9172 7.90803 28.8246V28.8246ZM9.0309 28.8246C9.11152 28.5733 9.18742 28.4106 9.31488 28.1589C9.35338 27.9135 9.36391 27.7377 9.16672 27.539C9.10474 27.3938 9.077 27.2363 9.08562 27.0786C9.09425 26.9209 9.13902 26.7673 9.21647 26.6297C9.3748 26.4122 9.5513 26.2135 9.74123 26.0276C9.90392 25.9343 10.0118 25.9946 9.97038 26.1845L9.64027 26.8959C9.59379 27.1704 9.68058 27.4308 9.85235 27.5616C9.98163 27.6723 10.0579 28.0003 9.86797 28.2654C9.71145 28.521 9.51026 28.6986 9.22809 28.8751C9.11442 28.9045 9.04905 28.9172 9.0309 28.8246V28.8246ZM37.8017 33.6146H32.7514V34.9372H37.8733C38.138 34.9372 38.4017 34.9372 38.4017 35.4656C38.4017 35.994 38.1376 36.0655 37.8733 36.0655H32.7514V40.6601H37.9216C38.1856 40.6601 38.45 40.6601 38.45 41.1878C38.45 41.7162 37.8508 41.7162 37.586 41.7162H32.223C31.9586 41.7162 31.6946 41.4522 31.6946 41.1878V35.994H31.2617C31.0718 35.9493 30.9105 35.852 30.8143 35.6889C30.7231 35.5335 30.7275 35.4576 30.7787 35.2953C30.8887 34.9477 31.0304 34.9376 31.2617 34.9376H31.6946V33.0869C31.6946 32.8226 31.9586 32.5586 32.223 32.5586H37.9691C38.2339 32.5586 38.4975 32.5586 38.4975 33.0869C38.4975 33.6146 38.0654 33.6146 37.8017 33.6146V33.6146ZM53.3029 33.6146H48.2529V34.9372H53.3752C53.6392 34.9372 53.9029 34.9372 53.9029 35.4656C53.9029 35.994 53.6389 36.0655 53.3752 36.0655H48.2529V40.6601H53.4228C53.6868 40.6601 53.9512 40.6601 53.9512 41.1878C53.9512 41.7162 53.352 41.7162 53.0879 41.7162H47.7242C47.4602 41.7162 47.1958 41.4522 47.1958 41.1878V35.994H46.7633C46.5733 35.9493 46.4121 35.852 46.3159 35.6889C46.2243 35.5335 46.2294 35.4576 46.2803 35.2953C46.3903 34.9477 46.5319 34.9376 46.7633 34.9376H47.1958V33.0869C47.1958 32.8226 47.4605 32.5586 47.7242 32.5586H53.4707C53.7347 32.5586 53.9984 32.5586 53.9984 33.0869C53.9987 33.6146 53.5677 33.6146 53.3029 33.6146V33.6146ZM66.1687 33.6792V41.2089C66.1687 41.4729 66.1687 41.7761 65.6403 41.8607C65.1127 41.7416 65.1127 41.4729 65.1127 41.2089V33.6792H63.0485C62.8713 33.6792 62.3306 33.6792 62.3306 33.1509C62.518 32.6453 62.9171 32.6225 63.0939 32.6225H68.4428C68.6193 32.6225 69.0253 32.6225 69.1393 33.1509C69.1393 33.6792 68.6193 33.6792 68.4428 33.6792H66.1687V33.6792Z" fill="#CC2229"/>
<path fill-rule="evenodd" clip-rule="evenodd" d="M39.4586 41.1775V38.9921H39.021C38.757 38.9921 38.4196 38.9921 38.4196 38.4637C38.4196 37.9353 38.875 37.9353 39.1386 37.9353H39.4586V33.1075C39.4586 32.8435 39.8755 32.541 40.1402 32.541H45.528C45.792 32.541 46.2045 32.5897 46.2768 33.0454C46.2768 33.5738 45.8944 33.5974 45.6307 33.5974H40.5651V37.9349H45.3555C45.6202 37.9349 46.1493 37.9349 46.1493 38.4633C46.1493 38.9917 45.6202 38.9917 45.3555 38.9917H40.5651V41.2382C40.5651 41.2941 40.5709 41.3333 40.5495 41.3841C40.3345 41.9013 39.7771 41.9834 39.492 41.4168C39.4488 41.33 39.4586 41.2745 39.4586 41.1775V41.1775ZM25.3319 37.8699L30.135 37.8485H30.1372C30.5689 37.8485 30.7389 38.0776 30.7389 38.4499V38.4379C30.7437 38.5179 30.7296 38.5978 30.6979 38.6714C30.4651 39.5963 29.8782 40.351 29.1127 40.8837C28.2952 41.4524 27.2671 41.7709 26.254 41.7709C25.6398 41.771 25.0316 41.6498 24.4644 41.4143C23.8972 41.1788 23.382 40.8336 22.9485 40.3986C22.5135 39.9651 22.1683 39.4499 21.9328 38.8827C21.6973 38.3155 21.5761 37.7073 21.5762 37.0931C21.5762 35.8007 22.0984 34.5935 22.9453 33.714C23.7827 32.8439 24.9368 32.293 26.2195 32.293C26.8735 32.293 27.513 32.4259 28.0962 32.6681C28.6882 32.9147 28.7877 32.894 29.2202 33.3472C29.4265 33.5636 29.7896 33.8324 29.3571 34.2442C29.0865 34.3818 28.9387 34.4033 28.7684 34.364C28.4005 34.2794 28.3261 34.0721 28.0319 33.9315C27.9419 33.8887 27.8311 33.8523 27.6383 33.7721C27.1886 33.5859 26.7066 33.4901 26.2198 33.4903C25.2767 33.4903 24.4258 33.8981 23.8063 34.5416C23.1462 35.2273 22.7765 36.1414 22.7742 37.0931C22.7742 38.0508 23.1653 38.9209 23.7958 39.5517C24.4262 40.1825 25.3141 40.5213 26.2717 40.5213C27.046 40.5213 27.8108 40.3325 28.43 39.9021C28.7641 39.6693 29.0488 39.3127 29.2547 38.9801L25.146 38.9979C24.8467 38.9986 24.4778 39.0694 24.4756 38.4709C24.4734 37.8725 25.0327 37.8714 25.3319 37.8699V37.8699ZM30.6772 38.7146C30.6762 38.7173 30.6749 38.7199 30.6732 38.7222L30.6768 38.7172L30.6772 38.7146V38.7146ZM60.4296 34.4007C59.1684 33.2197 57.6061 33.1903 56.4676 34.3593V34.3615C56.4217 34.4084 56.3772 34.4567 56.3343 34.5064H56.3365C56.2217 34.64 56.1491 34.7399 56.1117 34.831C56.0747 34.9218 56.0565 35.0395 56.0478 35.212V35.2095C56.0329 35.5239 56.1124 35.7516 56.2555 35.9096C56.44 36.1126 56.7414 36.2386 57.0958 36.3054C57.2716 36.3389 57.3021 36.3443 57.3312 36.3494C58.1087 36.4914 59.6731 36.7772 60.6576 37.221C61.0557 37.4011 61.3498 37.6168 61.5684 37.9077C61.7878 38.1978 61.9123 38.5396 61.9726 38.9688C62.0242 39.3324 61.9872 39.703 61.8648 40.0492C61.7576 40.3535 61.6222 40.5747 61.4421 40.769C61.2761 40.9484 61.0865 41.0845 60.8498 41.2393C60.4288 41.516 59.9622 41.7163 59.4716 41.8308C58.9813 41.943 58.4802 41.9612 57.9736 41.8976L57.9779 41.8998C57.1354 41.8007 56.497 41.6104 55.9628 41.338C55.4224 41.0628 55.0044 40.7138 54.6017 40.2969C54.4081 40.096 54.2146 39.8956 54.6217 39.5154C55.0288 39.1359 55.3099 39.4892 55.5034 39.6897C55.8284 40.0252 56.0696 40.1502 56.4781 40.3586C56.8943 40.57 57.41 40.721 58.1101 40.8035L58.1145 40.8056C58.4819 40.8543 58.8551 40.8375 59.2167 40.7559C59.5772 40.6717 59.9199 40.524 60.2288 40.3197C60.3947 40.2119 60.5226 40.1218 60.6112 40.026C60.6863 39.9457 60.7459 39.8429 60.8 39.6904C60.8659 39.5067 60.8861 39.3098 60.8588 39.1166C60.8254 38.874 60.7651 38.6954 60.6667 38.5643C60.5683 38.4332 60.4122 38.3253 60.1874 38.2236C59.3263 37.8351 57.8581 37.5667 57.1289 37.4334C56.9735 37.4058 56.9266 37.3971 56.8849 37.3895C56.3005 37.2787 55.7783 37.0448 55.4152 36.6432C55.0803 36.2742 54.8911 35.7883 54.9209 35.1619V35.1597C54.9351 34.8692 54.9768 34.6437 55.0691 34.4203C55.1606 34.1966 55.2884 34.01 55.4733 33.7935H55.4755C55.5423 33.7162 55.6018 33.6501 55.6534 33.5971V33.5992C57.2778 31.9305 59.6241 32.2174 61.3353 33.8204C61.539 34.011 61.7424 34.2021 61.3553 34.6012C60.9017 34.6731 60.633 34.5914 60.4296 34.4007V34.4007Z" fill="#CC2229"/>
</g>
<defs>
<clipPath id="clip0_1038_5553">
<rect width="70" height="70" fill="white" transform="translate(0.167969 0.5)"/>
</clipPath>
</defs>
</svg>
