<svg width="166" height="51" viewBox="0 0 166 51" fill="none" xmlns="http://www.w3.org/2000/svg">
<g clip-path="url(#clip0_1038_5531)">
<path d="M72.2377 26.6889C72.4904 26.8152 72.7011 26.9415 72.9538 27.11C73.2908 27.3205 73.5856 27.5732 73.8383 27.8679C74.1331 28.2048 74.3861 28.6258 74.5545 29.0469C74.7647 29.5521 74.8912 30.1417 74.8912 30.689C74.8912 32.1207 74.2177 33.426 73.0801 34.3102C71.9007 35.2787 70.258 35.784 68.1519 35.784C67.3516 35.784 66.5512 35.6997 65.7931 35.4892C65.1191 35.3207 64.4872 35.1102 63.8554 34.7734C63.3921 34.5207 62.9288 34.226 62.5075 33.9313C62.1706 33.7207 61.8757 33.4681 61.623 33.2154L61.3281 32.9207L63.9397 30.2259C64.0661 30.3101 64.1924 30.4785 64.4031 30.6469C64.7821 30.9417 65.2033 31.1522 65.6667 31.3207C66.2564 31.6154 66.9303 31.7417 67.5622 31.7417C68.194 31.7838 68.868 31.6154 69.4156 31.2364C69.7947 30.9838 70.0474 30.5627 70.0895 30.0574C70.0895 29.1311 69.3313 28.6258 67.857 28.6679H65.7088V24.9204H67.6043C68.1519 24.9626 68.6573 24.8363 69.1207 24.5415C69.4156 24.331 69.6261 23.952 69.6261 23.573C69.6261 23.194 69.4156 22.8152 69.1207 22.6467C68.6152 22.394 68.0676 22.2677 67.52 22.3099C67.0146 22.3099 66.467 22.394 66.0036 22.6046C65.6245 22.7309 65.2455 22.9414 64.9506 23.194L64.6136 23.4888L62.0021 20.7519C62.0442 20.7098 62.1284 20.6256 62.2548 20.4993C62.5075 20.2888 62.7181 20.0782 63.013 19.9098C63.3921 19.615 63.8133 19.3624 64.2767 19.1518C64.8242 18.8992 65.4139 18.6887 66.0458 18.5624C66.804 18.3939 67.5622 18.2676 68.3203 18.2676C70.1737 18.2676 71.6901 18.7308 72.8274 19.6992C73.9647 20.6677 74.5545 21.7624 74.5545 22.9835C74.5964 23.7415 74.3442 24.4994 73.9226 25.131C73.6278 25.6363 73.1644 26.0152 72.6589 26.2679L72.0692 26.5205L72.2377 26.6889Z" fill="black"/>
<path d="M81.548 31.7423L80.4105 35.2792H75.5664L81.8429 18.7734H86.8127L93.0046 35.2792H88.1605L86.9811 31.7423H81.548ZM84.2855 23.3631L82.7693 28.2053H85.8443L84.2855 23.3631Z" fill="black"/>
<path d="M98.943 30.3944C99.8276 31.2787 101.05 31.7839 102.313 31.7418C103.114 31.7418 103.955 31.5734 104.672 31.2365C105.261 30.9839 105.809 30.6049 106.272 30.1417L106.778 29.6364L109.389 32.4576C109.347 32.5418 109.221 32.6681 109.137 32.8366C108.884 33.1313 108.589 33.3839 108.294 33.6366C107.873 34.0156 107.41 34.3524 106.905 34.605C106.272 34.9419 105.599 35.1945 104.925 35.4051C104.082 35.6577 103.197 35.742 102.355 35.742C99.9121 35.784 97.5952 34.8577 95.8261 33.1734C92.4143 30.0154 92.2459 24.6679 95.4048 21.2573C95.5312 21.1309 95.6577 20.9625 95.8261 20.8362C98.2275 18.5625 101.681 17.7203 104.883 18.6045C105.599 18.815 106.23 19.0677 106.862 19.4467C107.325 19.7414 107.789 20.0783 108.21 20.4151C108.505 20.6678 108.8 20.9625 109.053 21.2573L109.305 21.5941L106.567 24.4153C106.525 24.3311 106.441 24.2889 106.399 24.1626C106.23 23.9942 106.062 23.8258 105.851 23.6573C105.599 23.4047 105.304 23.1942 104.967 23.0257C104.588 22.8152 104.208 22.6468 103.787 22.5205C103.324 22.352 102.819 22.3099 102.313 22.3099C99.7018 22.352 97.5952 24.4995 97.6378 27.1522C97.6378 28.3733 98.1011 29.5101 98.943 30.3944Z" fill="black"/>
<path d="M126.955 35.2792H122.49V22.7736H118.699V23.9526C118.699 25.5526 118.615 27.1527 118.404 28.7527C118.278 29.8896 117.983 31.0265 117.604 32.1212C117.309 32.9213 116.887 33.6371 116.34 34.2687C115.876 34.774 115.329 35.1951 114.74 35.4477C114.107 35.6582 113.476 35.7845 112.802 35.7845C112.423 35.7845 112.001 35.7424 111.623 35.6582C111.328 35.6161 111.033 35.5319 110.738 35.4056L110.443 35.2792V31.1528C110.78 31.2791 111.117 31.3634 111.496 31.3634C111.875 31.3634 112.254 31.2791 112.591 31.0686C112.971 30.7738 113.265 30.437 113.434 30.0159C113.771 29.3001 113.939 28.5422 114.023 27.7422C114.192 26.479 114.234 25.2158 114.234 23.9526V18.7734H126.955V35.2792Z" fill="black"/>
<path d="M145.067 33.1748C141.403 36.6276 135.674 36.6276 132.01 33.1748C128.598 30.0169 128.43 24.6693 131.588 21.2587C131.715 21.1324 131.841 20.9639 132.01 20.8376C135.674 17.3849 141.403 17.3849 145.067 20.8376C148.48 23.9956 148.648 29.3431 145.488 32.7538C145.362 32.9222 145.194 33.0485 145.067 33.1748ZM135.253 30.3958C137.064 32.2064 140.013 32.2064 141.824 30.3958C142.708 29.5116 143.172 28.2905 143.172 27.0273C143.214 25.7641 142.751 24.543 141.866 23.6588C140.055 21.8902 137.149 21.8902 135.295 23.6588C134.41 24.543 133.947 25.7641 133.989 27.0273C133.905 28.2905 134.41 29.5116 135.253 30.3958Z" fill="black"/>
<path d="M165.16 35.2792H160.694V28.9212H154.671V35.2792H150.164V18.7734H154.671V24.921H160.694V18.7734H165.16V35.2792Z" fill="black"/>
<path d="M26.1562 42.2705C26.4089 42.5652 26.6196 42.86 26.8302 43.1968C28.9363 43.281 31.0424 42.86 32.9379 41.9336C33.2748 39.1125 35.6337 37.0071 38.498 37.0071C39.6353 35.2387 40.3092 33.1755 40.4777 31.0702C38.2031 29.3859 37.5713 26.27 39.0034 23.8278C38.0347 21.933 36.6025 20.333 34.8755 19.154C32.6851 20.1224 30.1157 19.533 28.515 17.7224C28.2623 17.4276 28.0517 17.1329 27.8411 16.796L27.4199 16.7539H27.2936C25.3559 16.7539 23.4183 17.1749 21.6492 18.0171C21.3122 20.8382 18.9113 22.9435 16.0891 22.9435C14.9518 24.7121 14.2778 26.7753 14.1094 28.8806C14.4042 29.0911 14.6991 29.3859 14.9518 29.6385C16.5525 31.4491 16.8052 34.0597 15.5836 36.123C16.5525 38.0177 17.9846 39.6178 19.7537 40.7968C21.9861 39.9125 24.5556 40.4599 26.1562 42.2705ZM20.5961 26.3542C22.618 22.6488 27.2514 21.2593 30.9581 23.2805C34.6649 25.3016 36.0549 29.9332 34.0331 33.6386C32.6851 36.123 30.1157 37.6388 27.2936 37.6388C26.0299 37.6388 24.8083 37.3019 23.6711 36.7124C19.9643 34.6913 18.5743 30.0596 20.5961 26.3542Z" fill="url(#paint0_linear_1038_5531)"/>
<path d="M34.8335 19.1529C32.6432 20.1214 30.0738 19.5319 28.4732 17.7213C28.2204 17.4265 28.0098 17.1318 27.7992 16.7949H27.378H27.3359H27.2938C25.3561 16.7949 23.4607 17.216 21.6915 18.0582L21.6073 18.4792C21.6073 18.5635 21.5652 18.6055 21.5652 18.6898C20.7227 22.732 19.8382 28.3743 19.7539 28.8374C20.133 26.311 21.7757 24.1636 24.0504 23.0688C24.9349 22.6057 25.8616 22.2688 26.8725 22.0583C34.5808 20.4582 39.0036 23.7846 39.0036 23.7846C38.0349 21.974 36.6027 20.3319 34.8335 19.1529Z" fill="url(#paint1_linear_1038_5531)"/>
<path d="M22.9128 36.29C22.0704 35.7427 21.3122 35.1111 20.6383 34.3531C15.4151 28.5003 16.0891 22.9844 16.0891 22.9844C15.5415 23.8686 15.0781 24.8371 14.7412 25.8056C14.4042 26.8161 14.1936 27.8267 14.1094 28.8793C16.0469 30.3109 16.8472 32.8373 16.0469 35.1111C15.9206 35.4479 15.7521 35.8269 15.5836 36.1217C16.5524 37.9743 17.9846 39.5744 19.7116 40.7955L20.1328 40.6692L20.3013 40.585C24.3871 39.2375 30.0314 37.0901 30.0314 37.0901C27.7147 38.0586 25.0189 37.7638 22.9128 36.29Z" fill="url(#paint2_linear_1038_5531)"/>
<path d="M38.4569 37.0059C39.5941 35.2375 40.2681 33.2164 40.4366 31.1111C40.3524 31.0268 40.226 30.9005 40.1418 30.8163L39.9733 30.69C36.8141 27.8689 32.1385 24.0792 32.0965 24.0371C34.0762 25.6372 35.1292 28.1214 34.9186 30.6478C34.8765 31.6584 34.708 32.6269 34.371 33.5953C31.8858 41.0482 26.7891 43.1956 26.7891 43.1956C27.8422 43.2378 28.8952 43.1535 29.9483 42.943C30.9591 42.7325 31.9701 42.3956 32.9389 41.9325C33.1916 39.5745 34.9608 37.5955 37.3617 37.1323C37.6987 37.0481 38.0777 37.0059 38.4569 37.0059Z" fill="url(#paint3_linear_1038_5531)"/>
<path d="M25.862 5.13259C26.8308 4.66941 27.5468 4.66941 28.1366 5.04838C28.1787 5.09048 27.0414 1.80617 26.6623 0.542969C26.536 0.542969 26.4096 0.585075 26.2832 0.627182C25.8199 0.753502 25.3566 0.921928 24.9353 1.17457C24.5562 1.3851 24.2193 1.59563 23.8823 1.84827C23.2505 2.26934 22.6607 2.77462 22.1132 3.2799C20.0913 5.30101 18.3643 7.57477 17.0585 10.1433C14.4891 15.0277 13.0991 20.4173 12.9727 25.8911C13.8572 20.6699 15.9212 15.7013 19.0382 11.4065C20.5125 9.34325 22.3238 7.53266 24.3877 6.05893C24.851 5.67997 25.3566 5.38523 25.862 5.13259Z" fill="url(#paint4_linear_1038_5531)"/>
<path d="M42.0787 16.4163C40.9415 13.7215 39.5515 11.1951 37.8665 8.795C37.0241 7.61601 36.0974 6.47913 35.1287 5.38437C34.1177 4.2896 32.9804 3.27904 31.7589 2.35269C31.0849 1.84741 30.4109 1.42635 29.6528 1.08949C29.1895 0.87896 28.7261 0.710533 28.2628 0.584213C27.9258 0.542107 27.6309 0.5 27.294 0.5H27.2097C26.8727 0.5 26.5779 0.542107 26.283 0.62632C25.8197 0.75264 25.3563 0.921066 24.9351 1.17371C24.556 1.38424 24.219 1.59477 23.882 1.84741C23.6293 2.01584 23.4187 2.18426 23.166 2.35269C23.9242 1.7632 25.6512 2.68954 27.1254 4.03696C28.3891 5.21593 29.5685 6.56334 30.6216 7.95287C31.0007 8.41603 31.3376 8.87919 31.6746 9.34235C32.2222 10.1424 32.6856 10.9424 33.1489 11.7846C33.9071 13.2162 34.6231 14.7321 35.1707 16.2479C38.2878 17.4268 41.1942 19.069 43.8058 21.0901C43.3003 19.5322 42.7527 17.9743 42.0787 16.4163Z" fill="url(#paint5_linear_1038_5531)"/>
<path d="M49.5347 39.3213C49.5768 39.9108 49.619 40.5003 49.5768 41.0899C49.4926 42.1425 49.1135 42.774 48.4817 43.111C48.4396 43.153 51.8514 43.7846 53.1151 44.0794C53.1572 43.9531 53.1993 43.8268 53.2415 43.7004C53.3678 43.2373 53.4521 42.732 53.4521 42.2688C53.4521 41.8477 53.4521 41.4267 53.4099 41.0056C53.3257 40.2476 53.1993 39.4898 53.0308 38.7318C52.3148 35.9528 51.1775 33.3001 49.619 30.9C46.6704 26.2683 42.6688 22.3524 37.9512 19.5312C42.0791 22.8998 45.3646 27.1525 47.5129 31.9948C48.608 34.3528 49.282 36.7949 49.5347 39.3213Z" fill="url(#paint6_linear_1038_5531)"/>
<path d="M40.3527 49.6391C41.8269 49.5128 43.259 49.2602 44.6912 48.9655C46.1654 48.6286 47.5976 48.1654 48.9876 47.5759C49.7458 47.2391 50.4619 46.8601 51.1359 46.3969C51.5571 46.1022 51.9362 45.8075 52.2732 45.4285C52.4838 45.1758 52.6943 44.9232 52.8629 44.6285C53.0313 44.3337 53.1577 44.039 53.2419 43.7021C53.3683 43.2389 53.4526 42.7336 53.4526 42.2705C53.4526 41.8494 53.4526 41.4283 53.4104 41.0073C53.3683 40.7125 53.3683 40.4178 53.284 40.123C53.4104 41.0494 51.7256 42.1021 49.8301 42.6916C48.1452 43.1969 46.4182 43.5758 44.6912 43.7442C44.1436 43.8284 43.5539 43.8705 42.9642 43.9547C42.0375 44.039 41.0687 44.039 40.0999 44.039C38.4571 43.9969 36.8144 43.8284 35.2138 43.5337C32.6443 45.639 29.78 47.3233 26.7051 48.5865C28.3479 48.9655 29.9906 49.2602 31.6334 49.4707C34.5819 49.8076 37.4883 49.8918 40.3527 49.6391Z" fill="url(#paint7_linear_1038_5531)"/>
<path d="M15.4157 46.3956C12.8885 46.143 10.4032 45.4692 8.08654 44.4587C7.53894 44.2061 7.03348 43.9534 6.52801 43.6166C5.64345 43.0271 5.26435 42.3955 5.3486 41.6797C5.30648 41.6797 3.07401 44.2481 2.18945 45.2166C2.2737 45.3009 2.35794 45.4272 2.44218 45.5114C2.77916 45.8482 3.15825 46.1851 3.57948 46.4377C3.91645 46.6482 4.29555 46.8588 4.67464 47.0272C5.3486 47.364 6.06467 47.6167 6.82287 47.8273C9.56081 48.5851 12.4251 48.922 15.2894 48.7957C20.8074 48.5431 26.1568 47.0693 31.0009 44.3745C26.0305 46.2693 20.7231 46.943 15.4157 46.3956Z" fill="url(#paint8_linear_1038_5531)"/>
<path d="M11.4975 20.1211C10.3602 21.3422 9.26506 22.6054 8.29623 23.9529C6.52712 26.2687 5.05284 28.753 3.83131 31.4057C3.19948 32.7531 2.69402 34.1005 2.2728 35.4901C1.76734 36.9217 1.43036 38.3954 1.26187 39.9112C1.17763 40.7112 1.1355 41.5534 1.21975 42.3534C1.26187 42.8587 1.34612 43.3218 1.47248 43.8271C1.55673 44.1219 1.68309 44.4587 1.85158 44.7114C2.02006 45.0061 2.23067 45.2587 2.44128 45.5114C2.77826 45.8482 3.15736 46.1851 3.57858 46.4377C3.91556 46.6483 4.29465 46.8588 4.67375 47.0273C4.92648 47.1536 5.22134 47.2798 5.47406 47.3641C4.58951 46.9851 4.54738 45.0061 4.9686 43.0693C5.3477 41.385 5.89529 39.7007 6.61136 38.1007C6.82197 37.5532 7.0747 37.048 7.32743 36.5006C7.74865 35.6584 8.21197 34.8163 8.67535 34.0163C9.51778 32.6268 10.4866 31.2794 11.5396 30.0162C11.0763 26.7318 11.0342 23.4054 11.4975 20.1211Z" fill="url(#paint9_linear_1038_5531)"/>
<path d="M26.5354 33.7213L29.3996 33.2161L31.0424 30.816L30.5369 27.9527L28.136 26.3105L25.2717 26.8158L23.6289 29.2159L24.1344 32.0791L26.5354 33.7213Z" fill="url(#paint10_linear_1038_5531)"/>
<path d="M22.955 36.249C22.1125 35.7016 21.3543 35.0701 20.6804 34.3121C15.4572 28.4593 16.1312 22.9434 16.1312 22.9434C15.5415 23.8276 15.0781 24.796 14.7412 25.7645C14.4042 26.7751 14.1936 27.7856 14.1094 28.8383C16.0469 30.2699 16.8472 32.7963 16.0469 35.0701C15.9206 35.4489 15.7521 35.7859 15.5836 36.1227C16.5524 37.9753 17.9846 39.5754 19.7116 40.7965L20.1328 40.6702L20.3013 40.6281C24.3871 39.2807 30.0314 37.0912 30.0314 37.0912C27.7147 38.0175 25.0611 37.7228 22.955 36.249Z" fill="url(#paint11_linear_1038_5531)"/>
</g>
<defs>
<linearGradient id="paint0_linear_1038_5531" x1="7.77901" y1="29.9952" x2="52.837" y2="29.9952" gradientUnits="userSpaceOnUse">
<stop stop-color="#3A000D"/>
<stop offset="0.58" stop-color="#760315"/>
<stop offset="1" stop-color="#C4081F"/>
</linearGradient>
<linearGradient id="paint1_linear_1038_5531" x1="6.23266" y1="22.8258" x2="43.5774" y2="22.8258" gradientUnits="userSpaceOnUse">
<stop stop-color="#27040A"/>
<stop offset="0.15" stop-color="#680314"/>
<stop offset="1" stop-color="#C4081F"/>
</linearGradient>
<linearGradient id="paint2_linear_1038_5531" x1="4.68233" y1="31.9152" x2="37.2555" y2="31.9152" gradientUnits="userSpaceOnUse">
<stop stop-color="#27040A"/>
<stop offset="0.55" stop-color="#680314"/>
<stop offset="1" stop-color="#C4081F"/>
</linearGradient>
<linearGradient id="paint3_linear_1038_5531" x1="18.5292" y1="33.6314" x2="47.2403" y2="33.6314" gradientUnits="userSpaceOnUse">
<stop stop-color="#27040A"/>
<stop offset="0.37" stop-color="#680314"/>
<stop offset="1" stop-color="#C4081F"/>
</linearGradient>
<linearGradient id="paint4_linear_1038_5531" x1="4.35036" y1="13.2189" x2="35.7345" y2="13.2189" gradientUnits="userSpaceOnUse">
<stop stop-color="#27040A"/>
<stop offset="0.27" stop-color="#680314"/>
<stop offset="1" stop-color="#C4081F"/>
</linearGradient>
<linearGradient id="paint5_linear_1038_5531" x1="12.2906" y1="10.8161" x2="50.6268" y2="10.8161" gradientUnits="userSpaceOnUse">
<stop stop-color="#27040A"/>
<stop offset="0.18" stop-color="#680314"/>
<stop offset="1" stop-color="#C4081F"/>
</linearGradient>
<linearGradient id="paint6_linear_1038_5531" x1="32.5653" y1="31.8116" x2="61.1821" y2="31.8116" gradientUnits="userSpaceOnUse">
<stop stop-color="#C4081F"/>
<stop offset="0.31" stop-color="#680916"/>
<stop offset="1" stop-color="#1F0609"/>
</linearGradient>
<linearGradient id="paint7_linear_1038_5531" x1="45.1562" y1="53.7575" x2="29.4779" y2="24.905" gradientUnits="userSpaceOnUse">
<stop stop-color="#27040A"/>
<stop offset="0.39" stop-color="#680314"/>
<stop offset="1" stop-color="#C4081F"/>
</linearGradient>
<linearGradient id="paint8_linear_1038_5531" x1="2.2025" y1="45.2572" x2="31.0246" y2="45.2572" gradientUnits="userSpaceOnUse">
<stop stop-color="#27040A"/>
<stop offset="0.18" stop-color="#680314"/>
<stop offset="1" stop-color="#C4081F"/>
</linearGradient>
<linearGradient id="paint9_linear_1038_5531" x1="-1.8603" y1="33.7363" x2="12.3075" y2="33.7363" gradientUnits="userSpaceOnUse">
<stop offset="0.1755" stop-color="#680314"/>
<stop offset="1" stop-color="#C4081F"/>
</linearGradient>
<linearGradient id="paint10_linear_1038_5531" x1="23.6232" y1="30.0139" x2="31.0451" y2="30.0139" gradientUnits="userSpaceOnUse">
<stop stop-color="#27040A"/>
<stop offset="0.39" stop-color="#680314"/>
<stop offset="1" stop-color="#C4081F"/>
</linearGradient>
<linearGradient id="paint11_linear_1038_5531" x1="14.1331" y1="31.8994" x2="30.0931" y2="31.8994" gradientUnits="userSpaceOnUse">
<stop stop-color="#C4081F"/>
<stop offset="0.38" stop-color="#C4081F"/>
<stop offset="1" stop-color="#C4081F"/>
</linearGradient>
<clipPath id="clip0_1038_5531">
<rect width="165.441" height="50" fill="white" transform="translate(0.443359 0.5)"/>
</clipPath>
</defs>
</svg>
