<svg width="430" height="416" viewBox="0 0 430 416" fill="none" xmlns="http://www.w3.org/2000/svg">
<path d="M422 208C422 194.668 420.74 181.631 418.332 169C400.09 73.3221 315.991 1 215 1C136.945 1 68.9801 44.2025 33.7135 108C17.3271 137.643 8 171.732 8 208M388 321.708C350.987 377.908 287.325 415 215 415C165.136 415 119.389 397.369 83.6551 368" stroke="url(#paint0_linear_402_39)" stroke-width="2"/>
<path d="M208 48C194.74 48 181.848 49.5736 169.5 52.5443C97.5007 69.8658 44 134.685 44 212C44 256.547 61.7607 296.945 90.5872 326.5" stroke="white" stroke-width="2"/>
<path d="M368 213C368 225.907 366.128 238.391 362.633 250.212C345.939 306.674 292.206 348 228.5 348C163.499 348 108.881 304.976 93.3949 246.75C90.5259 235.963 89 224.654 89 213" stroke="url(#paint1_linear_402_39)" stroke-width="2"/>
<path d="M228 98C238.799 98 249.213 99.654 259 102.723C301.017 115.896 331.5 155.138 331.5 201.5C331.5 243.124 306.929 279.009 271.5 295.442" stroke="url(#paint2_linear_402_39)" stroke-width="2"/>
<circle cx="94" cy="330" r="8" fill="#E0E0E0"/>
<circle cx="8" cy="216" r="8" fill="#E8E8E8"/>
<circle cx="8" cy="216" r="4" fill="#2B6CFE"/>
<circle cx="94" cy="330" r="4" fill="#2B6CFE"/>
<circle cx="208" cy="48" r="8" fill="#EAEAEA"/>
<circle cx="422" cy="216" r="8" fill="#E6E3E3"/>
<circle cx="368" cy="208" r="8" fill="#FBFBFB"/>
<circle cx="268" cy="299" r="8" fill="#EFEFEF"/>
<circle cx="387" cy="322" r="8" fill="#EAEAEA"/>
<circle cx="268" cy="299" r="4" fill="#FEA700"/>
<circle cx="422" cy="216" r="4" fill="#FEA700"/>
<circle cx="208" cy="48" r="4" fill="#FEA700"/>
<circle cx="368" cy="208" r="4" fill="#2B6CFE"/>
<circle cx="387" cy="322" r="4" fill="#2B6CFE"/>
<defs>
<linearGradient id="paint0_linear_402_39" x1="215" y1="1" x2="215" y2="415" gradientUnits="userSpaceOnUse">
<stop stop-color="white"/>
<stop offset="1" stop-color="white" stop-opacity="0"/>
</linearGradient>
<linearGradient id="paint1_linear_402_39" x1="228.5" y1="213" x2="228.5" y2="348" gradientUnits="userSpaceOnUse">
<stop stop-color="white"/>
<stop offset="1" stop-color="white" stop-opacity="0"/>
</linearGradient>
<linearGradient id="paint2_linear_402_39" x1="279.75" y1="98" x2="279.75" y2="295.442" gradientUnits="userSpaceOnUse">
<stop stop-color="white"/>
<stop offset="1" stop-color="white" stop-opacity="0"/>
</linearGradient>
</defs>
</svg>
