<svg width="20" height="25" viewBox="0 0 20 25" fill="none" xmlns="http://www.w3.org/2000/svg">
<path fill-rule="evenodd" clip-rule="evenodd" d="M17.8033 4.16895C19.1775 5.8725 19.9998 8.03555 19.9998 10.3898C19.9998 15.3635 16.3311 19.4847 11.5391 20.2213V17.2247C14.6864 16.5262 17.0391 13.7315 17.0391 10.3898C17.0391 9.09288 16.6845 7.87847 16.0668 6.83684L16.0344 6.78286L17.9716 4.38352C17.9165 4.31119 17.8603 4.23968 17.8033 4.16895Z" fill="#032A6A"/>
<path fill-rule="evenodd" clip-rule="evenodd" d="M2.21723 4.17871C0.842993 5.88227 0.0206852 8.04532 0.0206852 10.3996C0.0206852 14.4035 2.39826 17.855 5.82542 19.433C6.65548 19.8151 7.54711 20.0874 8.48145 20.231V17.2344C8.23625 17.18 7.99587 17.1129 7.76106 17.0337C4.98183 16.0972 2.9814 13.481 2.9814 10.3996C2.9814 9.10265 3.33605 7.88823 3.95366 6.84661L3.98614 6.79262L2.04889 4.39328C2.10401 4.32096 2.16017 4.24945 2.21723 4.17871Z" fill="#032A6A"/>
<path fill-rule="evenodd" clip-rule="evenodd" d="M7.39258 21.9365H19.0448V24.9993H8.978L7.39258 21.9365Z" fill="#032A6A"/>
<path fill-rule="evenodd" clip-rule="evenodd" d="M10.0005 0.441406C13.2552 0.441406 16.1462 1.9887 17.9723 4.38385L16.0355 6.78363C14.804 4.74843 12.5622 3.38696 10.0005 3.38696C6.11285 3.38696 2.96128 6.52239 2.96128 10.3901C2.96128 13.48 4.97288 16.102 7.76419 17.0318L5.8265 19.4326V19.4326L5.99093 19.2288L0.255553 8.14852L0.253906 8.15565C1.27326 3.73723 5.24998 0.441406 10.0005 0.441406Z" fill="#3B71AF"/>
<path fill-rule="evenodd" clip-rule="evenodd" d="M0.955078 21.9365H7.39209L8.97744 24.9993H0.955078V21.9365Z" fill="#3B71AF"/>
<path fill-rule="evenodd" clip-rule="evenodd" d="M5.82595 19.4324C2.38754 17.8589 0 14.4021 0 10.39C0 9.61921 0.0881907 8.86889 0.254923 8.14844L5.99035 19.2287L5.82595 19.4324Z" fill="#7FC3FC"/>
</svg>
