<svg width="80" height="80" viewBox="0 0 80 80" fill="none" xmlns="http://www.w3.org/2000/svg">
<g clip-path="url(#clip0_465_161)">
<path d="M67.3417 8.55722C67.3417 8.88539 67.2015 9.93554 67.0613 10.8544C66.7809 12.2656 66.8744 12.5938 67.4352 12.5938C67.9492 12.5938 68.2296 12.1015 68.4633 11.0842C68.9306 8.68848 68.8372 7.99932 68.0427 7.99932C67.6688 7.99932 67.3417 8.26186 67.3417 8.55722Z" fill="black"/>
<path d="M58.6458 11.3093C58.8616 11.4907 59.462 12.1784 59.9761 12.7936C60.7238 13.7881 60.9997 13.898 61.3605 13.4686C61.6912 13.0751 61.5479 12.5884 61.0292 11.8472C59.7543 10.1654 59.241 9.85611 58.7299 10.4643C58.4893 10.7505 58.4515 11.1461 58.6458 11.3093Z" fill="black"/>
<path d="M75.2337 12.9321C75.07 13.2155 74.425 14.0523 73.8455 14.7757C72.8991 15.8541 72.8164 16.1843 73.3021 16.4647C73.7473 16.7217 74.2355 16.4368 74.9451 15.6751C76.5443 13.8399 76.8069 13.1981 76.1189 12.8008C75.7951 12.6139 75.3809 12.6771 75.2337 12.9321Z" fill="black"/>
<path d="M64.5008 15.5245C61.6012 16.178 60.0902 18.0157 59.6409 21.4054C59.2734 23.9375 60.131 27.1229 61.7646 29.2466C62.5814 30.2676 63.1531 31.5336 63.1531 32.187C63.1531 32.7996 63.5207 33.9023 63.9699 34.5965C65.6035 37.3328 69.279 35.7809 69.279 32.3912C69.279 31.3702 69.6874 30.5126 70.6676 29.3283C72.3011 27.4088 73.3629 24.6726 73.3629 22.263C73.3629 20.0986 71.8519 17.1581 70.3 16.3005C68.7889 15.4429 66.2161 15.1162 64.5008 15.5245ZM69.524 17.8644C71.9616 19.9445 72.6687 24.6717 69.279 28.674C67.9313 30.2667 67.6454 30.5943 67.6454 29.2466C67.6454 27.9806 68.4622 25.7344 68.9115 25.7344C69.1157 25.7344 69.279 25.4077 69.279 25.0401C69.279 24.5092 68.6536 24.1714 68.2861 24.539C67.4284 25.3966 67.2038 25.56 67.3672 24.539C67.4488 23.8855 66.9792 23.2423 66.4483 23.1606C65.7949 23.0381 65.5218 23.3657 65.7668 24.2233C66.0527 25.4485 65.6417 26.0194 65.07 24.9984C64.8658 24.6309 64.3553 24.0795 64.1511 24.0795C63.5385 24.0795 63.4798 25.3668 64.1333 25.8977C64.46 26.1428 64.8275 27.2455 64.9909 28.3073C65.2359 30.1042 65.3048 29.7154 64.6105 29.5928C63.5895 29.3886 61.7211 26.4993 61.3944 24.539C60.9452 21.8844 61.6584 19.2476 63.4594 18.0974C64.6105 17.3623 66.2161 17.3623 66.2161 17.3623C66.2161 17.3623 68.9115 17.3416 69.524 17.8644ZM67.3672 27.2956C66.9588 29.6235 67.02 30.0523 66.4483 30.0523C66.1216 30.0523 65.9302 29.32 65.7668 28.1357C65.5626 26.6247 65.4579 26.3257 65.9888 25.9173C66.9077 25.9173 67.653 25.6212 67.3672 27.2956ZM68.0538 31.4519C68.0538 31.6561 67.237 31.8603 66.2161 31.8603C65.1951 31.8603 64.3783 31.6561 64.3783 31.4519C64.3783 31.2069 65.1951 31.0435 66.2161 31.0435C67.237 31.0435 68.0538 31.2069 68.0538 31.4519ZM67.8496 33.0855C67.7271 33.2897 66.992 33.4939 66.2161 33.4939C65.4401 33.4939 64.705 33.2897 64.5825 33.0855C64.4191 32.8404 65.0726 32.6771 66.2161 32.6771C67.3596 32.6771 68.013 32.8404 67.8496 33.0855ZM67.237 34.3107C67.237 34.5149 66.7878 34.7191 66.2161 34.7191C65.6443 34.7191 65.1951 34.5149 65.1951 34.3107C65.1951 34.0656 65.6443 33.9023 66.2161 33.9023C66.7878 33.9023 67.237 34.0656 67.237 34.3107Z" fill="black"/>
<path d="M74.3362 22.0576C74.054 22.8704 74.4617 23.0736 76.751 23.48C78.1937 23.734 78.8522 23.6324 78.8522 23.2768C78.8522 22.464 78.57 22.3116 76.4688 21.9052C75.2457 21.702 74.4617 21.7528 74.3362 22.0576Z" fill="black"/>
<path fill-rule="evenodd" clip-rule="evenodd" d="M22.5752 8.22722C22.101 8.67851 21.5847 9.57567 21.1329 10.9903C20.6845 12.3942 20.3412 14.1739 20.1327 16.2193C19.9725 17.7913 19.8938 19.502 19.9041 21.2937L28.0385 14.6098C29.1948 13.6597 30.8505 13.622 32.0488 14.5186L44.0767 23.5179C44.0652 23.4348 44.0546 23.3531 44.0448 23.273C43.9306 22.3324 43.9256 21.5138 44.0855 20.8507C44.2497 20.1699 44.6478 19.4578 45.4629 19.1637C46.1917 18.9009 46.9085 19.1094 47.4032 19.3306C48.4144 19.7826 49.5108 20.749 50.4551 21.7222C50.5936 21.8649 50.7315 22.0106 50.8682 22.1583C50.8496 19.5074 50.7292 16.661 50.5088 13.6156C46.1277 5.67038 40.6264 3.25498 35.6093 3.25001C30.4302 3.24488 25.5189 5.81112 22.5752 8.22722ZM50.8191 25.996C50.2022 25.1777 49.4372 24.2631 48.6609 23.4631C47.7937 22.5694 47.02 21.9325 46.4795 21.659C46.4508 21.9313 46.4514 22.3528 46.5266 22.9716C46.6242 23.7751 46.8367 24.831 47.2011 26.1897L48.1364 29.6778L30.5511 16.5204C30.2746 16.3134 29.8925 16.3221 29.6256 16.5414L20.0111 24.4415C20.1293 26.36 20.3464 28.3295 20.6707 30.2873C21.4925 35.2485 22.9889 40.0513 25.2398 43.7425C27.4675 47.3957 30.3547 49.8434 33.9728 50.4565C37.4144 50.4422 40.2076 49.6958 42.4558 48.2773C44.7229 46.847 46.5298 44.6741 47.8843 41.6635C49.6272 37.7895 50.5937 32.5906 50.8191 25.996ZM46.173 21.5414L46.1748 21.5416L46.173 21.5414ZM35.6117 0.750009C41.6999 0.75604 48.0495 3.81828 52.835 12.6591L52.9625 12.8947L52.9823 13.1618C53.9422 26.1304 53.1697 36.009 50.1642 42.6892C49.9177 43.237 49.6558 43.7642 49.3782 44.2706L49.5764 47.7884C49.7883 48.5509 50.1022 49.24 50.4944 49.8693C51.4508 51.4033 52.9225 52.6588 54.712 53.7312C56.5011 54.8034 58.5436 55.6551 60.5774 56.4134C61.3054 56.6848 62.047 56.9491 62.7741 57.2083C64.0231 57.6535 65.2295 58.0835 66.2512 58.5082C67.8645 59.1788 69.0326 60.4624 69.8715 61.9545C70.7089 63.444 71.2617 65.2143 71.6223 67.0071C72.3431 70.5912 72.3405 74.495 72.1206 77.0089L72.0211 78.146L41.5238 78.25L31.32 78.1499H0.517396L0.283073 77.199C-0.300373 74.8313 -0.503762 71.1669 0.182905 67.6436C0.865398 64.1417 2.48715 60.5001 5.81293 58.5799L5.92589 58.5147L6.04987 58.4742C14.9103 55.5804 19.5224 52.7302 21.733 50.4683C22.3649 49.8217 22.7831 49.2484 23.0517 48.7499V44.9557C20.6083 40.9121 19.051 35.8076 18.2043 30.6958C17.3499 25.5378 17.2051 20.2883 17.6456 15.9658C17.8658 13.8055 18.2353 11.8456 18.7514 10.2297C19.2566 8.64776 19.947 7.25123 20.902 6.36908L20.9279 6.34512L20.9552 6.32267C24.1822 3.66309 29.6543 0.744108 35.6117 0.750009ZM25.5517 49.2879C25.6483 49.0565 25.7285 48.8277 25.793 48.6023C27.9186 50.8464 30.5263 52.4377 33.6746 52.941L33.7727 52.9567H33.872C37.721 52.9567 41.0358 52.1292 43.7898 50.3916C44.9737 49.6447 46.0365 48.7406 46.9841 47.6851C47.0172 47.852 47.0541 48.0169 47.0945 48.1797L47.2642 51.1909L36.4235 61.2705L25.5517 51.1621V49.2879ZM23.2762 52.4601C22.3771 53.3369 21.2177 54.2458 19.7469 55.1739L29.5471 67.7542L34.5956 62.9846L23.2762 52.4601ZM36.46 64.6625L33.4953 67.4634L36.4239 68.8813L39.5718 67.3571L36.46 64.6625ZM41.6292 69.1386L40.4974 69.6866L42.4389 75.7469L69.7068 75.6539C69.8199 73.3568 69.7338 70.2964 69.1714 67.5C68.8408 65.8564 68.3568 64.3616 67.6923 63.1798C67.0293 62.0006 66.2302 61.2069 65.2916 60.8167C64.3195 60.4126 63.2291 60.0245 62.0351 59.5994C61.2965 59.3365 60.5184 59.0595 59.7041 58.7559C57.6288 57.9821 55.4152 57.0672 53.4269 55.8756C51.9399 54.9845 50.5429 53.9177 49.4148 52.605L38.2948 62.9443L43.807 67.7174L51.9595 55.0096L54.0637 56.3595L44.3525 71.4969L41.6292 69.1386ZM39.8093 75.7331L38.2247 70.787L36.4239 71.6589L34.6182 70.7847L33.0343 75.6667L39.8093 75.7331ZM30.4114 75.6499L32.3468 69.6849L31.5515 69.2998L29.2649 71.4601L17.5741 56.4527L17.6535 56.3909C14.9475 57.8473 11.4444 59.3357 6.95567 60.8082C4.60616 62.2229 3.24989 64.9757 2.63674 68.1218C2.10812 70.8342 2.1753 73.6378 2.51547 75.6499H30.4114Z" fill="black"/>
</g>
<defs>
<clipPath id="clip0_465_161">
<rect width="80" height="80" fill="white"/>
</clipPath>
</defs>
</svg>
