<svg width="80" height="80" viewBox="0 0 80 80" fill="none" xmlns="http://www.w3.org/2000/svg">
<path d="M12.7022 0.281166C11.296 0.781166 10.2491 1.78117 9.74909 3.14054C9.54596 3.68742 9.46784 4.59367 9.40534 7.43742L9.34284 11.0468L8.37409 11.1562C7.09284 11.2812 5.95221 11.8749 5.04596 12.8749C4.12409 13.8749 3.74909 14.8749 3.74909 16.2812C3.74909 18.9843 5.71784 21.1562 8.37409 21.3749L9.37409 21.453V26.1874V30.9374H8.90534C7.31159 30.9374 5.45221 31.9218 4.57721 33.2343C2.37409 36.5155 4.45221 40.8905 8.35846 41.2187L9.37409 41.2968V46.0155V50.7343L8.56159 50.8437C6.43659 51.1093 4.93659 52.1562 4.13971 53.9218C3.74909 54.7968 3.71784 55.0155 3.78034 56.2343C3.85846 57.8593 4.21784 58.6562 5.34284 59.7187C6.23346 60.578 7.46784 61.0937 8.57721 61.0937H9.34284L9.40534 64.7968C9.46784 68.3905 9.48346 68.5468 9.85846 69.3905C10.3585 70.453 11.2178 71.328 12.2647 71.8124L13.046 72.1874H29.7022H46.3428L47.4366 73.6249C52.6241 80.5155 62.546 81.9999 69.6085 76.953C70.7647 76.1405 72.8585 73.9687 73.6085 72.8124C77.2335 67.2968 77.2178 60.4218 73.5616 54.8437C72.7178 53.5468 70.5147 51.3437 69.2178 50.4999C68.6553 50.1249 67.7335 49.6093 67.1553 49.328L66.0928 48.828L66.0616 26.2499L66.0147 3.67179L65.6553 2.89054C65.2022 1.90617 64.3585 1.03117 63.3585 0.499916L62.5772 0.0780411L38.046 0.0467911C14.8116 0.0155411 13.4678 0.0155411 12.7022 0.281166ZM20.6241 36.0937V69.6874H17.1085C13.2022 69.6874 12.9053 69.6249 12.3428 68.703C12.0616 68.2499 12.0303 67.8905 12.0303 64.6405V61.0937H12.9678C15.0147 61.0937 16.9366 59.7812 17.6397 57.8905C18.1241 56.6093 18.046 54.8124 17.4678 53.6718C16.6397 52.0624 15.0303 51.0312 13.0928 50.8437L12.0303 50.7343V46.0155V41.2968L13.1866 41.2187C16.9522 40.9687 19.1397 37.203 17.4835 33.8124C16.7335 32.2499 15.0772 31.1718 13.171 30.9999L12.0303 30.8905V26.1718V21.453L13.1866 21.3749C14.1241 21.3124 14.5147 21.203 15.3272 20.7499C17.0772 19.7968 17.9678 18.2499 17.9678 16.1874C17.9678 14.7655 17.4053 13.4999 16.3428 12.5312C15.3897 11.6405 14.4678 11.2499 13.1241 11.1405L12.0303 11.0468V7.49992C12.0303 4.09367 12.046 3.93742 12.3741 3.51554C13.1397 2.54679 13.3428 2.49992 17.1553 2.49992H20.6241V36.0937ZM62.3428 2.78117C62.6866 2.96867 63.0303 3.32804 63.2491 3.74992L63.5928 4.43742V26.2812V48.1093L63.0928 47.9999C62.8116 47.9374 61.4522 47.8905 60.0772 47.8905C57.1553 47.9062 55.8428 48.1874 53.4991 49.2812C47.9991 51.8905 44.6553 56.7499 44.1397 62.8905C43.9991 64.6874 44.4366 67.7187 45.0772 69.4062C45.1866 69.6718 44.5928 69.6874 34.1553 69.6874H23.1241V36.0937V2.49992H42.4678C60.8741 2.49992 61.8272 2.51554 62.3428 2.78117ZM13.921 13.8437C14.8897 14.2499 15.4678 15.1249 15.4678 16.2499C15.4678 17.2343 15.1241 17.9062 14.3272 18.4999C13.9053 18.8124 13.6866 18.828 10.8585 18.828C8.04596 18.828 7.81159 18.8124 7.40534 18.4999C6.45221 17.7968 6.06159 16.8437 6.26471 15.7187C6.40534 14.9062 6.82721 14.3593 7.65534 13.9374C8.28034 13.6249 8.56159 13.5937 10.8116 13.5937C12.7335 13.5937 13.421 13.6562 13.921 13.8437ZM13.671 33.6093C14.9678 33.9687 15.8116 35.4374 15.4678 36.7187C15.2803 37.4374 14.671 38.203 14.046 38.5155C13.421 38.8437 8.29596 38.8437 7.68659 38.5312C5.59284 37.4374 5.71784 34.4374 7.88971 33.6718C8.65534 33.4062 12.7491 33.3593 13.671 33.6093ZM59.0303 50.8905C58.546 52.6562 59.796 54.0624 60.9991 53.1093C61.4053 52.7812 61.421 52.7187 61.3741 51.5312L61.3272 50.2812L62.0303 50.3905C64.1397 50.6874 66.4991 51.6093 68.171 52.8124L69.0772 53.4687L68.4678 53.8905C67.2491 54.7812 66.9522 55.8437 67.7178 56.5155C67.9522 56.703 68.3116 56.8749 68.5303 56.8749C68.9522 56.8749 70.2647 55.7655 70.4678 55.2499C70.5616 54.9999 70.6866 55.1093 71.3116 55.9687C71.7022 56.5468 72.2803 57.5312 72.5772 58.1718C73.1085 59.3437 73.7491 61.578 73.7491 62.3437C73.7491 62.7343 73.7335 62.7343 72.7178 62.6874C71.4991 62.6249 71.0147 62.8124 70.796 63.4687C70.5928 64.0312 70.796 64.578 71.3272 64.9374C71.6241 65.1249 71.9678 65.1718 72.7491 65.1249L73.7803 65.0624L73.6866 65.9218C73.4678 67.7812 72.1866 70.7655 71.0147 72.1562L70.6241 72.6249L69.8116 71.7812C68.9053 70.828 68.3272 70.6874 67.7022 71.2812C67.1085 71.8437 67.2022 72.5937 67.9991 73.3905C68.3585 73.7655 68.7491 74.0624 68.8585 74.0624C69.2335 74.0624 69.0616 74.2968 68.2335 74.8905C66.546 76.1249 64.0928 77.0937 61.8741 77.3905L61.3272 77.4687L61.3741 76.2968C61.421 75.2499 61.3897 75.078 61.0772 74.7499C60.6397 74.2812 59.8741 74.2499 59.421 74.6874C59.0147 75.0624 58.8272 76.1562 59.0303 76.9218L59.1866 77.4687L58.6085 77.3905C56.3741 77.0937 53.8897 76.1093 52.2178 74.8905C51.4053 74.2968 51.2335 74.0624 51.6085 74.0624C51.7178 74.0624 52.1085 73.7655 52.4678 73.3905C53.2335 72.6093 53.3428 71.9062 52.7803 71.2968C52.2178 70.703 51.5303 70.8124 50.7022 71.6405C50.3116 72.0155 49.9991 72.4062 49.9991 72.4999C49.9991 72.8749 49.7022 72.578 48.9366 71.4218C47.9835 69.9843 47.3272 68.4687 46.9678 66.9062C46.546 65.0468 46.5303 65.0624 47.7803 65.1249C48.671 65.1718 48.8897 65.1405 49.2647 64.8437C49.8272 64.3905 49.8585 63.4999 49.3116 62.9843C48.9835 62.6718 48.796 62.6405 47.8116 62.6874L46.6866 62.7343L46.796 61.828C46.9991 59.9843 47.9053 57.7499 49.1866 55.953C49.7803 55.1093 49.9053 54.9999 49.9991 55.2499C50.1866 55.7499 51.5147 56.8749 51.921 56.8749C52.5772 56.8749 53.1241 56.3124 53.1241 55.6405C53.1241 55.1249 53.0147 54.9374 52.2803 54.2499L51.4366 53.4374L52.1553 52.9218C54.0928 51.5155 56.9678 50.3905 58.7803 50.328C59.1866 50.3124 59.1866 50.328 59.0303 50.8905ZM14.3272 53.7812C15.921 54.828 15.8741 57.1405 14.2335 58.2343C13.7335 58.578 13.5616 58.5937 10.8585 58.5937C8.17096 58.5937 7.98346 58.578 7.49909 58.2343C6.45221 57.5312 6.04596 56.5468 6.29596 55.3437C6.45221 54.5624 7.24909 53.6718 8.01471 53.453C8.28034 53.3593 9.68659 53.3124 11.1085 53.328C13.6241 53.3593 13.7178 53.3749 14.3272 53.7812Z" fill="black"/>
<path d="M33.5156 13.125L30.6875 15.9375L29.375 14.6094C28.2812 13.5156 27.9688 13.2812 27.5625 13.2812C26.9219 13.2812 26.4062 13.8438 26.4062 14.5469C26.4062 15.0469 26.5938 15.2812 28.3281 17C30.0312 18.6875 30.3281 18.9062 30.7969 18.9062C31.2656 18.9062 31.625 18.5938 34.7188 15.5C37.875 12.3438 38.125 12.0625 38.125 11.5469C38.125 10.8281 37.6094 10.3125 36.875 10.3125C36.4062 10.3125 36.0625 10.5938 33.5156 13.125Z" fill="black"/>
<path d="M41.0919 12.5C40.6544 12.9375 40.67 13.9062 41.1075 14.3125C41.4044 14.5781 41.7169 14.6094 44.8732 14.6094C48.295 14.6094 48.3107 14.6094 48.6075 14.2344C49.0138 13.7344 48.9982 12.9062 48.5607 12.5C48.2325 12.2031 48.0294 12.1875 44.8107 12.1875C41.6075 12.1875 41.3888 12.2031 41.0919 12.5Z" fill="black"/>
<path d="M41.4686 16.7812C40.7186 17.1094 40.5155 18.1719 41.0936 18.75C41.4061 19.0625 41.6092 19.0625 50.4842 19.0625C56.0936 19.0625 59.6561 19 59.8436 18.9062C60.6405 18.4688 60.4374 17.0625 59.5311 16.7344C58.7342 16.4688 42.1092 16.5 41.4686 16.7812Z" fill="black"/>
<path d="M36.5625 22.2969C36.4375 22.3438 35.0781 23.625 33.5625 25.125L30.7812 27.8906L29.5781 26.6875C28.1719 25.3125 27.7812 25.0938 27.0938 25.3906C26.5625 25.6094 26.4062 25.875 26.4062 26.5938C26.4062 27 26.6875 27.3594 28.0938 28.7812C29.75 30.4688 30.3438 30.9375 30.875 30.9375C31.0312 30.9375 32.7188 29.375 34.6406 27.4688C37.4688 24.6562 38.125 23.9062 38.125 23.5781C38.125 22.9375 37.9688 22.6719 37.4844 22.4219C37.0156 22.1719 36.9375 22.1562 36.5625 22.2969Z" fill="black"/>
<path d="M41.5613 24.1719C40.7176 24.5 40.4832 25.6406 41.1238 26.25C41.452 26.5469 41.6551 26.5625 44.8426 26.5625C48.1707 26.5625 48.2332 26.5625 48.5613 26.2031C49.0145 25.7188 49.0145 24.8438 48.577 24.4375C48.2801 24.1719 47.952 24.1406 45.0145 24.1094C43.2488 24.0938 41.6863 24.125 41.5613 24.1719Z" fill="black"/>
<path d="M41.1875 28.9219C40.6094 29.375 40.6094 30.3125 41.1875 30.7656C41.5938 31.0938 41.7344 31.0938 50.5625 31.0938H59.5156L59.9375 30.7344C60.5156 30.2188 60.5156 29.4688 59.9375 28.9531L59.5156 28.5938H50.5625C41.7344 28.5938 41.5938 28.5938 41.1875 28.9219Z" fill="black"/>
<path d="M33.5312 37.0312L30.7031 39.8281L29.3594 38.5156C27.8906 37.0781 27.5469 36.9375 26.8125 37.5156C26.5 37.75 26.4062 37.9688 26.4062 38.4062C26.4062 38.9375 26.5625 39.1406 28.3281 40.9062C30.0312 42.6094 30.2969 42.8125 30.7812 42.8125C31.2812 42.8125 31.5938 42.5312 34.7188 39.4062C37.7656 36.3594 38.125 35.9531 38.125 35.5C38.125 34.8125 37.5312 34.2188 36.8594 34.2188C36.4219 34.2188 36.0156 34.5625 33.5312 37.0312Z" fill="black"/>
<path d="M41.1238 36.4531C40.6238 36.9844 40.6551 37.8438 41.1863 38.2656C41.577 38.5781 41.7957 38.5938 44.8426 38.5938C47.8895 38.5938 48.1082 38.5781 48.4988 38.2656C49.0457 37.8438 49.0613 36.9219 48.5457 36.4375C48.202 36.1094 48.0613 36.0938 44.827 36.0938C41.5145 36.0938 41.452 36.0938 41.1238 36.4531Z" fill="black"/>
<path d="M41.0928 40.9375C40.7647 41.2656 40.6866 42.0156 40.9366 42.5C41.0147 42.6562 41.3116 42.8593 41.5772 42.9531C42.2803 43.2031 58.8272 43.1875 59.5303 42.9531C60.4366 42.625 60.6397 41.2187 59.8428 40.7812C59.6553 40.6875 56.0928 40.625 50.4834 40.625C41.6084 40.625 41.4053 40.625 41.0928 40.9375Z" fill="black"/>
<path d="M59.3591 54.3124C58.9841 54.7031 58.9841 54.7499 58.9372 58.2499L58.8903 61.7968L58.4685 62.2343L58.0622 62.6562H55.281C52.5153 62.6562 52.4841 62.6562 52.1091 63.0468C51.6403 63.4999 51.6091 64.2031 52.0153 64.7031C52.3122 65.0624 52.3903 65.0781 55.1716 65.1249L58.031 65.1718L58.5466 65.6249C60.1716 67.0624 62.656 66.0468 62.656 63.9374C62.656 63.1718 62.3903 62.5937 61.8122 62.0468L61.406 61.6718V58.1093V54.5468L60.9997 54.2343C60.4372 53.7812 59.8278 53.8124 59.3591 54.3124Z" fill="black"/>
</svg>
