<svg width="80" height="80" viewBox="0 0 80 80" fill="none" xmlns="http://www.w3.org/2000/svg">
<path fill-rule="evenodd" clip-rule="evenodd" d="M31.875 7.96875C24.0156 11.75 17.5625 14.8438 17.5469 14.8438C17.5156 14.8438 17.5 14.3125 17.5 13.6719V12.5H16.25H15V23.125V33.7344L16.3281 33.7812L17.6406 33.8281L15.3906 37.4375L12.5 41.5L7.34375 33.8438C7.34375 33.7969 7.9375 33.75 8.67188 33.75H10V20.625V7.5H8.75H7.5V19.375V31.25H5.15625C3.875 31.25 2.8125 31.2812 2.8125 31.3281C2.8125 31.375 4.1875 33.6094 5.85938 36.2812L12.5 45.5L19.125 36.1719L22.1562 31.3281L19.8281 31.2812L17.5 31.2344V27.5V23.75H45.625H73.75V50V76.25H72.5H71.25V53.75V31.25H61.25H51.25V30V28.75H40H28.75V43.75V58.75H26.25H1.25V60V78.75H38.75H76.25V51.25V23.75H77.5H78.75L78.7188 20.2031L78.6719 16.6562L62.5 8.89062C53.6094 4.60938 46.2969 1.10938 46.25 1.10938C46.2031 1.10938 39.7344 4.20312 31.875 7.96875ZM76.1719 18.2344L61.25 11.0781C53.0469 7.14062 46.2656 3.92188 46.1719 3.92188C46.0938 3.9375 39.625 7.01562 31.7969 10.7812L17.5781 17.625L17.5312 19.4375L17.4844 21.25H46.875H76.2656L76.2188 19.75L76.1719 18.2344ZM36.25 36.25V33.75V31.25H33.75H31.25V37.5V43.75H40H48.75V37.5V31.25H46.25H43.75V33.75V36.25H40H36.25ZM41.25 33.75V32.5V31.25H40H38.75V32.5V33.75H40H41.25ZM66.25 33.75H63.75H61.25H60H58.75H56.25H53.75H51.25V40V46.25H60H68.75V40V33.75H66.25ZM46.25 46.25H43.75H41.25H40H38.75H37.25H33.75H31.25V52.5V58.75H37.5H43.75V67.5V76.25H46.25H48.75V61.25V46.25H46.25ZM66.25 48.75H63.75H61.25H60H58.75H56.25H53.75H51.25V55V61.25H60H68.75V55V48.75H66.25ZM18.75 61.25H16.25H13.75H12.5H11.25H8.75H6.25H3.75V68.75V76.25H12.5H21.25V68.75V61.25H18.75ZM28.75 66.25V63.75V61.25H26.25H23.75V68.75V76.25H32.5H41.25V68.75V61.25H38.75H36.25V63.75V66.25H32.5H28.75ZM33.75 63.75V62.5V61.25H32.5H31.25V62.5V63.75H32.5H33.75ZM56.25 68.75V66.25V63.75H53.75H51.25V70V76.25H60H68.75V70V63.75H66.25H63.75V66.25V68.75H60H56.25ZM61.25 66.25V65V63.75H60H58.75V65V66.25H60H61.25Z" fill="black"/>
</svg>
