<svg width="80" height="80" viewBox="0 0 80 80" fill="none" xmlns="http://www.w3.org/2000/svg">
<path d="M55.4336 28.466C54.9455 28.9605 54.851 29.9188 55.2447 30.4598C55.6225 30.9853 56.4413 31.1862 57.1025 30.908C57.7638 30.6452 58 30.2743 58 29.486C58 28.636 57.3702 28.0332 56.5042 28.0332C56.0004 28.0332 55.7642 28.1259 55.4336 28.466Z" fill="black"/>
<path fill-rule="evenodd" clip-rule="evenodd" d="M12.3538 5L33.8435 64.4714C35.67 64.4275 38.3237 65.1509 40.4715 67.848L77.9177 55.05C78.5709 54.8267 79.2815 55.1753 79.5048 55.8285C79.728 56.4818 79.3795 57.1924 78.7262 57.4156L40.8385 70.3646C40.9467 70.835 41.0039 71.3249 41.0039 71.8281C41.0039 75.418 38.0938 78.3281 34.5039 78.3281C30.9141 78.3281 28.0039 75.418 28.0039 71.8281C28.0039 69.2343 29.5232 66.9953 31.7205 65.9526L10.6557 7.65709L1.35836 8.46556C0.670601 8.52537 0.0645791 8.01631 0.0047738 7.32855C-0.0550315 6.64079 0.454027 6.03476 1.14179 5.97496L12.3538 5ZM34.5039 75.8281C36.713 75.8281 38.5039 74.0373 38.5039 71.8281C38.5039 69.619 36.713 67.8281 34.5039 67.8281C32.2948 67.8281 30.5039 69.619 30.5039 71.8281C30.5039 74.0373 32.2948 75.8281 34.5039 75.8281ZM31.5474 26.9759L36.4495 25.2732L37.4807 28.2418C38.0696 29.9373 39.9215 30.8344 41.6171 30.2455L50.1188 27.2925C51.8144 26.7035 52.7115 24.8516 52.1226 23.156L51.0914 20.1874L56.4372 18.3306C57.7415 17.8776 59.166 18.5677 59.6191 19.8719L68.5712 45.6453C69.0243 46.9495 68.3342 48.3741 67.0299 48.8271L42.1401 57.4724C40.8358 57.9254 39.4113 57.2354 38.9582 55.9311L30.0061 30.1578C29.553 28.8535 30.2431 27.4289 31.5474 26.9759ZM49.761 23.9763L48.7298 21.0077L38.8111 24.4529L39.8423 27.4215C39.9782 27.8128 40.4055 28.0198 40.7968 27.8839L49.2986 24.9309C49.6898 24.795 49.8969 24.3676 49.761 23.9763ZM27.6445 30.9781C26.7384 28.3695 28.1186 25.5204 30.7271 24.6143L55.6169 15.969C58.2254 15.063 61.0746 16.4431 61.9807 19.0517L70.9328 44.825C71.8389 47.4335 70.4587 50.2827 67.8502 51.1887L42.9604 59.834C40.3518 60.7401 37.5027 59.3599 36.5966 56.7514L27.6445 30.9781Z" fill="black"/>
</svg>
