<svg width="80" height="80" viewBox="0 0 80 80" fill="none" xmlns="http://www.w3.org/2000/svg">
<path d="M7.28125 2.67188C6.3125 2.90625 4.89062 3.73438 4.20312 4.48438C3.85938 4.85938 3.34375 5.64062 3.07812 6.21875L2.57812 7.26562V40.0156V72.75L3.15625 73.9375C3.85938 75.3594 4.76562 76.2344 6.21875 76.9219L7.26562 77.4219L21.7656 77.4688L36.25 77.5V76.25V75H22.25C11.7031 75 8.07812 74.9531 7.59375 74.8125C6.73438 74.5625 5.4375 73.2656 5.1875 72.4062C5.04688 71.9062 5 66.5469 5 49.625V27.5H31.25H57.5V35V42.5H58.75H60L59.9688 24.875L59.9219 7.26562L59.4219 6.21875C58.7344 4.76562 57.8594 3.85938 56.4375 3.15625L55.25 2.57812L31.5781 2.54688C17.6094 2.53125 7.64062 2.59375 7.28125 2.67188ZM54.9062 5.1875C55.7656 5.4375 57.0625 6.73438 57.3125 7.59375C57.4531 8.0625 57.5 10.5 57.5 16.625V25H31.25H5V16.625C5 10.5 5.04688 8.0625 5.1875 7.59375C5.42188 6.79688 6.73438 5.45312 7.5 5.20312C8.32812 4.9375 54.0312 4.9375 54.9062 5.1875Z" fill="black"/>
<path d="M8.98524 7.71875C8.34461 8 7.68836 8.79687 7.57899 9.42187C7.53211 9.70312 7.50086 12.3906 7.53211 15.4219C7.57899 20.6875 7.59461 20.9375 7.90711 21.3437C8.07899 21.5781 8.42274 21.9219 8.65711 22.0937C9.07899 22.4219 9.11023 22.4219 31.2509 22.4219C53.3915 22.4219 53.4227 22.4219 53.8446 22.0937C54.079 21.9219 54.4227 21.5781 54.5946 21.3437C54.9071 20.9219 54.9227 20.7344 54.9227 15C54.9227 9.26562 54.9071 9.07812 54.5946 8.65625C54.4227 8.42187 54.079 8.07812 53.8446 7.90625C53.4227 7.57812 53.3602 7.57812 31.4384 7.54687C13.3915 7.51562 9.37586 7.54687 8.98524 7.71875ZM52.5009 15V20H31.2509H10.0009V15V10H31.2509H52.5009V15Z" fill="black"/>
<path d="M25 15V16H30H35V15V14H30H25V15Z" fill="black"/>
<path d="M8.98437 32.7188C8.34375 33 7.6875 33.7969 7.57812 34.4219C7.53125 34.7031 7.51563 42.4531 7.53125 51.6719C7.57812 68.2969 7.57812 68.4219 7.90625 68.8438C8.07812 69.0781 8.42187 69.4219 8.65625 69.5938C9.07812 69.9219 9.25 69.9219 20.1719 69.9688L31.25 70V68.75V67.5H28.125H25V60V52.5H28.125H31.25V51.25V50H28.125H25V42.5V35H31.25H37.5V38.75V42.5H38.75H40V38.75V35H46.25H52.5V38.125V41.25H53.7656H55.0156L54.9687 37.6719C54.9219 33.7344 54.9062 33.6875 53.8437 32.9062C53.4219 32.5781 53.3594 32.5781 31.4375 32.5469C13.3906 32.5156 9.375 32.5469 8.98437 32.7188ZM22.5 42.5V50H16.25H10V42.5V35H16.25H22.5V42.5ZM22.5 60V67.5H16.25H10V60V52.5H16.25H22.5V60Z" fill="black"/>
<path d="M15 40V41.25H13.75H12.5V42.5V43.75H13.75H15V45V46.25H16.25H17.5V45V43.75H18.75H20V42.5V41.25H18.75H17.5V40V38.75H16.25H15V40Z" fill="black"/>
<path d="M12.5 60V61.25H16.25H20V60V58.75H16.25H12.5V60Z" fill="black"/>
<path fill-rule="evenodd" clip-rule="evenodd" d="M45.8901 42.7344C39.5151 43.8125 34.2338 48.2812 32.1713 54.3125C29.0151 63.5781 33.9682 73.5 43.3276 76.6406C45.9526 77.5156 49.7807 77.7188 52.312 77.1094C53.2495 76.8906 57 75.5 57.7651 75L58.8901 74.2031C60.0932 73.3594 62.0307 71.5 62.6557 70.5781L63.0463 70L64.5776 67.5L65.0776 66.125C65.3588 65.375 65.6713 64.3438 65.7807 63.8281C66.0776 62.3438 66.187 61.7475 66.2963 60L66.187 58.6875C66.1245 57.9844 65.9526 56.8594 65.7963 56.1875L65.5151 55L64.5307 52.5L64.2026 51.8281C63.7182 50.9062 63.062 49.9531 61.9995 48.625L61.0776 47.5L57.5776 44.9219L56.2495 44.2656C53.0932 42.7188 49.3276 42.1562 45.8901 42.7344ZM59.312 49.4375C57.312 47.4375 55.0932 46.1562 52.3588 45.4531C50.7963 45.0469 47.6713 44.9219 46.1713 45.2188C42.8901 45.8594 40.3745 47.2188 38.0463 49.5938C36.0776 51.6094 34.9526 53.6094 34.2026 56.4063C33.7338 58.125 33.687 61.6719 34.1088 63.3438C34.8432 66.25 36.1088 68.4844 38.2807 70.625C40.3588 72.6875 42.562 73.9219 45.4057 74.6406C47.0776 75.0625 50.6245 75.0156 52.3432 74.5469C55.2651 73.7656 57.1713 72.6719 59.2963 70.5469C61.3901 68.4375 62.5307 66.4844 63.312 63.5938C63.812 61.75 63.812 58.3438 63.312 56.4531C62.5776 53.6406 61.3432 51.4531 59.312 49.4375Z" fill="black"/>
<path d="M47.5004 50V51.25H46.6254C45.266 51.25 44.5473 51.5312 43.6723 52.4219C42.6722 53.4062 42.5004 53.9844 42.5004 56.25C42.5004 58.5156 42.6722 59.0938 43.6723 60.0781C44.7348 61.1562 45.141 61.25 48.7348 61.25C51.7035 61.25 51.7348 61.25 52.1098 61.6406C52.4848 62 52.5004 62.125 52.5004 63.75C52.5004 65.375 52.4848 65.5 52.1098 65.8594C51.7348 66.25 51.7035 66.25 48.7504 66.25C45.7973 66.25 45.766 66.25 45.391 65.8594C45.1723 65.6562 45.0004 65.375 45.0004 65.2344C45.0004 65.0469 44.766 65 43.7504 65C42.3441 65 42.3441 65 42.6879 66.1562C42.9379 67.0156 44.2348 68.3125 45.0941 68.5625C45.4535 68.6719 46.141 68.75 46.6254 68.75H47.5004V70V71.25H48.7504H50.0004V70V68.75H50.9066C52.266 68.75 53.1566 68.3906 53.9535 67.5C54.8285 66.5312 55.0004 65.9062 55.0004 63.75C55.0004 61.4844 54.8285 60.9062 53.8285 59.9219C52.766 58.8438 52.3598 58.75 48.766 58.75C45.7973 58.75 45.766 58.75 45.391 58.3594C45.016 58 45.0004 57.875 45.0004 56.25C45.0004 54.625 45.016 54.5 45.391 54.1406C45.766 53.75 45.7973 53.75 48.7504 53.75C51.7035 53.75 51.7348 53.75 52.1098 54.1406C52.3285 54.3438 52.5004 54.625 52.5004 54.7656C52.5004 54.9531 52.7348 55 53.7504 55C55.141 55 55.1566 55 54.8129 53.875C54.7191 53.5312 54.3285 52.9062 53.9535 52.5C53.1566 51.6094 52.266 51.25 50.9066 51.25H50.0004V50V48.75H48.7504H47.5004V50Z" fill="black"/>
</svg>
