<svg width="80" height="80" viewBox="0 0 80 80" fill="none" xmlns="http://www.w3.org/2000/svg">
<path d="M9.45312 2.89062L9.0625 3.26562V20.9844V38.6875L7.89062 38.8594C5.64062 39.1875 4.10938 40.25 3.17188 42.1562L2.57812 43.3438V58.0469V72.75L3.15625 73.9375C3.85938 75.3594 4.76562 76.2344 6.21875 76.9219L7.26562 77.4219H40.0156H72.75L73.9375 76.8438C75.3594 76.1406 76.2344 75.2344 76.9219 73.7812L77.4219 72.7344V58.0312V43.3438L76.8281 42.1562C75.8906 40.25 74.3594 39.1875 72.1094 38.8594L70.9531 38.6875L70.9062 25.9531L70.8594 13.2031L70.375 12.1719C69.4531 10.2344 67.9062 9.20312 65.4062 8.85938L64.0625 8.6875V5.96875C64.0625 3.3125 64.0625 3.26562 63.6719 2.89062L63.2969 2.5H36.5625H9.82812L9.45312 2.89062ZM61.5625 6.875V8.75H46.9844C31.3281 8.75 31.5781 8.73438 29.9531 9.54688C29.0469 10 15.9375 23.1094 15.4844 24.0156C14.7344 25.5 14.6875 26.0781 14.6875 32.6094V38.75H13.125H11.5625V21.875V5H36.5625H61.5625V6.875ZM65.8438 11.4375C66.7031 11.6875 68 12.9844 68.25 13.8438C68.3906 14.3281 68.4375 17.5469 68.4375 26.625V38.75H65.4375C62.1875 38.7656 61.6719 38.8594 60.7031 39.5938C59.9375 40.1875 59.5938 40.9375 58.125 45.3906C57.1719 48.2969 56.75 49.3906 56.4688 49.6406L56.0781 50H40H23.9219L23.5312 49.6406C23.25 49.3906 22.8281 48.2969 21.875 45.3906C21.1562 43.2344 20.4062 41.1562 20.2031 40.7344C19.7812 39.875 18.8281 39.125 17.8594 38.875L17.1719 38.7031L17.2188 32.875C17.2656 27.0469 17.2656 27.0469 17.625 26.6875C17.9688 26.3281 18.0469 26.3281 22.625 26.25C26.9375 26.1719 27.3281 26.1406 28.125 25.8125C29.7188 25.1719 31.1094 23.7812 31.75 22.1875C32.0781 21.3906 32.1094 21 32.1875 16.7031C32.2656 11.7969 32.2812 11.7031 33.0469 11.4062C33.5781 11.1719 65.0938 11.2188 65.8438 11.4375ZM29.5312 20.9219C29.2969 21.7969 28.5469 22.7344 27.7031 23.2344L26.9531 23.6719L22.9688 23.7188L18.9844 23.7656L24.2969 18.4375L29.6094 13.125L29.6562 16.7344C29.6719 18.8281 29.625 20.5781 29.5312 20.9219ZM17.7188 41.5938C18 41.8594 18.4219 42.9531 19.375 45.8594C20.8438 50.3125 21.1875 51.0625 21.9531 51.6562C23.0938 52.5156 22.3594 52.4844 40 52.4844C57.6406 52.4844 56.9062 52.5156 58.0469 51.6562C58.8125 51.0625 59.1562 50.3125 60.625 45.8594C61.5781 42.9531 62 41.8594 62.2812 41.5938C62.6719 41.25 62.7188 41.25 67.2188 41.25C70.3281 41.25 71.9688 41.3125 72.4062 41.4375C73.2656 41.6875 74.5625 42.9844 74.8125 43.8438C75.0781 44.7656 75.0781 71.4844 74.8125 72.4062C74.5625 73.2656 73.2656 74.5625 72.4062 74.8125C71.4688 75.0938 8.53125 75.0938 7.59375 74.8125C6.73438 74.5625 5.4375 73.2656 5.1875 72.4062C4.92188 71.4844 4.92188 44.7656 5.1875 43.8438C5.42188 43.0469 6.73438 41.7031 7.5 41.4531C7.84375 41.3438 9.78125 41.2812 12.6875 41.2656C17.2969 41.25 17.3281 41.25 17.7188 41.5938Z" fill="black"/>
<path d="M36.6411 24.1406C35.8599 24.9062 36.4068 26.25 37.5005 26.25C38.1411 26.25 38.7505 25.6406 38.7505 25C38.7505 24.3594 38.1411 23.75 37.5005 23.75C37.2036 23.75 36.8755 23.8906 36.6411 24.1406Z" fill="black"/>
<path d="M41.6406 24.1406C41.3906 24.375 41.25 24.7031 41.25 25C41.25 25.2969 41.3906 25.625 41.6406 25.8594L42.0156 26.25H51.875H61.7344L62.1094 25.8594C62.3594 25.625 62.5 25.2969 62.5 25C62.5 24.7031 62.3594 24.375 62.1094 24.1406L61.7344 23.75H51.875H42.0156L41.6406 24.1406Z" fill="black"/>
<path d="M22.8906 32.8906C22.6406 33.125 22.5 33.4531 22.5 33.75C22.5 34.0469 22.6406 34.375 22.8906 34.6094L23.2656 35H42.5H61.7344L62.1094 34.6094C62.625 34.1094 62.625 33.3906 62.1094 32.8906L61.7344 32.5H42.5H23.2656L22.8906 32.8906Z" fill="black"/>
<path d="M25.3906 41.6406C25.1406 41.875 25 42.2031 25 42.5C25 42.7969 25.1406 43.125 25.3906 43.3594L25.7656 43.75H40.625H55.4844L55.8594 43.3594C56.375 42.8594 56.375 42.1406 55.8594 41.6406L55.4844 41.25H40.625H25.7656L25.3906 41.6406Z" fill="black"/>
<path d="M24.156 60.2502C23.0623 60.5939 21.8279 61.8595 21.4998 62.9689C20.9685 64.7345 21.3279 66.1877 22.5623 67.4377C23.9685 68.8283 22.8904 68.7502 39.9998 68.7502C57.1092 68.7502 56.031 68.8283 57.4373 67.4377C59.2029 65.6564 59.2029 63.0939 57.4373 61.3127C56.031 59.922 57.1248 60.0002 39.9373 60.0158C27.0623 60.0158 24.8123 60.0627 24.156 60.2502ZM55.656 63.0939C56.0935 63.5314 56.1717 63.7033 56.1717 64.3752C56.1717 65.047 56.0935 65.2189 55.656 65.6564L55.156 66.172H39.9998H24.8435L24.3435 65.6564C23.906 65.2189 23.8279 65.047 23.8279 64.3908C23.8279 63.5783 24.2342 62.9377 24.9217 62.6408C25.0935 62.5783 31.9685 62.5314 40.1873 62.547L55.156 62.5783L55.656 63.0939Z" fill="black"/>
</svg>
