<svg width="80" height="80" viewBox="0 0 80 80" fill="none" xmlns="http://www.w3.org/2000/svg">
<path d="M69.4336 58.466C68.9455 58.9605 68.851 59.9188 69.2447 60.4598C69.6225 60.9853 70.4413 61.1862 71.1025 60.908C71.7638 60.6452 72 60.2743 72 59.486C72 58.636 71.3702 58.0332 70.5042 58.0332C70.0004 58.0332 69.7642 58.1259 69.4336 58.466Z" fill="black"/>
<path fill-rule="evenodd" clip-rule="evenodd" d="M1 18.25C1 13.6937 4.69365 10 9.25 10H34.25C35.4926 10 36.5 11.0074 36.5 12.25V20.8816C38.3009 20.3016 40.4496 20.0585 42.3238 20.6048C43.4685 20.9385 44.5417 21.5785 45.3196 22.6423C46.0959 23.7038 46.5 25.08 46.5 26.75C46.5 28.6859 46.1043 30.24 45.3409 31.4285C44.5664 32.634 43.4784 33.3614 42.2939 33.7394C40.3886 34.3473 38.2315 34.0585 36.5 33.5431V42.5H45.9077C47.262 42.5 48.023 43.9114 47.507 45.0272C46.6451 46.8906 46.0148 49.4136 46.4038 51.3585C46.5902 52.2907 46.997 53.0329 47.6764 53.5567C48.3653 54.0879 49.4716 54.5 51.25 54.5C53.0284 54.5 54.1347 54.0879 54.8236 53.5567C55.503 53.0329 55.9098 52.2907 56.0962 51.3585C56.4852 49.4136 55.8549 46.8906 54.993 45.0272C54.477 43.9114 55.238 42.5 56.5923 42.5H67.25C68.4926 42.5 69.5 43.5074 69.5 44.75V52.5C69.5 53.1904 68.9404 53.75 68.25 53.75C67.5596 53.75 67 53.1904 67 52.5V45H57.6924C58.4545 46.9956 59.0039 49.5681 58.5477 51.8489C58.2702 53.2361 57.6075 54.5671 56.3501 55.5365C55.1023 56.4987 53.4046 57 51.25 57C49.0954 57 47.3977 56.4987 46.1499 55.5365C44.8925 54.5671 44.2298 53.2361 43.9523 51.8489C43.4961 49.5681 44.0455 46.9956 44.8076 45H36.5V55.5362C36.5 56.7588 35.2998 57.5721 34.184 57.203C32.3109 56.5832 29.9858 56.0844 28.2099 56.4154C27.3574 56.5743 26.7208 56.9076 26.2872 57.4286C25.8539 57.9493 25.5 58.8056 25.5 60.25C25.5 61.8171 25.8637 62.7298 26.3033 63.274C26.7377 63.8118 27.3707 64.144 28.2267 64.3029C30.0376 64.639 32.3633 64.1273 34.3648 63.6692C35.4698 63.4162 36.5 64.2615 36.5 65.3738V75.7412H61.25C64.4256 75.7412 67 73.1668 67 69.9912V69C67 68.3096 67.5596 67.75 68.25 67.75C68.9404 67.75 69.5 68.3096 69.5 69V69.9912C69.5 74.5475 65.8064 78.2412 61.25 78.2412H9.25C4.69365 78.2412 1 74.5475 1 69.9912V18.25ZM34 75.7412V66.315C32.1915 66.7136 29.8195 67.1413 27.7704 66.7609C26.5107 66.5271 25.2695 65.9727 24.3585 64.8449C23.4527 63.7235 23 62.1916 23 60.25C23 58.3975 23.4595 56.9182 24.3656 55.8294C25.2713 54.741 26.5001 54.191 27.7518 53.9577C29.8056 53.5749 32.1485 54.0008 34 54.5304V45H23.0763C21.7407 45 20.9636 43.6141 21.4733 42.4912C22.2935 40.6845 22.9521 38.2719 22.6433 36.4203C22.4959 35.5364 22.1423 34.8539 21.5457 34.3769C20.9392 33.8921 19.9315 33.5 18.25 33.5C16.5685 33.5 15.5608 33.8921 14.9543 34.3769C14.3577 34.8539 14.0041 35.5364 13.8567 36.4203C13.5479 38.2719 14.2065 40.6845 15.0267 42.4912C15.5364 43.6141 14.7593 45 13.4237 45H3.5V69.9912C3.5 73.1668 6.07436 75.7412 9.25 75.7412H34ZM3.5 42.5H12.3232C11.6028 40.6116 11.0294 38.176 11.3907 36.009C11.6132 34.6748 12.2038 33.3751 13.3933 32.4242C14.573 31.4812 16.1935 31 18.25 31C20.3065 31 21.927 31.4812 23.1067 32.4242C24.2962 33.3751 24.8868 34.6748 25.1093 36.009C25.4706 38.176 24.8972 40.6116 24.1768 42.5H34V32.5233C34 31.2315 35.3004 30.4583 36.4051 30.8748C38.0494 31.4948 40.0465 31.8323 41.534 31.3576C42.2353 31.1339 42.8154 30.7344 43.2375 30.0772C43.6706 29.4031 44 28.3588 44 26.75C44 25.4842 43.6976 24.6594 43.3017 24.118C42.9074 23.5789 42.3426 23.2143 41.6242 23.0049C40.1294 22.5692 38.1235 22.861 36.4817 23.5513C35.3841 24.0128 34 23.2707 34 21.9237V12.5H9.25C6.07436 12.5 3.5 15.0744 3.5 18.25V42.5Z" fill="black"/>
<path fill-rule="evenodd" clip-rule="evenodd" d="M71.6929 1.03565e-06C75.7285 1.21205e-06 79 3.24717 79 7.25275L79 29.2308C79 30.3232 78.1078 31.2088 77.0071 31.2088L69.362 31.2088C69.8757 32.792 70.091 34.681 69.6072 36.3286C69.3116 37.3349 68.7447 38.2784 67.8026 38.9623C66.8624 39.6448 65.6434 40 64.1643 40C62.4496 40 61.0732 39.6522 60.0205 38.981C58.9527 38.3002 58.3085 37.3437 57.9737 36.3023C57.4353 34.6273 57.6911 32.731 58.1476 31.2088H48L48 19.4078C48 18.2336 49.2275 17.5505 50.222 17.9985C51.8223 18.7195 53.9592 19.2985 55.5992 19.0271C56.382 18.8975 56.9866 18.5867 57.409 18.0622C57.8384 17.529 58.1857 16.6431 58.1857 15.1648C58.1857 13.6866 57.8384 12.8007 57.409 12.2675C56.9866 11.743 56.382 11.4322 55.5992 11.3026C53.9592 11.0311 51.8223 11.6101 50.222 12.3311C49.2275 12.7792 48 12.0961 48 10.9219L48 0L71.6929 1.03565e-06ZM76.7857 7.25275C76.7857 4.46098 74.5056 2.1978 71.6929 2.1978L50.2143 2.1978L50.2143 9.95444C51.8869 9.32113 54.0441 8.81703 55.9634 9.13472C57.1452 9.33032 58.2964 9.84947 59.1386 10.8952C59.9738 11.9323 60.4 13.3569 60.4 15.1648C60.4 16.9727 59.9738 18.3974 59.1386 19.4345C58.2964 20.4802 57.1452 20.9994 55.9634 21.195C54.0441 21.5126 51.8869 21.0085 50.2143 20.3752L50.2143 29.011H59.0508C60.1949 29.011 60.8798 30.1542 60.5109 31.1254C59.9617 32.5709 59.6628 34.3266 60.0832 35.6343C60.2814 36.2508 60.6353 36.7607 61.2173 37.1318C61.8144 37.5126 62.7394 37.8022 64.1643 37.8022C65.2854 37.8022 66.016 37.5363 66.4954 37.1883C66.973 36.8417 67.2959 36.3451 67.4814 35.7136C67.8673 34.3995 67.6089 32.636 66.9975 31.1927C66.5887 30.2278 67.246 29.011 68.439 29.011L76.7857 29.011V7.25275Z" fill="black"/>
</svg>
