<svg width="80" height="80" viewBox="0 0 80 80" fill="none" xmlns="http://www.w3.org/2000/svg">
<path fill-rule="evenodd" clip-rule="evenodd" d="M40.5511 9.41611L40.119 9.74847V18.6223V38.1148L37.1777 38.1813C34.3361 38.2311 34.1865 38.2478 33.3722 38.6798C32.8903 38.9291 32.2422 39.4442 31.9265 39.8264C30.8131 41.1226 30.8131 41.106 30.8131 50.3122V58.5878H29.4006H27.9881V50.146V41.7208L27.5893 40.89C26.8581 39.2947 25.0468 38.148 23.3019 38.148H22.6705L20.1778 38.1148L18.3166 38.1813C16.605 38.2311 16.3558 38.281 15.5415 38.7297C14.0791 39.5273 13.0322 41.2888 13.0322 42.9173V43.4657V45.9583V49.4481V52.9378V55.4304V57.0091V58.5878H9.47604C6.15251 58.5878 5.90325 58.6044 5.4878 58.9367L5.05574 59.2691L5.02251 66.7803L4.97266 74.2915V77L30.1983 76.834C57.2518 76.8506 71.9751 76.8173 72.2576 76.701C73.1716 76.3521 73.1882 76.485 71.4599 65.9494L69.8646 56.1782V46.4403C69.8646 39.76 69.8148 36.5361 69.6818 36.1705C69.3661 35.2898 68.5685 35.0738 67.804 35.672L67.372 36.0044V46.191V56.361L68.7845 64.9856L68.9725 66.1295C69.6696 70.3722 70.2343 73.8092 70.2801 73.9923L70.3632 74.3746H66.9565H63.5499V66.9963C63.5499 62.9416 63.5001 59.4851 63.4502 59.3356C63.284 58.9367 62.4864 58.5878 61.7054 58.5878H61.024L61.1404 57.9563C61.2068 57.6239 61.2899 50.7775 61.3398 42.7511L61.4062 28.1774H64.3808H67.372V29.806C67.372 31.3016 67.4052 31.4677 67.7542 31.8001C68.5186 32.5313 69.5821 32.0826 69.7815 30.9692C69.8314 30.6701 69.848 23.4082 69.8314 14.8335L69.7815 9.86478L69.2996 9.46597L68.8343 9.05052L64.198 9.10037C60.027 9.15023 59.5451 9.18346 59.2792 9.44935C58.9967 9.73184 58.9801 3.7661 58.8804 28.1442C58.8305 45.3269 58.7308 57.4412 58.6311 57.84L58.4815 58.5047L54.9586 58.5545L51.419 58.5878L51.3526 58.2222C50.9704 56.5272 50.9205 54.9651 50.9205 46.0082V36.1373L50.5051 35.7385C49.9899 35.2067 49.3584 35.2067 48.8433 35.7385L48.4278 36.1373L48.4445 46.1578C48.4445 53.6025 48.4943 56.4939 48.6605 57.3747L48.8765 58.5878H47.3311H45.7856L45.7358 50.0629L45.6859 41.5547L45.2705 40.757C44.8218 39.8597 44.0408 39.0953 43.1767 38.6798L42.6117 38.4139V33.2957V28.1774H45.5198H48.4278V29.7561C48.4278 31.2185 48.4611 31.3847 48.8433 31.7502C49.3584 32.282 49.9899 32.282 50.5051 31.7502L50.9205 31.3514V15.2988V9.8814L50.5051 9.48258L50.1062 9.06714H45.553C41.1992 9.06714 40.9831 9.08376 40.5511 9.41611ZM48.4278 20.0348V16.9605V13.8863H45.5198H42.6117V16.9605V20.0348H45.5198H48.4278ZM67.372 20.0348L67.3388 16.9938L67.2889 13.9693L64.3476 13.9195L61.3896 13.8863V16.9605V20.0348H64.3808H67.372ZM48.4278 25.6848V24.1061V22.5274H45.5198H42.6117V24.1061V25.6848H45.5198H48.4278ZM67.2889 25.6017V24.1061V22.6105L64.3476 22.5607L61.3896 22.5274V24.1061V25.6848L64.3476 25.6516L67.2889 25.6017ZM25.1465 41.6045C24.9471 41.322 24.5316 40.9897 24.2325 40.8733C23.8171 40.7072 22.8366 40.6407 20.4769 40.6407C16.8875 40.6407 16.5386 40.7404 15.8572 41.8372C15.5581 42.3357 15.5249 42.6847 15.5249 46.2408V50.1128H20.5102H25.4955V46.1079C25.4955 42.2858 25.4789 42.0864 25.1465 41.6045ZM42.944 41.7208C42.7612 41.4217 42.3458 41.0561 42.0467 40.9066C41.5814 40.6905 40.8834 40.6407 38.2578 40.6407C38.1412 40.6411 38.0274 40.6414 37.9162 40.6417C35.6919 40.6476 34.5401 40.6507 33.944 41.2277C33.3038 41.8474 33.3044 43.1291 33.3057 45.787C33.3057 45.9077 33.3058 46.0313 33.3058 46.1578V50.1128H38.2911H43.2764V46.191C43.2764 42.5351 43.2598 42.2194 42.944 41.7208ZM25.4955 58.5878V55.5966V52.6054H20.5102H15.5249V55.5966V58.5878H20.5102H25.4955ZM43.2764 58.5878V55.5966V52.6054H38.2911H33.3058V55.5966V58.5878H38.2911H43.2764ZM61.0573 74.3746V67.7275V61.0804H34.3028H7.54839V67.7275V74.3746H34.3028H61.0573Z" fill="black"/>
<path d="M10.3227 64.4208C10.0069 64.67 9.89062 64.9193 9.89062 65.3181C9.89062 65.717 10.0069 65.9662 10.3227 66.2155C10.7381 66.5478 10.9874 66.5645 13.962 66.5645C16.9365 66.5645 17.1858 66.5478 17.6012 66.2155C17.917 65.9662 18.0333 65.717 18.0333 65.3181C18.0333 64.9193 17.917 64.67 17.6012 64.4208C17.1858 64.0884 16.9365 64.0718 13.962 64.0718C10.9874 64.0718 10.7381 64.0884 10.3227 64.4208Z" fill="black"/>
<path d="M23.8334 64.3875C23.5509 64.6036 23.4512 64.8695 23.4512 65.3181C23.4512 65.7668 23.5509 66.0327 23.8334 66.2487C24.1824 66.5312 24.5479 66.5645 27.5059 66.5645C30.4638 66.5645 30.8294 66.5312 31.1784 66.2487C31.4609 66.0327 31.5606 65.7668 31.5606 65.3181C31.5606 64.8695 31.4609 64.6036 31.1784 64.3875C30.8294 64.105 30.4638 64.0718 27.5059 64.0718C24.5479 64.0718 24.1824 64.105 23.8334 64.3875Z" fill="black"/>
<path d="M37.4107 64.4208C36.8457 64.8695 36.829 65.6006 37.394 66.149C37.7929 66.5645 37.8095 66.5645 41.0167 66.5645C44.0245 66.5645 44.2738 66.5478 44.6892 66.2155C45.0049 65.9662 45.1213 65.717 45.1213 65.3181C45.1213 64.9193 45.0049 64.67 44.6892 64.4208C44.2738 64.0884 44.0245 64.0718 41.0499 64.0718C38.0754 64.0718 37.8261 64.0884 37.4107 64.4208Z" fill="black"/>
<path d="M51.1381 64.1881C51.0217 64.238 50.8223 64.4872 50.6728 64.7697C50.4567 65.1852 50.4567 65.3514 50.6229 65.7502C50.7226 66.0327 50.9553 66.3152 51.1214 66.3983C51.2876 66.498 52.8829 66.5645 54.6776 66.5645C57.9181 66.5645 57.9347 66.5645 58.3335 66.149C58.5662 65.933 58.749 65.5508 58.749 65.3181C58.749 65.0855 58.5662 64.7033 58.3335 64.4872C57.9347 64.0718 57.9181 64.0718 54.6444 64.0884C52.8331 64.0884 51.2544 64.1383 51.1381 64.1881Z" fill="black"/>
<path d="M10.3239 69.2391C9.75889 69.6878 9.72565 70.5187 10.274 71.0172C10.6396 71.3662 10.8058 71.3828 13.9798 71.3828C17.2534 71.3828 17.3199 71.3828 17.6689 71.0006C18.184 70.4522 18.1508 69.6712 17.6024 69.2391C17.187 68.9068 16.9377 68.8902 13.9631 68.8902C10.9886 68.8902 10.7393 68.9068 10.3239 69.2391Z" fill="black"/>
<path d="M24.0821 69.0563C23.2845 69.3721 23.218 70.8012 23.9991 71.2C24.1985 71.3163 25.5943 71.3828 27.5552 71.3828C30.4633 71.3828 30.8289 71.3496 31.1779 71.0671C31.4604 70.851 31.5601 70.5852 31.5601 70.1365C31.5601 69.6878 31.4604 69.4219 31.1779 69.2059C30.8289 68.9234 30.4799 68.8901 27.6051 68.9068C25.8602 68.9068 24.2816 68.9732 24.0821 69.0563Z" fill="black"/>
<path d="M37.3938 69.3056C36.862 69.8208 36.8454 70.5353 37.3606 71.0172C37.7262 71.3662 37.8923 71.3828 41.0663 71.3828C44.34 71.3828 44.4065 71.3828 44.7554 71.0006C45.2706 70.4522 45.2373 69.6712 44.689 69.2391C44.2735 68.9068 44.0242 68.8902 41.0165 68.8902C37.8092 68.8902 37.7926 68.8902 37.3938 69.3056Z" fill="black"/>
<path d="M51.1526 69.0896C50.571 69.3721 50.3549 70.0866 50.6707 70.6849C50.8036 70.9508 51.0529 71.2166 51.1858 71.2831C51.3354 71.333 52.9141 71.3828 54.6921 71.3828C57.916 71.3828 57.9326 71.3828 58.3314 70.9674C58.5641 70.7513 58.7469 70.3691 58.7469 70.1365C58.7469 69.9038 58.5641 69.5216 58.3314 69.3056C57.9326 68.8901 57.916 68.8901 54.7254 68.9068C52.8476 68.9068 51.3686 68.9899 51.1526 69.0896Z" fill="black"/>
</svg>
