<svg width="37" height="25" viewBox="0 0 37 25" fill="none" xmlns="http://www.w3.org/2000/svg">
<g clip-path="url(#clip0_748_5331)">
<path d="M6.74023 9.46271H7.81051V16.9325H6.74023V13.6068H5.41858V16.9325H4.3487V9.46271H5.41858V12.6632H6.74023V9.46271ZM2.98383 9.89834C2.83019 9.74026 2.6486 9.6192 2.43915 9.5315C2.22881 9.44341 2.00106 9.39971 1.75716 9.39971C1.4987 9.39971 1.26208 9.44341 1.0485 9.5315C0.835212 9.6192 0.651944 9.73997 0.4984 9.89341C0.343676 10.0472 0.225074 10.2289 0.141019 10.4384C0.0571603 10.6482 0.015625 10.8757 0.015625 11.1208V15.2328C0.015625 15.5753 0.0698573 15.8595 0.177633 16.083C0.286786 16.3066 0.424286 16.4869 0.592298 16.6232C0.76031 16.76 0.949089 16.856 1.15854 16.9117C1.36848 16.9681 1.57478 16.9958 1.77704 16.9958C2.01533 16.9958 2.23748 16.9487 2.44358 16.8537C2.65027 16.7601 2.83009 16.6337 2.98364 16.4766C3.13777 16.3187 3.25834 16.1361 3.34643 15.9252C3.43383 15.7159 3.47714 15.4956 3.47714 15.2647V14.803H2.40736V15.17C2.40736 15.3168 2.3861 15.4395 2.34486 15.5371C2.30194 15.6353 2.24781 15.7122 2.18137 15.7688C2.11553 15.8241 2.04141 15.8647 1.96149 15.8891C1.88068 15.9131 1.80598 15.9252 1.73629 15.9252C1.49072 15.9252 1.32173 15.8526 1.22744 15.7049C1.13246 15.5583 1.08521 15.3766 1.08521 15.1594V11.3405C1.08521 11.0899 1.1297 10.8817 1.21631 10.717C1.30421 10.5524 1.48059 10.4699 1.74653 10.4699C1.94879 10.4699 2.11001 10.5472 2.22881 10.7012C2.34771 10.8548 2.40726 11.0373 2.40726 11.2468V11.6035H3.47744V11.1836C3.47744 10.9248 3.43413 10.6854 3.34673 10.4649C3.25854 10.2441 3.13816 10.056 2.98383 9.89834ZM36.6143 9.50572L29.2353 24.9023L17.5726 21.4209L16.0896 16.6342C15.9581 16.7278 15.819 16.8093 15.6654 16.8647C15.452 16.9417 15.2377 16.98 15.0198 16.98C14.803 16.98 14.5879 16.9417 14.3749 16.8647C14.1613 16.7874 13.9695 16.6738 13.7983 16.5232C13.6265 16.3735 13.4882 16.1846 13.3836 15.9569C13.2786 15.7296 13.2271 15.4625 13.2271 15.1541V13.4783C13.2271 13.4783 12.235 12.7339 12.2244 12.7574C12.0879 13.0686 11.8483 13.3185 11.506 13.5077L12.6595 16.9171H11.527L10.5299 13.7281H9.89033V16.9171H8.82015V9.82895L8.82803 9.39883L15.7558 0.889281L31.688 0.111328L36.6143 9.50572ZM30.5509 10.6832L36.0337 9.38416L31.6271 0.887411L30.5509 10.6832ZM31.2036 0.897155L21.6688 5.30365L21.6753 5.30778L18.9821 10.0345L20.1578 13.4182H20.179L21.543 9.46271H22.5817V16.9325H21.5109V12.3896H21.4901L20.43 15.6007H19.8948L18.8462 12.3896H18.8254V16.9325L21.1701 18.5757L23.5883 16.5515V9.4628H26.7781V10.4696H24.6586V12.6632H26.5049V13.6699H24.6586V15.6199L30.0955 10.8832L31.2036 0.897155ZM16.5115 1.30513L21.5865 4.83259L30.6833 0.627667L16.5115 1.30513ZM11.3559 11.6344C11.3559 11.4462 11.3455 11.2798 11.3245 11.136C11.3039 10.9931 11.2598 10.8704 11.1938 10.7686C11.1267 10.6675 11.0345 10.5929 10.9151 10.5436C10.7965 10.4948 10.639 10.4695 10.4432 10.4695H9.88747V12.7989H10.4955C10.6846 12.7989 10.835 12.7726 10.9472 12.7202C11.0583 12.6681 11.1445 12.5927 11.2037 12.4948C11.2632 12.3968 11.3038 12.2764 11.3245 12.1325C11.3455 11.9895 11.3559 11.8234 11.3559 11.6344ZM21.1509 5.08564L15.9033 1.41261L9.34712 9.4628H10.5378C10.8033 9.4628 11.0345 9.50345 11.2443 9.56773L21.1509 5.08564ZM15.7413 11.2256C15.7413 10.9666 15.6698 10.776 15.5261 10.6538C15.3833 10.5309 15.2132 10.4696 15.0171 10.4696C14.822 10.4696 14.6519 10.531 14.5089 10.6538C14.3655 10.776 14.2937 10.9666 14.2937 11.2256V13.8051V14.368V15.1697C14.2937 15.4292 14.3654 15.6197 14.5089 15.7421C14.6519 15.8644 14.822 15.9249 15.0171 15.9249C15.2132 15.9249 15.3833 15.8644 15.5261 15.7421C15.5981 15.6808 15.6562 15.6036 15.6875 15.5072C15.7508 15.3099 15.7413 14.8408 15.7413 14.8408V11.2256V11.2256ZM16.654 10.4283C16.7592 10.6583 16.8118 10.9245 16.8118 11.2256V12.9624L17.7559 11.3058V9.46271H18.7838L18.792 9.48643L20.9644 5.67363L11.7432 9.82137C12.1963 10.1724 12.4262 10.7802 12.4262 11.6549C12.4262 11.8646 12.4099 12.0584 12.3773 12.2394L13.2243 12.9304V11.2257C13.2243 10.9246 13.2758 10.6585 13.3808 10.4284C13.4853 10.197 13.6236 10.007 13.7954 9.8567C13.9666 9.7067 14.1584 9.59243 14.372 9.51536C14.585 9.438 14.8002 9.39961 15.0169 9.39961C15.2348 9.39961 15.4491 9.438 15.6626 9.51536C15.876 9.59243 16.0684 9.7067 16.2391 9.8567C16.4107 10.0069 16.5492 10.197 16.654 10.4283ZM16.8117 13.8438V15.1697C16.8117 15.3056 16.7979 15.4307 16.7749 15.5491C16.7641 15.6048 17.7557 16.2406 17.7557 16.2406V12.1875L16.8117 13.8438ZM28.2955 24.2115L16.6495 16.0096C16.6107 16.0759 16.4888 16.2572 16.443 16.3156L17.9176 21.074L28.2955 24.2115ZM30.0438 11.5085L25.0431 15.8625H26.7781V16.9325H23.8147L21.5407 18.9177L28.8988 24.1477L30.0438 11.5085ZM35.9692 9.84715L30.5124 11.1411L29.4752 23.3002L35.9692 9.84715ZM5.26917 18.8491C5.27586 18.8491 5.28265 18.8503 5.28944 18.8528C5.29614 18.8554 5.30263 18.8597 5.30893 18.8661L5.42242 18.9854C5.37271 19.0504 5.31061 19.0994 5.23541 19.1325C5.1607 19.1654 5.07202 19.1821 4.97015 19.1821C4.87626 19.1821 4.7924 19.1662 4.71799 19.1344C4.64387 19.1025 4.58068 19.0585 4.52901 19.002C4.47763 18.946 4.43797 18.8793 4.41031 18.8026C4.38255 18.7253 4.36877 18.6413 4.36877 18.551C4.36877 18.4589 4.38374 18.3743 4.41346 18.2975C4.44358 18.2205 4.48541 18.1539 4.53984 18.098C4.59397 18.0422 4.65874 17.9988 4.73462 17.9674C4.81001 17.9367 4.89348 17.9214 4.98433 17.9214C5.03059 17.9214 5.07439 17.925 5.11523 17.9331C5.15618 17.9417 5.19456 17.9526 5.23019 17.9671C5.26572 17.9815 5.2985 17.9988 5.32822 18.0192C5.35824 18.0396 5.38472 18.0618 5.40795 18.0855L5.31139 18.2148C5.305 18.2228 5.29791 18.2299 5.28935 18.2364C5.28098 18.243 5.26907 18.2461 5.25391 18.2461C5.24368 18.2461 5.23383 18.2441 5.22498 18.2397C5.21602 18.2352 5.20627 18.2295 5.19594 18.2231C5.1857 18.2164 5.17478 18.2095 5.16277 18.202C5.15066 18.1943 5.13629 18.1872 5.11946 18.1805C5.10283 18.1743 5.08324 18.1687 5.061 18.164C5.03875 18.1594 5.01248 18.1576 4.98275 18.1576C4.93511 18.1576 4.8919 18.1662 4.85273 18.1838C4.81326 18.2011 4.7797 18.2269 4.75116 18.2604C4.72252 18.2941 4.70047 18.3352 4.68492 18.3841C4.66956 18.4327 4.66169 18.4888 4.66169 18.5513C4.66169 18.6146 4.67025 18.6709 4.68757 18.7197C4.7047 18.7689 4.72822 18.8104 4.75765 18.8439C4.78757 18.8776 4.82212 18.9032 4.86169 18.9206C4.90135 18.9379 4.94348 18.947 4.98856 18.947C5.01474 18.947 5.03856 18.9458 5.05972 18.9431C5.08127 18.9405 5.10145 18.9364 5.12005 18.9304C5.13866 18.9244 5.15618 18.9165 5.17242 18.9068C5.18895 18.897 5.20539 18.8843 5.22222 18.8687C5.22931 18.8635 5.23639 18.8587 5.24466 18.8548C5.25253 18.8512 5.26061 18.8491 5.26917 18.8491ZM7.23659 18.551C7.23659 18.6402 7.22104 18.7232 7.19033 18.7997C7.15972 18.8769 7.11641 18.9437 7.06061 19.0003C7.0047 19.057 6.93738 19.1016 6.85834 19.1337C6.7797 19.1659 6.6922 19.1818 6.59623 19.1818C6.50017 19.1818 6.41257 19.1659 6.33374 19.1337C6.2548 19.1016 6.18708 19.057 6.13078 19.0003C6.07478 18.9437 6.03108 18.8769 6.00037 18.7997C5.96966 18.7232 5.95401 18.6402 5.95401 18.551C5.95401 18.4618 5.96966 18.3787 6.00037 18.3019C6.03108 18.2252 6.07478 18.1587 6.13078 18.102C6.18698 18.0457 6.2548 18.0013 6.33374 17.9691C6.41257 17.937 6.50017 17.9213 6.59623 17.9213C6.6922 17.9213 6.7797 17.937 6.85834 17.9695C6.93738 18.002 7.0047 18.0466 7.06061 18.1029C7.11641 18.1591 7.15972 18.2259 7.19033 18.3027C7.22123 18.3796 7.23659 18.4621 7.23659 18.551ZM6.94328 18.551C6.94328 18.4899 6.9357 18.4352 6.91996 18.386C6.90391 18.3374 6.88118 18.2963 6.85165 18.2619C6.82173 18.2281 6.7858 18.2025 6.74269 18.1841C6.69998 18.1662 6.65106 18.1573 6.59623 18.1573C6.54092 18.1573 6.49171 18.1663 6.4485 18.1841C6.40519 18.2025 6.36858 18.2281 6.33935 18.2619C6.30962 18.2963 6.28679 18.3374 6.27084 18.386C6.25519 18.4352 6.24702 18.4899 6.24702 18.551C6.24702 18.6125 6.25519 18.6677 6.27084 18.7167C6.28679 18.7656 6.30962 18.8069 6.33935 18.841C6.36858 18.8746 6.40519 18.9005 6.4485 18.9182C6.49171 18.9361 6.54092 18.9451 6.59623 18.9451C6.65106 18.9451 6.69998 18.936 6.74269 18.9182C6.7858 18.9005 6.82173 18.8746 6.85165 18.841C6.88118 18.8069 6.90391 18.7656 6.91996 18.7167C6.9358 18.6676 6.94328 18.6125 6.94328 18.551ZM9.29919 17.9345V19.1684H9.04673V18.4587C9.04673 18.4423 9.04692 18.4246 9.04791 18.4052C9.0487 18.386 9.05017 18.3665 9.05283 18.3466L8.72478 18.9813C8.71484 19.0011 8.70106 19.016 8.68383 19.0261C8.66651 19.0363 8.64692 19.0412 8.62478 19.0412H8.5861C8.56395 19.0412 8.54417 19.0361 8.52694 19.0261C8.50982 19.0159 8.49614 19.0011 8.4858 18.9813L8.15805 18.3454C8.15982 18.3654 8.161 18.3855 8.16238 18.4048C8.16346 18.4242 8.16415 18.4423 8.16415 18.4587V19.1684H7.91159V17.9345H8.13C8.1424 17.9345 8.15352 17.935 8.16287 17.9352C8.17212 17.9358 8.18039 17.9373 8.18767 17.9403C8.19505 17.9433 8.20165 17.9475 8.20775 17.9537C8.21336 17.9598 8.21946 17.9678 8.22488 17.9787L8.54259 18.6044C8.55401 18.6261 8.56494 18.6482 8.57517 18.6715C8.58561 18.6946 8.59564 18.7183 8.60519 18.7427C8.61484 18.7176 8.62498 18.6937 8.63541 18.6699C8.64594 18.6461 8.65686 18.6232 8.66907 18.6022L8.9858 17.9788C8.99112 17.9679 8.99702 17.9599 9.00303 17.9538C9.00883 17.9476 9.01582 17.9435 9.02271 17.9404C9.03049 17.9376 9.03846 17.9359 9.04781 17.9353C9.05726 17.9351 9.06809 17.9346 9.08078 17.9346H9.29919V17.9345ZM10.48 17.9345C10.5668 17.9345 10.6417 17.9448 10.7037 17.9652C10.7666 17.9857 10.818 18.014 10.8583 18.0503C10.8987 18.0864 10.9284 18.1291 10.9475 18.1782C10.9666 18.2274 10.9762 18.2804 10.9762 18.3373C10.9762 18.399 10.9666 18.4557 10.9469 18.5067C10.927 18.5584 10.8968 18.6025 10.8563 18.6394C10.8156 18.6759 10.764 18.7043 10.7016 18.7251C10.6394 18.7457 10.5654 18.756 10.4802 18.756H10.3309V19.1682H10.0448V17.9344H10.48V17.9345ZM10.48 18.5398C10.5547 18.5398 10.6081 18.5223 10.641 18.4865C10.6735 18.4512 10.6899 18.4014 10.6899 18.3373C10.6899 18.3095 10.6859 18.2835 10.6775 18.2604C10.6692 18.2372 10.6561 18.2173 10.639 18.2007C10.6214 18.1842 10.6 18.1713 10.5738 18.1622C10.5475 18.1534 10.5162 18.1487 10.4801 18.1487H10.3308V18.5398H10.48V18.5398ZM12.3722 18.9397V19.1684H11.6286V17.9345H11.9148V18.9397H12.3722V18.9397ZM13.3123 18.1545V18.4427H13.7004V18.6541H13.3123V18.948H13.8187V19.1682H13.0244V17.9344H13.8187V18.1543L13.3123 18.1545ZM15.5608 19.1684H15.2744C15.2557 19.1684 15.2406 19.164 15.2292 19.1547C15.2175 19.1459 15.2086 19.1351 15.2016 19.1228L14.9543 18.6905C14.9499 18.7032 14.9448 18.7137 14.9389 18.7229L14.7087 19.1227C14.7008 19.1341 14.6916 19.1444 14.6808 19.1537C14.6701 19.1639 14.6561 19.1681 14.6392 19.1681H14.3715L14.769 18.533L14.3868 17.9342H14.6734C14.6916 17.9342 14.7054 17.9366 14.7143 17.9412C14.723 17.9459 14.7308 17.9539 14.7374 17.9655L14.9831 18.3813C14.9861 18.3738 14.9893 18.3669 14.9928 18.36C14.9966 18.3535 15.001 18.3463 15.0052 18.3388L15.2204 17.9699C15.2283 17.9574 15.2366 17.9479 15.2454 17.9424C15.2539 17.9368 15.2648 17.9342 15.2779 17.9342H15.5526L15.1655 18.5211L15.5608 19.1684ZM7.39653 21.4176H7.17488C7.14988 21.4176 7.1298 21.4122 7.11464 21.4003C7.09929 21.389 7.08797 21.3738 7.0798 21.3559L7.00696 21.1407H6.53787L6.46503 21.3559C6.45883 21.3719 6.44771 21.3859 6.43137 21.3988C6.41533 21.4113 6.39545 21.4176 6.37173 21.4176H6.1482L6.62586 20.1837H6.91887L7.39653 21.4176ZM6.94171 20.9457L6.82753 20.608C6.81897 20.5866 6.80992 20.5612 6.80037 20.5321C6.79063 20.5029 6.78118 20.4718 6.77173 20.4375C6.76326 20.4722 6.75381 20.5042 6.74476 20.5333C6.73492 20.5629 6.72586 20.5881 6.7173 20.6096L6.60352 20.9456H6.94171V20.9457ZM8.55273 20.7785H8.99171V21.2992C8.92822 21.3456 8.861 21.379 8.78944 21.4001C8.71828 21.4207 8.64368 21.4311 8.56572 21.4311C8.46405 21.4311 8.37163 21.4152 8.28846 21.3834C8.2049 21.3517 8.13354 21.3075 8.07448 21.2512C8.01523 21.195 7.96917 21.1286 7.93718 21.0516C7.905 20.9743 7.88856 20.8904 7.88856 20.8002C7.88856 20.708 7.90411 20.6233 7.93462 20.5468C7.96513 20.4697 8.00883 20.4029 8.06533 20.3471C8.12232 20.2912 8.19082 20.2478 8.27114 20.2167C8.35175 20.1856 8.4419 20.1704 8.54112 20.1704C8.59259 20.1704 8.64072 20.1744 8.6859 20.1829C8.73098 20.1913 8.77271 20.2029 8.811 20.2175C8.84899 20.2323 8.88383 20.2496 8.91553 20.2702C8.94702 20.2902 8.97547 20.3123 9.00037 20.3359L8.9173 20.4622C8.90431 20.482 8.88748 20.4943 8.86671 20.4989C8.84614 20.5036 8.82389 20.4981 8.80007 20.4836C8.77763 20.4699 8.75618 20.4582 8.73639 20.4484C8.71622 20.4384 8.69564 20.4305 8.67488 20.4242C8.65372 20.418 8.63196 20.4136 8.60864 20.4107C8.58551 20.4081 8.55962 20.4063 8.53068 20.4063C8.47714 20.4063 8.42872 20.4158 8.3862 20.435C8.34309 20.4537 8.30657 20.4803 8.27625 20.5148C8.24594 20.5493 8.22271 20.5907 8.20657 20.639C8.19023 20.6872 8.18187 20.7409 8.18187 20.8006C8.18187 20.8662 8.19072 20.9242 8.20923 20.975C8.22724 21.0259 8.25254 21.0684 8.2857 21.1038C8.31878 21.1386 8.35834 21.1655 8.40411 21.184C8.45027 21.2022 8.50135 21.211 8.55696 21.211C8.59181 21.211 8.62301 21.2078 8.65116 21.2008C8.67881 21.1945 8.70608 21.1852 8.73255 21.1739V20.9865H8.6107C8.59269 20.9865 8.57852 20.9819 8.56838 20.9722C8.55805 20.9624 8.55293 20.9505 8.55293 20.9358V20.7785H8.55273V20.7785ZM9.97842 20.4038V20.6922H10.3663V20.9035H9.97842V21.1975H10.4848V21.4176H9.69043V20.1837H10.4848V20.4038H9.97842ZM12.2453 20.1837V21.4176H12.0959C12.0742 21.4176 12.0554 21.4142 12.0406 21.4073C12.0256 21.4002 12.011 21.3879 11.9961 21.37L11.4141 20.6341C11.4166 20.6562 11.4182 20.6774 11.4192 20.6979C11.4199 20.7185 11.4203 20.7379 11.4203 20.7561V21.4176H11.1678V20.1837H11.3184C11.3309 20.1837 11.3415 20.1843 11.35 20.1852C11.3582 20.1864 11.3662 20.1887 11.3726 20.1917C11.3796 20.1948 11.3858 20.199 11.3924 20.2048C11.3985 20.2108 11.4054 20.2181 11.4133 20.2275L12.0003 20.9688C11.9977 20.9451 11.9956 20.9219 11.9946 20.8999C11.9936 20.8775 11.9929 20.8565 11.9929 20.8363V20.1835L12.2453 20.1837ZM13.822 21.0985C13.8291 21.0985 13.8356 21.0997 13.8425 21.1022C13.8493 21.1048 13.8558 21.1089 13.8621 21.1153L13.9756 21.2349C13.9258 21.2996 13.8635 21.3488 13.7887 21.3817C13.7139 21.4148 13.6253 21.4313 13.5234 21.4313C13.4294 21.4313 13.3455 21.4154 13.2711 21.3835C13.1969 21.3518 13.1338 21.3076 13.0822 21.2514C13.0308 21.1951 12.991 21.1287 12.9634 21.0517C12.9356 20.9744 12.9219 20.8906 12.9219 20.8004C12.9219 20.7083 12.937 20.6235 12.9666 20.5469C12.9967 20.4698 13.0385 20.4031 13.093 20.3472C13.147 20.2913 13.2119 20.2479 13.2877 20.2169C13.3634 20.1858 13.4465 20.1705 13.5376 20.1705C13.5837 20.1705 13.6273 20.1739 13.6682 20.1824C13.7092 20.1907 13.7477 20.202 13.7833 20.2164C13.8188 20.2308 13.8516 20.2479 13.8814 20.2683C13.9115 20.2889 13.9381 20.3109 13.9613 20.3347L13.8645 20.464C13.8581 20.4721 13.8511 20.4791 13.8425 20.4855C13.8342 20.492 13.822 20.4952 13.8071 20.4952C13.7969 20.4952 13.7871 20.4932 13.7781 20.4888C13.7691 20.4844 13.7595 20.4788 13.7493 20.4723C13.7391 20.4657 13.7281 20.4588 13.716 20.4513C13.7038 20.4432 13.6895 20.4366 13.6727 20.4296C13.6562 20.4234 13.6365 20.4178 13.6141 20.4131C13.5921 20.4087 13.5659 20.4065 13.5362 20.4065C13.4886 20.4065 13.4452 20.4154 13.4061 20.433C13.3667 20.4505 13.333 20.4761 13.3045 20.5096C13.2758 20.5433 13.2538 20.5845 13.2384 20.6335C13.2228 20.682 13.2151 20.738 13.2151 20.8006C13.2151 20.864 13.2235 20.92 13.2409 20.9692C13.2579 21.018 13.2814 21.0597 13.311 21.0931C13.3406 21.127 13.3755 21.1524 13.4149 21.1697C13.4547 21.1873 13.4967 21.1962 13.5417 21.1962C13.568 21.1962 13.5918 21.195 13.6131 21.1923C13.6344 21.1899 13.6546 21.1856 13.6734 21.1796C13.6919 21.1735 13.7094 21.1657 13.7256 21.156C13.7423 21.1462 13.7587 21.1335 13.7756 21.1181C13.7827 21.1126 13.7897 21.1079 13.7978 21.1041C13.8056 21.1004 13.8137 21.0985 13.822 21.0985ZM15.1987 20.9483V21.4176H14.9121V20.9483L14.4651 20.1836H14.7175C14.7422 20.1836 14.762 20.1894 14.7766 20.2007C14.7907 20.2126 14.8026 20.2274 14.8123 20.2453L14.9869 20.6045C15.0016 20.6323 15.0148 20.659 15.0266 20.6838C15.0388 20.7082 15.0489 20.7324 15.0578 20.756C15.0668 20.732 15.0763 20.7074 15.0875 20.683C15.0983 20.6582 15.1113 20.6323 15.1259 20.6045L15.2988 20.2453C15.3026 20.2382 15.3073 20.2307 15.3133 20.2235C15.3189 20.2159 15.3254 20.2092 15.3329 20.2036C15.3406 20.1974 15.3493 20.1926 15.3592 20.1892C15.3693 20.1855 15.38 20.1836 15.392 20.1836H15.6459L15.1987 20.9483Z" fill="#D2D4D8"/>
</g>
<defs>
<clipPath id="clip0_748_5331">
<rect width="36.6142" height="25" fill="white"/>
</clipPath>
</defs>
</svg>
