<svg width="137" height="9" viewBox="0 0 137 9" fill="none" xmlns="http://www.w3.org/2000/svg">
<path d="M4.34602 8.61637C3.52265 8.61637 2.78083 8.43184 2.12058 8.0628C1.46033 7.68573 0.939891 7.16827 0.559274 6.51041C0.186425 5.85255 0 5.11847 0 4.30818C0 3.49789 0.186425 2.76382 0.559274 2.10595C0.939891 1.44809 1.46033 0.934643 2.12058 0.565599C2.78083 0.188533 3.52265 0 4.34602 0C5.16163 0 5.89956 0.188533 6.55982 0.565599C7.22007 0.934643 7.73662 1.44809 8.10947 2.10595C8.48232 2.75579 8.66874 3.48987 8.66874 4.30818C8.66874 5.1265 8.48232 5.86458 8.10947 6.52244C7.73662 7.17228 7.22007 7.68573 6.55982 8.0628C5.89956 8.43184 5.16163 8.61637 4.34602 8.61637ZM4.34602 7.54534C4.94414 7.54534 5.48011 7.40494 5.95394 7.12415C6.43553 6.84335 6.81227 6.45826 7.08414 5.96888C7.36377 5.47147 7.50359 4.91791 7.50359 4.30818C7.50359 3.69846 7.36377 3.1489 7.08414 2.65952C6.81227 2.16211 6.43553 1.77301 5.95394 1.49222C5.48011 1.21143 4.94414 1.07103 4.34602 1.07103C3.74791 1.07103 3.20417 1.21143 2.71481 1.49222C2.23321 1.77301 1.85259 2.16211 1.57296 2.65952C1.30109 3.1489 1.16515 3.69846 1.16515 4.30818C1.16515 4.91791 1.30109 5.47147 1.57296 5.96888C1.85259 6.45826 2.23321 6.84335 2.71481 7.12415C3.20417 7.40494 3.74791 7.54534 4.34602 7.54534Z" fill="white"/>
<path d="M18.0115 8.52009L17.9998 2.38274L15.052 7.4972H14.516L11.5682 2.41884V8.52009H10.4496V0.0962717H11.405L14.8073 6.01702L18.1629 0.0962717H19.1184L19.13 8.52009H18.0115Z" fill="white"/>
<path d="M27.4967 7.47313V8.52009H21.5777V0.0962717H27.3336V1.14323H22.7429V3.73055H26.8326V4.75344H22.7429V7.47313H27.4967Z" fill="white"/>
<path d="M35.0002 4.26005H36.1188V7.54534C35.7148 7.89031 35.2449 8.15506 34.7089 8.33958C34.173 8.52411 33.6137 8.61637 33.0311 8.61637C32.2077 8.61637 31.4659 8.43184 30.8057 8.0628C30.1454 7.68573 29.625 7.17228 29.2444 6.52244C28.8715 5.86458 28.6851 5.1265 28.6851 4.30818C28.6851 3.48987 28.8715 2.75178 29.2444 2.09392C29.625 1.43606 30.1454 0.922608 30.8057 0.553565C31.4737 0.184522 32.2233 0 33.0544 0C33.7069 0 34.2972 0.112318 34.8254 0.336953C35.3614 0.553565 35.8158 0.874472 36.1887 1.29968L35.4663 2.04578C34.8138 1.39595 34.0254 1.07103 33.101 1.07103C32.4796 1.07103 31.9203 1.21143 31.4232 1.49222C30.9338 1.76499 30.5493 2.15008 30.2697 2.64749C29.9901 3.13687 29.8502 3.69044 29.8502 4.30818C29.8502 4.91791 29.9901 5.47147 30.2697 5.96888C30.5493 6.45826 30.9338 6.84335 31.4232 7.12415C31.9203 7.40494 32.4757 7.54534 33.0894 7.54534C33.8195 7.54534 34.4565 7.36483 35.0002 7.00381V4.26005Z" fill="white"/>
<path d="M43.5462 6.41414H39.2118L38.3146 8.52009H37.1145L40.8081 0.0962717H41.9616L45.6667 8.52009H44.4433L43.5462 6.41414ZM43.1384 5.45142L41.379 1.32374L39.6196 5.45142H43.1384Z" fill="white"/>
<path d="M58.3605 0.0962717C59.4285 0.0962717 60.2688 0.357009 60.8814 0.878484C61.494 1.39996 61.8002 2.11799 61.8002 3.03258C61.8002 3.94716 61.494 4.66519 60.8814 5.18667C60.2688 5.70814 59.4285 5.96888 58.3605 5.96888H56.3225V8.52009H55.1445V0.0962717H58.3605ZM58.3251 4.92192C59.0712 4.92192 59.6406 4.76147 60.0332 4.44056C60.4259 4.11163 60.6222 3.6423 60.6222 3.03258C60.6222 2.42285 60.4259 1.95754 60.0332 1.63663C59.6406 1.3077 59.0712 1.14323 58.3251 1.14323H56.3225V4.92192H58.3251Z" fill="white"/>
<path d="M69.0439 8.52009L67.2651 5.93278C67.0453 5.94882 66.8725 5.95685 66.7468 5.95685H64.7089V8.52009H63.5309V0.0962717H66.7468C67.8149 0.0962717 68.6552 0.357009 69.2677 0.878484C69.8803 1.39996 70.1866 2.11799 70.1866 3.03258C70.1866 3.68241 70.0295 4.23598 69.7154 4.69327C69.4013 5.15057 68.9536 5.48351 68.3725 5.6921L70.3279 8.52009H69.0439ZM66.7115 4.93395C67.4576 4.93395 68.0269 4.76949 68.4196 4.44056C68.8123 4.11163 69.0086 3.6423 69.0086 3.03258C69.0086 2.42285 68.8123 1.95754 68.4196 1.63663C68.0269 1.3077 67.4576 1.14323 66.7115 1.14323H64.7089V4.93395H66.7115Z" fill="white"/>
<path d="M75.8123 8.61637C74.9798 8.61637 74.2298 8.43184 73.5623 8.0628C72.8948 7.68573 72.3686 7.16827 71.9838 6.51041C71.6068 5.85255 71.4183 5.11847 71.4183 4.30818C71.4183 3.49789 71.6068 2.76382 71.9838 2.10595C72.3686 1.44809 72.8948 0.934643 73.5623 0.565599C74.2298 0.188533 74.9798 0 75.8123 0C76.6369 0 77.3829 0.188533 78.0505 0.565599C78.718 0.934643 79.2403 1.44809 79.6172 2.10595C79.9942 2.75579 80.1827 3.48987 80.1827 4.30818C80.1827 5.1265 79.9942 5.86458 79.6172 6.52244C79.2403 7.17228 78.718 7.68573 78.0505 8.0628C77.3829 8.43184 76.6369 8.61637 75.8123 8.61637ZM75.8123 7.54534C76.417 7.54534 76.9589 7.40494 77.4379 7.12415C77.9248 6.84335 78.3057 6.45826 78.5806 5.96888C78.8633 5.47147 79.0047 4.91791 79.0047 4.30818C79.0047 3.69846 78.8633 3.1489 78.5806 2.65952C78.3057 2.16211 77.9248 1.77301 77.4379 1.49222C76.9589 1.21143 76.417 1.07103 75.8123 1.07103C75.2076 1.07103 74.6578 1.21143 74.1631 1.49222C73.6762 1.77301 73.2914 2.16211 73.0086 2.65952C72.7338 3.1489 72.5963 3.69846 72.5963 4.30818C72.5963 4.91791 72.7338 5.47147 73.0086 5.96888C73.2914 6.45826 73.6762 6.84335 74.1631 7.12415C74.6578 7.40494 75.2076 7.54534 75.8123 7.54534Z" fill="white"/>
<path d="M81.9832 0.0962717H85.4583C86.33 0.0962717 87.1035 0.272771 87.7789 0.625769C88.4543 0.978767 88.9766 1.47617 89.3457 2.11799C89.7226 2.75178 89.9111 3.48185 89.9111 4.30818C89.9111 5.13452 89.7226 5.8686 89.3457 6.51041C88.9766 7.1442 88.4543 7.6376 87.7789 7.9906C87.1035 8.34359 86.33 8.52009 85.4583 8.52009H81.9832V0.0962717ZM85.3876 7.47313C86.0551 7.47313 86.6402 7.34076 87.1428 7.07601C87.6533 6.81126 88.0459 6.44222 88.3208 5.96888C88.5957 5.48752 88.7331 4.93395 88.7331 4.30818C88.7331 3.68241 88.5957 3.13286 88.3208 2.65952C88.0459 2.17816 87.6533 1.8051 87.1428 1.54036C86.6402 1.27561 86.0551 1.14323 85.3876 1.14323H83.1612V7.47313H85.3876Z" fill="white"/>
<path d="M95.1317 8.61637C94.0322 8.61637 93.1762 8.29546 92.5636 7.65364C91.9511 7.01183 91.6448 6.08922 91.6448 4.88582V0.0962717H92.8228V4.83768C92.8228 6.64279 93.5963 7.54534 95.1434 7.54534C95.8974 7.54534 96.4746 7.32471 96.8751 6.88347C97.2756 6.43419 97.4759 5.75227 97.4759 4.83768V0.0962717H98.6185V4.88582C98.6185 6.09724 98.3123 7.02386 97.6997 7.66568C97.0871 8.29947 96.2311 8.61637 95.1317 8.61637Z" fill="white"/>
<path d="M104.721 8.61637C103.896 8.61637 103.15 8.43184 102.483 8.0628C101.823 7.68573 101.305 7.17228 100.928 6.52244C100.551 5.86458 100.362 5.1265 100.362 4.30818C100.362 3.48987 100.551 2.75579 100.928 2.10595C101.305 1.44809 101.827 0.934643 102.494 0.565599C103.162 0.188533 103.908 0 104.733 0C105.377 0 105.966 0.112318 106.5 0.336953C107.034 0.553565 107.489 0.878484 107.866 1.31171L107.1 2.06985C106.48 1.40397 105.706 1.07103 104.78 1.07103C104.167 1.07103 103.613 1.21143 103.119 1.49222C102.624 1.77301 102.235 2.16211 101.952 2.65952C101.678 3.1489 101.54 3.69846 101.54 4.30818C101.54 4.91791 101.678 5.47147 101.952 5.96888C102.235 6.45826 102.624 6.84335 103.119 7.12415C103.613 7.40494 104.167 7.54534 104.78 7.54534C105.699 7.54534 106.472 7.20838 107.1 6.53448L107.866 7.29262C107.489 7.72585 107.03 8.05478 106.488 8.27941C105.954 8.50405 105.365 8.61637 104.721 8.61637Z" fill="white"/>
<path d="M111.092 1.14323H108.265V0.0962717H115.085V1.14323H112.258V8.52009H111.092V1.14323Z" fill="white"/>
<path d="M116.368 0.0962717H117.546V8.52009H116.368V0.0962717Z" fill="white"/>
<path d="M123.738 8.61637C122.905 8.61637 122.155 8.43184 121.488 8.0628C120.82 7.68573 120.294 7.16827 119.909 6.51041C119.532 5.85255 119.344 5.11847 119.344 4.30818C119.344 3.49789 119.532 2.76382 119.909 2.10595C120.294 1.44809 120.82 0.934643 121.488 0.565599C122.155 0.188533 122.905 0 123.738 0C124.562 0 125.308 0.188533 125.976 0.565599C126.643 0.934643 127.166 1.44809 127.543 2.10595C127.919 2.75579 128.108 3.48987 128.108 4.30818C128.108 5.1265 127.919 5.86458 127.543 6.52244C127.166 7.17228 126.643 7.68573 125.976 8.0628C125.308 8.43184 124.562 8.61637 123.738 8.61637ZM123.738 7.54534C124.342 7.54534 124.884 7.40494 125.363 7.12415C125.85 6.84335 126.231 6.45826 126.506 5.96888C126.789 5.47147 126.93 4.91791 126.93 4.30818C126.93 3.69846 126.789 3.1489 126.506 2.65952C126.231 2.16211 125.85 1.77301 125.363 1.49222C124.884 1.21143 124.342 1.07103 123.738 1.07103C123.133 1.07103 122.583 1.21143 122.088 1.49222C121.601 1.77301 121.217 2.16211 120.934 2.65952C120.659 3.1489 120.522 3.69846 120.522 4.30818C120.522 4.91791 120.659 5.47147 120.934 5.96888C121.217 6.45826 121.601 6.84335 122.088 7.12415C122.583 7.40494 123.133 7.54534 123.738 7.54534Z" fill="white"/>
<path d="M137 0.0962717V8.52009H136.034L131.086 2.23833V8.52009H129.908V0.0962717H130.874L135.822 6.37804V0.0962717H137Z" fill="white"/>
</svg>
