<svg width="2177" height="27" viewBox="0 0 2177 27" fill="none" xmlns="http://www.w3.org/2000/svg">
<rect width="2177" height="27" fill="#EB4301"/>
<path d="M35.752 19.16C34.8773 19.16 34.072 19.016 33.336 18.728C32.6 18.44 31.96 18.04 31.416 17.528C30.872 17.0053 30.4507 16.3973 30.152 15.704C29.8533 15 29.704 14.232 29.704 13.4C29.704 12.568 29.8533 11.8053 30.152 11.112C30.4507 10.408 30.872 9.8 31.416 9.288C31.96 8.76533 32.6 8.36 33.336 8.072C34.072 7.784 34.872 7.64 35.736 7.64C36.6107 7.64 37.4107 7.784 38.136 8.072C38.872 8.36 39.512 8.76533 40.056 9.288C40.6 9.8 41.0213 10.408 41.32 11.112C41.6187 11.8053 41.768 12.568 41.768 13.4C41.768 14.232 41.6187 15 41.32 15.704C41.0213 16.408 40.6 17.016 40.056 17.528C39.512 18.04 38.872 18.44 38.136 18.728C37.4107 19.016 36.616 19.16 35.752 19.16ZM35.736 17.336C36.3013 17.336 36.824 17.24 37.304 17.048C37.784 16.856 38.2 16.584 38.552 16.232C38.904 15.8693 39.176 15.4533 39.368 14.984C39.5707 14.504 39.672 13.976 39.672 13.4C39.672 12.824 39.5707 12.3013 39.368 11.832C39.176 11.352 38.904 10.936 38.552 10.584C38.2 10.2213 37.784 9.944 37.304 9.752C36.824 9.56 36.3013 9.464 35.736 9.464C35.1707 9.464 34.648 9.56 34.168 9.752C33.6987 9.944 33.2827 10.2213 32.92 10.584C32.568 10.936 32.2907 11.352 32.088 11.832C31.896 12.3013 31.8 12.824 31.8 13.4C31.8 13.9653 31.896 14.488 32.088 14.968C32.2907 15.448 32.568 15.8693 32.92 16.232C33.272 16.584 33.688 16.856 34.168 17.048C34.648 17.24 35.1707 17.336 35.736 17.336ZM44.4527 19V7.8H46.1647L51.0608 15.976H50.1648L54.9808 7.8H56.6927L56.7087 19H54.7408L54.7248 10.888H55.1407L51.0448 17.72H50.1167L45.9567 10.888H46.4367V19H44.4527ZM62.134 12.456H67.702V14.168H62.134V12.456ZM62.294 17.256H68.614V19H60.214V7.8H68.39V9.544H62.294V17.256ZM76.6447 19.16C75.7701 19.16 74.9647 19.0213 74.2287 18.744C73.5034 18.456 72.8687 18.056 72.3247 17.544C71.7807 17.0213 71.3594 16.408 71.0607 15.704C70.7621 15 70.6127 14.232 70.6127 13.4C70.6127 12.568 70.7621 11.8 71.0607 11.096C71.3594 10.392 71.7807 9.784 72.3247 9.272C72.8794 8.74933 73.5247 8.34933 74.2607 8.072C74.9967 7.784 75.8021 7.64 76.6767 7.64C77.6261 7.64 78.4794 7.79467 79.2367 8.104C80.0047 8.41333 80.6501 8.86667 81.1727 9.464L79.8607 10.744C79.4234 10.3067 78.9487 9.98667 78.4367 9.784C77.9354 9.57067 77.3807 9.464 76.7727 9.464C76.1861 9.464 75.6421 9.56 75.1407 9.752C74.6394 9.944 74.2074 10.216 73.8447 10.568C73.4821 10.92 73.1994 11.336 72.9967 11.816C72.8047 12.296 72.7087 12.824 72.7087 13.4C72.7087 13.9653 72.8047 14.488 72.9967 14.968C73.1994 15.448 73.4821 15.8693 73.8447 16.232C74.2074 16.584 74.6341 16.856 75.1247 17.048C75.6154 17.24 76.1594 17.336 76.7567 17.336C77.3114 17.336 77.8447 17.2507 78.3567 17.08C78.8794 16.8987 79.3754 16.6 79.8447 16.184L81.0287 17.736C80.4421 18.2053 79.7594 18.5627 78.9807 18.808C78.2127 19.0427 77.4341 19.16 76.6447 19.16ZM79.0607 17.464V13.272H81.0287V17.736L79.0607 17.464ZM82.6681 19L87.7081 7.8H89.7561L94.8121 19H92.6361L88.3001 8.904H89.1321L84.8121 19H82.6681ZM84.9881 16.408L85.5481 14.776H91.5961L92.1561 16.408H84.9881ZM101.618 19V7.8H106.226C107.218 7.8 108.066 7.96 108.77 8.28C109.485 8.6 110.034 9.05867 110.418 9.656C110.802 10.2533 110.994 10.9627 110.994 11.784C110.994 12.6053 110.802 13.3147 110.418 13.912C110.034 14.5093 109.485 14.968 108.77 15.288C108.066 15.608 107.218 15.768 106.226 15.768H102.77L103.698 14.792V19H101.618ZM103.698 15.016L102.77 14.008H106.13C107.048 14.008 107.736 13.816 108.194 13.432C108.664 13.0373 108.898 12.488 108.898 11.784C108.898 11.0693 108.664 10.52 108.194 10.136C107.736 9.752 107.048 9.56 106.13 9.56H102.77L103.698 8.536V15.016ZM113.552 19V7.8H118.16C119.152 7.8 120 7.96 120.704 8.28C121.418 8.6 121.968 9.05867 122.352 9.656C122.736 10.2533 122.928 10.9627 122.928 11.784C122.928 12.6053 122.736 13.3147 122.352 13.912C121.968 14.4987 121.418 14.952 120.704 15.272C120 15.5813 119.152 15.736 118.16 15.736H114.704L115.632 14.792V19H113.552ZM120.88 19L118.048 14.936H120.272L123.12 19H120.88ZM115.632 15.016L114.704 14.024H118.064C118.981 14.024 119.669 13.8267 120.128 13.432C120.597 13.0373 120.832 12.488 120.832 11.784C120.832 11.0693 120.597 10.52 120.128 10.136C119.669 9.752 118.981 9.56 118.064 9.56H114.704L115.632 8.536V15.016ZM130.983 19.16C130.108 19.16 129.303 19.016 128.567 18.728C127.831 18.44 127.191 18.04 126.647 17.528C126.103 17.0053 125.681 16.3973 125.383 15.704C125.084 15 124.935 14.232 124.935 13.4C124.935 12.568 125.084 11.8053 125.383 11.112C125.681 10.408 126.103 9.8 126.647 9.288C127.191 8.76533 127.831 8.36 128.567 8.072C129.303 7.784 130.103 7.64 130.967 7.64C131.841 7.64 132.641 7.784 133.367 8.072C134.103 8.36 134.743 8.76533 135.287 9.288C135.831 9.8 136.252 10.408 136.551 11.112C136.849 11.8053 136.999 12.568 136.999 13.4C136.999 14.232 136.849 15 136.551 15.704C136.252 16.408 135.831 17.016 135.287 17.528C134.743 18.04 134.103 18.44 133.367 18.728C132.641 19.016 131.847 19.16 130.983 19.16ZM130.967 17.336C131.532 17.336 132.055 17.24 132.535 17.048C133.015 16.856 133.431 16.584 133.783 16.232C134.135 15.8693 134.407 15.4533 134.599 14.984C134.801 14.504 134.903 13.976 134.903 13.4C134.903 12.824 134.801 12.3013 134.599 11.832C134.407 11.352 134.135 10.936 133.783 10.584C133.431 10.2213 133.015 9.944 132.535 9.752C132.055 9.56 131.532 9.464 130.967 9.464C130.401 9.464 129.879 9.56 129.399 9.752C128.929 9.944 128.513 10.2213 128.151 10.584C127.799 10.936 127.521 11.352 127.319 11.832C127.127 12.3013 127.031 12.824 127.031 13.4C127.031 13.9653 127.127 14.488 127.319 14.968C127.521 15.448 127.799 15.8693 128.151 16.232C128.503 16.584 128.919 16.856 129.399 17.048C129.879 17.24 130.401 17.336 130.967 17.336ZM139.683 19V7.8H144.579C145.795 7.8 146.862 8.03467 147.779 8.504C148.697 8.97333 149.411 9.624 149.923 10.456C150.435 11.288 150.691 12.2693 150.691 13.4C150.691 14.52 150.435 15.5013 149.923 16.344C149.411 17.176 148.697 17.8267 147.779 18.296C146.862 18.7653 145.795 19 144.579 19H139.683ZM141.763 17.24H144.483C145.326 17.24 146.051 17.08 146.659 16.76C147.278 16.44 147.753 15.992 148.083 15.416C148.425 14.84 148.595 14.168 148.595 13.4C148.595 12.6213 148.425 11.9493 148.083 11.384C147.753 10.808 147.278 10.36 146.659 10.04C146.051 9.72 145.326 9.56 144.483 9.56H141.763V17.24ZM158.198 19.16C156.662 19.16 155.457 18.728 154.582 17.864C153.718 17 153.286 15.752 153.286 14.12V7.8H155.366V14.04C155.366 15.192 155.611 16.0293 156.102 16.552C156.603 17.0747 157.307 17.336 158.214 17.336C159.121 17.336 159.819 17.0747 160.31 16.552C160.801 16.0293 161.046 15.192 161.046 14.04V7.8H163.094V14.12C163.094 15.752 162.657 17 161.782 17.864C160.918 18.728 159.723 19.16 158.198 19.16ZM171.671 19.16C170.818 19.16 170.023 19.0213 169.287 18.744C168.562 18.456 167.927 18.056 167.383 17.544C166.85 17.0213 166.434 16.408 166.135 15.704C165.836 15 165.687 14.232 165.687 13.4C165.687 12.568 165.836 11.8 166.135 11.096C166.434 10.392 166.855 9.784 167.399 9.272C167.943 8.74933 168.578 8.34933 169.303 8.072C170.028 7.784 170.823 7.64 171.687 7.64C172.604 7.64 173.442 7.8 174.199 8.12C174.956 8.42933 175.596 8.89333 176.119 9.512L174.775 10.776C174.37 10.3387 173.916 10.0133 173.415 9.8C172.914 9.576 172.37 9.464 171.783 9.464C171.196 9.464 170.658 9.56 170.167 9.752C169.687 9.944 169.266 10.216 168.903 10.568C168.551 10.92 168.274 11.336 168.071 11.816C167.879 12.296 167.783 12.824 167.783 13.4C167.783 13.976 167.879 14.504 168.071 14.984C168.274 15.464 168.551 15.88 168.903 16.232C169.266 16.584 169.687 16.856 170.167 17.048C170.658 17.24 171.196 17.336 171.783 17.336C172.37 17.336 172.914 17.2293 173.415 17.016C173.916 16.792 174.37 16.456 174.775 16.008L176.119 17.288C175.596 17.896 174.956 18.36 174.199 18.68C173.442 19 172.599 19.16 171.671 19.16ZM180.739 19V9.56H177.027V7.8H186.531V9.56H182.819V19H180.739ZM188.572 19V7.8H190.652V19H188.572ZM199.41 19.16C198.535 19.16 197.73 19.016 196.994 18.728C196.258 18.44 195.618 18.04 195.074 17.528C194.53 17.0053 194.108 16.3973 193.81 15.704C193.511 15 193.362 14.232 193.362 13.4C193.362 12.568 193.511 11.8053 193.81 11.112C194.108 10.408 194.53 9.8 195.074 9.288C195.618 8.76533 196.258 8.36 196.994 8.072C197.73 7.784 198.53 7.64 199.394 7.64C200.268 7.64 201.068 7.784 201.794 8.072C202.53 8.36 203.17 8.76533 203.714 9.288C204.258 9.8 204.679 10.408 204.978 11.112C205.276 11.8053 205.426 12.568 205.426 13.4C205.426 14.232 205.276 15 204.978 15.704C204.679 16.408 204.258 17.016 203.714 17.528C203.17 18.04 202.53 18.44 201.794 18.728C201.068 19.016 200.274 19.16 199.41 19.16ZM199.394 17.336C199.959 17.336 200.482 17.24 200.962 17.048C201.442 16.856 201.858 16.584 202.21 16.232C202.562 15.8693 202.834 15.4533 203.026 14.984C203.228 14.504 203.33 13.976 203.33 13.4C203.33 12.824 203.228 12.3013 203.026 11.832C202.834 11.352 202.562 10.936 202.21 10.584C201.858 10.2213 201.442 9.944 200.962 9.752C200.482 9.56 199.959 9.464 199.394 9.464C198.828 9.464 198.306 9.56 197.826 9.752C197.356 9.944 196.94 10.2213 196.578 10.584C196.226 10.936 195.948 11.352 195.746 11.832C195.554 12.3013 195.458 12.824 195.458 13.4C195.458 13.9653 195.554 14.488 195.746 14.968C195.948 15.448 196.226 15.8693 196.578 16.232C196.93 16.584 197.346 16.856 197.826 17.048C198.306 17.24 198.828 17.336 199.394 17.336ZM208.11 19V7.8H209.822L216.846 16.424H215.998V7.8H218.062V19H216.35L209.326 10.376H210.174V19H208.11Z" fill="white"/>
<path d="M262.752 19.16C261.877 19.16 261.072 19.016 260.336 18.728C259.6 18.44 258.96 18.04 258.416 17.528C257.872 17.0053 257.451 16.3973 257.152 15.704C256.853 15 256.704 14.232 256.704 13.4C256.704 12.568 256.853 11.8053 257.152 11.112C257.451 10.408 257.872 9.8 258.416 9.288C258.96 8.76533 259.6 8.36 260.336 8.072C261.072 7.784 261.872 7.64 262.736 7.64C263.611 7.64 264.411 7.784 265.136 8.072C265.872 8.36 266.512 8.76533 267.056 9.288C267.6 9.8 268.021 10.408 268.32 11.112C268.619 11.8053 268.768 12.568 268.768 13.4C268.768 14.232 268.619 15 268.32 15.704C268.021 16.408 267.6 17.016 267.056 17.528C266.512 18.04 265.872 18.44 265.136 18.728C264.411 19.016 263.616 19.16 262.752 19.16ZM262.736 17.336C263.301 17.336 263.824 17.24 264.304 17.048C264.784 16.856 265.2 16.584 265.552 16.232C265.904 15.8693 266.176 15.4533 266.368 14.984C266.571 14.504 266.672 13.976 266.672 13.4C266.672 12.824 266.571 12.3013 266.368 11.832C266.176 11.352 265.904 10.936 265.552 10.584C265.2 10.2213 264.784 9.944 264.304 9.752C263.824 9.56 263.301 9.464 262.736 9.464C262.171 9.464 261.648 9.56 261.168 9.752C260.699 9.944 260.283 10.2213 259.92 10.584C259.568 10.936 259.291 11.352 259.088 11.832C258.896 12.3013 258.8 12.824 258.8 13.4C258.8 13.9653 258.896 14.488 259.088 14.968C259.291 15.448 259.568 15.8693 259.92 16.232C260.272 16.584 260.688 16.856 261.168 17.048C261.648 17.24 262.171 17.336 262.736 17.336ZM271.453 19V7.8H273.165L278.061 15.976H277.165L281.981 7.8H283.693L283.709 19H281.741L281.725 10.888H282.141L278.045 17.72H277.117L272.957 10.888H273.437V19H271.453ZM289.134 12.456H294.702V14.168H289.134V12.456ZM289.294 17.256H295.614V19H287.214V7.8H295.39V9.544H289.294V17.256ZM303.645 19.16C302.77 19.16 301.965 19.0213 301.229 18.744C300.503 18.456 299.869 18.056 299.325 17.544C298.781 17.0213 298.359 16.408 298.061 15.704C297.762 15 297.613 14.232 297.613 13.4C297.613 12.568 297.762 11.8 298.061 11.096C298.359 10.392 298.781 9.784 299.325 9.272C299.879 8.74933 300.525 8.34933 301.261 8.072C301.997 7.784 302.802 7.64 303.677 7.64C304.626 7.64 305.479 7.79467 306.237 8.104C307.005 8.41333 307.65 8.86667 308.173 9.464L306.861 10.744C306.423 10.3067 305.949 9.98667 305.437 9.784C304.935 9.57067 304.381 9.464 303.773 9.464C303.186 9.464 302.642 9.56 302.141 9.752C301.639 9.944 301.207 10.216 300.845 10.568C300.482 10.92 300.199 11.336 299.997 11.816C299.805 12.296 299.709 12.824 299.709 13.4C299.709 13.9653 299.805 14.488 299.997 14.968C300.199 15.448 300.482 15.8693 300.845 16.232C301.207 16.584 301.634 16.856 302.125 17.048C302.615 17.24 303.159 17.336 303.757 17.336C304.311 17.336 304.845 17.2507 305.357 17.08C305.879 16.8987 306.375 16.6 306.845 16.184L308.029 17.736C307.442 18.2053 306.759 18.5627 305.981 18.808C305.213 19.0427 304.434 19.16 303.645 19.16ZM306.061 17.464V13.272H308.029V17.736L306.061 17.464ZM309.668 19L314.708 7.8H316.756L321.812 19H319.636L315.3 8.904H316.132L311.812 19H309.668ZM311.988 16.408L312.548 14.776H318.596L319.156 16.408H311.988ZM328.618 19V7.8H333.226C334.218 7.8 335.066 7.96 335.77 8.28C336.485 8.6 337.034 9.05867 337.418 9.656C337.802 10.2533 337.994 10.9627 337.994 11.784C337.994 12.6053 337.802 13.3147 337.418 13.912C337.034 14.5093 336.485 14.968 335.77 15.288C335.066 15.608 334.218 15.768 333.226 15.768H329.77L330.698 14.792V19H328.618ZM330.698 15.016L329.77 14.008H333.13C334.048 14.008 334.736 13.816 335.194 13.432C335.664 13.0373 335.898 12.488 335.898 11.784C335.898 11.0693 335.664 10.52 335.194 10.136C334.736 9.752 334.048 9.56 333.13 9.56H329.77L330.698 8.536V15.016ZM340.552 19V7.8H345.16C346.152 7.8 347 7.96 347.704 8.28C348.418 8.6 348.968 9.05867 349.352 9.656C349.736 10.2533 349.928 10.9627 349.928 11.784C349.928 12.6053 349.736 13.3147 349.352 13.912C348.968 14.4987 348.418 14.952 347.704 15.272C347 15.5813 346.152 15.736 345.16 15.736H341.704L342.632 14.792V19H340.552ZM347.88 19L345.048 14.936H347.272L350.12 19H347.88ZM342.632 15.016L341.704 14.024H345.064C345.981 14.024 346.669 13.8267 347.128 13.432C347.597 13.0373 347.832 12.488 347.832 11.784C347.832 11.0693 347.597 10.52 347.128 10.136C346.669 9.752 345.981 9.56 345.064 9.56H341.704L342.632 8.536V15.016ZM357.983 19.16C357.108 19.16 356.303 19.016 355.567 18.728C354.831 18.44 354.191 18.04 353.647 17.528C353.103 17.0053 352.681 16.3973 352.383 15.704C352.084 15 351.935 14.232 351.935 13.4C351.935 12.568 352.084 11.8053 352.383 11.112C352.681 10.408 353.103 9.8 353.647 9.288C354.191 8.76533 354.831 8.36 355.567 8.072C356.303 7.784 357.103 7.64 357.967 7.64C358.841 7.64 359.641 7.784 360.367 8.072C361.103 8.36 361.743 8.76533 362.287 9.288C362.831 9.8 363.252 10.408 363.551 11.112C363.849 11.8053 363.999 12.568 363.999 13.4C363.999 14.232 363.849 15 363.551 15.704C363.252 16.408 362.831 17.016 362.287 17.528C361.743 18.04 361.103 18.44 360.367 18.728C359.641 19.016 358.847 19.16 357.983 19.16ZM357.967 17.336C358.532 17.336 359.055 17.24 359.535 17.048C360.015 16.856 360.431 16.584 360.783 16.232C361.135 15.8693 361.407 15.4533 361.599 14.984C361.801 14.504 361.903 13.976 361.903 13.4C361.903 12.824 361.801 12.3013 361.599 11.832C361.407 11.352 361.135 10.936 360.783 10.584C360.431 10.2213 360.015 9.944 359.535 9.752C359.055 9.56 358.532 9.464 357.967 9.464C357.401 9.464 356.879 9.56 356.399 9.752C355.929 9.944 355.513 10.2213 355.151 10.584C354.799 10.936 354.521 11.352 354.319 11.832C354.127 12.3013 354.031 12.824 354.031 13.4C354.031 13.9653 354.127 14.488 354.319 14.968C354.521 15.448 354.799 15.8693 355.151 16.232C355.503 16.584 355.919 16.856 356.399 17.048C356.879 17.24 357.401 17.336 357.967 17.336ZM366.683 19V7.8H371.579C372.795 7.8 373.862 8.03467 374.779 8.504C375.697 8.97333 376.411 9.624 376.923 10.456C377.435 11.288 377.691 12.2693 377.691 13.4C377.691 14.52 377.435 15.5013 376.923 16.344C376.411 17.176 375.697 17.8267 374.779 18.296C373.862 18.7653 372.795 19 371.579 19H366.683ZM368.763 17.24H371.483C372.326 17.24 373.051 17.08 373.659 16.76C374.278 16.44 374.753 15.992 375.083 15.416C375.425 14.84 375.595 14.168 375.595 13.4C375.595 12.6213 375.425 11.9493 375.083 11.384C374.753 10.808 374.278 10.36 373.659 10.04C373.051 9.72 372.326 9.56 371.483 9.56H368.763V17.24ZM385.198 19.16C383.662 19.16 382.457 18.728 381.582 17.864C380.718 17 380.286 15.752 380.286 14.12V7.8H382.366V14.04C382.366 15.192 382.611 16.0293 383.102 16.552C383.603 17.0747 384.307 17.336 385.214 17.336C386.121 17.336 386.819 17.0747 387.31 16.552C387.801 16.0293 388.046 15.192 388.046 14.04V7.8H390.094V14.12C390.094 15.752 389.657 17 388.782 17.864C387.918 18.728 386.723 19.16 385.198 19.16ZM398.671 19.16C397.818 19.16 397.023 19.0213 396.287 18.744C395.562 18.456 394.927 18.056 394.383 17.544C393.85 17.0213 393.434 16.408 393.135 15.704C392.836 15 392.687 14.232 392.687 13.4C392.687 12.568 392.836 11.8 393.135 11.096C393.434 10.392 393.855 9.784 394.399 9.272C394.943 8.74933 395.578 8.34933 396.303 8.072C397.028 7.784 397.823 7.64 398.687 7.64C399.604 7.64 400.442 7.8 401.199 8.12C401.956 8.42933 402.596 8.89333 403.119 9.512L401.775 10.776C401.37 10.3387 400.916 10.0133 400.415 9.8C399.914 9.576 399.37 9.464 398.783 9.464C398.196 9.464 397.658 9.56 397.167 9.752C396.687 9.944 396.266 10.216 395.903 10.568C395.551 10.92 395.274 11.336 395.071 11.816C394.879 12.296 394.783 12.824 394.783 13.4C394.783 13.976 394.879 14.504 395.071 14.984C395.274 15.464 395.551 15.88 395.903 16.232C396.266 16.584 396.687 16.856 397.167 17.048C397.658 17.24 398.196 17.336 398.783 17.336C399.37 17.336 399.914 17.2293 400.415 17.016C400.916 16.792 401.37 16.456 401.775 16.008L403.119 17.288C402.596 17.896 401.956 18.36 401.199 18.68C400.442 19 399.599 19.16 398.671 19.16ZM407.739 19V9.56H404.027V7.8H413.531V9.56H409.819V19H407.739ZM415.572 19V7.8H417.652V19H415.572ZM426.41 19.16C425.535 19.16 424.73 19.016 423.994 18.728C423.258 18.44 422.618 18.04 422.074 17.528C421.53 17.0053 421.108 16.3973 420.81 15.704C420.511 15 420.362 14.232 420.362 13.4C420.362 12.568 420.511 11.8053 420.81 11.112C421.108 10.408 421.53 9.8 422.074 9.288C422.618 8.76533 423.258 8.36 423.994 8.072C424.73 7.784 425.53 7.64 426.394 7.64C427.268 7.64 428.068 7.784 428.794 8.072C429.53 8.36 430.17 8.76533 430.714 9.288C431.258 9.8 431.679 10.408 431.978 11.112C432.276 11.8053 432.426 12.568 432.426 13.4C432.426 14.232 432.276 15 431.978 15.704C431.679 16.408 431.258 17.016 430.714 17.528C430.17 18.04 429.53 18.44 428.794 18.728C428.068 19.016 427.274 19.16 426.41 19.16ZM426.394 17.336C426.959 17.336 427.482 17.24 427.962 17.048C428.442 16.856 428.858 16.584 429.21 16.232C429.562 15.8693 429.834 15.4533 430.026 14.984C430.228 14.504 430.33 13.976 430.33 13.4C430.33 12.824 430.228 12.3013 430.026 11.832C429.834 11.352 429.562 10.936 429.21 10.584C428.858 10.2213 428.442 9.944 427.962 9.752C427.482 9.56 426.959 9.464 426.394 9.464C425.828 9.464 425.306 9.56 424.826 9.752C424.356 9.944 423.94 10.2213 423.578 10.584C423.226 10.936 422.948 11.352 422.746 11.832C422.554 12.3013 422.458 12.824 422.458 13.4C422.458 13.9653 422.554 14.488 422.746 14.968C422.948 15.448 423.226 15.8693 423.578 16.232C423.93 16.584 424.346 16.856 424.826 17.048C425.306 17.24 425.828 17.336 426.394 17.336ZM435.11 19V7.8H436.822L443.846 16.424H442.998V7.8H445.062V19H443.35L436.326 10.376H437.174V19H435.11Z" fill="white"/>
<path d="M489.752 19.16C488.877 19.16 488.072 19.016 487.336 18.728C486.6 18.44 485.96 18.04 485.416 17.528C484.872 17.0053 484.451 16.3973 484.152 15.704C483.853 15 483.704 14.232 483.704 13.4C483.704 12.568 483.853 11.8053 484.152 11.112C484.451 10.408 484.872 9.8 485.416 9.288C485.96 8.76533 486.6 8.36 487.336 8.072C488.072 7.784 488.872 7.64 489.736 7.64C490.611 7.64 491.411 7.784 492.136 8.072C492.872 8.36 493.512 8.76533 494.056 9.288C494.6 9.8 495.021 10.408 495.32 11.112C495.619 11.8053 495.768 12.568 495.768 13.4C495.768 14.232 495.619 15 495.32 15.704C495.021 16.408 494.6 17.016 494.056 17.528C493.512 18.04 492.872 18.44 492.136 18.728C491.411 19.016 490.616 19.16 489.752 19.16ZM489.736 17.336C490.301 17.336 490.824 17.24 491.304 17.048C491.784 16.856 492.2 16.584 492.552 16.232C492.904 15.8693 493.176 15.4533 493.368 14.984C493.571 14.504 493.672 13.976 493.672 13.4C493.672 12.824 493.571 12.3013 493.368 11.832C493.176 11.352 492.904 10.936 492.552 10.584C492.2 10.2213 491.784 9.944 491.304 9.752C490.824 9.56 490.301 9.464 489.736 9.464C489.171 9.464 488.648 9.56 488.168 9.752C487.699 9.944 487.283 10.2213 486.92 10.584C486.568 10.936 486.291 11.352 486.088 11.832C485.896 12.3013 485.8 12.824 485.8 13.4C485.8 13.9653 485.896 14.488 486.088 14.968C486.291 15.448 486.568 15.8693 486.92 16.232C487.272 16.584 487.688 16.856 488.168 17.048C488.648 17.24 489.171 17.336 489.736 17.336ZM498.453 19V7.8H500.165L505.061 15.976H504.165L508.981 7.8H510.693L510.709 19H508.741L508.725 10.888H509.141L505.045 17.72H504.117L499.957 10.888H500.437V19H498.453ZM516.134 12.456H521.702V14.168H516.134V12.456ZM516.294 17.256H522.614V19H514.214V7.8H522.39V9.544H516.294V17.256ZM530.645 19.16C529.77 19.16 528.965 19.0213 528.229 18.744C527.503 18.456 526.869 18.056 526.325 17.544C525.781 17.0213 525.359 16.408 525.061 15.704C524.762 15 524.613 14.232 524.613 13.4C524.613 12.568 524.762 11.8 525.061 11.096C525.359 10.392 525.781 9.784 526.325 9.272C526.879 8.74933 527.525 8.34933 528.261 8.072C528.997 7.784 529.802 7.64 530.677 7.64C531.626 7.64 532.479 7.79467 533.237 8.104C534.005 8.41333 534.65 8.86667 535.173 9.464L533.861 10.744C533.423 10.3067 532.949 9.98667 532.437 9.784C531.935 9.57067 531.381 9.464 530.773 9.464C530.186 9.464 529.642 9.56 529.141 9.752C528.639 9.944 528.207 10.216 527.845 10.568C527.482 10.92 527.199 11.336 526.997 11.816C526.805 12.296 526.709 12.824 526.709 13.4C526.709 13.9653 526.805 14.488 526.997 14.968C527.199 15.448 527.482 15.8693 527.845 16.232C528.207 16.584 528.634 16.856 529.125 17.048C529.615 17.24 530.159 17.336 530.757 17.336C531.311 17.336 531.845 17.2507 532.357 17.08C532.879 16.8987 533.375 16.6 533.845 16.184L535.029 17.736C534.442 18.2053 533.759 18.5627 532.981 18.808C532.213 19.0427 531.434 19.16 530.645 19.16ZM533.061 17.464V13.272H535.029V17.736L533.061 17.464ZM536.668 19L541.708 7.8H543.756L548.812 19H546.636L542.3 8.904H543.132L538.812 19H536.668ZM538.988 16.408L539.548 14.776H545.596L546.156 16.408H538.988ZM555.618 19V7.8H560.226C561.218 7.8 562.066 7.96 562.77 8.28C563.485 8.6 564.034 9.05867 564.418 9.656C564.802 10.2533 564.994 10.9627 564.994 11.784C564.994 12.6053 564.802 13.3147 564.418 13.912C564.034 14.5093 563.485 14.968 562.77 15.288C562.066 15.608 561.218 15.768 560.226 15.768H556.77L557.698 14.792V19H555.618ZM557.698 15.016L556.77 14.008H560.13C561.048 14.008 561.736 13.816 562.194 13.432C562.664 13.0373 562.898 12.488 562.898 11.784C562.898 11.0693 562.664 10.52 562.194 10.136C561.736 9.752 561.048 9.56 560.13 9.56H556.77L557.698 8.536V15.016ZM567.552 19V7.8H572.16C573.152 7.8 574 7.96 574.704 8.28C575.418 8.6 575.968 9.05867 576.352 9.656C576.736 10.2533 576.928 10.9627 576.928 11.784C576.928 12.6053 576.736 13.3147 576.352 13.912C575.968 14.4987 575.418 14.952 574.704 15.272C574 15.5813 573.152 15.736 572.16 15.736H568.704L569.632 14.792V19H567.552ZM574.88 19L572.048 14.936H574.272L577.12 19H574.88ZM569.632 15.016L568.704 14.024H572.064C572.981 14.024 573.669 13.8267 574.128 13.432C574.597 13.0373 574.832 12.488 574.832 11.784C574.832 11.0693 574.597 10.52 574.128 10.136C573.669 9.752 572.981 9.56 572.064 9.56H568.704L569.632 8.536V15.016ZM584.983 19.16C584.108 19.16 583.303 19.016 582.567 18.728C581.831 18.44 581.191 18.04 580.647 17.528C580.103 17.0053 579.681 16.3973 579.383 15.704C579.084 15 578.935 14.232 578.935 13.4C578.935 12.568 579.084 11.8053 579.383 11.112C579.681 10.408 580.103 9.8 580.647 9.288C581.191 8.76533 581.831 8.36 582.567 8.072C583.303 7.784 584.103 7.64 584.967 7.64C585.841 7.64 586.641 7.784 587.367 8.072C588.103 8.36 588.743 8.76533 589.287 9.288C589.831 9.8 590.252 10.408 590.551 11.112C590.849 11.8053 590.999 12.568 590.999 13.4C590.999 14.232 590.849 15 590.551 15.704C590.252 16.408 589.831 17.016 589.287 17.528C588.743 18.04 588.103 18.44 587.367 18.728C586.641 19.016 585.847 19.16 584.983 19.16ZM584.967 17.336C585.532 17.336 586.055 17.24 586.535 17.048C587.015 16.856 587.431 16.584 587.783 16.232C588.135 15.8693 588.407 15.4533 588.599 14.984C588.801 14.504 588.903 13.976 588.903 13.4C588.903 12.824 588.801 12.3013 588.599 11.832C588.407 11.352 588.135 10.936 587.783 10.584C587.431 10.2213 587.015 9.944 586.535 9.752C586.055 9.56 585.532 9.464 584.967 9.464C584.401 9.464 583.879 9.56 583.399 9.752C582.929 9.944 582.513 10.2213 582.151 10.584C581.799 10.936 581.521 11.352 581.319 11.832C581.127 12.3013 581.031 12.824 581.031 13.4C581.031 13.9653 581.127 14.488 581.319 14.968C581.521 15.448 581.799 15.8693 582.151 16.232C582.503 16.584 582.919 16.856 583.399 17.048C583.879 17.24 584.401 17.336 584.967 17.336ZM593.683 19V7.8H598.579C599.795 7.8 600.862 8.03467 601.779 8.504C602.697 8.97333 603.411 9.624 603.923 10.456C604.435 11.288 604.691 12.2693 604.691 13.4C604.691 14.52 604.435 15.5013 603.923 16.344C603.411 17.176 602.697 17.8267 601.779 18.296C600.862 18.7653 599.795 19 598.579 19H593.683ZM595.763 17.24H598.483C599.326 17.24 600.051 17.08 600.659 16.76C601.278 16.44 601.753 15.992 602.083 15.416C602.425 14.84 602.595 14.168 602.595 13.4C602.595 12.6213 602.425 11.9493 602.083 11.384C601.753 10.808 601.278 10.36 600.659 10.04C600.051 9.72 599.326 9.56 598.483 9.56H595.763V17.24ZM612.198 19.16C610.662 19.16 609.457 18.728 608.582 17.864C607.718 17 607.286 15.752 607.286 14.12V7.8H609.366V14.04C609.366 15.192 609.611 16.0293 610.102 16.552C610.603 17.0747 611.307 17.336 612.214 17.336C613.121 17.336 613.819 17.0747 614.31 16.552C614.801 16.0293 615.046 15.192 615.046 14.04V7.8H617.094V14.12C617.094 15.752 616.657 17 615.782 17.864C614.918 18.728 613.723 19.16 612.198 19.16ZM625.671 19.16C624.818 19.16 624.023 19.0213 623.287 18.744C622.562 18.456 621.927 18.056 621.383 17.544C620.85 17.0213 620.434 16.408 620.135 15.704C619.836 15 619.687 14.232 619.687 13.4C619.687 12.568 619.836 11.8 620.135 11.096C620.434 10.392 620.855 9.784 621.399 9.272C621.943 8.74933 622.578 8.34933 623.303 8.072C624.028 7.784 624.823 7.64 625.687 7.64C626.604 7.64 627.442 7.8 628.199 8.12C628.956 8.42933 629.596 8.89333 630.119 9.512L628.775 10.776C628.37 10.3387 627.916 10.0133 627.415 9.8C626.914 9.576 626.37 9.464 625.783 9.464C625.196 9.464 624.658 9.56 624.167 9.752C623.687 9.944 623.266 10.216 622.903 10.568C622.551 10.92 622.274 11.336 622.071 11.816C621.879 12.296 621.783 12.824 621.783 13.4C621.783 13.976 621.879 14.504 622.071 14.984C622.274 15.464 622.551 15.88 622.903 16.232C623.266 16.584 623.687 16.856 624.167 17.048C624.658 17.24 625.196 17.336 625.783 17.336C626.37 17.336 626.914 17.2293 627.415 17.016C627.916 16.792 628.37 16.456 628.775 16.008L630.119 17.288C629.596 17.896 628.956 18.36 628.199 18.68C627.442 19 626.599 19.16 625.671 19.16ZM634.739 19V9.56H631.027V7.8H640.531V9.56H636.819V19H634.739ZM642.572 19V7.8H644.652V19H642.572ZM653.41 19.16C652.535 19.16 651.73 19.016 650.994 18.728C650.258 18.44 649.618 18.04 649.074 17.528C648.53 17.0053 648.108 16.3973 647.81 15.704C647.511 15 647.362 14.232 647.362 13.4C647.362 12.568 647.511 11.8053 647.81 11.112C648.108 10.408 648.53 9.8 649.074 9.288C649.618 8.76533 650.258 8.36 650.994 8.072C651.73 7.784 652.53 7.64 653.394 7.64C654.268 7.64 655.068 7.784 655.794 8.072C656.53 8.36 657.17 8.76533 657.714 9.288C658.258 9.8 658.679 10.408 658.978 11.112C659.276 11.8053 659.426 12.568 659.426 13.4C659.426 14.232 659.276 15 658.978 15.704C658.679 16.408 658.258 17.016 657.714 17.528C657.17 18.04 656.53 18.44 655.794 18.728C655.068 19.016 654.274 19.16 653.41 19.16ZM653.394 17.336C653.959 17.336 654.482 17.24 654.962 17.048C655.442 16.856 655.858 16.584 656.21 16.232C656.562 15.8693 656.834 15.4533 657.026 14.984C657.228 14.504 657.33 13.976 657.33 13.4C657.33 12.824 657.228 12.3013 657.026 11.832C656.834 11.352 656.562 10.936 656.21 10.584C655.858 10.2213 655.442 9.944 654.962 9.752C654.482 9.56 653.959 9.464 653.394 9.464C652.828 9.464 652.306 9.56 651.826 9.752C651.356 9.944 650.94 10.2213 650.578 10.584C650.226 10.936 649.948 11.352 649.746 11.832C649.554 12.3013 649.458 12.824 649.458 13.4C649.458 13.9653 649.554 14.488 649.746 14.968C649.948 15.448 650.226 15.8693 650.578 16.232C650.93 16.584 651.346 16.856 651.826 17.048C652.306 17.24 652.828 17.336 653.394 17.336ZM662.11 19V7.8H663.822L670.846 16.424H669.998V7.8H672.062V19H670.35L663.326 10.376H664.174V19H662.11Z" fill="white"/>
<path d="M716.752 19.16C715.877 19.16 715.072 19.016 714.336 18.728C713.6 18.44 712.96 18.04 712.416 17.528C711.872 17.0053 711.451 16.3973 711.152 15.704C710.853 15 710.704 14.232 710.704 13.4C710.704 12.568 710.853 11.8053 711.152 11.112C711.451 10.408 711.872 9.8 712.416 9.288C712.96 8.76533 713.6 8.36 714.336 8.072C715.072 7.784 715.872 7.64 716.736 7.64C717.611 7.64 718.411 7.784 719.136 8.072C719.872 8.36 720.512 8.76533 721.056 9.288C721.6 9.8 722.021 10.408 722.32 11.112C722.619 11.8053 722.768 12.568 722.768 13.4C722.768 14.232 722.619 15 722.32 15.704C722.021 16.408 721.6 17.016 721.056 17.528C720.512 18.04 719.872 18.44 719.136 18.728C718.411 19.016 717.616 19.16 716.752 19.16ZM716.736 17.336C717.301 17.336 717.824 17.24 718.304 17.048C718.784 16.856 719.2 16.584 719.552 16.232C719.904 15.8693 720.176 15.4533 720.368 14.984C720.571 14.504 720.672 13.976 720.672 13.4C720.672 12.824 720.571 12.3013 720.368 11.832C720.176 11.352 719.904 10.936 719.552 10.584C719.2 10.2213 718.784 9.944 718.304 9.752C717.824 9.56 717.301 9.464 716.736 9.464C716.171 9.464 715.648 9.56 715.168 9.752C714.699 9.944 714.283 10.2213 713.92 10.584C713.568 10.936 713.291 11.352 713.088 11.832C712.896 12.3013 712.8 12.824 712.8 13.4C712.8 13.9653 712.896 14.488 713.088 14.968C713.291 15.448 713.568 15.8693 713.92 16.232C714.272 16.584 714.688 16.856 715.168 17.048C715.648 17.24 716.171 17.336 716.736 17.336ZM725.453 19V7.8H727.165L732.061 15.976H731.165L735.981 7.8H737.693L737.709 19H735.741L735.725 10.888H736.141L732.045 17.72H731.117L726.957 10.888H727.437V19H725.453ZM743.134 12.456H748.702V14.168H743.134V12.456ZM743.294 17.256H749.614V19H741.214V7.8H749.39V9.544H743.294V17.256ZM757.645 19.16C756.77 19.16 755.965 19.0213 755.229 18.744C754.503 18.456 753.869 18.056 753.325 17.544C752.781 17.0213 752.359 16.408 752.061 15.704C751.762 15 751.613 14.232 751.613 13.4C751.613 12.568 751.762 11.8 752.061 11.096C752.359 10.392 752.781 9.784 753.325 9.272C753.879 8.74933 754.525 8.34933 755.261 8.072C755.997 7.784 756.802 7.64 757.677 7.64C758.626 7.64 759.479 7.79467 760.237 8.104C761.005 8.41333 761.65 8.86667 762.173 9.464L760.861 10.744C760.423 10.3067 759.949 9.98667 759.437 9.784C758.935 9.57067 758.381 9.464 757.773 9.464C757.186 9.464 756.642 9.56 756.141 9.752C755.639 9.944 755.207 10.216 754.845 10.568C754.482 10.92 754.199 11.336 753.997 11.816C753.805 12.296 753.709 12.824 753.709 13.4C753.709 13.9653 753.805 14.488 753.997 14.968C754.199 15.448 754.482 15.8693 754.845 16.232C755.207 16.584 755.634 16.856 756.125 17.048C756.615 17.24 757.159 17.336 757.757 17.336C758.311 17.336 758.845 17.2507 759.357 17.08C759.879 16.8987 760.375 16.6 760.845 16.184L762.029 17.736C761.442 18.2053 760.759 18.5627 759.981 18.808C759.213 19.0427 758.434 19.16 757.645 19.16ZM760.061 17.464V13.272H762.029V17.736L760.061 17.464ZM763.668 19L768.708 7.8H770.756L775.812 19H773.636L769.3 8.904H770.132L765.812 19H763.668ZM765.988 16.408L766.548 14.776H772.596L773.156 16.408H765.988ZM782.618 19V7.8H787.226C788.218 7.8 789.066 7.96 789.77 8.28C790.485 8.6 791.034 9.05867 791.418 9.656C791.802 10.2533 791.994 10.9627 791.994 11.784C791.994 12.6053 791.802 13.3147 791.418 13.912C791.034 14.5093 790.485 14.968 789.77 15.288C789.066 15.608 788.218 15.768 787.226 15.768H783.77L784.698 14.792V19H782.618ZM784.698 15.016L783.77 14.008H787.13C788.048 14.008 788.736 13.816 789.194 13.432C789.664 13.0373 789.898 12.488 789.898 11.784C789.898 11.0693 789.664 10.52 789.194 10.136C788.736 9.752 788.048 9.56 787.13 9.56H783.77L784.698 8.536V15.016ZM794.552 19V7.8H799.16C800.152 7.8 801 7.96 801.704 8.28C802.418 8.6 802.968 9.05867 803.352 9.656C803.736 10.2533 803.928 10.9627 803.928 11.784C803.928 12.6053 803.736 13.3147 803.352 13.912C802.968 14.4987 802.418 14.952 801.704 15.272C801 15.5813 800.152 15.736 799.16 15.736H795.704L796.632 14.792V19H794.552ZM801.88 19L799.048 14.936H801.272L804.12 19H801.88ZM796.632 15.016L795.704 14.024H799.064C799.981 14.024 800.669 13.8267 801.128 13.432C801.597 13.0373 801.832 12.488 801.832 11.784C801.832 11.0693 801.597 10.52 801.128 10.136C800.669 9.752 799.981 9.56 799.064 9.56H795.704L796.632 8.536V15.016ZM811.983 19.16C811.108 19.16 810.303 19.016 809.567 18.728C808.831 18.44 808.191 18.04 807.647 17.528C807.103 17.0053 806.681 16.3973 806.383 15.704C806.084 15 805.935 14.232 805.935 13.4C805.935 12.568 806.084 11.8053 806.383 11.112C806.681 10.408 807.103 9.8 807.647 9.288C808.191 8.76533 808.831 8.36 809.567 8.072C810.303 7.784 811.103 7.64 811.967 7.64C812.841 7.64 813.641 7.784 814.367 8.072C815.103 8.36 815.743 8.76533 816.287 9.288C816.831 9.8 817.252 10.408 817.551 11.112C817.849 11.8053 817.999 12.568 817.999 13.4C817.999 14.232 817.849 15 817.551 15.704C817.252 16.408 816.831 17.016 816.287 17.528C815.743 18.04 815.103 18.44 814.367 18.728C813.641 19.016 812.847 19.16 811.983 19.16ZM811.967 17.336C812.532 17.336 813.055 17.24 813.535 17.048C814.015 16.856 814.431 16.584 814.783 16.232C815.135 15.8693 815.407 15.4533 815.599 14.984C815.801 14.504 815.903 13.976 815.903 13.4C815.903 12.824 815.801 12.3013 815.599 11.832C815.407 11.352 815.135 10.936 814.783 10.584C814.431 10.2213 814.015 9.944 813.535 9.752C813.055 9.56 812.532 9.464 811.967 9.464C811.401 9.464 810.879 9.56 810.399 9.752C809.929 9.944 809.513 10.2213 809.151 10.584C808.799 10.936 808.521 11.352 808.319 11.832C808.127 12.3013 808.031 12.824 808.031 13.4C808.031 13.9653 808.127 14.488 808.319 14.968C808.521 15.448 808.799 15.8693 809.151 16.232C809.503 16.584 809.919 16.856 810.399 17.048C810.879 17.24 811.401 17.336 811.967 17.336ZM820.683 19V7.8H825.579C826.795 7.8 827.862 8.03467 828.779 8.504C829.697 8.97333 830.411 9.624 830.923 10.456C831.435 11.288 831.691 12.2693 831.691 13.4C831.691 14.52 831.435 15.5013 830.923 16.344C830.411 17.176 829.697 17.8267 828.779 18.296C827.862 18.7653 826.795 19 825.579 19H820.683ZM822.763 17.24H825.483C826.326 17.24 827.051 17.08 827.659 16.76C828.278 16.44 828.753 15.992 829.083 15.416C829.425 14.84 829.595 14.168 829.595 13.4C829.595 12.6213 829.425 11.9493 829.083 11.384C828.753 10.808 828.278 10.36 827.659 10.04C827.051 9.72 826.326 9.56 825.483 9.56H822.763V17.24ZM839.198 19.16C837.662 19.16 836.457 18.728 835.582 17.864C834.718 17 834.286 15.752 834.286 14.12V7.8H836.366V14.04C836.366 15.192 836.611 16.0293 837.102 16.552C837.603 17.0747 838.307 17.336 839.214 17.336C840.121 17.336 840.819 17.0747 841.31 16.552C841.801 16.0293 842.046 15.192 842.046 14.04V7.8H844.094V14.12C844.094 15.752 843.657 17 842.782 17.864C841.918 18.728 840.723 19.16 839.198 19.16ZM852.671 19.16C851.818 19.16 851.023 19.0213 850.287 18.744C849.562 18.456 848.927 18.056 848.383 17.544C847.85 17.0213 847.434 16.408 847.135 15.704C846.836 15 846.687 14.232 846.687 13.4C846.687 12.568 846.836 11.8 847.135 11.096C847.434 10.392 847.855 9.784 848.399 9.272C848.943 8.74933 849.578 8.34933 850.303 8.072C851.028 7.784 851.823 7.64 852.687 7.64C853.604 7.64 854.442 7.8 855.199 8.12C855.956 8.42933 856.596 8.89333 857.119 9.512L855.775 10.776C855.37 10.3387 854.916 10.0133 854.415 9.8C853.914 9.576 853.37 9.464 852.783 9.464C852.196 9.464 851.658 9.56 851.167 9.752C850.687 9.944 850.266 10.216 849.903 10.568C849.551 10.92 849.274 11.336 849.071 11.816C848.879 12.296 848.783 12.824 848.783 13.4C848.783 13.976 848.879 14.504 849.071 14.984C849.274 15.464 849.551 15.88 849.903 16.232C850.266 16.584 850.687 16.856 851.167 17.048C851.658 17.24 852.196 17.336 852.783 17.336C853.37 17.336 853.914 17.2293 854.415 17.016C854.916 16.792 855.37 16.456 855.775 16.008L857.119 17.288C856.596 17.896 855.956 18.36 855.199 18.68C854.442 19 853.599 19.16 852.671 19.16ZM861.739 19V9.56H858.027V7.8H867.531V9.56H863.819V19H861.739ZM869.572 19V7.8H871.652V19H869.572ZM880.41 19.16C879.535 19.16 878.73 19.016 877.994 18.728C877.258 18.44 876.618 18.04 876.074 17.528C875.53 17.0053 875.108 16.3973 874.81 15.704C874.511 15 874.362 14.232 874.362 13.4C874.362 12.568 874.511 11.8053 874.81 11.112C875.108 10.408 875.53 9.8 876.074 9.288C876.618 8.76533 877.258 8.36 877.994 8.072C878.73 7.784 879.53 7.64 880.394 7.64C881.268 7.64 882.068 7.784 882.794 8.072C883.53 8.36 884.17 8.76533 884.714 9.288C885.258 9.8 885.679 10.408 885.978 11.112C886.276 11.8053 886.426 12.568 886.426 13.4C886.426 14.232 886.276 15 885.978 15.704C885.679 16.408 885.258 17.016 884.714 17.528C884.17 18.04 883.53 18.44 882.794 18.728C882.068 19.016 881.274 19.16 880.41 19.16ZM880.394 17.336C880.959 17.336 881.482 17.24 881.962 17.048C882.442 16.856 882.858 16.584 883.21 16.232C883.562 15.8693 883.834 15.4533 884.026 14.984C884.228 14.504 884.33 13.976 884.33 13.4C884.33 12.824 884.228 12.3013 884.026 11.832C883.834 11.352 883.562 10.936 883.21 10.584C882.858 10.2213 882.442 9.944 881.962 9.752C881.482 9.56 880.959 9.464 880.394 9.464C879.828 9.464 879.306 9.56 878.826 9.752C878.356 9.944 877.94 10.2213 877.578 10.584C877.226 10.936 876.948 11.352 876.746 11.832C876.554 12.3013 876.458 12.824 876.458 13.4C876.458 13.9653 876.554 14.488 876.746 14.968C876.948 15.448 877.226 15.8693 877.578 16.232C877.93 16.584 878.346 16.856 878.826 17.048C879.306 17.24 879.828 17.336 880.394 17.336ZM889.11 19V7.8H890.822L897.846 16.424H896.998V7.8H899.062V19H897.35L890.326 10.376H891.174V19H889.11Z" fill="white"/>
<path d="M943.752 19.16C942.877 19.16 942.072 19.016 941.336 18.728C940.6 18.44 939.96 18.04 939.416 17.528C938.872 17.0053 938.451 16.3973 938.152 15.704C937.853 15 937.704 14.232 937.704 13.4C937.704 12.568 937.853 11.8053 938.152 11.112C938.451 10.408 938.872 9.8 939.416 9.288C939.96 8.76533 940.6 8.36 941.336 8.072C942.072 7.784 942.872 7.64 943.736 7.64C944.611 7.64 945.411 7.784 946.136 8.072C946.872 8.36 947.512 8.76533 948.056 9.288C948.6 9.8 949.021 10.408 949.32 11.112C949.619 11.8053 949.768 12.568 949.768 13.4C949.768 14.232 949.619 15 949.32 15.704C949.021 16.408 948.6 17.016 948.056 17.528C947.512 18.04 946.872 18.44 946.136 18.728C945.411 19.016 944.616 19.16 943.752 19.16ZM943.736 17.336C944.301 17.336 944.824 17.24 945.304 17.048C945.784 16.856 946.2 16.584 946.552 16.232C946.904 15.8693 947.176 15.4533 947.368 14.984C947.571 14.504 947.672 13.976 947.672 13.4C947.672 12.824 947.571 12.3013 947.368 11.832C947.176 11.352 946.904 10.936 946.552 10.584C946.2 10.2213 945.784 9.944 945.304 9.752C944.824 9.56 944.301 9.464 943.736 9.464C943.171 9.464 942.648 9.56 942.168 9.752C941.699 9.944 941.283 10.2213 940.92 10.584C940.568 10.936 940.291 11.352 940.088 11.832C939.896 12.3013 939.8 12.824 939.8 13.4C939.8 13.9653 939.896 14.488 940.088 14.968C940.291 15.448 940.568 15.8693 940.92 16.232C941.272 16.584 941.688 16.856 942.168 17.048C942.648 17.24 943.171 17.336 943.736 17.336ZM952.453 19V7.8H954.165L959.061 15.976H958.165L962.981 7.8H964.693L964.709 19H962.741L962.725 10.888H963.141L959.045 17.72H958.117L953.957 10.888H954.437V19H952.453ZM970.134 12.456H975.702V14.168H970.134V12.456ZM970.294 17.256H976.614V19H968.214V7.8H976.39V9.544H970.294V17.256ZM984.645 19.16C983.77 19.16 982.965 19.0213 982.229 18.744C981.503 18.456 980.869 18.056 980.325 17.544C979.781 17.0213 979.359 16.408 979.061 15.704C978.762 15 978.613 14.232 978.613 13.4C978.613 12.568 978.762 11.8 979.061 11.096C979.359 10.392 979.781 9.784 980.325 9.272C980.879 8.74933 981.525 8.34933 982.261 8.072C982.997 7.784 983.802 7.64 984.677 7.64C985.626 7.64 986.479 7.79467 987.237 8.104C988.005 8.41333 988.65 8.86667 989.173 9.464L987.861 10.744C987.423 10.3067 986.949 9.98667 986.437 9.784C985.935 9.57067 985.381 9.464 984.773 9.464C984.186 9.464 983.642 9.56 983.141 9.752C982.639 9.944 982.207 10.216 981.845 10.568C981.482 10.92 981.199 11.336 980.997 11.816C980.805 12.296 980.709 12.824 980.709 13.4C980.709 13.9653 980.805 14.488 980.997 14.968C981.199 15.448 981.482 15.8693 981.845 16.232C982.207 16.584 982.634 16.856 983.125 17.048C983.615 17.24 984.159 17.336 984.757 17.336C985.311 17.336 985.845 17.2507 986.357 17.08C986.879 16.8987 987.375 16.6 987.845 16.184L989.029 17.736C988.442 18.2053 987.759 18.5627 986.981 18.808C986.213 19.0427 985.434 19.16 984.645 19.16ZM987.061 17.464V13.272H989.029V17.736L987.061 17.464ZM990.668 19L995.708 7.8H997.756L1002.81 19H1000.64L996.3 8.904H997.132L992.812 19H990.668ZM992.988 16.408L993.548 14.776H999.596L1000.16 16.408H992.988ZM1009.62 19V7.8H1014.23C1015.22 7.8 1016.07 7.96 1016.77 8.28C1017.49 8.6 1018.03 9.05867 1018.42 9.656C1018.8 10.2533 1018.99 10.9627 1018.99 11.784C1018.99 12.6053 1018.8 13.3147 1018.42 13.912C1018.03 14.5093 1017.49 14.968 1016.77 15.288C1016.07 15.608 1015.22 15.768 1014.23 15.768H1010.77L1011.7 14.792V19H1009.62ZM1011.7 15.016L1010.77 14.008H1014.13C1015.05 14.008 1015.74 13.816 1016.19 13.432C1016.66 13.0373 1016.9 12.488 1016.9 11.784C1016.9 11.0693 1016.66 10.52 1016.19 10.136C1015.74 9.752 1015.05 9.56 1014.13 9.56H1010.77L1011.7 8.536V15.016ZM1021.55 19V7.8H1026.16C1027.15 7.8 1028 7.96 1028.7 8.28C1029.42 8.6 1029.97 9.05867 1030.35 9.656C1030.74 10.2533 1030.93 10.9627 1030.93 11.784C1030.93 12.6053 1030.74 13.3147 1030.35 13.912C1029.97 14.4987 1029.42 14.952 1028.7 15.272C1028 15.5813 1027.15 15.736 1026.16 15.736H1022.7L1023.63 14.792V19H1021.55ZM1028.88 19L1026.05 14.936H1028.27L1031.12 19H1028.88ZM1023.63 15.016L1022.7 14.024H1026.06C1026.98 14.024 1027.67 13.8267 1028.13 13.432C1028.6 13.0373 1028.83 12.488 1028.83 11.784C1028.83 11.0693 1028.6 10.52 1028.13 10.136C1027.67 9.752 1026.98 9.56 1026.06 9.56H1022.7L1023.63 8.536V15.016ZM1038.98 19.16C1038.11 19.16 1037.3 19.016 1036.57 18.728C1035.83 18.44 1035.19 18.04 1034.65 17.528C1034.1 17.0053 1033.68 16.3973 1033.38 15.704C1033.08 15 1032.93 14.232 1032.93 13.4C1032.93 12.568 1033.08 11.8053 1033.38 11.112C1033.68 10.408 1034.1 9.8 1034.65 9.288C1035.19 8.76533 1035.83 8.36 1036.57 8.072C1037.3 7.784 1038.1 7.64 1038.97 7.64C1039.84 7.64 1040.64 7.784 1041.37 8.072C1042.1 8.36 1042.74 8.76533 1043.29 9.288C1043.83 9.8 1044.25 10.408 1044.55 11.112C1044.85 11.8053 1045 12.568 1045 13.4C1045 14.232 1044.85 15 1044.55 15.704C1044.25 16.408 1043.83 17.016 1043.29 17.528C1042.74 18.04 1042.1 18.44 1041.37 18.728C1040.64 19.016 1039.85 19.16 1038.98 19.16ZM1038.97 17.336C1039.53 17.336 1040.05 17.24 1040.53 17.048C1041.01 16.856 1041.43 16.584 1041.78 16.232C1042.13 15.8693 1042.41 15.4533 1042.6 14.984C1042.8 14.504 1042.9 13.976 1042.9 13.4C1042.9 12.824 1042.8 12.3013 1042.6 11.832C1042.41 11.352 1042.13 10.936 1041.78 10.584C1041.43 10.2213 1041.01 9.944 1040.53 9.752C1040.05 9.56 1039.53 9.464 1038.97 9.464C1038.4 9.464 1037.88 9.56 1037.4 9.752C1036.93 9.944 1036.51 10.2213 1036.15 10.584C1035.8 10.936 1035.52 11.352 1035.32 11.832C1035.13 12.3013 1035.03 12.824 1035.03 13.4C1035.03 13.9653 1035.13 14.488 1035.32 14.968C1035.52 15.448 1035.8 15.8693 1036.15 16.232C1036.5 16.584 1036.92 16.856 1037.4 17.048C1037.88 17.24 1038.4 17.336 1038.97 17.336ZM1047.68 19V7.8H1052.58C1053.8 7.8 1054.86 8.03467 1055.78 8.504C1056.7 8.97333 1057.41 9.624 1057.92 10.456C1058.44 11.288 1058.69 12.2693 1058.69 13.4C1058.69 14.52 1058.44 15.5013 1057.92 16.344C1057.41 17.176 1056.7 17.8267 1055.78 18.296C1054.86 18.7653 1053.8 19 1052.58 19H1047.68ZM1049.76 17.24H1052.48C1053.33 17.24 1054.05 17.08 1054.66 16.76C1055.28 16.44 1055.75 15.992 1056.08 15.416C1056.42 14.84 1056.6 14.168 1056.6 13.4C1056.6 12.6213 1056.42 11.9493 1056.08 11.384C1055.75 10.808 1055.28 10.36 1054.66 10.04C1054.05 9.72 1053.33 9.56 1052.48 9.56H1049.76V17.24ZM1066.2 19.16C1064.66 19.16 1063.46 18.728 1062.58 17.864C1061.72 17 1061.29 15.752 1061.29 14.12V7.8H1063.37V14.04C1063.37 15.192 1063.61 16.0293 1064.1 16.552C1064.6 17.0747 1065.31 17.336 1066.21 17.336C1067.12 17.336 1067.82 17.0747 1068.31 16.552C1068.8 16.0293 1069.05 15.192 1069.05 14.04V7.8H1071.09V14.12C1071.09 15.752 1070.66 17 1069.78 17.864C1068.92 18.728 1067.72 19.16 1066.2 19.16ZM1079.67 19.16C1078.82 19.16 1078.02 19.0213 1077.29 18.744C1076.56 18.456 1075.93 18.056 1075.38 17.544C1074.85 17.0213 1074.43 16.408 1074.14 15.704C1073.84 15 1073.69 14.232 1073.69 13.4C1073.69 12.568 1073.84 11.8 1074.14 11.096C1074.43 10.392 1074.86 9.784 1075.4 9.272C1075.94 8.74933 1076.58 8.34933 1077.3 8.072C1078.03 7.784 1078.82 7.64 1079.69 7.64C1080.6 7.64 1081.44 7.8 1082.2 8.12C1082.96 8.42933 1083.6 8.89333 1084.12 9.512L1082.78 10.776C1082.37 10.3387 1081.92 10.0133 1081.42 9.8C1080.91 9.576 1080.37 9.464 1079.78 9.464C1079.2 9.464 1078.66 9.56 1078.17 9.752C1077.69 9.944 1077.27 10.216 1076.9 10.568C1076.55 10.92 1076.27 11.336 1076.07 11.816C1075.88 12.296 1075.78 12.824 1075.78 13.4C1075.78 13.976 1075.88 14.504 1076.07 14.984C1076.27 15.464 1076.55 15.88 1076.9 16.232C1077.27 16.584 1077.69 16.856 1078.17 17.048C1078.66 17.24 1079.2 17.336 1079.78 17.336C1080.37 17.336 1080.91 17.2293 1081.42 17.016C1081.92 16.792 1082.37 16.456 1082.78 16.008L1084.12 17.288C1083.6 17.896 1082.96 18.36 1082.2 18.68C1081.44 19 1080.6 19.16 1079.67 19.16ZM1088.74 19V9.56H1085.03V7.8H1094.53V9.56H1090.82V19H1088.74ZM1096.57 19V7.8H1098.65V19H1096.57ZM1107.41 19.16C1106.53 19.16 1105.73 19.016 1104.99 18.728C1104.26 18.44 1103.62 18.04 1103.07 17.528C1102.53 17.0053 1102.11 16.3973 1101.81 15.704C1101.51 15 1101.36 14.232 1101.36 13.4C1101.36 12.568 1101.51 11.8053 1101.81 11.112C1102.11 10.408 1102.53 9.8 1103.07 9.288C1103.62 8.76533 1104.26 8.36 1104.99 8.072C1105.73 7.784 1106.53 7.64 1107.39 7.64C1108.27 7.64 1109.07 7.784 1109.79 8.072C1110.53 8.36 1111.17 8.76533 1111.71 9.288C1112.26 9.8 1112.68 10.408 1112.98 11.112C1113.28 11.8053 1113.43 12.568 1113.43 13.4C1113.43 14.232 1113.28 15 1112.98 15.704C1112.68 16.408 1112.26 17.016 1111.71 17.528C1111.17 18.04 1110.53 18.44 1109.79 18.728C1109.07 19.016 1108.27 19.16 1107.41 19.16ZM1107.39 17.336C1107.96 17.336 1108.48 17.24 1108.96 17.048C1109.44 16.856 1109.86 16.584 1110.21 16.232C1110.56 15.8693 1110.83 15.4533 1111.03 14.984C1111.23 14.504 1111.33 13.976 1111.33 13.4C1111.33 12.824 1111.23 12.3013 1111.03 11.832C1110.83 11.352 1110.56 10.936 1110.21 10.584C1109.86 10.2213 1109.44 9.944 1108.96 9.752C1108.48 9.56 1107.96 9.464 1107.39 9.464C1106.83 9.464 1106.31 9.56 1105.83 9.752C1105.36 9.944 1104.94 10.2213 1104.58 10.584C1104.23 10.936 1103.95 11.352 1103.75 11.832C1103.55 12.3013 1103.46 12.824 1103.46 13.4C1103.46 13.9653 1103.55 14.488 1103.75 14.968C1103.95 15.448 1104.23 15.8693 1104.58 16.232C1104.93 16.584 1105.35 16.856 1105.83 17.048C1106.31 17.24 1106.83 17.336 1107.39 17.336ZM1116.11 19V7.8H1117.82L1124.85 16.424H1124V7.8H1126.06V19H1124.35L1117.33 10.376H1118.17V19H1116.11Z" fill="white"/>
<path d="M1170.75 19.16C1169.88 19.16 1169.07 19.016 1168.34 18.728C1167.6 18.44 1166.96 18.04 1166.42 17.528C1165.87 17.0053 1165.45 16.3973 1165.15 15.704C1164.85 15 1164.7 14.232 1164.7 13.4C1164.7 12.568 1164.85 11.8053 1165.15 11.112C1165.45 10.408 1165.87 9.8 1166.42 9.288C1166.96 8.76533 1167.6 8.36 1168.34 8.072C1169.07 7.784 1169.87 7.64 1170.74 7.64C1171.61 7.64 1172.41 7.784 1173.14 8.072C1173.87 8.36 1174.51 8.76533 1175.06 9.288C1175.6 9.8 1176.02 10.408 1176.32 11.112C1176.62 11.8053 1176.77 12.568 1176.77 13.4C1176.77 14.232 1176.62 15 1176.32 15.704C1176.02 16.408 1175.6 17.016 1175.06 17.528C1174.51 18.04 1173.87 18.44 1173.14 18.728C1172.41 19.016 1171.62 19.16 1170.75 19.16ZM1170.74 17.336C1171.3 17.336 1171.82 17.24 1172.3 17.048C1172.78 16.856 1173.2 16.584 1173.55 16.232C1173.9 15.8693 1174.18 15.4533 1174.37 14.984C1174.57 14.504 1174.67 13.976 1174.67 13.4C1174.67 12.824 1174.57 12.3013 1174.37 11.832C1174.18 11.352 1173.9 10.936 1173.55 10.584C1173.2 10.2213 1172.78 9.944 1172.3 9.752C1171.82 9.56 1171.3 9.464 1170.74 9.464C1170.17 9.464 1169.65 9.56 1169.17 9.752C1168.7 9.944 1168.28 10.2213 1167.92 10.584C1167.57 10.936 1167.29 11.352 1167.09 11.832C1166.9 12.3013 1166.8 12.824 1166.8 13.4C1166.8 13.9653 1166.9 14.488 1167.09 14.968C1167.29 15.448 1167.57 15.8693 1167.92 16.232C1168.27 16.584 1168.69 16.856 1169.17 17.048C1169.65 17.24 1170.17 17.336 1170.74 17.336ZM1179.45 19V7.8H1181.16L1186.06 15.976H1185.16L1189.98 7.8H1191.69L1191.71 19H1189.74L1189.72 10.888H1190.14L1186.04 17.72H1185.12L1180.96 10.888H1181.44V19H1179.45ZM1197.13 12.456H1202.7V14.168H1197.13V12.456ZM1197.29 17.256H1203.61V19H1195.21V7.8H1203.39V9.544H1197.29V17.256ZM1211.64 19.16C1210.77 19.16 1209.96 19.0213 1209.23 18.744C1208.5 18.456 1207.87 18.056 1207.32 17.544C1206.78 17.0213 1206.36 16.408 1206.06 15.704C1205.76 15 1205.61 14.232 1205.61 13.4C1205.61 12.568 1205.76 11.8 1206.06 11.096C1206.36 10.392 1206.78 9.784 1207.32 9.272C1207.88 8.74933 1208.52 8.34933 1209.26 8.072C1210 7.784 1210.8 7.64 1211.68 7.64C1212.63 7.64 1213.48 7.79467 1214.24 8.104C1215 8.41333 1215.65 8.86667 1216.17 9.464L1214.86 10.744C1214.42 10.3067 1213.95 9.98667 1213.44 9.784C1212.94 9.57067 1212.38 9.464 1211.77 9.464C1211.19 9.464 1210.64 9.56 1210.14 9.752C1209.64 9.944 1209.21 10.216 1208.84 10.568C1208.48 10.92 1208.2 11.336 1208 11.816C1207.8 12.296 1207.71 12.824 1207.71 13.4C1207.71 13.9653 1207.8 14.488 1208 14.968C1208.2 15.448 1208.48 15.8693 1208.84 16.232C1209.21 16.584 1209.63 16.856 1210.12 17.048C1210.62 17.24 1211.16 17.336 1211.76 17.336C1212.31 17.336 1212.84 17.2507 1213.36 17.08C1213.88 16.8987 1214.38 16.6 1214.84 16.184L1216.03 17.736C1215.44 18.2053 1214.76 18.5627 1213.98 18.808C1213.21 19.0427 1212.43 19.16 1211.64 19.16ZM1214.06 17.464V13.272H1216.03V17.736L1214.06 17.464ZM1217.67 19L1222.71 7.8H1224.76L1229.81 19H1227.64L1223.3 8.904H1224.13L1219.81 19H1217.67ZM1219.99 16.408L1220.55 14.776H1226.6L1227.16 16.408H1219.99ZM1236.62 19V7.8H1241.23C1242.22 7.8 1243.07 7.96 1243.77 8.28C1244.49 8.6 1245.03 9.05867 1245.42 9.656C1245.8 10.2533 1245.99 10.9627 1245.99 11.784C1245.99 12.6053 1245.8 13.3147 1245.42 13.912C1245.03 14.5093 1244.49 14.968 1243.77 15.288C1243.07 15.608 1242.22 15.768 1241.23 15.768H1237.77L1238.7 14.792V19H1236.62ZM1238.7 15.016L1237.77 14.008H1241.13C1242.05 14.008 1242.74 13.816 1243.19 13.432C1243.66 13.0373 1243.9 12.488 1243.9 11.784C1243.9 11.0693 1243.66 10.52 1243.19 10.136C1242.74 9.752 1242.05 9.56 1241.13 9.56H1237.77L1238.7 8.536V15.016ZM1248.55 19V7.8H1253.16C1254.15 7.8 1255 7.96 1255.7 8.28C1256.42 8.6 1256.97 9.05867 1257.35 9.656C1257.74 10.2533 1257.93 10.9627 1257.93 11.784C1257.93 12.6053 1257.74 13.3147 1257.35 13.912C1256.97 14.4987 1256.42 14.952 1255.7 15.272C1255 15.5813 1254.15 15.736 1253.16 15.736H1249.7L1250.63 14.792V19H1248.55ZM1255.88 19L1253.05 14.936H1255.27L1258.12 19H1255.88ZM1250.63 15.016L1249.7 14.024H1253.06C1253.98 14.024 1254.67 13.8267 1255.13 13.432C1255.6 13.0373 1255.83 12.488 1255.83 11.784C1255.83 11.0693 1255.6 10.52 1255.13 10.136C1254.67 9.752 1253.98 9.56 1253.06 9.56H1249.7L1250.63 8.536V15.016ZM1265.98 19.16C1265.11 19.16 1264.3 19.016 1263.57 18.728C1262.83 18.44 1262.19 18.04 1261.65 17.528C1261.1 17.0053 1260.68 16.3973 1260.38 15.704C1260.08 15 1259.93 14.232 1259.93 13.4C1259.93 12.568 1260.08 11.8053 1260.38 11.112C1260.68 10.408 1261.1 9.8 1261.65 9.288C1262.19 8.76533 1262.83 8.36 1263.57 8.072C1264.3 7.784 1265.1 7.64 1265.97 7.64C1266.84 7.64 1267.64 7.784 1268.37 8.072C1269.1 8.36 1269.74 8.76533 1270.29 9.288C1270.83 9.8 1271.25 10.408 1271.55 11.112C1271.85 11.8053 1272 12.568 1272 13.4C1272 14.232 1271.85 15 1271.55 15.704C1271.25 16.408 1270.83 17.016 1270.29 17.528C1269.74 18.04 1269.1 18.44 1268.37 18.728C1267.64 19.016 1266.85 19.16 1265.98 19.16ZM1265.97 17.336C1266.53 17.336 1267.05 17.24 1267.53 17.048C1268.01 16.856 1268.43 16.584 1268.78 16.232C1269.13 15.8693 1269.41 15.4533 1269.6 14.984C1269.8 14.504 1269.9 13.976 1269.9 13.4C1269.9 12.824 1269.8 12.3013 1269.6 11.832C1269.41 11.352 1269.13 10.936 1268.78 10.584C1268.43 10.2213 1268.01 9.944 1267.53 9.752C1267.05 9.56 1266.53 9.464 1265.97 9.464C1265.4 9.464 1264.88 9.56 1264.4 9.752C1263.93 9.944 1263.51 10.2213 1263.15 10.584C1262.8 10.936 1262.52 11.352 1262.32 11.832C1262.13 12.3013 1262.03 12.824 1262.03 13.4C1262.03 13.9653 1262.13 14.488 1262.32 14.968C1262.52 15.448 1262.8 15.8693 1263.15 16.232C1263.5 16.584 1263.92 16.856 1264.4 17.048C1264.88 17.24 1265.4 17.336 1265.97 17.336ZM1274.68 19V7.8H1279.58C1280.8 7.8 1281.86 8.03467 1282.78 8.504C1283.7 8.97333 1284.41 9.624 1284.92 10.456C1285.44 11.288 1285.69 12.2693 1285.69 13.4C1285.69 14.52 1285.44 15.5013 1284.92 16.344C1284.41 17.176 1283.7 17.8267 1282.78 18.296C1281.86 18.7653 1280.8 19 1279.58 19H1274.68ZM1276.76 17.24H1279.48C1280.33 17.24 1281.05 17.08 1281.66 16.76C1282.28 16.44 1282.75 15.992 1283.08 15.416C1283.42 14.84 1283.6 14.168 1283.6 13.4C1283.6 12.6213 1283.42 11.9493 1283.08 11.384C1282.75 10.808 1282.28 10.36 1281.66 10.04C1281.05 9.72 1280.33 9.56 1279.48 9.56H1276.76V17.24ZM1293.2 19.16C1291.66 19.16 1290.46 18.728 1289.58 17.864C1288.72 17 1288.29 15.752 1288.29 14.12V7.8H1290.37V14.04C1290.37 15.192 1290.61 16.0293 1291.1 16.552C1291.6 17.0747 1292.31 17.336 1293.21 17.336C1294.12 17.336 1294.82 17.0747 1295.31 16.552C1295.8 16.0293 1296.05 15.192 1296.05 14.04V7.8H1298.09V14.12C1298.09 15.752 1297.66 17 1296.78 17.864C1295.92 18.728 1294.72 19.16 1293.2 19.16ZM1306.67 19.16C1305.82 19.16 1305.02 19.0213 1304.29 18.744C1303.56 18.456 1302.93 18.056 1302.38 17.544C1301.85 17.0213 1301.43 16.408 1301.14 15.704C1300.84 15 1300.69 14.232 1300.69 13.4C1300.69 12.568 1300.84 11.8 1301.14 11.096C1301.43 10.392 1301.86 9.784 1302.4 9.272C1302.94 8.74933 1303.58 8.34933 1304.3 8.072C1305.03 7.784 1305.82 7.64 1306.69 7.64C1307.6 7.64 1308.44 7.8 1309.2 8.12C1309.96 8.42933 1310.6 8.89333 1311.12 9.512L1309.78 10.776C1309.37 10.3387 1308.92 10.0133 1308.42 9.8C1307.91 9.576 1307.37 9.464 1306.78 9.464C1306.2 9.464 1305.66 9.56 1305.17 9.752C1304.69 9.944 1304.27 10.216 1303.9 10.568C1303.55 10.92 1303.27 11.336 1303.07 11.816C1302.88 12.296 1302.78 12.824 1302.78 13.4C1302.78 13.976 1302.88 14.504 1303.07 14.984C1303.27 15.464 1303.55 15.88 1303.9 16.232C1304.27 16.584 1304.69 16.856 1305.17 17.048C1305.66 17.24 1306.2 17.336 1306.78 17.336C1307.37 17.336 1307.91 17.2293 1308.42 17.016C1308.92 16.792 1309.37 16.456 1309.78 16.008L1311.12 17.288C1310.6 17.896 1309.96 18.36 1309.2 18.68C1308.44 19 1307.6 19.16 1306.67 19.16ZM1315.74 19V9.56H1312.03V7.8H1321.53V9.56H1317.82V19H1315.74ZM1323.57 19V7.8H1325.65V19H1323.57ZM1334.41 19.16C1333.53 19.16 1332.73 19.016 1331.99 18.728C1331.26 18.44 1330.62 18.04 1330.07 17.528C1329.53 17.0053 1329.11 16.3973 1328.81 15.704C1328.51 15 1328.36 14.232 1328.36 13.4C1328.36 12.568 1328.51 11.8053 1328.81 11.112C1329.11 10.408 1329.53 9.8 1330.07 9.288C1330.62 8.76533 1331.26 8.36 1331.99 8.072C1332.73 7.784 1333.53 7.64 1334.39 7.64C1335.27 7.64 1336.07 7.784 1336.79 8.072C1337.53 8.36 1338.17 8.76533 1338.71 9.288C1339.26 9.8 1339.68 10.408 1339.98 11.112C1340.28 11.8053 1340.43 12.568 1340.43 13.4C1340.43 14.232 1340.28 15 1339.98 15.704C1339.68 16.408 1339.26 17.016 1338.71 17.528C1338.17 18.04 1337.53 18.44 1336.79 18.728C1336.07 19.016 1335.27 19.16 1334.41 19.16ZM1334.39 17.336C1334.96 17.336 1335.48 17.24 1335.96 17.048C1336.44 16.856 1336.86 16.584 1337.21 16.232C1337.56 15.8693 1337.83 15.4533 1338.03 14.984C1338.23 14.504 1338.33 13.976 1338.33 13.4C1338.33 12.824 1338.23 12.3013 1338.03 11.832C1337.83 11.352 1337.56 10.936 1337.21 10.584C1336.86 10.2213 1336.44 9.944 1335.96 9.752C1335.48 9.56 1334.96 9.464 1334.39 9.464C1333.83 9.464 1333.31 9.56 1332.83 9.752C1332.36 9.944 1331.94 10.2213 1331.58 10.584C1331.23 10.936 1330.95 11.352 1330.75 11.832C1330.55 12.3013 1330.46 12.824 1330.46 13.4C1330.46 13.9653 1330.55 14.488 1330.75 14.968C1330.95 15.448 1331.23 15.8693 1331.58 16.232C1331.93 16.584 1332.35 16.856 1332.83 17.048C1333.31 17.24 1333.83 17.336 1334.39 17.336ZM1343.11 19V7.8H1344.82L1351.85 16.424H1351V7.8H1353.06V19H1351.35L1344.33 10.376H1345.17V19H1343.11Z" fill="white"/>
<path d="M1397.75 19.16C1396.88 19.16 1396.07 19.016 1395.34 18.728C1394.6 18.44 1393.96 18.04 1393.42 17.528C1392.87 17.0053 1392.45 16.3973 1392.15 15.704C1391.85 15 1391.7 14.232 1391.7 13.4C1391.7 12.568 1391.85 11.8053 1392.15 11.112C1392.45 10.408 1392.87 9.8 1393.42 9.288C1393.96 8.76533 1394.6 8.36 1395.34 8.072C1396.07 7.784 1396.87 7.64 1397.74 7.64C1398.61 7.64 1399.41 7.784 1400.14 8.072C1400.87 8.36 1401.51 8.76533 1402.06 9.288C1402.6 9.8 1403.02 10.408 1403.32 11.112C1403.62 11.8053 1403.77 12.568 1403.77 13.4C1403.77 14.232 1403.62 15 1403.32 15.704C1403.02 16.408 1402.6 17.016 1402.06 17.528C1401.51 18.04 1400.87 18.44 1400.14 18.728C1399.41 19.016 1398.62 19.16 1397.75 19.16ZM1397.74 17.336C1398.3 17.336 1398.82 17.24 1399.3 17.048C1399.78 16.856 1400.2 16.584 1400.55 16.232C1400.9 15.8693 1401.18 15.4533 1401.37 14.984C1401.57 14.504 1401.67 13.976 1401.67 13.4C1401.67 12.824 1401.57 12.3013 1401.37 11.832C1401.18 11.352 1400.9 10.936 1400.55 10.584C1400.2 10.2213 1399.78 9.944 1399.3 9.752C1398.82 9.56 1398.3 9.464 1397.74 9.464C1397.17 9.464 1396.65 9.56 1396.17 9.752C1395.7 9.944 1395.28 10.2213 1394.92 10.584C1394.57 10.936 1394.29 11.352 1394.09 11.832C1393.9 12.3013 1393.8 12.824 1393.8 13.4C1393.8 13.9653 1393.9 14.488 1394.09 14.968C1394.29 15.448 1394.57 15.8693 1394.92 16.232C1395.27 16.584 1395.69 16.856 1396.17 17.048C1396.65 17.24 1397.17 17.336 1397.74 17.336ZM1406.45 19V7.8H1408.16L1413.06 15.976H1412.16L1416.98 7.8H1418.69L1418.71 19H1416.74L1416.72 10.888H1417.14L1413.04 17.72H1412.12L1407.96 10.888H1408.44V19H1406.45ZM1424.13 12.456H1429.7V14.168H1424.13V12.456ZM1424.29 17.256H1430.61V19H1422.21V7.8H1430.39V9.544H1424.29V17.256ZM1438.64 19.16C1437.77 19.16 1436.96 19.0213 1436.23 18.744C1435.5 18.456 1434.87 18.056 1434.32 17.544C1433.78 17.0213 1433.36 16.408 1433.06 15.704C1432.76 15 1432.61 14.232 1432.61 13.4C1432.61 12.568 1432.76 11.8 1433.06 11.096C1433.36 10.392 1433.78 9.784 1434.32 9.272C1434.88 8.74933 1435.52 8.34933 1436.26 8.072C1437 7.784 1437.8 7.64 1438.68 7.64C1439.63 7.64 1440.48 7.79467 1441.24 8.104C1442 8.41333 1442.65 8.86667 1443.17 9.464L1441.86 10.744C1441.42 10.3067 1440.95 9.98667 1440.44 9.784C1439.94 9.57067 1439.38 9.464 1438.77 9.464C1438.19 9.464 1437.64 9.56 1437.14 9.752C1436.64 9.944 1436.21 10.216 1435.84 10.568C1435.48 10.92 1435.2 11.336 1435 11.816C1434.8 12.296 1434.71 12.824 1434.71 13.4C1434.71 13.9653 1434.8 14.488 1435 14.968C1435.2 15.448 1435.48 15.8693 1435.84 16.232C1436.21 16.584 1436.63 16.856 1437.12 17.048C1437.62 17.24 1438.16 17.336 1438.76 17.336C1439.31 17.336 1439.84 17.2507 1440.36 17.08C1440.88 16.8987 1441.38 16.6 1441.84 16.184L1443.03 17.736C1442.44 18.2053 1441.76 18.5627 1440.98 18.808C1440.21 19.0427 1439.43 19.16 1438.64 19.16ZM1441.06 17.464V13.272H1443.03V17.736L1441.06 17.464ZM1444.67 19L1449.71 7.8H1451.76L1456.81 19H1454.64L1450.3 8.904H1451.13L1446.81 19H1444.67ZM1446.99 16.408L1447.55 14.776H1453.6L1454.16 16.408H1446.99ZM1463.62 19V7.8H1468.23C1469.22 7.8 1470.07 7.96 1470.77 8.28C1471.49 8.6 1472.03 9.05867 1472.42 9.656C1472.8 10.2533 1472.99 10.9627 1472.99 11.784C1472.99 12.6053 1472.8 13.3147 1472.42 13.912C1472.03 14.5093 1471.49 14.968 1470.77 15.288C1470.07 15.608 1469.22 15.768 1468.23 15.768H1464.77L1465.7 14.792V19H1463.62ZM1465.7 15.016L1464.77 14.008H1468.13C1469.05 14.008 1469.74 13.816 1470.19 13.432C1470.66 13.0373 1470.9 12.488 1470.9 11.784C1470.9 11.0693 1470.66 10.52 1470.19 10.136C1469.74 9.752 1469.05 9.56 1468.13 9.56H1464.77L1465.7 8.536V15.016ZM1475.55 19V7.8H1480.16C1481.15 7.8 1482 7.96 1482.7 8.28C1483.42 8.6 1483.97 9.05867 1484.35 9.656C1484.74 10.2533 1484.93 10.9627 1484.93 11.784C1484.93 12.6053 1484.74 13.3147 1484.35 13.912C1483.97 14.4987 1483.42 14.952 1482.7 15.272C1482 15.5813 1481.15 15.736 1480.16 15.736H1476.7L1477.63 14.792V19H1475.55ZM1482.88 19L1480.05 14.936H1482.27L1485.12 19H1482.88ZM1477.63 15.016L1476.7 14.024H1480.06C1480.98 14.024 1481.67 13.8267 1482.13 13.432C1482.6 13.0373 1482.83 12.488 1482.83 11.784C1482.83 11.0693 1482.6 10.52 1482.13 10.136C1481.67 9.752 1480.98 9.56 1480.06 9.56H1476.7L1477.63 8.536V15.016ZM1492.98 19.16C1492.11 19.16 1491.3 19.016 1490.57 18.728C1489.83 18.44 1489.19 18.04 1488.65 17.528C1488.1 17.0053 1487.68 16.3973 1487.38 15.704C1487.08 15 1486.93 14.232 1486.93 13.4C1486.93 12.568 1487.08 11.8053 1487.38 11.112C1487.68 10.408 1488.1 9.8 1488.65 9.288C1489.19 8.76533 1489.83 8.36 1490.57 8.072C1491.3 7.784 1492.1 7.64 1492.97 7.64C1493.84 7.64 1494.64 7.784 1495.37 8.072C1496.1 8.36 1496.74 8.76533 1497.29 9.288C1497.83 9.8 1498.25 10.408 1498.55 11.112C1498.85 11.8053 1499 12.568 1499 13.4C1499 14.232 1498.85 15 1498.55 15.704C1498.25 16.408 1497.83 17.016 1497.29 17.528C1496.74 18.04 1496.1 18.44 1495.37 18.728C1494.64 19.016 1493.85 19.16 1492.98 19.16ZM1492.97 17.336C1493.53 17.336 1494.05 17.24 1494.53 17.048C1495.01 16.856 1495.43 16.584 1495.78 16.232C1496.13 15.8693 1496.41 15.4533 1496.6 14.984C1496.8 14.504 1496.9 13.976 1496.9 13.4C1496.9 12.824 1496.8 12.3013 1496.6 11.832C1496.41 11.352 1496.13 10.936 1495.78 10.584C1495.43 10.2213 1495.01 9.944 1494.53 9.752C1494.05 9.56 1493.53 9.464 1492.97 9.464C1492.4 9.464 1491.88 9.56 1491.4 9.752C1490.93 9.944 1490.51 10.2213 1490.15 10.584C1489.8 10.936 1489.52 11.352 1489.32 11.832C1489.13 12.3013 1489.03 12.824 1489.03 13.4C1489.03 13.9653 1489.13 14.488 1489.32 14.968C1489.52 15.448 1489.8 15.8693 1490.15 16.232C1490.5 16.584 1490.92 16.856 1491.4 17.048C1491.88 17.24 1492.4 17.336 1492.97 17.336ZM1501.68 19V7.8H1506.58C1507.8 7.8 1508.86 8.03467 1509.78 8.504C1510.7 8.97333 1511.41 9.624 1511.92 10.456C1512.44 11.288 1512.69 12.2693 1512.69 13.4C1512.69 14.52 1512.44 15.5013 1511.92 16.344C1511.41 17.176 1510.7 17.8267 1509.78 18.296C1508.86 18.7653 1507.8 19 1506.58 19H1501.68ZM1503.76 17.24H1506.48C1507.33 17.24 1508.05 17.08 1508.66 16.76C1509.28 16.44 1509.75 15.992 1510.08 15.416C1510.42 14.84 1510.6 14.168 1510.6 13.4C1510.6 12.6213 1510.42 11.9493 1510.08 11.384C1509.75 10.808 1509.28 10.36 1508.66 10.04C1508.05 9.72 1507.33 9.56 1506.48 9.56H1503.76V17.24ZM1520.2 19.16C1518.66 19.16 1517.46 18.728 1516.58 17.864C1515.72 17 1515.29 15.752 1515.29 14.12V7.8H1517.37V14.04C1517.37 15.192 1517.61 16.0293 1518.1 16.552C1518.6 17.0747 1519.31 17.336 1520.21 17.336C1521.12 17.336 1521.82 17.0747 1522.31 16.552C1522.8 16.0293 1523.05 15.192 1523.05 14.04V7.8H1525.09V14.12C1525.09 15.752 1524.66 17 1523.78 17.864C1522.92 18.728 1521.72 19.16 1520.2 19.16ZM1533.67 19.16C1532.82 19.16 1532.02 19.0213 1531.29 18.744C1530.56 18.456 1529.93 18.056 1529.38 17.544C1528.85 17.0213 1528.43 16.408 1528.14 15.704C1527.84 15 1527.69 14.232 1527.69 13.4C1527.69 12.568 1527.84 11.8 1528.14 11.096C1528.43 10.392 1528.86 9.784 1529.4 9.272C1529.94 8.74933 1530.58 8.34933 1531.3 8.072C1532.03 7.784 1532.82 7.64 1533.69 7.64C1534.6 7.64 1535.44 7.8 1536.2 8.12C1536.96 8.42933 1537.6 8.89333 1538.12 9.512L1536.78 10.776C1536.37 10.3387 1535.92 10.0133 1535.42 9.8C1534.91 9.576 1534.37 9.464 1533.78 9.464C1533.2 9.464 1532.66 9.56 1532.17 9.752C1531.69 9.944 1531.27 10.216 1530.9 10.568C1530.55 10.92 1530.27 11.336 1530.07 11.816C1529.88 12.296 1529.78 12.824 1529.78 13.4C1529.78 13.976 1529.88 14.504 1530.07 14.984C1530.27 15.464 1530.55 15.88 1530.9 16.232C1531.27 16.584 1531.69 16.856 1532.17 17.048C1532.66 17.24 1533.2 17.336 1533.78 17.336C1534.37 17.336 1534.91 17.2293 1535.42 17.016C1535.92 16.792 1536.37 16.456 1536.78 16.008L1538.12 17.288C1537.6 17.896 1536.96 18.36 1536.2 18.68C1535.44 19 1534.6 19.16 1533.67 19.16ZM1542.74 19V9.56H1539.03V7.8H1548.53V9.56H1544.82V19H1542.74ZM1550.57 19V7.8H1552.65V19H1550.57ZM1561.41 19.16C1560.53 19.16 1559.73 19.016 1558.99 18.728C1558.26 18.44 1557.62 18.04 1557.07 17.528C1556.53 17.0053 1556.11 16.3973 1555.81 15.704C1555.51 15 1555.36 14.232 1555.36 13.4C1555.36 12.568 1555.51 11.8053 1555.81 11.112C1556.11 10.408 1556.53 9.8 1557.07 9.288C1557.62 8.76533 1558.26 8.36 1558.99 8.072C1559.73 7.784 1560.53 7.64 1561.39 7.64C1562.27 7.64 1563.07 7.784 1563.79 8.072C1564.53 8.36 1565.17 8.76533 1565.71 9.288C1566.26 9.8 1566.68 10.408 1566.98 11.112C1567.28 11.8053 1567.43 12.568 1567.43 13.4C1567.43 14.232 1567.28 15 1566.98 15.704C1566.68 16.408 1566.26 17.016 1565.71 17.528C1565.17 18.04 1564.53 18.44 1563.79 18.728C1563.07 19.016 1562.27 19.16 1561.41 19.16ZM1561.39 17.336C1561.96 17.336 1562.48 17.24 1562.96 17.048C1563.44 16.856 1563.86 16.584 1564.21 16.232C1564.56 15.8693 1564.83 15.4533 1565.03 14.984C1565.23 14.504 1565.33 13.976 1565.33 13.4C1565.33 12.824 1565.23 12.3013 1565.03 11.832C1564.83 11.352 1564.56 10.936 1564.21 10.584C1563.86 10.2213 1563.44 9.944 1562.96 9.752C1562.48 9.56 1561.96 9.464 1561.39 9.464C1560.83 9.464 1560.31 9.56 1559.83 9.752C1559.36 9.944 1558.94 10.2213 1558.58 10.584C1558.23 10.936 1557.95 11.352 1557.75 11.832C1557.55 12.3013 1557.46 12.824 1557.46 13.4C1557.46 13.9653 1557.55 14.488 1557.75 14.968C1557.95 15.448 1558.23 15.8693 1558.58 16.232C1558.93 16.584 1559.35 16.856 1559.83 17.048C1560.31 17.24 1560.83 17.336 1561.39 17.336ZM1570.11 19V7.8H1571.82L1578.85 16.424H1578V7.8H1580.06V19H1578.35L1571.33 10.376H1572.17V19H1570.11Z" fill="white"/>
<path d="M1624.75 19.16C1623.88 19.16 1623.07 19.016 1622.34 18.728C1621.6 18.44 1620.96 18.04 1620.42 17.528C1619.87 17.0053 1619.45 16.3973 1619.15 15.704C1618.85 15 1618.7 14.232 1618.7 13.4C1618.7 12.568 1618.85 11.8053 1619.15 11.112C1619.45 10.408 1619.87 9.8 1620.42 9.288C1620.96 8.76533 1621.6 8.36 1622.34 8.072C1623.07 7.784 1623.87 7.64 1624.74 7.64C1625.61 7.64 1626.41 7.784 1627.14 8.072C1627.87 8.36 1628.51 8.76533 1629.06 9.288C1629.6 9.8 1630.02 10.408 1630.32 11.112C1630.62 11.8053 1630.77 12.568 1630.77 13.4C1630.77 14.232 1630.62 15 1630.32 15.704C1630.02 16.408 1629.6 17.016 1629.06 17.528C1628.51 18.04 1627.87 18.44 1627.14 18.728C1626.41 19.016 1625.62 19.16 1624.75 19.16ZM1624.74 17.336C1625.3 17.336 1625.82 17.24 1626.3 17.048C1626.78 16.856 1627.2 16.584 1627.55 16.232C1627.9 15.8693 1628.18 15.4533 1628.37 14.984C1628.57 14.504 1628.67 13.976 1628.67 13.4C1628.67 12.824 1628.57 12.3013 1628.37 11.832C1628.18 11.352 1627.9 10.936 1627.55 10.584C1627.2 10.2213 1626.78 9.944 1626.3 9.752C1625.82 9.56 1625.3 9.464 1624.74 9.464C1624.17 9.464 1623.65 9.56 1623.17 9.752C1622.7 9.944 1622.28 10.2213 1621.92 10.584C1621.57 10.936 1621.29 11.352 1621.09 11.832C1620.9 12.3013 1620.8 12.824 1620.8 13.4C1620.8 13.9653 1620.9 14.488 1621.09 14.968C1621.29 15.448 1621.57 15.8693 1621.92 16.232C1622.27 16.584 1622.69 16.856 1623.17 17.048C1623.65 17.24 1624.17 17.336 1624.74 17.336ZM1633.45 19V7.8H1635.16L1640.06 15.976H1639.16L1643.98 7.8H1645.69L1645.71 19H1643.74L1643.72 10.888H1644.14L1640.04 17.72H1639.12L1634.96 10.888H1635.44V19H1633.45ZM1651.13 12.456H1656.7V14.168H1651.13V12.456ZM1651.29 17.256H1657.61V19H1649.21V7.8H1657.39V9.544H1651.29V17.256ZM1665.64 19.16C1664.77 19.16 1663.96 19.0213 1663.23 18.744C1662.5 18.456 1661.87 18.056 1661.32 17.544C1660.78 17.0213 1660.36 16.408 1660.06 15.704C1659.76 15 1659.61 14.232 1659.61 13.4C1659.61 12.568 1659.76 11.8 1660.06 11.096C1660.36 10.392 1660.78 9.784 1661.32 9.272C1661.88 8.74933 1662.52 8.34933 1663.26 8.072C1664 7.784 1664.8 7.64 1665.68 7.64C1666.63 7.64 1667.48 7.79467 1668.24 8.104C1669 8.41333 1669.65 8.86667 1670.17 9.464L1668.86 10.744C1668.42 10.3067 1667.95 9.98667 1667.44 9.784C1666.94 9.57067 1666.38 9.464 1665.77 9.464C1665.19 9.464 1664.64 9.56 1664.14 9.752C1663.64 9.944 1663.21 10.216 1662.84 10.568C1662.48 10.92 1662.2 11.336 1662 11.816C1661.8 12.296 1661.71 12.824 1661.71 13.4C1661.71 13.9653 1661.8 14.488 1662 14.968C1662.2 15.448 1662.48 15.8693 1662.84 16.232C1663.21 16.584 1663.63 16.856 1664.12 17.048C1664.62 17.24 1665.16 17.336 1665.76 17.336C1666.31 17.336 1666.84 17.2507 1667.36 17.08C1667.88 16.8987 1668.38 16.6 1668.84 16.184L1670.03 17.736C1669.44 18.2053 1668.76 18.5627 1667.98 18.808C1667.21 19.0427 1666.43 19.16 1665.64 19.16ZM1668.06 17.464V13.272H1670.03V17.736L1668.06 17.464ZM1671.67 19L1676.71 7.8H1678.76L1683.81 19H1681.64L1677.3 8.904H1678.13L1673.81 19H1671.67ZM1673.99 16.408L1674.55 14.776H1680.6L1681.16 16.408H1673.99ZM1690.62 19V7.8H1695.23C1696.22 7.8 1697.07 7.96 1697.77 8.28C1698.49 8.6 1699.03 9.05867 1699.42 9.656C1699.8 10.2533 1699.99 10.9627 1699.99 11.784C1699.99 12.6053 1699.8 13.3147 1699.42 13.912C1699.03 14.5093 1698.49 14.968 1697.77 15.288C1697.07 15.608 1696.22 15.768 1695.23 15.768H1691.77L1692.7 14.792V19H1690.62ZM1692.7 15.016L1691.77 14.008H1695.13C1696.05 14.008 1696.74 13.816 1697.19 13.432C1697.66 13.0373 1697.9 12.488 1697.9 11.784C1697.9 11.0693 1697.66 10.52 1697.19 10.136C1696.74 9.752 1696.05 9.56 1695.13 9.56H1691.77L1692.7 8.536V15.016ZM1702.55 19V7.8H1707.16C1708.15 7.8 1709 7.96 1709.7 8.28C1710.42 8.6 1710.97 9.05867 1711.35 9.656C1711.74 10.2533 1711.93 10.9627 1711.93 11.784C1711.93 12.6053 1711.74 13.3147 1711.35 13.912C1710.97 14.4987 1710.42 14.952 1709.7 15.272C1709 15.5813 1708.15 15.736 1707.16 15.736H1703.7L1704.63 14.792V19H1702.55ZM1709.88 19L1707.05 14.936H1709.27L1712.12 19H1709.88ZM1704.63 15.016L1703.7 14.024H1707.06C1707.98 14.024 1708.67 13.8267 1709.13 13.432C1709.6 13.0373 1709.83 12.488 1709.83 11.784C1709.83 11.0693 1709.6 10.52 1709.13 10.136C1708.67 9.752 1707.98 9.56 1707.06 9.56H1703.7L1704.63 8.536V15.016ZM1719.98 19.16C1719.11 19.16 1718.3 19.016 1717.57 18.728C1716.83 18.44 1716.19 18.04 1715.65 17.528C1715.1 17.0053 1714.68 16.3973 1714.38 15.704C1714.08 15 1713.93 14.232 1713.93 13.4C1713.93 12.568 1714.08 11.8053 1714.38 11.112C1714.68 10.408 1715.1 9.8 1715.65 9.288C1716.19 8.76533 1716.83 8.36 1717.57 8.072C1718.3 7.784 1719.1 7.64 1719.97 7.64C1720.84 7.64 1721.64 7.784 1722.37 8.072C1723.1 8.36 1723.74 8.76533 1724.29 9.288C1724.83 9.8 1725.25 10.408 1725.55 11.112C1725.85 11.8053 1726 12.568 1726 13.4C1726 14.232 1725.85 15 1725.55 15.704C1725.25 16.408 1724.83 17.016 1724.29 17.528C1723.74 18.04 1723.1 18.44 1722.37 18.728C1721.64 19.016 1720.85 19.16 1719.98 19.16ZM1719.97 17.336C1720.53 17.336 1721.05 17.24 1721.53 17.048C1722.01 16.856 1722.43 16.584 1722.78 16.232C1723.13 15.8693 1723.41 15.4533 1723.6 14.984C1723.8 14.504 1723.9 13.976 1723.9 13.4C1723.9 12.824 1723.8 12.3013 1723.6 11.832C1723.41 11.352 1723.13 10.936 1722.78 10.584C1722.43 10.2213 1722.01 9.944 1721.53 9.752C1721.05 9.56 1720.53 9.464 1719.97 9.464C1719.4 9.464 1718.88 9.56 1718.4 9.752C1717.93 9.944 1717.51 10.2213 1717.15 10.584C1716.8 10.936 1716.52 11.352 1716.32 11.832C1716.13 12.3013 1716.03 12.824 1716.03 13.4C1716.03 13.9653 1716.13 14.488 1716.32 14.968C1716.52 15.448 1716.8 15.8693 1717.15 16.232C1717.5 16.584 1717.92 16.856 1718.4 17.048C1718.88 17.24 1719.4 17.336 1719.97 17.336ZM1728.68 19V7.8H1733.58C1734.8 7.8 1735.86 8.03467 1736.78 8.504C1737.7 8.97333 1738.41 9.624 1738.92 10.456C1739.44 11.288 1739.69 12.2693 1739.69 13.4C1739.69 14.52 1739.44 15.5013 1738.92 16.344C1738.41 17.176 1737.7 17.8267 1736.78 18.296C1735.86 18.7653 1734.8 19 1733.58 19H1728.68ZM1730.76 17.24H1733.48C1734.33 17.24 1735.05 17.08 1735.66 16.76C1736.28 16.44 1736.75 15.992 1737.08 15.416C1737.42 14.84 1737.6 14.168 1737.6 13.4C1737.6 12.6213 1737.42 11.9493 1737.08 11.384C1736.75 10.808 1736.28 10.36 1735.66 10.04C1735.05 9.72 1734.33 9.56 1733.48 9.56H1730.76V17.24ZM1747.2 19.16C1745.66 19.16 1744.46 18.728 1743.58 17.864C1742.72 17 1742.29 15.752 1742.29 14.12V7.8H1744.37V14.04C1744.37 15.192 1744.61 16.0293 1745.1 16.552C1745.6 17.0747 1746.31 17.336 1747.21 17.336C1748.12 17.336 1748.82 17.0747 1749.31 16.552C1749.8 16.0293 1750.05 15.192 1750.05 14.04V7.8H1752.09V14.12C1752.09 15.752 1751.66 17 1750.78 17.864C1749.92 18.728 1748.72 19.16 1747.2 19.16ZM1760.67 19.16C1759.82 19.16 1759.02 19.0213 1758.29 18.744C1757.56 18.456 1756.93 18.056 1756.38 17.544C1755.85 17.0213 1755.43 16.408 1755.14 15.704C1754.84 15 1754.69 14.232 1754.69 13.4C1754.69 12.568 1754.84 11.8 1755.14 11.096C1755.43 10.392 1755.86 9.784 1756.4 9.272C1756.94 8.74933 1757.58 8.34933 1758.3 8.072C1759.03 7.784 1759.82 7.64 1760.69 7.64C1761.6 7.64 1762.44 7.8 1763.2 8.12C1763.96 8.42933 1764.6 8.89333 1765.12 9.512L1763.78 10.776C1763.37 10.3387 1762.92 10.0133 1762.42 9.8C1761.91 9.576 1761.37 9.464 1760.78 9.464C1760.2 9.464 1759.66 9.56 1759.17 9.752C1758.69 9.944 1758.27 10.216 1757.9 10.568C1757.55 10.92 1757.27 11.336 1757.07 11.816C1756.88 12.296 1756.78 12.824 1756.78 13.4C1756.78 13.976 1756.88 14.504 1757.07 14.984C1757.27 15.464 1757.55 15.88 1757.9 16.232C1758.27 16.584 1758.69 16.856 1759.17 17.048C1759.66 17.24 1760.2 17.336 1760.78 17.336C1761.37 17.336 1761.91 17.2293 1762.42 17.016C1762.92 16.792 1763.37 16.456 1763.78 16.008L1765.12 17.288C1764.6 17.896 1763.96 18.36 1763.2 18.68C1762.44 19 1761.6 19.16 1760.67 19.16ZM1769.74 19V9.56H1766.03V7.8H1775.53V9.56H1771.82V19H1769.74ZM1777.57 19V7.8H1779.65V19H1777.57ZM1788.41 19.16C1787.53 19.16 1786.73 19.016 1785.99 18.728C1785.26 18.44 1784.62 18.04 1784.07 17.528C1783.53 17.0053 1783.11 16.3973 1782.81 15.704C1782.51 15 1782.36 14.232 1782.36 13.4C1782.36 12.568 1782.51 11.8053 1782.81 11.112C1783.11 10.408 1783.53 9.8 1784.07 9.288C1784.62 8.76533 1785.26 8.36 1785.99 8.072C1786.73 7.784 1787.53 7.64 1788.39 7.64C1789.27 7.64 1790.07 7.784 1790.79 8.072C1791.53 8.36 1792.17 8.76533 1792.71 9.288C1793.26 9.8 1793.68 10.408 1793.98 11.112C1794.28 11.8053 1794.43 12.568 1794.43 13.4C1794.43 14.232 1794.28 15 1793.98 15.704C1793.68 16.408 1793.26 17.016 1792.71 17.528C1792.17 18.04 1791.53 18.44 1790.79 18.728C1790.07 19.016 1789.27 19.16 1788.41 19.16ZM1788.39 17.336C1788.96 17.336 1789.48 17.24 1789.96 17.048C1790.44 16.856 1790.86 16.584 1791.21 16.232C1791.56 15.8693 1791.83 15.4533 1792.03 14.984C1792.23 14.504 1792.33 13.976 1792.33 13.4C1792.33 12.824 1792.23 12.3013 1792.03 11.832C1791.83 11.352 1791.56 10.936 1791.21 10.584C1790.86 10.2213 1790.44 9.944 1789.96 9.752C1789.48 9.56 1788.96 9.464 1788.39 9.464C1787.83 9.464 1787.31 9.56 1786.83 9.752C1786.36 9.944 1785.94 10.2213 1785.58 10.584C1785.23 10.936 1784.95 11.352 1784.75 11.832C1784.55 12.3013 1784.46 12.824 1784.46 13.4C1784.46 13.9653 1784.55 14.488 1784.75 14.968C1784.95 15.448 1785.23 15.8693 1785.58 16.232C1785.93 16.584 1786.35 16.856 1786.83 17.048C1787.31 17.24 1787.83 17.336 1788.39 17.336ZM1797.11 19V7.8H1798.82L1805.85 16.424H1805V7.8H1807.06V19H1805.35L1798.33 10.376H1799.17V19H1797.11Z" fill="white"/>
<path d="M1851.75 19.16C1850.88 19.16 1850.07 19.016 1849.34 18.728C1848.6 18.44 1847.96 18.04 1847.42 17.528C1846.87 17.0053 1846.45 16.3973 1846.15 15.704C1845.85 15 1845.7 14.232 1845.7 13.4C1845.7 12.568 1845.85 11.8053 1846.15 11.112C1846.45 10.408 1846.87 9.8 1847.42 9.288C1847.96 8.76533 1848.6 8.36 1849.34 8.072C1850.07 7.784 1850.87 7.64 1851.74 7.64C1852.61 7.64 1853.41 7.784 1854.14 8.072C1854.87 8.36 1855.51 8.76533 1856.06 9.288C1856.6 9.8 1857.02 10.408 1857.32 11.112C1857.62 11.8053 1857.77 12.568 1857.77 13.4C1857.77 14.232 1857.62 15 1857.32 15.704C1857.02 16.408 1856.6 17.016 1856.06 17.528C1855.51 18.04 1854.87 18.44 1854.14 18.728C1853.41 19.016 1852.62 19.16 1851.75 19.16ZM1851.74 17.336C1852.3 17.336 1852.82 17.24 1853.3 17.048C1853.78 16.856 1854.2 16.584 1854.55 16.232C1854.9 15.8693 1855.18 15.4533 1855.37 14.984C1855.57 14.504 1855.67 13.976 1855.67 13.4C1855.67 12.824 1855.57 12.3013 1855.37 11.832C1855.18 11.352 1854.9 10.936 1854.55 10.584C1854.2 10.2213 1853.78 9.944 1853.3 9.752C1852.82 9.56 1852.3 9.464 1851.74 9.464C1851.17 9.464 1850.65 9.56 1850.17 9.752C1849.7 9.944 1849.28 10.2213 1848.92 10.584C1848.57 10.936 1848.29 11.352 1848.09 11.832C1847.9 12.3013 1847.8 12.824 1847.8 13.4C1847.8 13.9653 1847.9 14.488 1848.09 14.968C1848.29 15.448 1848.57 15.8693 1848.92 16.232C1849.27 16.584 1849.69 16.856 1850.17 17.048C1850.65 17.24 1851.17 17.336 1851.74 17.336ZM1860.45 19V7.8H1862.16L1867.06 15.976H1866.16L1870.98 7.8H1872.69L1872.71 19H1870.74L1870.72 10.888H1871.14L1867.04 17.72H1866.12L1861.96 10.888H1862.44V19H1860.45ZM1878.13 12.456H1883.7V14.168H1878.13V12.456ZM1878.29 17.256H1884.61V19H1876.21V7.8H1884.39V9.544H1878.29V17.256ZM1892.64 19.16C1891.77 19.16 1890.96 19.0213 1890.23 18.744C1889.5 18.456 1888.87 18.056 1888.32 17.544C1887.78 17.0213 1887.36 16.408 1887.06 15.704C1886.76 15 1886.61 14.232 1886.61 13.4C1886.61 12.568 1886.76 11.8 1887.06 11.096C1887.36 10.392 1887.78 9.784 1888.32 9.272C1888.88 8.74933 1889.52 8.34933 1890.26 8.072C1891 7.784 1891.8 7.64 1892.68 7.64C1893.63 7.64 1894.48 7.79467 1895.24 8.104C1896 8.41333 1896.65 8.86667 1897.17 9.464L1895.86 10.744C1895.42 10.3067 1894.95 9.98667 1894.44 9.784C1893.94 9.57067 1893.38 9.464 1892.77 9.464C1892.19 9.464 1891.64 9.56 1891.14 9.752C1890.64 9.944 1890.21 10.216 1889.84 10.568C1889.48 10.92 1889.2 11.336 1889 11.816C1888.8 12.296 1888.71 12.824 1888.71 13.4C1888.71 13.9653 1888.8 14.488 1889 14.968C1889.2 15.448 1889.48 15.8693 1889.84 16.232C1890.21 16.584 1890.63 16.856 1891.12 17.048C1891.62 17.24 1892.16 17.336 1892.76 17.336C1893.31 17.336 1893.84 17.2507 1894.36 17.08C1894.88 16.8987 1895.38 16.6 1895.84 16.184L1897.03 17.736C1896.44 18.2053 1895.76 18.5627 1894.98 18.808C1894.21 19.0427 1893.43 19.16 1892.64 19.16ZM1895.06 17.464V13.272H1897.03V17.736L1895.06 17.464ZM1898.67 19L1903.71 7.8H1905.76L1910.81 19H1908.64L1904.3 8.904H1905.13L1900.81 19H1898.67ZM1900.99 16.408L1901.55 14.776H1907.6L1908.16 16.408H1900.99ZM1917.62 19V7.8H1922.23C1923.22 7.8 1924.07 7.96 1924.77 8.28C1925.49 8.6 1926.03 9.05867 1926.42 9.656C1926.8 10.2533 1926.99 10.9627 1926.99 11.784C1926.99 12.6053 1926.8 13.3147 1926.42 13.912C1926.03 14.5093 1925.49 14.968 1924.77 15.288C1924.07 15.608 1923.22 15.768 1922.23 15.768H1918.77L1919.7 14.792V19H1917.62ZM1919.7 15.016L1918.77 14.008H1922.13C1923.05 14.008 1923.74 13.816 1924.19 13.432C1924.66 13.0373 1924.9 12.488 1924.9 11.784C1924.9 11.0693 1924.66 10.52 1924.19 10.136C1923.74 9.752 1923.05 9.56 1922.13 9.56H1918.77L1919.7 8.536V15.016ZM1929.55 19V7.8H1934.16C1935.15 7.8 1936 7.96 1936.7 8.28C1937.42 8.6 1937.97 9.05867 1938.35 9.656C1938.74 10.2533 1938.93 10.9627 1938.93 11.784C1938.93 12.6053 1938.74 13.3147 1938.35 13.912C1937.97 14.4987 1937.42 14.952 1936.7 15.272C1936 15.5813 1935.15 15.736 1934.16 15.736H1930.7L1931.63 14.792V19H1929.55ZM1936.88 19L1934.05 14.936H1936.27L1939.12 19H1936.88ZM1931.63 15.016L1930.7 14.024H1934.06C1934.98 14.024 1935.67 13.8267 1936.13 13.432C1936.6 13.0373 1936.83 12.488 1936.83 11.784C1936.83 11.0693 1936.6 10.52 1936.13 10.136C1935.67 9.752 1934.98 9.56 1934.06 9.56H1930.7L1931.63 8.536V15.016ZM1946.98 19.16C1946.11 19.16 1945.3 19.016 1944.57 18.728C1943.83 18.44 1943.19 18.04 1942.65 17.528C1942.1 17.0053 1941.68 16.3973 1941.38 15.704C1941.08 15 1940.93 14.232 1940.93 13.4C1940.93 12.568 1941.08 11.8053 1941.38 11.112C1941.68 10.408 1942.1 9.8 1942.65 9.288C1943.19 8.76533 1943.83 8.36 1944.57 8.072C1945.3 7.784 1946.1 7.64 1946.97 7.64C1947.84 7.64 1948.64 7.784 1949.37 8.072C1950.1 8.36 1950.74 8.76533 1951.29 9.288C1951.83 9.8 1952.25 10.408 1952.55 11.112C1952.85 11.8053 1953 12.568 1953 13.4C1953 14.232 1952.85 15 1952.55 15.704C1952.25 16.408 1951.83 17.016 1951.29 17.528C1950.74 18.04 1950.1 18.44 1949.37 18.728C1948.64 19.016 1947.85 19.16 1946.98 19.16ZM1946.97 17.336C1947.53 17.336 1948.05 17.24 1948.53 17.048C1949.01 16.856 1949.43 16.584 1949.78 16.232C1950.13 15.8693 1950.41 15.4533 1950.6 14.984C1950.8 14.504 1950.9 13.976 1950.9 13.4C1950.9 12.824 1950.8 12.3013 1950.6 11.832C1950.41 11.352 1950.13 10.936 1949.78 10.584C1949.43 10.2213 1949.01 9.944 1948.53 9.752C1948.05 9.56 1947.53 9.464 1946.97 9.464C1946.4 9.464 1945.88 9.56 1945.4 9.752C1944.93 9.944 1944.51 10.2213 1944.15 10.584C1943.8 10.936 1943.52 11.352 1943.32 11.832C1943.13 12.3013 1943.03 12.824 1943.03 13.4C1943.03 13.9653 1943.13 14.488 1943.32 14.968C1943.52 15.448 1943.8 15.8693 1944.15 16.232C1944.5 16.584 1944.92 16.856 1945.4 17.048C1945.88 17.24 1946.4 17.336 1946.97 17.336ZM1955.68 19V7.8H1960.58C1961.8 7.8 1962.86 8.03467 1963.78 8.504C1964.7 8.97333 1965.41 9.624 1965.92 10.456C1966.44 11.288 1966.69 12.2693 1966.69 13.4C1966.69 14.52 1966.44 15.5013 1965.92 16.344C1965.41 17.176 1964.7 17.8267 1963.78 18.296C1962.86 18.7653 1961.8 19 1960.58 19H1955.68ZM1957.76 17.24H1960.48C1961.33 17.24 1962.05 17.08 1962.66 16.76C1963.28 16.44 1963.75 15.992 1964.08 15.416C1964.42 14.84 1964.6 14.168 1964.6 13.4C1964.6 12.6213 1964.42 11.9493 1964.08 11.384C1963.75 10.808 1963.28 10.36 1962.66 10.04C1962.05 9.72 1961.33 9.56 1960.48 9.56H1957.76V17.24ZM1974.2 19.16C1972.66 19.16 1971.46 18.728 1970.58 17.864C1969.72 17 1969.29 15.752 1969.29 14.12V7.8H1971.37V14.04C1971.37 15.192 1971.61 16.0293 1972.1 16.552C1972.6 17.0747 1973.31 17.336 1974.21 17.336C1975.12 17.336 1975.82 17.0747 1976.31 16.552C1976.8 16.0293 1977.05 15.192 1977.05 14.04V7.8H1979.09V14.12C1979.09 15.752 1978.66 17 1977.78 17.864C1976.92 18.728 1975.72 19.16 1974.2 19.16ZM1987.67 19.16C1986.82 19.16 1986.02 19.0213 1985.29 18.744C1984.56 18.456 1983.93 18.056 1983.38 17.544C1982.85 17.0213 1982.43 16.408 1982.14 15.704C1981.84 15 1981.69 14.232 1981.69 13.4C1981.69 12.568 1981.84 11.8 1982.14 11.096C1982.43 10.392 1982.86 9.784 1983.4 9.272C1983.94 8.74933 1984.58 8.34933 1985.3 8.072C1986.03 7.784 1986.82 7.64 1987.69 7.64C1988.6 7.64 1989.44 7.8 1990.2 8.12C1990.96 8.42933 1991.6 8.89333 1992.12 9.512L1990.78 10.776C1990.37 10.3387 1989.92 10.0133 1989.42 9.8C1988.91 9.576 1988.37 9.464 1987.78 9.464C1987.2 9.464 1986.66 9.56 1986.17 9.752C1985.69 9.944 1985.27 10.216 1984.9 10.568C1984.55 10.92 1984.27 11.336 1984.07 11.816C1983.88 12.296 1983.78 12.824 1983.78 13.4C1983.78 13.976 1983.88 14.504 1984.07 14.984C1984.27 15.464 1984.55 15.88 1984.9 16.232C1985.27 16.584 1985.69 16.856 1986.17 17.048C1986.66 17.24 1987.2 17.336 1987.78 17.336C1988.37 17.336 1988.91 17.2293 1989.42 17.016C1989.92 16.792 1990.37 16.456 1990.78 16.008L1992.12 17.288C1991.6 17.896 1990.96 18.36 1990.2 18.68C1989.44 19 1988.6 19.16 1987.67 19.16ZM1996.74 19V9.56H1993.03V7.8H2002.53V9.56H1998.82V19H1996.74ZM2004.57 19V7.8H2006.65V19H2004.57ZM2015.41 19.16C2014.53 19.16 2013.73 19.016 2012.99 18.728C2012.26 18.44 2011.62 18.04 2011.07 17.528C2010.53 17.0053 2010.11 16.3973 2009.81 15.704C2009.51 15 2009.36 14.232 2009.36 13.4C2009.36 12.568 2009.51 11.8053 2009.81 11.112C2010.11 10.408 2010.53 9.8 2011.07 9.288C2011.62 8.76533 2012.26 8.36 2012.99 8.072C2013.73 7.784 2014.53 7.64 2015.39 7.64C2016.27 7.64 2017.07 7.784 2017.79 8.072C2018.53 8.36 2019.17 8.76533 2019.71 9.288C2020.26 9.8 2020.68 10.408 2020.98 11.112C2021.28 11.8053 2021.43 12.568 2021.43 13.4C2021.43 14.232 2021.28 15 2020.98 15.704C2020.68 16.408 2020.26 17.016 2019.71 17.528C2019.17 18.04 2018.53 18.44 2017.79 18.728C2017.07 19.016 2016.27 19.16 2015.41 19.16ZM2015.39 17.336C2015.96 17.336 2016.48 17.24 2016.96 17.048C2017.44 16.856 2017.86 16.584 2018.21 16.232C2018.56 15.8693 2018.83 15.4533 2019.03 14.984C2019.23 14.504 2019.33 13.976 2019.33 13.4C2019.33 12.824 2019.23 12.3013 2019.03 11.832C2018.83 11.352 2018.56 10.936 2018.21 10.584C2017.86 10.2213 2017.44 9.944 2016.96 9.752C2016.48 9.56 2015.96 9.464 2015.39 9.464C2014.83 9.464 2014.31 9.56 2013.83 9.752C2013.36 9.944 2012.94 10.2213 2012.58 10.584C2012.23 10.936 2011.95 11.352 2011.75 11.832C2011.55 12.3013 2011.46 12.824 2011.46 13.4C2011.46 13.9653 2011.55 14.488 2011.75 14.968C2011.95 15.448 2012.23 15.8693 2012.58 16.232C2012.93 16.584 2013.35 16.856 2013.83 17.048C2014.31 17.24 2014.83 17.336 2015.39 17.336ZM2024.11 19V7.8H2025.82L2032.85 16.424H2032V7.8H2034.06V19H2032.35L2025.33 10.376H2026.17V19H2024.11Z" fill="white"/>
</svg>
