<svg width="2177" height="27" viewBox="0 0 2177 27" fill="none" xmlns="http://www.w3.org/2000/svg">
<rect width="2177" height="27" fill="#2B6CFE"/>
<path d="M155.752 19.16C154.877 19.16 154.072 19.016 153.336 18.728C152.6 18.44 151.96 18.04 151.416 17.528C150.872 17.0053 150.451 16.3973 150.152 15.704C149.853 15 149.704 14.232 149.704 13.4C149.704 12.568 149.853 11.8053 150.152 11.112C150.451 10.408 150.872 9.8 151.416 9.288C151.96 8.76533 152.6 8.36 153.336 8.072C154.072 7.784 154.872 7.64 155.736 7.64C156.611 7.64 157.411 7.784 158.136 8.072C158.872 8.36 159.512 8.76533 160.056 9.288C160.6 9.8 161.021 10.408 161.32 11.112C161.619 11.8053 161.768 12.568 161.768 13.4C161.768 14.232 161.619 15 161.32 15.704C161.021 16.408 160.6 17.016 160.056 17.528C159.512 18.04 158.872 18.44 158.136 18.728C157.411 19.016 156.616 19.16 155.752 19.16ZM155.736 17.336C156.301 17.336 156.824 17.24 157.304 17.048C157.784 16.856 158.2 16.584 158.552 16.232C158.904 15.8693 159.176 15.4533 159.368 14.984C159.571 14.504 159.672 13.976 159.672 13.4C159.672 12.824 159.571 12.3013 159.368 11.832C159.176 11.352 158.904 10.936 158.552 10.584C158.2 10.2213 157.784 9.944 157.304 9.752C156.824 9.56 156.301 9.464 155.736 9.464C155.171 9.464 154.648 9.56 154.168 9.752C153.699 9.944 153.283 10.2213 152.92 10.584C152.568 10.936 152.291 11.352 152.088 11.832C151.896 12.3013 151.8 12.824 151.8 13.4C151.8 13.9653 151.896 14.488 152.088 14.968C152.291 15.448 152.568 15.8693 152.92 16.232C153.272 16.584 153.688 16.856 154.168 17.048C154.648 17.24 155.171 17.336 155.736 17.336ZM164.453 19V7.8H166.165L171.061 15.976H170.165L174.981 7.8H176.693L176.709 19H174.741L174.725 10.888H175.141L171.045 17.72H170.117L165.957 10.888H166.437V19H164.453ZM182.134 12.456H187.702V14.168H182.134V12.456ZM182.294 17.256H188.614V19H180.214V7.8H188.39V9.544H182.294V17.256ZM196.645 19.16C195.77 19.16 194.965 19.0213 194.229 18.744C193.503 18.456 192.869 18.056 192.325 17.544C191.781 17.0213 191.359 16.408 191.061 15.704C190.762 15 190.613 14.232 190.613 13.4C190.613 12.568 190.762 11.8 191.061 11.096C191.359 10.392 191.781 9.784 192.325 9.272C192.879 8.74933 193.525 8.34933 194.261 8.072C194.997 7.784 195.802 7.64 196.677 7.64C197.626 7.64 198.479 7.79467 199.237 8.104C200.005 8.41333 200.65 8.86667 201.173 9.464L199.861 10.744C199.423 10.3067 198.949 9.98667 198.437 9.784C197.935 9.57067 197.381 9.464 196.773 9.464C196.186 9.464 195.642 9.56 195.141 9.752C194.639 9.944 194.207 10.216 193.845 10.568C193.482 10.92 193.199 11.336 192.997 11.816C192.805 12.296 192.709 12.824 192.709 13.4C192.709 13.9653 192.805 14.488 192.997 14.968C193.199 15.448 193.482 15.8693 193.845 16.232C194.207 16.584 194.634 16.856 195.125 17.048C195.615 17.24 196.159 17.336 196.757 17.336C197.311 17.336 197.845 17.2507 198.357 17.08C198.879 16.8987 199.375 16.6 199.845 16.184L201.029 17.736C200.442 18.2053 199.759 18.5627 198.981 18.808C198.213 19.0427 197.434 19.16 196.645 19.16ZM199.061 17.464V13.272H201.029V17.736L199.061 17.464ZM202.668 19L207.708 7.8H209.756L214.812 19H212.636L208.3 8.904H209.132L204.812 19H202.668ZM204.988 16.408L205.548 14.776H211.596L212.156 16.408H204.988ZM221.618 19V7.8H226.226C227.218 7.8 228.066 7.96 228.77 8.28C229.485 8.6 230.034 9.05867 230.418 9.656C230.802 10.2533 230.994 10.9627 230.994 11.784C230.994 12.6053 230.802 13.3147 230.418 13.912C230.034 14.5093 229.485 14.968 228.77 15.288C228.066 15.608 227.218 15.768 226.226 15.768H222.77L223.698 14.792V19H221.618ZM223.698 15.016L222.77 14.008H226.13C227.048 14.008 227.736 13.816 228.194 13.432C228.664 13.0373 228.898 12.488 228.898 11.784C228.898 11.0693 228.664 10.52 228.194 10.136C227.736 9.752 227.048 9.56 226.13 9.56H222.77L223.698 8.536V15.016ZM233.552 19V7.8H238.16C239.152 7.8 240 7.96 240.704 8.28C241.418 8.6 241.968 9.05867 242.352 9.656C242.736 10.2533 242.928 10.9627 242.928 11.784C242.928 12.6053 242.736 13.3147 242.352 13.912C241.968 14.4987 241.418 14.952 240.704 15.272C240 15.5813 239.152 15.736 238.16 15.736H234.704L235.632 14.792V19H233.552ZM240.88 19L238.048 14.936H240.272L243.12 19H240.88ZM235.632 15.016L234.704 14.024H238.064C238.981 14.024 239.669 13.8267 240.128 13.432C240.597 13.0373 240.832 12.488 240.832 11.784C240.832 11.0693 240.597 10.52 240.128 10.136C239.669 9.752 238.981 9.56 238.064 9.56H234.704L235.632 8.536V15.016ZM250.983 19.16C250.108 19.16 249.303 19.016 248.567 18.728C247.831 18.44 247.191 18.04 246.647 17.528C246.103 17.0053 245.681 16.3973 245.383 15.704C245.084 15 244.935 14.232 244.935 13.4C244.935 12.568 245.084 11.8053 245.383 11.112C245.681 10.408 246.103 9.8 246.647 9.288C247.191 8.76533 247.831 8.36 248.567 8.072C249.303 7.784 250.103 7.64 250.967 7.64C251.841 7.64 252.641 7.784 253.367 8.072C254.103 8.36 254.743 8.76533 255.287 9.288C255.831 9.8 256.252 10.408 256.551 11.112C256.849 11.8053 256.999 12.568 256.999 13.4C256.999 14.232 256.849 15 256.551 15.704C256.252 16.408 255.831 17.016 255.287 17.528C254.743 18.04 254.103 18.44 253.367 18.728C252.641 19.016 251.847 19.16 250.983 19.16ZM250.967 17.336C251.532 17.336 252.055 17.24 252.535 17.048C253.015 16.856 253.431 16.584 253.783 16.232C254.135 15.8693 254.407 15.4533 254.599 14.984C254.801 14.504 254.903 13.976 254.903 13.4C254.903 12.824 254.801 12.3013 254.599 11.832C254.407 11.352 254.135 10.936 253.783 10.584C253.431 10.2213 253.015 9.944 252.535 9.752C252.055 9.56 251.532 9.464 250.967 9.464C250.401 9.464 249.879 9.56 249.399 9.752C248.929 9.944 248.513 10.2213 248.151 10.584C247.799 10.936 247.521 11.352 247.319 11.832C247.127 12.3013 247.031 12.824 247.031 13.4C247.031 13.9653 247.127 14.488 247.319 14.968C247.521 15.448 247.799 15.8693 248.151 16.232C248.503 16.584 248.919 16.856 249.399 17.048C249.879 17.24 250.401 17.336 250.967 17.336ZM259.683 19V7.8H264.579C265.795 7.8 266.862 8.03467 267.779 8.504C268.697 8.97333 269.411 9.624 269.923 10.456C270.435 11.288 270.691 12.2693 270.691 13.4C270.691 14.52 270.435 15.5013 269.923 16.344C269.411 17.176 268.697 17.8267 267.779 18.296C266.862 18.7653 265.795 19 264.579 19H259.683ZM261.763 17.24H264.483C265.326 17.24 266.051 17.08 266.659 16.76C267.278 16.44 267.753 15.992 268.083 15.416C268.425 14.84 268.595 14.168 268.595 13.4C268.595 12.6213 268.425 11.9493 268.083 11.384C267.753 10.808 267.278 10.36 266.659 10.04C266.051 9.72 265.326 9.56 264.483 9.56H261.763V17.24ZM278.198 19.16C276.662 19.16 275.457 18.728 274.582 17.864C273.718 17 273.286 15.752 273.286 14.12V7.8H275.366V14.04C275.366 15.192 275.611 16.0293 276.102 16.552C276.603 17.0747 277.307 17.336 278.214 17.336C279.121 17.336 279.819 17.0747 280.31 16.552C280.801 16.0293 281.046 15.192 281.046 14.04V7.8H283.094V14.12C283.094 15.752 282.657 17 281.782 17.864C280.918 18.728 279.723 19.16 278.198 19.16ZM291.671 19.16C290.818 19.16 290.023 19.0213 289.287 18.744C288.562 18.456 287.927 18.056 287.383 17.544C286.85 17.0213 286.434 16.408 286.135 15.704C285.836 15 285.687 14.232 285.687 13.4C285.687 12.568 285.836 11.8 286.135 11.096C286.434 10.392 286.855 9.784 287.399 9.272C287.943 8.74933 288.578 8.34933 289.303 8.072C290.028 7.784 290.823 7.64 291.687 7.64C292.604 7.64 293.442 7.8 294.199 8.12C294.956 8.42933 295.596 8.89333 296.119 9.512L294.775 10.776C294.37 10.3387 293.916 10.0133 293.415 9.8C292.914 9.576 292.37 9.464 291.783 9.464C291.196 9.464 290.658 9.56 290.167 9.752C289.687 9.944 289.266 10.216 288.903 10.568C288.551 10.92 288.274 11.336 288.071 11.816C287.879 12.296 287.783 12.824 287.783 13.4C287.783 13.976 287.879 14.504 288.071 14.984C288.274 15.464 288.551 15.88 288.903 16.232C289.266 16.584 289.687 16.856 290.167 17.048C290.658 17.24 291.196 17.336 291.783 17.336C292.37 17.336 292.914 17.2293 293.415 17.016C293.916 16.792 294.37 16.456 294.775 16.008L296.119 17.288C295.596 17.896 294.956 18.36 294.199 18.68C293.442 19 292.599 19.16 291.671 19.16ZM300.739 19V9.56H297.027V7.8H306.531V9.56H302.819V19H300.739ZM308.572 19V7.8H310.652V19H308.572ZM319.41 19.16C318.535 19.16 317.73 19.016 316.994 18.728C316.258 18.44 315.618 18.04 315.074 17.528C314.53 17.0053 314.108 16.3973 313.81 15.704C313.511 15 313.362 14.232 313.362 13.4C313.362 12.568 313.511 11.8053 313.81 11.112C314.108 10.408 314.53 9.8 315.074 9.288C315.618 8.76533 316.258 8.36 316.994 8.072C317.73 7.784 318.53 7.64 319.394 7.64C320.268 7.64 321.068 7.784 321.794 8.072C322.53 8.36 323.17 8.76533 323.714 9.288C324.258 9.8 324.679 10.408 324.978 11.112C325.276 11.8053 325.426 12.568 325.426 13.4C325.426 14.232 325.276 15 324.978 15.704C324.679 16.408 324.258 17.016 323.714 17.528C323.17 18.04 322.53 18.44 321.794 18.728C321.068 19.016 320.274 19.16 319.41 19.16ZM319.394 17.336C319.959 17.336 320.482 17.24 320.962 17.048C321.442 16.856 321.858 16.584 322.21 16.232C322.562 15.8693 322.834 15.4533 323.026 14.984C323.228 14.504 323.33 13.976 323.33 13.4C323.33 12.824 323.228 12.3013 323.026 11.832C322.834 11.352 322.562 10.936 322.21 10.584C321.858 10.2213 321.442 9.944 320.962 9.752C320.482 9.56 319.959 9.464 319.394 9.464C318.828 9.464 318.306 9.56 317.826 9.752C317.356 9.944 316.94 10.2213 316.578 10.584C316.226 10.936 315.948 11.352 315.746 11.832C315.554 12.3013 315.458 12.824 315.458 13.4C315.458 13.9653 315.554 14.488 315.746 14.968C315.948 15.448 316.226 15.8693 316.578 16.232C316.93 16.584 317.346 16.856 317.826 17.048C318.306 17.24 318.828 17.336 319.394 17.336ZM328.11 19V7.8H329.822L336.846 16.424H335.998V7.8H338.062V19H336.35L329.326 10.376H330.174V19H328.11Z" fill="white"/>
<path d="M382.752 19.16C381.877 19.16 381.072 19.016 380.336 18.728C379.6 18.44 378.96 18.04 378.416 17.528C377.872 17.0053 377.451 16.3973 377.152 15.704C376.853 15 376.704 14.232 376.704 13.4C376.704 12.568 376.853 11.8053 377.152 11.112C377.451 10.408 377.872 9.8 378.416 9.288C378.96 8.76533 379.6 8.36 380.336 8.072C381.072 7.784 381.872 7.64 382.736 7.64C383.611 7.64 384.411 7.784 385.136 8.072C385.872 8.36 386.512 8.76533 387.056 9.288C387.6 9.8 388.021 10.408 388.32 11.112C388.619 11.8053 388.768 12.568 388.768 13.4C388.768 14.232 388.619 15 388.32 15.704C388.021 16.408 387.6 17.016 387.056 17.528C386.512 18.04 385.872 18.44 385.136 18.728C384.411 19.016 383.616 19.16 382.752 19.16ZM382.736 17.336C383.301 17.336 383.824 17.24 384.304 17.048C384.784 16.856 385.2 16.584 385.552 16.232C385.904 15.8693 386.176 15.4533 386.368 14.984C386.571 14.504 386.672 13.976 386.672 13.4C386.672 12.824 386.571 12.3013 386.368 11.832C386.176 11.352 385.904 10.936 385.552 10.584C385.2 10.2213 384.784 9.944 384.304 9.752C383.824 9.56 383.301 9.464 382.736 9.464C382.171 9.464 381.648 9.56 381.168 9.752C380.699 9.944 380.283 10.2213 379.92 10.584C379.568 10.936 379.291 11.352 379.088 11.832C378.896 12.3013 378.8 12.824 378.8 13.4C378.8 13.9653 378.896 14.488 379.088 14.968C379.291 15.448 379.568 15.8693 379.92 16.232C380.272 16.584 380.688 16.856 381.168 17.048C381.648 17.24 382.171 17.336 382.736 17.336ZM391.453 19V7.8H393.165L398.061 15.976H397.165L401.981 7.8H403.693L403.709 19H401.741L401.725 10.888H402.141L398.045 17.72H397.117L392.957 10.888H393.437V19H391.453ZM409.134 12.456H414.702V14.168H409.134V12.456ZM409.294 17.256H415.614V19H407.214V7.8H415.39V9.544H409.294V17.256ZM423.645 19.16C422.77 19.16 421.965 19.0213 421.229 18.744C420.503 18.456 419.869 18.056 419.325 17.544C418.781 17.0213 418.359 16.408 418.061 15.704C417.762 15 417.613 14.232 417.613 13.4C417.613 12.568 417.762 11.8 418.061 11.096C418.359 10.392 418.781 9.784 419.325 9.272C419.879 8.74933 420.525 8.34933 421.261 8.072C421.997 7.784 422.802 7.64 423.677 7.64C424.626 7.64 425.479 7.79467 426.237 8.104C427.005 8.41333 427.65 8.86667 428.173 9.464L426.861 10.744C426.423 10.3067 425.949 9.98667 425.437 9.784C424.935 9.57067 424.381 9.464 423.773 9.464C423.186 9.464 422.642 9.56 422.141 9.752C421.639 9.944 421.207 10.216 420.845 10.568C420.482 10.92 420.199 11.336 419.997 11.816C419.805 12.296 419.709 12.824 419.709 13.4C419.709 13.9653 419.805 14.488 419.997 14.968C420.199 15.448 420.482 15.8693 420.845 16.232C421.207 16.584 421.634 16.856 422.125 17.048C422.615 17.24 423.159 17.336 423.757 17.336C424.311 17.336 424.845 17.2507 425.357 17.08C425.879 16.8987 426.375 16.6 426.845 16.184L428.029 17.736C427.442 18.2053 426.759 18.5627 425.981 18.808C425.213 19.0427 424.434 19.16 423.645 19.16ZM426.061 17.464V13.272H428.029V17.736L426.061 17.464ZM429.668 19L434.708 7.8H436.756L441.812 19H439.636L435.3 8.904H436.132L431.812 19H429.668ZM431.988 16.408L432.548 14.776H438.596L439.156 16.408H431.988ZM448.618 19V7.8H453.226C454.218 7.8 455.066 7.96 455.77 8.28C456.485 8.6 457.034 9.05867 457.418 9.656C457.802 10.2533 457.994 10.9627 457.994 11.784C457.994 12.6053 457.802 13.3147 457.418 13.912C457.034 14.5093 456.485 14.968 455.77 15.288C455.066 15.608 454.218 15.768 453.226 15.768H449.77L450.698 14.792V19H448.618ZM450.698 15.016L449.77 14.008H453.13C454.048 14.008 454.736 13.816 455.194 13.432C455.664 13.0373 455.898 12.488 455.898 11.784C455.898 11.0693 455.664 10.52 455.194 10.136C454.736 9.752 454.048 9.56 453.13 9.56H449.77L450.698 8.536V15.016ZM460.552 19V7.8H465.16C466.152 7.8 467 7.96 467.704 8.28C468.418 8.6 468.968 9.05867 469.352 9.656C469.736 10.2533 469.928 10.9627 469.928 11.784C469.928 12.6053 469.736 13.3147 469.352 13.912C468.968 14.4987 468.418 14.952 467.704 15.272C467 15.5813 466.152 15.736 465.16 15.736H461.704L462.632 14.792V19H460.552ZM467.88 19L465.048 14.936H467.272L470.12 19H467.88ZM462.632 15.016L461.704 14.024H465.064C465.981 14.024 466.669 13.8267 467.128 13.432C467.597 13.0373 467.832 12.488 467.832 11.784C467.832 11.0693 467.597 10.52 467.128 10.136C466.669 9.752 465.981 9.56 465.064 9.56H461.704L462.632 8.536V15.016ZM477.983 19.16C477.108 19.16 476.303 19.016 475.567 18.728C474.831 18.44 474.191 18.04 473.647 17.528C473.103 17.0053 472.681 16.3973 472.383 15.704C472.084 15 471.935 14.232 471.935 13.4C471.935 12.568 472.084 11.8053 472.383 11.112C472.681 10.408 473.103 9.8 473.647 9.288C474.191 8.76533 474.831 8.36 475.567 8.072C476.303 7.784 477.103 7.64 477.967 7.64C478.841 7.64 479.641 7.784 480.367 8.072C481.103 8.36 481.743 8.76533 482.287 9.288C482.831 9.8 483.252 10.408 483.551 11.112C483.849 11.8053 483.999 12.568 483.999 13.4C483.999 14.232 483.849 15 483.551 15.704C483.252 16.408 482.831 17.016 482.287 17.528C481.743 18.04 481.103 18.44 480.367 18.728C479.641 19.016 478.847 19.16 477.983 19.16ZM477.967 17.336C478.532 17.336 479.055 17.24 479.535 17.048C480.015 16.856 480.431 16.584 480.783 16.232C481.135 15.8693 481.407 15.4533 481.599 14.984C481.801 14.504 481.903 13.976 481.903 13.4C481.903 12.824 481.801 12.3013 481.599 11.832C481.407 11.352 481.135 10.936 480.783 10.584C480.431 10.2213 480.015 9.944 479.535 9.752C479.055 9.56 478.532 9.464 477.967 9.464C477.401 9.464 476.879 9.56 476.399 9.752C475.929 9.944 475.513 10.2213 475.151 10.584C474.799 10.936 474.521 11.352 474.319 11.832C474.127 12.3013 474.031 12.824 474.031 13.4C474.031 13.9653 474.127 14.488 474.319 14.968C474.521 15.448 474.799 15.8693 475.151 16.232C475.503 16.584 475.919 16.856 476.399 17.048C476.879 17.24 477.401 17.336 477.967 17.336ZM486.683 19V7.8H491.579C492.795 7.8 493.862 8.03467 494.779 8.504C495.697 8.97333 496.411 9.624 496.923 10.456C497.435 11.288 497.691 12.2693 497.691 13.4C497.691 14.52 497.435 15.5013 496.923 16.344C496.411 17.176 495.697 17.8267 494.779 18.296C493.862 18.7653 492.795 19 491.579 19H486.683ZM488.763 17.24H491.483C492.326 17.24 493.051 17.08 493.659 16.76C494.278 16.44 494.753 15.992 495.083 15.416C495.425 14.84 495.595 14.168 495.595 13.4C495.595 12.6213 495.425 11.9493 495.083 11.384C494.753 10.808 494.278 10.36 493.659 10.04C493.051 9.72 492.326 9.56 491.483 9.56H488.763V17.24ZM505.198 19.16C503.662 19.16 502.457 18.728 501.582 17.864C500.718 17 500.286 15.752 500.286 14.12V7.8H502.366V14.04C502.366 15.192 502.611 16.0293 503.102 16.552C503.603 17.0747 504.307 17.336 505.214 17.336C506.121 17.336 506.819 17.0747 507.31 16.552C507.801 16.0293 508.046 15.192 508.046 14.04V7.8H510.094V14.12C510.094 15.752 509.657 17 508.782 17.864C507.918 18.728 506.723 19.16 505.198 19.16ZM518.671 19.16C517.818 19.16 517.023 19.0213 516.287 18.744C515.562 18.456 514.927 18.056 514.383 17.544C513.85 17.0213 513.434 16.408 513.135 15.704C512.836 15 512.687 14.232 512.687 13.4C512.687 12.568 512.836 11.8 513.135 11.096C513.434 10.392 513.855 9.784 514.399 9.272C514.943 8.74933 515.578 8.34933 516.303 8.072C517.028 7.784 517.823 7.64 518.687 7.64C519.604 7.64 520.442 7.8 521.199 8.12C521.956 8.42933 522.596 8.89333 523.119 9.512L521.775 10.776C521.37 10.3387 520.916 10.0133 520.415 9.8C519.914 9.576 519.37 9.464 518.783 9.464C518.196 9.464 517.658 9.56 517.167 9.752C516.687 9.944 516.266 10.216 515.903 10.568C515.551 10.92 515.274 11.336 515.071 11.816C514.879 12.296 514.783 12.824 514.783 13.4C514.783 13.976 514.879 14.504 515.071 14.984C515.274 15.464 515.551 15.88 515.903 16.232C516.266 16.584 516.687 16.856 517.167 17.048C517.658 17.24 518.196 17.336 518.783 17.336C519.37 17.336 519.914 17.2293 520.415 17.016C520.916 16.792 521.37 16.456 521.775 16.008L523.119 17.288C522.596 17.896 521.956 18.36 521.199 18.68C520.442 19 519.599 19.16 518.671 19.16ZM527.739 19V9.56H524.027V7.8H533.531V9.56H529.819V19H527.739ZM535.572 19V7.8H537.652V19H535.572ZM546.41 19.16C545.535 19.16 544.73 19.016 543.994 18.728C543.258 18.44 542.618 18.04 542.074 17.528C541.53 17.0053 541.108 16.3973 540.81 15.704C540.511 15 540.362 14.232 540.362 13.4C540.362 12.568 540.511 11.8053 540.81 11.112C541.108 10.408 541.53 9.8 542.074 9.288C542.618 8.76533 543.258 8.36 543.994 8.072C544.73 7.784 545.53 7.64 546.394 7.64C547.268 7.64 548.068 7.784 548.794 8.072C549.53 8.36 550.17 8.76533 550.714 9.288C551.258 9.8 551.679 10.408 551.978 11.112C552.276 11.8053 552.426 12.568 552.426 13.4C552.426 14.232 552.276 15 551.978 15.704C551.679 16.408 551.258 17.016 550.714 17.528C550.17 18.04 549.53 18.44 548.794 18.728C548.068 19.016 547.274 19.16 546.41 19.16ZM546.394 17.336C546.959 17.336 547.482 17.24 547.962 17.048C548.442 16.856 548.858 16.584 549.21 16.232C549.562 15.8693 549.834 15.4533 550.026 14.984C550.228 14.504 550.33 13.976 550.33 13.4C550.33 12.824 550.228 12.3013 550.026 11.832C549.834 11.352 549.562 10.936 549.21 10.584C548.858 10.2213 548.442 9.944 547.962 9.752C547.482 9.56 546.959 9.464 546.394 9.464C545.828 9.464 545.306 9.56 544.826 9.752C544.356 9.944 543.94 10.2213 543.578 10.584C543.226 10.936 542.948 11.352 542.746 11.832C542.554 12.3013 542.458 12.824 542.458 13.4C542.458 13.9653 542.554 14.488 542.746 14.968C542.948 15.448 543.226 15.8693 543.578 16.232C543.93 16.584 544.346 16.856 544.826 17.048C545.306 17.24 545.828 17.336 546.394 17.336ZM555.11 19V7.8H556.822L563.846 16.424H562.998V7.8H565.062V19H563.35L556.326 10.376H557.174V19H555.11Z" fill="white"/>
<path d="M609.752 19.16C608.877 19.16 608.072 19.016 607.336 18.728C606.6 18.44 605.96 18.04 605.416 17.528C604.872 17.0053 604.451 16.3973 604.152 15.704C603.853 15 603.704 14.232 603.704 13.4C603.704 12.568 603.853 11.8053 604.152 11.112C604.451 10.408 604.872 9.8 605.416 9.288C605.96 8.76533 606.6 8.36 607.336 8.072C608.072 7.784 608.872 7.64 609.736 7.64C610.611 7.64 611.411 7.784 612.136 8.072C612.872 8.36 613.512 8.76533 614.056 9.288C614.6 9.8 615.021 10.408 615.32 11.112C615.619 11.8053 615.768 12.568 615.768 13.4C615.768 14.232 615.619 15 615.32 15.704C615.021 16.408 614.6 17.016 614.056 17.528C613.512 18.04 612.872 18.44 612.136 18.728C611.411 19.016 610.616 19.16 609.752 19.16ZM609.736 17.336C610.301 17.336 610.824 17.24 611.304 17.048C611.784 16.856 612.2 16.584 612.552 16.232C612.904 15.8693 613.176 15.4533 613.368 14.984C613.571 14.504 613.672 13.976 613.672 13.4C613.672 12.824 613.571 12.3013 613.368 11.832C613.176 11.352 612.904 10.936 612.552 10.584C612.2 10.2213 611.784 9.944 611.304 9.752C610.824 9.56 610.301 9.464 609.736 9.464C609.171 9.464 608.648 9.56 608.168 9.752C607.699 9.944 607.283 10.2213 606.92 10.584C606.568 10.936 606.291 11.352 606.088 11.832C605.896 12.3013 605.8 12.824 605.8 13.4C605.8 13.9653 605.896 14.488 606.088 14.968C606.291 15.448 606.568 15.8693 606.92 16.232C607.272 16.584 607.688 16.856 608.168 17.048C608.648 17.24 609.171 17.336 609.736 17.336ZM618.453 19V7.8H620.165L625.061 15.976H624.165L628.981 7.8H630.693L630.709 19H628.741L628.725 10.888H629.141L625.045 17.72H624.117L619.957 10.888H620.437V19H618.453ZM636.134 12.456H641.702V14.168H636.134V12.456ZM636.294 17.256H642.614V19H634.214V7.8H642.39V9.544H636.294V17.256ZM650.645 19.16C649.77 19.16 648.965 19.0213 648.229 18.744C647.503 18.456 646.869 18.056 646.325 17.544C645.781 17.0213 645.359 16.408 645.061 15.704C644.762 15 644.613 14.232 644.613 13.4C644.613 12.568 644.762 11.8 645.061 11.096C645.359 10.392 645.781 9.784 646.325 9.272C646.879 8.74933 647.525 8.34933 648.261 8.072C648.997 7.784 649.802 7.64 650.677 7.64C651.626 7.64 652.479 7.79467 653.237 8.104C654.005 8.41333 654.65 8.86667 655.173 9.464L653.861 10.744C653.423 10.3067 652.949 9.98667 652.437 9.784C651.935 9.57067 651.381 9.464 650.773 9.464C650.186 9.464 649.642 9.56 649.141 9.752C648.639 9.944 648.207 10.216 647.845 10.568C647.482 10.92 647.199 11.336 646.997 11.816C646.805 12.296 646.709 12.824 646.709 13.4C646.709 13.9653 646.805 14.488 646.997 14.968C647.199 15.448 647.482 15.8693 647.845 16.232C648.207 16.584 648.634 16.856 649.125 17.048C649.615 17.24 650.159 17.336 650.757 17.336C651.311 17.336 651.845 17.2507 652.357 17.08C652.879 16.8987 653.375 16.6 653.845 16.184L655.029 17.736C654.442 18.2053 653.759 18.5627 652.981 18.808C652.213 19.0427 651.434 19.16 650.645 19.16ZM653.061 17.464V13.272H655.029V17.736L653.061 17.464ZM656.668 19L661.708 7.8H663.756L668.812 19H666.636L662.3 8.904H663.132L658.812 19H656.668ZM658.988 16.408L659.548 14.776H665.596L666.156 16.408H658.988ZM675.618 19V7.8H680.226C681.218 7.8 682.066 7.96 682.77 8.28C683.485 8.6 684.034 9.05867 684.418 9.656C684.802 10.2533 684.994 10.9627 684.994 11.784C684.994 12.6053 684.802 13.3147 684.418 13.912C684.034 14.5093 683.485 14.968 682.77 15.288C682.066 15.608 681.218 15.768 680.226 15.768H676.77L677.698 14.792V19H675.618ZM677.698 15.016L676.77 14.008H680.13C681.048 14.008 681.736 13.816 682.194 13.432C682.664 13.0373 682.898 12.488 682.898 11.784C682.898 11.0693 682.664 10.52 682.194 10.136C681.736 9.752 681.048 9.56 680.13 9.56H676.77L677.698 8.536V15.016ZM687.552 19V7.8H692.16C693.152 7.8 694 7.96 694.704 8.28C695.418 8.6 695.968 9.05867 696.352 9.656C696.736 10.2533 696.928 10.9627 696.928 11.784C696.928 12.6053 696.736 13.3147 696.352 13.912C695.968 14.4987 695.418 14.952 694.704 15.272C694 15.5813 693.152 15.736 692.16 15.736H688.704L689.632 14.792V19H687.552ZM694.88 19L692.048 14.936H694.272L697.12 19H694.88ZM689.632 15.016L688.704 14.024H692.064C692.981 14.024 693.669 13.8267 694.128 13.432C694.597 13.0373 694.832 12.488 694.832 11.784C694.832 11.0693 694.597 10.52 694.128 10.136C693.669 9.752 692.981 9.56 692.064 9.56H688.704L689.632 8.536V15.016ZM704.983 19.16C704.108 19.16 703.303 19.016 702.567 18.728C701.831 18.44 701.191 18.04 700.647 17.528C700.103 17.0053 699.681 16.3973 699.383 15.704C699.084 15 698.935 14.232 698.935 13.4C698.935 12.568 699.084 11.8053 699.383 11.112C699.681 10.408 700.103 9.8 700.647 9.288C701.191 8.76533 701.831 8.36 702.567 8.072C703.303 7.784 704.103 7.64 704.967 7.64C705.841 7.64 706.641 7.784 707.367 8.072C708.103 8.36 708.743 8.76533 709.287 9.288C709.831 9.8 710.252 10.408 710.551 11.112C710.849 11.8053 710.999 12.568 710.999 13.4C710.999 14.232 710.849 15 710.551 15.704C710.252 16.408 709.831 17.016 709.287 17.528C708.743 18.04 708.103 18.44 707.367 18.728C706.641 19.016 705.847 19.16 704.983 19.16ZM704.967 17.336C705.532 17.336 706.055 17.24 706.535 17.048C707.015 16.856 707.431 16.584 707.783 16.232C708.135 15.8693 708.407 15.4533 708.599 14.984C708.801 14.504 708.903 13.976 708.903 13.4C708.903 12.824 708.801 12.3013 708.599 11.832C708.407 11.352 708.135 10.936 707.783 10.584C707.431 10.2213 707.015 9.944 706.535 9.752C706.055 9.56 705.532 9.464 704.967 9.464C704.401 9.464 703.879 9.56 703.399 9.752C702.929 9.944 702.513 10.2213 702.151 10.584C701.799 10.936 701.521 11.352 701.319 11.832C701.127 12.3013 701.031 12.824 701.031 13.4C701.031 13.9653 701.127 14.488 701.319 14.968C701.521 15.448 701.799 15.8693 702.151 16.232C702.503 16.584 702.919 16.856 703.399 17.048C703.879 17.24 704.401 17.336 704.967 17.336ZM713.683 19V7.8H718.579C719.795 7.8 720.862 8.03467 721.779 8.504C722.697 8.97333 723.411 9.624 723.923 10.456C724.435 11.288 724.691 12.2693 724.691 13.4C724.691 14.52 724.435 15.5013 723.923 16.344C723.411 17.176 722.697 17.8267 721.779 18.296C720.862 18.7653 719.795 19 718.579 19H713.683ZM715.763 17.24H718.483C719.326 17.24 720.051 17.08 720.659 16.76C721.278 16.44 721.753 15.992 722.083 15.416C722.425 14.84 722.595 14.168 722.595 13.4C722.595 12.6213 722.425 11.9493 722.083 11.384C721.753 10.808 721.278 10.36 720.659 10.04C720.051 9.72 719.326 9.56 718.483 9.56H715.763V17.24ZM732.198 19.16C730.662 19.16 729.457 18.728 728.582 17.864C727.718 17 727.286 15.752 727.286 14.12V7.8H729.366V14.04C729.366 15.192 729.611 16.0293 730.102 16.552C730.603 17.0747 731.307 17.336 732.214 17.336C733.121 17.336 733.819 17.0747 734.31 16.552C734.801 16.0293 735.046 15.192 735.046 14.04V7.8H737.094V14.12C737.094 15.752 736.657 17 735.782 17.864C734.918 18.728 733.723 19.16 732.198 19.16ZM745.671 19.16C744.818 19.16 744.023 19.0213 743.287 18.744C742.562 18.456 741.927 18.056 741.383 17.544C740.85 17.0213 740.434 16.408 740.135 15.704C739.836 15 739.687 14.232 739.687 13.4C739.687 12.568 739.836 11.8 740.135 11.096C740.434 10.392 740.855 9.784 741.399 9.272C741.943 8.74933 742.578 8.34933 743.303 8.072C744.028 7.784 744.823 7.64 745.687 7.64C746.604 7.64 747.442 7.8 748.199 8.12C748.956 8.42933 749.596 8.89333 750.119 9.512L748.775 10.776C748.37 10.3387 747.916 10.0133 747.415 9.8C746.914 9.576 746.37 9.464 745.783 9.464C745.196 9.464 744.658 9.56 744.167 9.752C743.687 9.944 743.266 10.216 742.903 10.568C742.551 10.92 742.274 11.336 742.071 11.816C741.879 12.296 741.783 12.824 741.783 13.4C741.783 13.976 741.879 14.504 742.071 14.984C742.274 15.464 742.551 15.88 742.903 16.232C743.266 16.584 743.687 16.856 744.167 17.048C744.658 17.24 745.196 17.336 745.783 17.336C746.37 17.336 746.914 17.2293 747.415 17.016C747.916 16.792 748.37 16.456 748.775 16.008L750.119 17.288C749.596 17.896 748.956 18.36 748.199 18.68C747.442 19 746.599 19.16 745.671 19.16ZM754.739 19V9.56H751.027V7.8H760.531V9.56H756.819V19H754.739ZM762.572 19V7.8H764.652V19H762.572ZM773.41 19.16C772.535 19.16 771.73 19.016 770.994 18.728C770.258 18.44 769.618 18.04 769.074 17.528C768.53 17.0053 768.108 16.3973 767.81 15.704C767.511 15 767.362 14.232 767.362 13.4C767.362 12.568 767.511 11.8053 767.81 11.112C768.108 10.408 768.53 9.8 769.074 9.288C769.618 8.76533 770.258 8.36 770.994 8.072C771.73 7.784 772.53 7.64 773.394 7.64C774.268 7.64 775.068 7.784 775.794 8.072C776.53 8.36 777.17 8.76533 777.714 9.288C778.258 9.8 778.679 10.408 778.978 11.112C779.276 11.8053 779.426 12.568 779.426 13.4C779.426 14.232 779.276 15 778.978 15.704C778.679 16.408 778.258 17.016 777.714 17.528C777.17 18.04 776.53 18.44 775.794 18.728C775.068 19.016 774.274 19.16 773.41 19.16ZM773.394 17.336C773.959 17.336 774.482 17.24 774.962 17.048C775.442 16.856 775.858 16.584 776.21 16.232C776.562 15.8693 776.834 15.4533 777.026 14.984C777.228 14.504 777.33 13.976 777.33 13.4C777.33 12.824 777.228 12.3013 777.026 11.832C776.834 11.352 776.562 10.936 776.21 10.584C775.858 10.2213 775.442 9.944 774.962 9.752C774.482 9.56 773.959 9.464 773.394 9.464C772.828 9.464 772.306 9.56 771.826 9.752C771.356 9.944 770.94 10.2213 770.578 10.584C770.226 10.936 769.948 11.352 769.746 11.832C769.554 12.3013 769.458 12.824 769.458 13.4C769.458 13.9653 769.554 14.488 769.746 14.968C769.948 15.448 770.226 15.8693 770.578 16.232C770.93 16.584 771.346 16.856 771.826 17.048C772.306 17.24 772.828 17.336 773.394 17.336ZM782.11 19V7.8H783.822L790.846 16.424H789.998V7.8H792.062V19H790.35L783.326 10.376H784.174V19H782.11Z" fill="white"/>
<path d="M836.752 19.16C835.877 19.16 835.072 19.016 834.336 18.728C833.6 18.44 832.96 18.04 832.416 17.528C831.872 17.0053 831.451 16.3973 831.152 15.704C830.853 15 830.704 14.232 830.704 13.4C830.704 12.568 830.853 11.8053 831.152 11.112C831.451 10.408 831.872 9.8 832.416 9.288C832.96 8.76533 833.6 8.36 834.336 8.072C835.072 7.784 835.872 7.64 836.736 7.64C837.611 7.64 838.411 7.784 839.136 8.072C839.872 8.36 840.512 8.76533 841.056 9.288C841.6 9.8 842.021 10.408 842.32 11.112C842.619 11.8053 842.768 12.568 842.768 13.4C842.768 14.232 842.619 15 842.32 15.704C842.021 16.408 841.6 17.016 841.056 17.528C840.512 18.04 839.872 18.44 839.136 18.728C838.411 19.016 837.616 19.16 836.752 19.16ZM836.736 17.336C837.301 17.336 837.824 17.24 838.304 17.048C838.784 16.856 839.2 16.584 839.552 16.232C839.904 15.8693 840.176 15.4533 840.368 14.984C840.571 14.504 840.672 13.976 840.672 13.4C840.672 12.824 840.571 12.3013 840.368 11.832C840.176 11.352 839.904 10.936 839.552 10.584C839.2 10.2213 838.784 9.944 838.304 9.752C837.824 9.56 837.301 9.464 836.736 9.464C836.171 9.464 835.648 9.56 835.168 9.752C834.699 9.944 834.283 10.2213 833.92 10.584C833.568 10.936 833.291 11.352 833.088 11.832C832.896 12.3013 832.8 12.824 832.8 13.4C832.8 13.9653 832.896 14.488 833.088 14.968C833.291 15.448 833.568 15.8693 833.92 16.232C834.272 16.584 834.688 16.856 835.168 17.048C835.648 17.24 836.171 17.336 836.736 17.336ZM845.453 19V7.8H847.165L852.061 15.976H851.165L855.981 7.8H857.693L857.709 19H855.741L855.725 10.888H856.141L852.045 17.72H851.117L846.957 10.888H847.437V19H845.453ZM863.134 12.456H868.702V14.168H863.134V12.456ZM863.294 17.256H869.614V19H861.214V7.8H869.39V9.544H863.294V17.256ZM877.645 19.16C876.77 19.16 875.965 19.0213 875.229 18.744C874.503 18.456 873.869 18.056 873.325 17.544C872.781 17.0213 872.359 16.408 872.061 15.704C871.762 15 871.613 14.232 871.613 13.4C871.613 12.568 871.762 11.8 872.061 11.096C872.359 10.392 872.781 9.784 873.325 9.272C873.879 8.74933 874.525 8.34933 875.261 8.072C875.997 7.784 876.802 7.64 877.677 7.64C878.626 7.64 879.479 7.79467 880.237 8.104C881.005 8.41333 881.65 8.86667 882.173 9.464L880.861 10.744C880.423 10.3067 879.949 9.98667 879.437 9.784C878.935 9.57067 878.381 9.464 877.773 9.464C877.186 9.464 876.642 9.56 876.141 9.752C875.639 9.944 875.207 10.216 874.845 10.568C874.482 10.92 874.199 11.336 873.997 11.816C873.805 12.296 873.709 12.824 873.709 13.4C873.709 13.9653 873.805 14.488 873.997 14.968C874.199 15.448 874.482 15.8693 874.845 16.232C875.207 16.584 875.634 16.856 876.125 17.048C876.615 17.24 877.159 17.336 877.757 17.336C878.311 17.336 878.845 17.2507 879.357 17.08C879.879 16.8987 880.375 16.6 880.845 16.184L882.029 17.736C881.442 18.2053 880.759 18.5627 879.981 18.808C879.213 19.0427 878.434 19.16 877.645 19.16ZM880.061 17.464V13.272H882.029V17.736L880.061 17.464ZM883.668 19L888.708 7.8H890.756L895.812 19H893.636L889.3 8.904H890.132L885.812 19H883.668ZM885.988 16.408L886.548 14.776H892.596L893.156 16.408H885.988ZM902.618 19V7.8H907.226C908.218 7.8 909.066 7.96 909.77 8.28C910.485 8.6 911.034 9.05867 911.418 9.656C911.802 10.2533 911.994 10.9627 911.994 11.784C911.994 12.6053 911.802 13.3147 911.418 13.912C911.034 14.5093 910.485 14.968 909.77 15.288C909.066 15.608 908.218 15.768 907.226 15.768H903.77L904.698 14.792V19H902.618ZM904.698 15.016L903.77 14.008H907.13C908.048 14.008 908.736 13.816 909.194 13.432C909.664 13.0373 909.898 12.488 909.898 11.784C909.898 11.0693 909.664 10.52 909.194 10.136C908.736 9.752 908.048 9.56 907.13 9.56H903.77L904.698 8.536V15.016ZM914.552 19V7.8H919.16C920.152 7.8 921 7.96 921.704 8.28C922.418 8.6 922.968 9.05867 923.352 9.656C923.736 10.2533 923.928 10.9627 923.928 11.784C923.928 12.6053 923.736 13.3147 923.352 13.912C922.968 14.4987 922.418 14.952 921.704 15.272C921 15.5813 920.152 15.736 919.16 15.736H915.704L916.632 14.792V19H914.552ZM921.88 19L919.048 14.936H921.272L924.12 19H921.88ZM916.632 15.016L915.704 14.024H919.064C919.981 14.024 920.669 13.8267 921.128 13.432C921.597 13.0373 921.832 12.488 921.832 11.784C921.832 11.0693 921.597 10.52 921.128 10.136C920.669 9.752 919.981 9.56 919.064 9.56H915.704L916.632 8.536V15.016ZM931.983 19.16C931.108 19.16 930.303 19.016 929.567 18.728C928.831 18.44 928.191 18.04 927.647 17.528C927.103 17.0053 926.681 16.3973 926.383 15.704C926.084 15 925.935 14.232 925.935 13.4C925.935 12.568 926.084 11.8053 926.383 11.112C926.681 10.408 927.103 9.8 927.647 9.288C928.191 8.76533 928.831 8.36 929.567 8.072C930.303 7.784 931.103 7.64 931.967 7.64C932.841 7.64 933.641 7.784 934.367 8.072C935.103 8.36 935.743 8.76533 936.287 9.288C936.831 9.8 937.252 10.408 937.551 11.112C937.849 11.8053 937.999 12.568 937.999 13.4C937.999 14.232 937.849 15 937.551 15.704C937.252 16.408 936.831 17.016 936.287 17.528C935.743 18.04 935.103 18.44 934.367 18.728C933.641 19.016 932.847 19.16 931.983 19.16ZM931.967 17.336C932.532 17.336 933.055 17.24 933.535 17.048C934.015 16.856 934.431 16.584 934.783 16.232C935.135 15.8693 935.407 15.4533 935.599 14.984C935.801 14.504 935.903 13.976 935.903 13.4C935.903 12.824 935.801 12.3013 935.599 11.832C935.407 11.352 935.135 10.936 934.783 10.584C934.431 10.2213 934.015 9.944 933.535 9.752C933.055 9.56 932.532 9.464 931.967 9.464C931.401 9.464 930.879 9.56 930.399 9.752C929.929 9.944 929.513 10.2213 929.151 10.584C928.799 10.936 928.521 11.352 928.319 11.832C928.127 12.3013 928.031 12.824 928.031 13.4C928.031 13.9653 928.127 14.488 928.319 14.968C928.521 15.448 928.799 15.8693 929.151 16.232C929.503 16.584 929.919 16.856 930.399 17.048C930.879 17.24 931.401 17.336 931.967 17.336ZM940.683 19V7.8H945.579C946.795 7.8 947.862 8.03467 948.779 8.504C949.697 8.97333 950.411 9.624 950.923 10.456C951.435 11.288 951.691 12.2693 951.691 13.4C951.691 14.52 951.435 15.5013 950.923 16.344C950.411 17.176 949.697 17.8267 948.779 18.296C947.862 18.7653 946.795 19 945.579 19H940.683ZM942.763 17.24H945.483C946.326 17.24 947.051 17.08 947.659 16.76C948.278 16.44 948.753 15.992 949.083 15.416C949.425 14.84 949.595 14.168 949.595 13.4C949.595 12.6213 949.425 11.9493 949.083 11.384C948.753 10.808 948.278 10.36 947.659 10.04C947.051 9.72 946.326 9.56 945.483 9.56H942.763V17.24ZM959.198 19.16C957.662 19.16 956.457 18.728 955.582 17.864C954.718 17 954.286 15.752 954.286 14.12V7.8H956.366V14.04C956.366 15.192 956.611 16.0293 957.102 16.552C957.603 17.0747 958.307 17.336 959.214 17.336C960.121 17.336 960.819 17.0747 961.31 16.552C961.801 16.0293 962.046 15.192 962.046 14.04V7.8H964.094V14.12C964.094 15.752 963.657 17 962.782 17.864C961.918 18.728 960.723 19.16 959.198 19.16ZM972.671 19.16C971.818 19.16 971.023 19.0213 970.287 18.744C969.562 18.456 968.927 18.056 968.383 17.544C967.85 17.0213 967.434 16.408 967.135 15.704C966.836 15 966.687 14.232 966.687 13.4C966.687 12.568 966.836 11.8 967.135 11.096C967.434 10.392 967.855 9.784 968.399 9.272C968.943 8.74933 969.578 8.34933 970.303 8.072C971.028 7.784 971.823 7.64 972.687 7.64C973.604 7.64 974.442 7.8 975.199 8.12C975.956 8.42933 976.596 8.89333 977.119 9.512L975.775 10.776C975.37 10.3387 974.916 10.0133 974.415 9.8C973.914 9.576 973.37 9.464 972.783 9.464C972.196 9.464 971.658 9.56 971.167 9.752C970.687 9.944 970.266 10.216 969.903 10.568C969.551 10.92 969.274 11.336 969.071 11.816C968.879 12.296 968.783 12.824 968.783 13.4C968.783 13.976 968.879 14.504 969.071 14.984C969.274 15.464 969.551 15.88 969.903 16.232C970.266 16.584 970.687 16.856 971.167 17.048C971.658 17.24 972.196 17.336 972.783 17.336C973.37 17.336 973.914 17.2293 974.415 17.016C974.916 16.792 975.37 16.456 975.775 16.008L977.119 17.288C976.596 17.896 975.956 18.36 975.199 18.68C974.442 19 973.599 19.16 972.671 19.16ZM981.739 19V9.56H978.027V7.8H987.531V9.56H983.819V19H981.739ZM989.572 19V7.8H991.652V19H989.572ZM1000.41 19.16C999.535 19.16 998.73 19.016 997.994 18.728C997.258 18.44 996.618 18.04 996.074 17.528C995.53 17.0053 995.108 16.3973 994.81 15.704C994.511 15 994.362 14.232 994.362 13.4C994.362 12.568 994.511 11.8053 994.81 11.112C995.108 10.408 995.53 9.8 996.074 9.288C996.618 8.76533 997.258 8.36 997.994 8.072C998.73 7.784 999.53 7.64 1000.39 7.64C1001.27 7.64 1002.07 7.784 1002.79 8.072C1003.53 8.36 1004.17 8.76533 1004.71 9.288C1005.26 9.8 1005.68 10.408 1005.98 11.112C1006.28 11.8053 1006.43 12.568 1006.43 13.4C1006.43 14.232 1006.28 15 1005.98 15.704C1005.68 16.408 1005.26 17.016 1004.71 17.528C1004.17 18.04 1003.53 18.44 1002.79 18.728C1002.07 19.016 1001.27 19.16 1000.41 19.16ZM1000.39 17.336C1000.96 17.336 1001.48 17.24 1001.96 17.048C1002.44 16.856 1002.86 16.584 1003.21 16.232C1003.56 15.8693 1003.83 15.4533 1004.03 14.984C1004.23 14.504 1004.33 13.976 1004.33 13.4C1004.33 12.824 1004.23 12.3013 1004.03 11.832C1003.83 11.352 1003.56 10.936 1003.21 10.584C1002.86 10.2213 1002.44 9.944 1001.96 9.752C1001.48 9.56 1000.96 9.464 1000.39 9.464C999.828 9.464 999.306 9.56 998.826 9.752C998.356 9.944 997.94 10.2213 997.578 10.584C997.226 10.936 996.948 11.352 996.746 11.832C996.554 12.3013 996.458 12.824 996.458 13.4C996.458 13.9653 996.554 14.488 996.746 14.968C996.948 15.448 997.226 15.8693 997.578 16.232C997.93 16.584 998.346 16.856 998.826 17.048C999.306 17.24 999.828 17.336 1000.39 17.336ZM1009.11 19V7.8H1010.82L1017.85 16.424H1017V7.8H1019.06V19H1017.35L1010.33 10.376H1011.17V19H1009.11Z" fill="white"/>
<path d="M1063.75 19.16C1062.88 19.16 1062.07 19.016 1061.34 18.728C1060.6 18.44 1059.96 18.04 1059.42 17.528C1058.87 17.0053 1058.45 16.3973 1058.15 15.704C1057.85 15 1057.7 14.232 1057.7 13.4C1057.7 12.568 1057.85 11.8053 1058.15 11.112C1058.45 10.408 1058.87 9.8 1059.42 9.288C1059.96 8.76533 1060.6 8.36 1061.34 8.072C1062.07 7.784 1062.87 7.64 1063.74 7.64C1064.61 7.64 1065.41 7.784 1066.14 8.072C1066.87 8.36 1067.51 8.76533 1068.06 9.288C1068.6 9.8 1069.02 10.408 1069.32 11.112C1069.62 11.8053 1069.77 12.568 1069.77 13.4C1069.77 14.232 1069.62 15 1069.32 15.704C1069.02 16.408 1068.6 17.016 1068.06 17.528C1067.51 18.04 1066.87 18.44 1066.14 18.728C1065.41 19.016 1064.62 19.16 1063.75 19.16ZM1063.74 17.336C1064.3 17.336 1064.82 17.24 1065.3 17.048C1065.78 16.856 1066.2 16.584 1066.55 16.232C1066.9 15.8693 1067.18 15.4533 1067.37 14.984C1067.57 14.504 1067.67 13.976 1067.67 13.4C1067.67 12.824 1067.57 12.3013 1067.37 11.832C1067.18 11.352 1066.9 10.936 1066.55 10.584C1066.2 10.2213 1065.78 9.944 1065.3 9.752C1064.82 9.56 1064.3 9.464 1063.74 9.464C1063.17 9.464 1062.65 9.56 1062.17 9.752C1061.7 9.944 1061.28 10.2213 1060.92 10.584C1060.57 10.936 1060.29 11.352 1060.09 11.832C1059.9 12.3013 1059.8 12.824 1059.8 13.4C1059.8 13.9653 1059.9 14.488 1060.09 14.968C1060.29 15.448 1060.57 15.8693 1060.92 16.232C1061.27 16.584 1061.69 16.856 1062.17 17.048C1062.65 17.24 1063.17 17.336 1063.74 17.336ZM1072.45 19V7.8H1074.16L1079.06 15.976H1078.16L1082.98 7.8H1084.69L1084.71 19H1082.74L1082.72 10.888H1083.14L1079.04 17.72H1078.12L1073.96 10.888H1074.44V19H1072.45ZM1090.13 12.456H1095.7V14.168H1090.13V12.456ZM1090.29 17.256H1096.61V19H1088.21V7.8H1096.39V9.544H1090.29V17.256ZM1104.64 19.16C1103.77 19.16 1102.96 19.0213 1102.23 18.744C1101.5 18.456 1100.87 18.056 1100.32 17.544C1099.78 17.0213 1099.36 16.408 1099.06 15.704C1098.76 15 1098.61 14.232 1098.61 13.4C1098.61 12.568 1098.76 11.8 1099.06 11.096C1099.36 10.392 1099.78 9.784 1100.32 9.272C1100.88 8.74933 1101.52 8.34933 1102.26 8.072C1103 7.784 1103.8 7.64 1104.68 7.64C1105.63 7.64 1106.48 7.79467 1107.24 8.104C1108 8.41333 1108.65 8.86667 1109.17 9.464L1107.86 10.744C1107.42 10.3067 1106.95 9.98667 1106.44 9.784C1105.94 9.57067 1105.38 9.464 1104.77 9.464C1104.19 9.464 1103.64 9.56 1103.14 9.752C1102.64 9.944 1102.21 10.216 1101.84 10.568C1101.48 10.92 1101.2 11.336 1101 11.816C1100.8 12.296 1100.71 12.824 1100.71 13.4C1100.71 13.9653 1100.8 14.488 1101 14.968C1101.2 15.448 1101.48 15.8693 1101.84 16.232C1102.21 16.584 1102.63 16.856 1103.12 17.048C1103.62 17.24 1104.16 17.336 1104.76 17.336C1105.31 17.336 1105.84 17.2507 1106.36 17.08C1106.88 16.8987 1107.38 16.6 1107.84 16.184L1109.03 17.736C1108.44 18.2053 1107.76 18.5627 1106.98 18.808C1106.21 19.0427 1105.43 19.16 1104.64 19.16ZM1107.06 17.464V13.272H1109.03V17.736L1107.06 17.464ZM1110.67 19L1115.71 7.8H1117.76L1122.81 19H1120.64L1116.3 8.904H1117.13L1112.81 19H1110.67ZM1112.99 16.408L1113.55 14.776H1119.6L1120.16 16.408H1112.99ZM1129.62 19V7.8H1134.23C1135.22 7.8 1136.07 7.96 1136.77 8.28C1137.49 8.6 1138.03 9.05867 1138.42 9.656C1138.8 10.2533 1138.99 10.9627 1138.99 11.784C1138.99 12.6053 1138.8 13.3147 1138.42 13.912C1138.03 14.5093 1137.49 14.968 1136.77 15.288C1136.07 15.608 1135.22 15.768 1134.23 15.768H1130.77L1131.7 14.792V19H1129.62ZM1131.7 15.016L1130.77 14.008H1134.13C1135.05 14.008 1135.74 13.816 1136.19 13.432C1136.66 13.0373 1136.9 12.488 1136.9 11.784C1136.9 11.0693 1136.66 10.52 1136.19 10.136C1135.74 9.752 1135.05 9.56 1134.13 9.56H1130.77L1131.7 8.536V15.016ZM1141.55 19V7.8H1146.16C1147.15 7.8 1148 7.96 1148.7 8.28C1149.42 8.6 1149.97 9.05867 1150.35 9.656C1150.74 10.2533 1150.93 10.9627 1150.93 11.784C1150.93 12.6053 1150.74 13.3147 1150.35 13.912C1149.97 14.4987 1149.42 14.952 1148.7 15.272C1148 15.5813 1147.15 15.736 1146.16 15.736H1142.7L1143.63 14.792V19H1141.55ZM1148.88 19L1146.05 14.936H1148.27L1151.12 19H1148.88ZM1143.63 15.016L1142.7 14.024H1146.06C1146.98 14.024 1147.67 13.8267 1148.13 13.432C1148.6 13.0373 1148.83 12.488 1148.83 11.784C1148.83 11.0693 1148.6 10.52 1148.13 10.136C1147.67 9.752 1146.98 9.56 1146.06 9.56H1142.7L1143.63 8.536V15.016ZM1158.98 19.16C1158.11 19.16 1157.3 19.016 1156.57 18.728C1155.83 18.44 1155.19 18.04 1154.65 17.528C1154.1 17.0053 1153.68 16.3973 1153.38 15.704C1153.08 15 1152.93 14.232 1152.93 13.4C1152.93 12.568 1153.08 11.8053 1153.38 11.112C1153.68 10.408 1154.1 9.8 1154.65 9.288C1155.19 8.76533 1155.83 8.36 1156.57 8.072C1157.3 7.784 1158.1 7.64 1158.97 7.64C1159.84 7.64 1160.64 7.784 1161.37 8.072C1162.1 8.36 1162.74 8.76533 1163.29 9.288C1163.83 9.8 1164.25 10.408 1164.55 11.112C1164.85 11.8053 1165 12.568 1165 13.4C1165 14.232 1164.85 15 1164.55 15.704C1164.25 16.408 1163.83 17.016 1163.29 17.528C1162.74 18.04 1162.1 18.44 1161.37 18.728C1160.64 19.016 1159.85 19.16 1158.98 19.16ZM1158.97 17.336C1159.53 17.336 1160.05 17.24 1160.53 17.048C1161.01 16.856 1161.43 16.584 1161.78 16.232C1162.13 15.8693 1162.41 15.4533 1162.6 14.984C1162.8 14.504 1162.9 13.976 1162.9 13.4C1162.9 12.824 1162.8 12.3013 1162.6 11.832C1162.41 11.352 1162.13 10.936 1161.78 10.584C1161.43 10.2213 1161.01 9.944 1160.53 9.752C1160.05 9.56 1159.53 9.464 1158.97 9.464C1158.4 9.464 1157.88 9.56 1157.4 9.752C1156.93 9.944 1156.51 10.2213 1156.15 10.584C1155.8 10.936 1155.52 11.352 1155.32 11.832C1155.13 12.3013 1155.03 12.824 1155.03 13.4C1155.03 13.9653 1155.13 14.488 1155.32 14.968C1155.52 15.448 1155.8 15.8693 1156.15 16.232C1156.5 16.584 1156.92 16.856 1157.4 17.048C1157.88 17.24 1158.4 17.336 1158.97 17.336ZM1167.68 19V7.8H1172.58C1173.8 7.8 1174.86 8.03467 1175.78 8.504C1176.7 8.97333 1177.41 9.624 1177.92 10.456C1178.44 11.288 1178.69 12.2693 1178.69 13.4C1178.69 14.52 1178.44 15.5013 1177.92 16.344C1177.41 17.176 1176.7 17.8267 1175.78 18.296C1174.86 18.7653 1173.8 19 1172.58 19H1167.68ZM1169.76 17.24H1172.48C1173.33 17.24 1174.05 17.08 1174.66 16.76C1175.28 16.44 1175.75 15.992 1176.08 15.416C1176.42 14.84 1176.6 14.168 1176.6 13.4C1176.6 12.6213 1176.42 11.9493 1176.08 11.384C1175.75 10.808 1175.28 10.36 1174.66 10.04C1174.05 9.72 1173.33 9.56 1172.48 9.56H1169.76V17.24ZM1186.2 19.16C1184.66 19.16 1183.46 18.728 1182.58 17.864C1181.72 17 1181.29 15.752 1181.29 14.12V7.8H1183.37V14.04C1183.37 15.192 1183.61 16.0293 1184.1 16.552C1184.6 17.0747 1185.31 17.336 1186.21 17.336C1187.12 17.336 1187.82 17.0747 1188.31 16.552C1188.8 16.0293 1189.05 15.192 1189.05 14.04V7.8H1191.09V14.12C1191.09 15.752 1190.66 17 1189.78 17.864C1188.92 18.728 1187.72 19.16 1186.2 19.16ZM1199.67 19.16C1198.82 19.16 1198.02 19.0213 1197.29 18.744C1196.56 18.456 1195.93 18.056 1195.38 17.544C1194.85 17.0213 1194.43 16.408 1194.14 15.704C1193.84 15 1193.69 14.232 1193.69 13.4C1193.69 12.568 1193.84 11.8 1194.14 11.096C1194.43 10.392 1194.86 9.784 1195.4 9.272C1195.94 8.74933 1196.58 8.34933 1197.3 8.072C1198.03 7.784 1198.82 7.64 1199.69 7.64C1200.6 7.64 1201.44 7.8 1202.2 8.12C1202.96 8.42933 1203.6 8.89333 1204.12 9.512L1202.78 10.776C1202.37 10.3387 1201.92 10.0133 1201.42 9.8C1200.91 9.576 1200.37 9.464 1199.78 9.464C1199.2 9.464 1198.66 9.56 1198.17 9.752C1197.69 9.944 1197.27 10.216 1196.9 10.568C1196.55 10.92 1196.27 11.336 1196.07 11.816C1195.88 12.296 1195.78 12.824 1195.78 13.4C1195.78 13.976 1195.88 14.504 1196.07 14.984C1196.27 15.464 1196.55 15.88 1196.9 16.232C1197.27 16.584 1197.69 16.856 1198.17 17.048C1198.66 17.24 1199.2 17.336 1199.78 17.336C1200.37 17.336 1200.91 17.2293 1201.42 17.016C1201.92 16.792 1202.37 16.456 1202.78 16.008L1204.12 17.288C1203.6 17.896 1202.96 18.36 1202.2 18.68C1201.44 19 1200.6 19.16 1199.67 19.16ZM1208.74 19V9.56H1205.03V7.8H1214.53V9.56H1210.82V19H1208.74ZM1216.57 19V7.8H1218.65V19H1216.57ZM1227.41 19.16C1226.53 19.16 1225.73 19.016 1224.99 18.728C1224.26 18.44 1223.62 18.04 1223.07 17.528C1222.53 17.0053 1222.11 16.3973 1221.81 15.704C1221.51 15 1221.36 14.232 1221.36 13.4C1221.36 12.568 1221.51 11.8053 1221.81 11.112C1222.11 10.408 1222.53 9.8 1223.07 9.288C1223.62 8.76533 1224.26 8.36 1224.99 8.072C1225.73 7.784 1226.53 7.64 1227.39 7.64C1228.27 7.64 1229.07 7.784 1229.79 8.072C1230.53 8.36 1231.17 8.76533 1231.71 9.288C1232.26 9.8 1232.68 10.408 1232.98 11.112C1233.28 11.8053 1233.43 12.568 1233.43 13.4C1233.43 14.232 1233.28 15 1232.98 15.704C1232.68 16.408 1232.26 17.016 1231.71 17.528C1231.17 18.04 1230.53 18.44 1229.79 18.728C1229.07 19.016 1228.27 19.16 1227.41 19.16ZM1227.39 17.336C1227.96 17.336 1228.48 17.24 1228.96 17.048C1229.44 16.856 1229.86 16.584 1230.21 16.232C1230.56 15.8693 1230.83 15.4533 1231.03 14.984C1231.23 14.504 1231.33 13.976 1231.33 13.4C1231.33 12.824 1231.23 12.3013 1231.03 11.832C1230.83 11.352 1230.56 10.936 1230.21 10.584C1229.86 10.2213 1229.44 9.944 1228.96 9.752C1228.48 9.56 1227.96 9.464 1227.39 9.464C1226.83 9.464 1226.31 9.56 1225.83 9.752C1225.36 9.944 1224.94 10.2213 1224.58 10.584C1224.23 10.936 1223.95 11.352 1223.75 11.832C1223.55 12.3013 1223.46 12.824 1223.46 13.4C1223.46 13.9653 1223.55 14.488 1223.75 14.968C1223.95 15.448 1224.23 15.8693 1224.58 16.232C1224.93 16.584 1225.35 16.856 1225.83 17.048C1226.31 17.24 1226.83 17.336 1227.39 17.336ZM1236.11 19V7.8H1237.82L1244.85 16.424H1244V7.8H1246.06V19H1244.35L1237.33 10.376H1238.17V19H1236.11Z" fill="white"/>
<path d="M1290.75 19.16C1289.88 19.16 1289.07 19.016 1288.34 18.728C1287.6 18.44 1286.96 18.04 1286.42 17.528C1285.87 17.0053 1285.45 16.3973 1285.15 15.704C1284.85 15 1284.7 14.232 1284.7 13.4C1284.7 12.568 1284.85 11.8053 1285.15 11.112C1285.45 10.408 1285.87 9.8 1286.42 9.288C1286.96 8.76533 1287.6 8.36 1288.34 8.072C1289.07 7.784 1289.87 7.64 1290.74 7.64C1291.61 7.64 1292.41 7.784 1293.14 8.072C1293.87 8.36 1294.51 8.76533 1295.06 9.288C1295.6 9.8 1296.02 10.408 1296.32 11.112C1296.62 11.8053 1296.77 12.568 1296.77 13.4C1296.77 14.232 1296.62 15 1296.32 15.704C1296.02 16.408 1295.6 17.016 1295.06 17.528C1294.51 18.04 1293.87 18.44 1293.14 18.728C1292.41 19.016 1291.62 19.16 1290.75 19.16ZM1290.74 17.336C1291.3 17.336 1291.82 17.24 1292.3 17.048C1292.78 16.856 1293.2 16.584 1293.55 16.232C1293.9 15.8693 1294.18 15.4533 1294.37 14.984C1294.57 14.504 1294.67 13.976 1294.67 13.4C1294.67 12.824 1294.57 12.3013 1294.37 11.832C1294.18 11.352 1293.9 10.936 1293.55 10.584C1293.2 10.2213 1292.78 9.944 1292.3 9.752C1291.82 9.56 1291.3 9.464 1290.74 9.464C1290.17 9.464 1289.65 9.56 1289.17 9.752C1288.7 9.944 1288.28 10.2213 1287.92 10.584C1287.57 10.936 1287.29 11.352 1287.09 11.832C1286.9 12.3013 1286.8 12.824 1286.8 13.4C1286.8 13.9653 1286.9 14.488 1287.09 14.968C1287.29 15.448 1287.57 15.8693 1287.92 16.232C1288.27 16.584 1288.69 16.856 1289.17 17.048C1289.65 17.24 1290.17 17.336 1290.74 17.336ZM1299.45 19V7.8H1301.16L1306.06 15.976H1305.16L1309.98 7.8H1311.69L1311.71 19H1309.74L1309.72 10.888H1310.14L1306.04 17.72H1305.12L1300.96 10.888H1301.44V19H1299.45ZM1317.13 12.456H1322.7V14.168H1317.13V12.456ZM1317.29 17.256H1323.61V19H1315.21V7.8H1323.39V9.544H1317.29V17.256ZM1331.64 19.16C1330.77 19.16 1329.96 19.0213 1329.23 18.744C1328.5 18.456 1327.87 18.056 1327.32 17.544C1326.78 17.0213 1326.36 16.408 1326.06 15.704C1325.76 15 1325.61 14.232 1325.61 13.4C1325.61 12.568 1325.76 11.8 1326.06 11.096C1326.36 10.392 1326.78 9.784 1327.32 9.272C1327.88 8.74933 1328.52 8.34933 1329.26 8.072C1330 7.784 1330.8 7.64 1331.68 7.64C1332.63 7.64 1333.48 7.79467 1334.24 8.104C1335 8.41333 1335.65 8.86667 1336.17 9.464L1334.86 10.744C1334.42 10.3067 1333.95 9.98667 1333.44 9.784C1332.94 9.57067 1332.38 9.464 1331.77 9.464C1331.19 9.464 1330.64 9.56 1330.14 9.752C1329.64 9.944 1329.21 10.216 1328.84 10.568C1328.48 10.92 1328.2 11.336 1328 11.816C1327.8 12.296 1327.71 12.824 1327.71 13.4C1327.71 13.9653 1327.8 14.488 1328 14.968C1328.2 15.448 1328.48 15.8693 1328.84 16.232C1329.21 16.584 1329.63 16.856 1330.12 17.048C1330.62 17.24 1331.16 17.336 1331.76 17.336C1332.31 17.336 1332.84 17.2507 1333.36 17.08C1333.88 16.8987 1334.38 16.6 1334.84 16.184L1336.03 17.736C1335.44 18.2053 1334.76 18.5627 1333.98 18.808C1333.21 19.0427 1332.43 19.16 1331.64 19.16ZM1334.06 17.464V13.272H1336.03V17.736L1334.06 17.464ZM1337.67 19L1342.71 7.8H1344.76L1349.81 19H1347.64L1343.3 8.904H1344.13L1339.81 19H1337.67ZM1339.99 16.408L1340.55 14.776H1346.6L1347.16 16.408H1339.99ZM1356.62 19V7.8H1361.23C1362.22 7.8 1363.07 7.96 1363.77 8.28C1364.49 8.6 1365.03 9.05867 1365.42 9.656C1365.8 10.2533 1365.99 10.9627 1365.99 11.784C1365.99 12.6053 1365.8 13.3147 1365.42 13.912C1365.03 14.5093 1364.49 14.968 1363.77 15.288C1363.07 15.608 1362.22 15.768 1361.23 15.768H1357.77L1358.7 14.792V19H1356.62ZM1358.7 15.016L1357.77 14.008H1361.13C1362.05 14.008 1362.74 13.816 1363.19 13.432C1363.66 13.0373 1363.9 12.488 1363.9 11.784C1363.9 11.0693 1363.66 10.52 1363.19 10.136C1362.74 9.752 1362.05 9.56 1361.13 9.56H1357.77L1358.7 8.536V15.016ZM1368.55 19V7.8H1373.16C1374.15 7.8 1375 7.96 1375.7 8.28C1376.42 8.6 1376.97 9.05867 1377.35 9.656C1377.74 10.2533 1377.93 10.9627 1377.93 11.784C1377.93 12.6053 1377.74 13.3147 1377.35 13.912C1376.97 14.4987 1376.42 14.952 1375.7 15.272C1375 15.5813 1374.15 15.736 1373.16 15.736H1369.7L1370.63 14.792V19H1368.55ZM1375.88 19L1373.05 14.936H1375.27L1378.12 19H1375.88ZM1370.63 15.016L1369.7 14.024H1373.06C1373.98 14.024 1374.67 13.8267 1375.13 13.432C1375.6 13.0373 1375.83 12.488 1375.83 11.784C1375.83 11.0693 1375.6 10.52 1375.13 10.136C1374.67 9.752 1373.98 9.56 1373.06 9.56H1369.7L1370.63 8.536V15.016ZM1385.98 19.16C1385.11 19.16 1384.3 19.016 1383.57 18.728C1382.83 18.44 1382.19 18.04 1381.65 17.528C1381.1 17.0053 1380.68 16.3973 1380.38 15.704C1380.08 15 1379.93 14.232 1379.93 13.4C1379.93 12.568 1380.08 11.8053 1380.38 11.112C1380.68 10.408 1381.1 9.8 1381.65 9.288C1382.19 8.76533 1382.83 8.36 1383.57 8.072C1384.3 7.784 1385.1 7.64 1385.97 7.64C1386.84 7.64 1387.64 7.784 1388.37 8.072C1389.1 8.36 1389.74 8.76533 1390.29 9.288C1390.83 9.8 1391.25 10.408 1391.55 11.112C1391.85 11.8053 1392 12.568 1392 13.4C1392 14.232 1391.85 15 1391.55 15.704C1391.25 16.408 1390.83 17.016 1390.29 17.528C1389.74 18.04 1389.1 18.44 1388.37 18.728C1387.64 19.016 1386.85 19.16 1385.98 19.16ZM1385.97 17.336C1386.53 17.336 1387.05 17.24 1387.53 17.048C1388.01 16.856 1388.43 16.584 1388.78 16.232C1389.13 15.8693 1389.41 15.4533 1389.6 14.984C1389.8 14.504 1389.9 13.976 1389.9 13.4C1389.9 12.824 1389.8 12.3013 1389.6 11.832C1389.41 11.352 1389.13 10.936 1388.78 10.584C1388.43 10.2213 1388.01 9.944 1387.53 9.752C1387.05 9.56 1386.53 9.464 1385.97 9.464C1385.4 9.464 1384.88 9.56 1384.4 9.752C1383.93 9.944 1383.51 10.2213 1383.15 10.584C1382.8 10.936 1382.52 11.352 1382.32 11.832C1382.13 12.3013 1382.03 12.824 1382.03 13.4C1382.03 13.9653 1382.13 14.488 1382.32 14.968C1382.52 15.448 1382.8 15.8693 1383.15 16.232C1383.5 16.584 1383.92 16.856 1384.4 17.048C1384.88 17.24 1385.4 17.336 1385.97 17.336ZM1394.68 19V7.8H1399.58C1400.8 7.8 1401.86 8.03467 1402.78 8.504C1403.7 8.97333 1404.41 9.624 1404.92 10.456C1405.44 11.288 1405.69 12.2693 1405.69 13.4C1405.69 14.52 1405.44 15.5013 1404.92 16.344C1404.41 17.176 1403.7 17.8267 1402.78 18.296C1401.86 18.7653 1400.8 19 1399.58 19H1394.68ZM1396.76 17.24H1399.48C1400.33 17.24 1401.05 17.08 1401.66 16.76C1402.28 16.44 1402.75 15.992 1403.08 15.416C1403.42 14.84 1403.6 14.168 1403.6 13.4C1403.6 12.6213 1403.42 11.9493 1403.08 11.384C1402.75 10.808 1402.28 10.36 1401.66 10.04C1401.05 9.72 1400.33 9.56 1399.48 9.56H1396.76V17.24ZM1413.2 19.16C1411.66 19.16 1410.46 18.728 1409.58 17.864C1408.72 17 1408.29 15.752 1408.29 14.12V7.8H1410.37V14.04C1410.37 15.192 1410.61 16.0293 1411.1 16.552C1411.6 17.0747 1412.31 17.336 1413.21 17.336C1414.12 17.336 1414.82 17.0747 1415.31 16.552C1415.8 16.0293 1416.05 15.192 1416.05 14.04V7.8H1418.09V14.12C1418.09 15.752 1417.66 17 1416.78 17.864C1415.92 18.728 1414.72 19.16 1413.2 19.16ZM1426.67 19.16C1425.82 19.16 1425.02 19.0213 1424.29 18.744C1423.56 18.456 1422.93 18.056 1422.38 17.544C1421.85 17.0213 1421.43 16.408 1421.14 15.704C1420.84 15 1420.69 14.232 1420.69 13.4C1420.69 12.568 1420.84 11.8 1421.14 11.096C1421.43 10.392 1421.86 9.784 1422.4 9.272C1422.94 8.74933 1423.58 8.34933 1424.3 8.072C1425.03 7.784 1425.82 7.64 1426.69 7.64C1427.6 7.64 1428.44 7.8 1429.2 8.12C1429.96 8.42933 1430.6 8.89333 1431.12 9.512L1429.78 10.776C1429.37 10.3387 1428.92 10.0133 1428.42 9.8C1427.91 9.576 1427.37 9.464 1426.78 9.464C1426.2 9.464 1425.66 9.56 1425.17 9.752C1424.69 9.944 1424.27 10.216 1423.9 10.568C1423.55 10.92 1423.27 11.336 1423.07 11.816C1422.88 12.296 1422.78 12.824 1422.78 13.4C1422.78 13.976 1422.88 14.504 1423.07 14.984C1423.27 15.464 1423.55 15.88 1423.9 16.232C1424.27 16.584 1424.69 16.856 1425.17 17.048C1425.66 17.24 1426.2 17.336 1426.78 17.336C1427.37 17.336 1427.91 17.2293 1428.42 17.016C1428.92 16.792 1429.37 16.456 1429.78 16.008L1431.12 17.288C1430.6 17.896 1429.96 18.36 1429.2 18.68C1428.44 19 1427.6 19.16 1426.67 19.16ZM1435.74 19V9.56H1432.03V7.8H1441.53V9.56H1437.82V19H1435.74ZM1443.57 19V7.8H1445.65V19H1443.57ZM1454.41 19.16C1453.53 19.16 1452.73 19.016 1451.99 18.728C1451.26 18.44 1450.62 18.04 1450.07 17.528C1449.53 17.0053 1449.11 16.3973 1448.81 15.704C1448.51 15 1448.36 14.232 1448.36 13.4C1448.36 12.568 1448.51 11.8053 1448.81 11.112C1449.11 10.408 1449.53 9.8 1450.07 9.288C1450.62 8.76533 1451.26 8.36 1451.99 8.072C1452.73 7.784 1453.53 7.64 1454.39 7.64C1455.27 7.64 1456.07 7.784 1456.79 8.072C1457.53 8.36 1458.17 8.76533 1458.71 9.288C1459.26 9.8 1459.68 10.408 1459.98 11.112C1460.28 11.8053 1460.43 12.568 1460.43 13.4C1460.43 14.232 1460.28 15 1459.98 15.704C1459.68 16.408 1459.26 17.016 1458.71 17.528C1458.17 18.04 1457.53 18.44 1456.79 18.728C1456.07 19.016 1455.27 19.16 1454.41 19.16ZM1454.39 17.336C1454.96 17.336 1455.48 17.24 1455.96 17.048C1456.44 16.856 1456.86 16.584 1457.21 16.232C1457.56 15.8693 1457.83 15.4533 1458.03 14.984C1458.23 14.504 1458.33 13.976 1458.33 13.4C1458.33 12.824 1458.23 12.3013 1458.03 11.832C1457.83 11.352 1457.56 10.936 1457.21 10.584C1456.86 10.2213 1456.44 9.944 1455.96 9.752C1455.48 9.56 1454.96 9.464 1454.39 9.464C1453.83 9.464 1453.31 9.56 1452.83 9.752C1452.36 9.944 1451.94 10.2213 1451.58 10.584C1451.23 10.936 1450.95 11.352 1450.75 11.832C1450.55 12.3013 1450.46 12.824 1450.46 13.4C1450.46 13.9653 1450.55 14.488 1450.75 14.968C1450.95 15.448 1451.23 15.8693 1451.58 16.232C1451.93 16.584 1452.35 16.856 1452.83 17.048C1453.31 17.24 1453.83 17.336 1454.39 17.336ZM1463.11 19V7.8H1464.82L1471.85 16.424H1471V7.8H1473.06V19H1471.35L1464.33 10.376H1465.17V19H1463.11Z" fill="white"/>
<path d="M1517.75 19.16C1516.88 19.16 1516.07 19.016 1515.34 18.728C1514.6 18.44 1513.96 18.04 1513.42 17.528C1512.87 17.0053 1512.45 16.3973 1512.15 15.704C1511.85 15 1511.7 14.232 1511.7 13.4C1511.7 12.568 1511.85 11.8053 1512.15 11.112C1512.45 10.408 1512.87 9.8 1513.42 9.288C1513.96 8.76533 1514.6 8.36 1515.34 8.072C1516.07 7.784 1516.87 7.64 1517.74 7.64C1518.61 7.64 1519.41 7.784 1520.14 8.072C1520.87 8.36 1521.51 8.76533 1522.06 9.288C1522.6 9.8 1523.02 10.408 1523.32 11.112C1523.62 11.8053 1523.77 12.568 1523.77 13.4C1523.77 14.232 1523.62 15 1523.32 15.704C1523.02 16.408 1522.6 17.016 1522.06 17.528C1521.51 18.04 1520.87 18.44 1520.14 18.728C1519.41 19.016 1518.62 19.16 1517.75 19.16ZM1517.74 17.336C1518.3 17.336 1518.82 17.24 1519.3 17.048C1519.78 16.856 1520.2 16.584 1520.55 16.232C1520.9 15.8693 1521.18 15.4533 1521.37 14.984C1521.57 14.504 1521.67 13.976 1521.67 13.4C1521.67 12.824 1521.57 12.3013 1521.37 11.832C1521.18 11.352 1520.9 10.936 1520.55 10.584C1520.2 10.2213 1519.78 9.944 1519.3 9.752C1518.82 9.56 1518.3 9.464 1517.74 9.464C1517.17 9.464 1516.65 9.56 1516.17 9.752C1515.7 9.944 1515.28 10.2213 1514.92 10.584C1514.57 10.936 1514.29 11.352 1514.09 11.832C1513.9 12.3013 1513.8 12.824 1513.8 13.4C1513.8 13.9653 1513.9 14.488 1514.09 14.968C1514.29 15.448 1514.57 15.8693 1514.92 16.232C1515.27 16.584 1515.69 16.856 1516.17 17.048C1516.65 17.24 1517.17 17.336 1517.74 17.336ZM1526.45 19V7.8H1528.16L1533.06 15.976H1532.16L1536.98 7.8H1538.69L1538.71 19H1536.74L1536.72 10.888H1537.14L1533.04 17.72H1532.12L1527.96 10.888H1528.44V19H1526.45ZM1544.13 12.456H1549.7V14.168H1544.13V12.456ZM1544.29 17.256H1550.61V19H1542.21V7.8H1550.39V9.544H1544.29V17.256ZM1558.64 19.16C1557.77 19.16 1556.96 19.0213 1556.23 18.744C1555.5 18.456 1554.87 18.056 1554.32 17.544C1553.78 17.0213 1553.36 16.408 1553.06 15.704C1552.76 15 1552.61 14.232 1552.61 13.4C1552.61 12.568 1552.76 11.8 1553.06 11.096C1553.36 10.392 1553.78 9.784 1554.32 9.272C1554.88 8.74933 1555.52 8.34933 1556.26 8.072C1557 7.784 1557.8 7.64 1558.68 7.64C1559.63 7.64 1560.48 7.79467 1561.24 8.104C1562 8.41333 1562.65 8.86667 1563.17 9.464L1561.86 10.744C1561.42 10.3067 1560.95 9.98667 1560.44 9.784C1559.94 9.57067 1559.38 9.464 1558.77 9.464C1558.19 9.464 1557.64 9.56 1557.14 9.752C1556.64 9.944 1556.21 10.216 1555.84 10.568C1555.48 10.92 1555.2 11.336 1555 11.816C1554.8 12.296 1554.71 12.824 1554.71 13.4C1554.71 13.9653 1554.8 14.488 1555 14.968C1555.2 15.448 1555.48 15.8693 1555.84 16.232C1556.21 16.584 1556.63 16.856 1557.12 17.048C1557.62 17.24 1558.16 17.336 1558.76 17.336C1559.31 17.336 1559.84 17.2507 1560.36 17.08C1560.88 16.8987 1561.38 16.6 1561.84 16.184L1563.03 17.736C1562.44 18.2053 1561.76 18.5627 1560.98 18.808C1560.21 19.0427 1559.43 19.16 1558.64 19.16ZM1561.06 17.464V13.272H1563.03V17.736L1561.06 17.464ZM1564.67 19L1569.71 7.8H1571.76L1576.81 19H1574.64L1570.3 8.904H1571.13L1566.81 19H1564.67ZM1566.99 16.408L1567.55 14.776H1573.6L1574.16 16.408H1566.99ZM1583.62 19V7.8H1588.23C1589.22 7.8 1590.07 7.96 1590.77 8.28C1591.49 8.6 1592.03 9.05867 1592.42 9.656C1592.8 10.2533 1592.99 10.9627 1592.99 11.784C1592.99 12.6053 1592.8 13.3147 1592.42 13.912C1592.03 14.5093 1591.49 14.968 1590.77 15.288C1590.07 15.608 1589.22 15.768 1588.23 15.768H1584.77L1585.7 14.792V19H1583.62ZM1585.7 15.016L1584.77 14.008H1588.13C1589.05 14.008 1589.74 13.816 1590.19 13.432C1590.66 13.0373 1590.9 12.488 1590.9 11.784C1590.9 11.0693 1590.66 10.52 1590.19 10.136C1589.74 9.752 1589.05 9.56 1588.13 9.56H1584.77L1585.7 8.536V15.016ZM1595.55 19V7.8H1600.16C1601.15 7.8 1602 7.96 1602.7 8.28C1603.42 8.6 1603.97 9.05867 1604.35 9.656C1604.74 10.2533 1604.93 10.9627 1604.93 11.784C1604.93 12.6053 1604.74 13.3147 1604.35 13.912C1603.97 14.4987 1603.42 14.952 1602.7 15.272C1602 15.5813 1601.15 15.736 1600.16 15.736H1596.7L1597.63 14.792V19H1595.55ZM1602.88 19L1600.05 14.936H1602.27L1605.12 19H1602.88ZM1597.63 15.016L1596.7 14.024H1600.06C1600.98 14.024 1601.67 13.8267 1602.13 13.432C1602.6 13.0373 1602.83 12.488 1602.83 11.784C1602.83 11.0693 1602.6 10.52 1602.13 10.136C1601.67 9.752 1600.98 9.56 1600.06 9.56H1596.7L1597.63 8.536V15.016ZM1612.98 19.16C1612.11 19.16 1611.3 19.016 1610.57 18.728C1609.83 18.44 1609.19 18.04 1608.65 17.528C1608.1 17.0053 1607.68 16.3973 1607.38 15.704C1607.08 15 1606.93 14.232 1606.93 13.4C1606.93 12.568 1607.08 11.8053 1607.38 11.112C1607.68 10.408 1608.1 9.8 1608.65 9.288C1609.19 8.76533 1609.83 8.36 1610.57 8.072C1611.3 7.784 1612.1 7.64 1612.97 7.64C1613.84 7.64 1614.64 7.784 1615.37 8.072C1616.1 8.36 1616.74 8.76533 1617.29 9.288C1617.83 9.8 1618.25 10.408 1618.55 11.112C1618.85 11.8053 1619 12.568 1619 13.4C1619 14.232 1618.85 15 1618.55 15.704C1618.25 16.408 1617.83 17.016 1617.29 17.528C1616.74 18.04 1616.1 18.44 1615.37 18.728C1614.64 19.016 1613.85 19.16 1612.98 19.16ZM1612.97 17.336C1613.53 17.336 1614.05 17.24 1614.53 17.048C1615.01 16.856 1615.43 16.584 1615.78 16.232C1616.13 15.8693 1616.41 15.4533 1616.6 14.984C1616.8 14.504 1616.9 13.976 1616.9 13.4C1616.9 12.824 1616.8 12.3013 1616.6 11.832C1616.41 11.352 1616.13 10.936 1615.78 10.584C1615.43 10.2213 1615.01 9.944 1614.53 9.752C1614.05 9.56 1613.53 9.464 1612.97 9.464C1612.4 9.464 1611.88 9.56 1611.4 9.752C1610.93 9.944 1610.51 10.2213 1610.15 10.584C1609.8 10.936 1609.52 11.352 1609.32 11.832C1609.13 12.3013 1609.03 12.824 1609.03 13.4C1609.03 13.9653 1609.13 14.488 1609.32 14.968C1609.52 15.448 1609.8 15.8693 1610.15 16.232C1610.5 16.584 1610.92 16.856 1611.4 17.048C1611.88 17.24 1612.4 17.336 1612.97 17.336ZM1621.68 19V7.8H1626.58C1627.8 7.8 1628.86 8.03467 1629.78 8.504C1630.7 8.97333 1631.41 9.624 1631.92 10.456C1632.44 11.288 1632.69 12.2693 1632.69 13.4C1632.69 14.52 1632.44 15.5013 1631.92 16.344C1631.41 17.176 1630.7 17.8267 1629.78 18.296C1628.86 18.7653 1627.8 19 1626.58 19H1621.68ZM1623.76 17.24H1626.48C1627.33 17.24 1628.05 17.08 1628.66 16.76C1629.28 16.44 1629.75 15.992 1630.08 15.416C1630.42 14.84 1630.6 14.168 1630.6 13.4C1630.6 12.6213 1630.42 11.9493 1630.08 11.384C1629.75 10.808 1629.28 10.36 1628.66 10.04C1628.05 9.72 1627.33 9.56 1626.48 9.56H1623.76V17.24ZM1640.2 19.16C1638.66 19.16 1637.46 18.728 1636.58 17.864C1635.72 17 1635.29 15.752 1635.29 14.12V7.8H1637.37V14.04C1637.37 15.192 1637.61 16.0293 1638.1 16.552C1638.6 17.0747 1639.31 17.336 1640.21 17.336C1641.12 17.336 1641.82 17.0747 1642.31 16.552C1642.8 16.0293 1643.05 15.192 1643.05 14.04V7.8H1645.09V14.12C1645.09 15.752 1644.66 17 1643.78 17.864C1642.92 18.728 1641.72 19.16 1640.2 19.16ZM1653.67 19.16C1652.82 19.16 1652.02 19.0213 1651.29 18.744C1650.56 18.456 1649.93 18.056 1649.38 17.544C1648.85 17.0213 1648.43 16.408 1648.14 15.704C1647.84 15 1647.69 14.232 1647.69 13.4C1647.69 12.568 1647.84 11.8 1648.14 11.096C1648.43 10.392 1648.86 9.784 1649.4 9.272C1649.94 8.74933 1650.58 8.34933 1651.3 8.072C1652.03 7.784 1652.82 7.64 1653.69 7.64C1654.6 7.64 1655.44 7.8 1656.2 8.12C1656.96 8.42933 1657.6 8.89333 1658.12 9.512L1656.78 10.776C1656.37 10.3387 1655.92 10.0133 1655.42 9.8C1654.91 9.576 1654.37 9.464 1653.78 9.464C1653.2 9.464 1652.66 9.56 1652.17 9.752C1651.69 9.944 1651.27 10.216 1650.9 10.568C1650.55 10.92 1650.27 11.336 1650.07 11.816C1649.88 12.296 1649.78 12.824 1649.78 13.4C1649.78 13.976 1649.88 14.504 1650.07 14.984C1650.27 15.464 1650.55 15.88 1650.9 16.232C1651.27 16.584 1651.69 16.856 1652.17 17.048C1652.66 17.24 1653.2 17.336 1653.78 17.336C1654.37 17.336 1654.91 17.2293 1655.42 17.016C1655.92 16.792 1656.37 16.456 1656.78 16.008L1658.12 17.288C1657.6 17.896 1656.96 18.36 1656.2 18.68C1655.44 19 1654.6 19.16 1653.67 19.16ZM1662.74 19V9.56H1659.03V7.8H1668.53V9.56H1664.82V19H1662.74ZM1670.57 19V7.8H1672.65V19H1670.57ZM1681.41 19.16C1680.53 19.16 1679.73 19.016 1678.99 18.728C1678.26 18.44 1677.62 18.04 1677.07 17.528C1676.53 17.0053 1676.11 16.3973 1675.81 15.704C1675.51 15 1675.36 14.232 1675.36 13.4C1675.36 12.568 1675.51 11.8053 1675.81 11.112C1676.11 10.408 1676.53 9.8 1677.07 9.288C1677.62 8.76533 1678.26 8.36 1678.99 8.072C1679.73 7.784 1680.53 7.64 1681.39 7.64C1682.27 7.64 1683.07 7.784 1683.79 8.072C1684.53 8.36 1685.17 8.76533 1685.71 9.288C1686.26 9.8 1686.68 10.408 1686.98 11.112C1687.28 11.8053 1687.43 12.568 1687.43 13.4C1687.43 14.232 1687.28 15 1686.98 15.704C1686.68 16.408 1686.26 17.016 1685.71 17.528C1685.17 18.04 1684.53 18.44 1683.79 18.728C1683.07 19.016 1682.27 19.16 1681.41 19.16ZM1681.39 17.336C1681.96 17.336 1682.48 17.24 1682.96 17.048C1683.44 16.856 1683.86 16.584 1684.21 16.232C1684.56 15.8693 1684.83 15.4533 1685.03 14.984C1685.23 14.504 1685.33 13.976 1685.33 13.4C1685.33 12.824 1685.23 12.3013 1685.03 11.832C1684.83 11.352 1684.56 10.936 1684.21 10.584C1683.86 10.2213 1683.44 9.944 1682.96 9.752C1682.48 9.56 1681.96 9.464 1681.39 9.464C1680.83 9.464 1680.31 9.56 1679.83 9.752C1679.36 9.944 1678.94 10.2213 1678.58 10.584C1678.23 10.936 1677.95 11.352 1677.75 11.832C1677.55 12.3013 1677.46 12.824 1677.46 13.4C1677.46 13.9653 1677.55 14.488 1677.75 14.968C1677.95 15.448 1678.23 15.8693 1678.58 16.232C1678.93 16.584 1679.35 16.856 1679.83 17.048C1680.31 17.24 1680.83 17.336 1681.39 17.336ZM1690.11 19V7.8H1691.82L1698.85 16.424H1698V7.8H1700.06V19H1698.35L1691.33 10.376H1692.17V19H1690.11Z" fill="white"/>
<path d="M1744.75 19.16C1743.88 19.16 1743.07 19.016 1742.34 18.728C1741.6 18.44 1740.96 18.04 1740.42 17.528C1739.87 17.0053 1739.45 16.3973 1739.15 15.704C1738.85 15 1738.7 14.232 1738.7 13.4C1738.7 12.568 1738.85 11.8053 1739.15 11.112C1739.45 10.408 1739.87 9.8 1740.42 9.288C1740.96 8.76533 1741.6 8.36 1742.34 8.072C1743.07 7.784 1743.87 7.64 1744.74 7.64C1745.61 7.64 1746.41 7.784 1747.14 8.072C1747.87 8.36 1748.51 8.76533 1749.06 9.288C1749.6 9.8 1750.02 10.408 1750.32 11.112C1750.62 11.8053 1750.77 12.568 1750.77 13.4C1750.77 14.232 1750.62 15 1750.32 15.704C1750.02 16.408 1749.6 17.016 1749.06 17.528C1748.51 18.04 1747.87 18.44 1747.14 18.728C1746.41 19.016 1745.62 19.16 1744.75 19.16ZM1744.74 17.336C1745.3 17.336 1745.82 17.24 1746.3 17.048C1746.78 16.856 1747.2 16.584 1747.55 16.232C1747.9 15.8693 1748.18 15.4533 1748.37 14.984C1748.57 14.504 1748.67 13.976 1748.67 13.4C1748.67 12.824 1748.57 12.3013 1748.37 11.832C1748.18 11.352 1747.9 10.936 1747.55 10.584C1747.2 10.2213 1746.78 9.944 1746.3 9.752C1745.82 9.56 1745.3 9.464 1744.74 9.464C1744.17 9.464 1743.65 9.56 1743.17 9.752C1742.7 9.944 1742.28 10.2213 1741.92 10.584C1741.57 10.936 1741.29 11.352 1741.09 11.832C1740.9 12.3013 1740.8 12.824 1740.8 13.4C1740.8 13.9653 1740.9 14.488 1741.09 14.968C1741.29 15.448 1741.57 15.8693 1741.92 16.232C1742.27 16.584 1742.69 16.856 1743.17 17.048C1743.65 17.24 1744.17 17.336 1744.74 17.336ZM1753.45 19V7.8H1755.16L1760.06 15.976H1759.16L1763.98 7.8H1765.69L1765.71 19H1763.74L1763.72 10.888H1764.14L1760.04 17.72H1759.12L1754.96 10.888H1755.44V19H1753.45ZM1771.13 12.456H1776.7V14.168H1771.13V12.456ZM1771.29 17.256H1777.61V19H1769.21V7.8H1777.39V9.544H1771.29V17.256ZM1785.64 19.16C1784.77 19.16 1783.96 19.0213 1783.23 18.744C1782.5 18.456 1781.87 18.056 1781.32 17.544C1780.78 17.0213 1780.36 16.408 1780.06 15.704C1779.76 15 1779.61 14.232 1779.61 13.4C1779.61 12.568 1779.76 11.8 1780.06 11.096C1780.36 10.392 1780.78 9.784 1781.32 9.272C1781.88 8.74933 1782.52 8.34933 1783.26 8.072C1784 7.784 1784.8 7.64 1785.68 7.64C1786.63 7.64 1787.48 7.79467 1788.24 8.104C1789 8.41333 1789.65 8.86667 1790.17 9.464L1788.86 10.744C1788.42 10.3067 1787.95 9.98667 1787.44 9.784C1786.94 9.57067 1786.38 9.464 1785.77 9.464C1785.19 9.464 1784.64 9.56 1784.14 9.752C1783.64 9.944 1783.21 10.216 1782.84 10.568C1782.48 10.92 1782.2 11.336 1782 11.816C1781.8 12.296 1781.71 12.824 1781.71 13.4C1781.71 13.9653 1781.8 14.488 1782 14.968C1782.2 15.448 1782.48 15.8693 1782.84 16.232C1783.21 16.584 1783.63 16.856 1784.12 17.048C1784.62 17.24 1785.16 17.336 1785.76 17.336C1786.31 17.336 1786.84 17.2507 1787.36 17.08C1787.88 16.8987 1788.38 16.6 1788.84 16.184L1790.03 17.736C1789.44 18.2053 1788.76 18.5627 1787.98 18.808C1787.21 19.0427 1786.43 19.16 1785.64 19.16ZM1788.06 17.464V13.272H1790.03V17.736L1788.06 17.464ZM1791.67 19L1796.71 7.8H1798.76L1803.81 19H1801.64L1797.3 8.904H1798.13L1793.81 19H1791.67ZM1793.99 16.408L1794.55 14.776H1800.6L1801.16 16.408H1793.99ZM1810.62 19V7.8H1815.23C1816.22 7.8 1817.07 7.96 1817.77 8.28C1818.49 8.6 1819.03 9.05867 1819.42 9.656C1819.8 10.2533 1819.99 10.9627 1819.99 11.784C1819.99 12.6053 1819.8 13.3147 1819.42 13.912C1819.03 14.5093 1818.49 14.968 1817.77 15.288C1817.07 15.608 1816.22 15.768 1815.23 15.768H1811.77L1812.7 14.792V19H1810.62ZM1812.7 15.016L1811.77 14.008H1815.13C1816.05 14.008 1816.74 13.816 1817.19 13.432C1817.66 13.0373 1817.9 12.488 1817.9 11.784C1817.9 11.0693 1817.66 10.52 1817.19 10.136C1816.74 9.752 1816.05 9.56 1815.13 9.56H1811.77L1812.7 8.536V15.016ZM1822.55 19V7.8H1827.16C1828.15 7.8 1829 7.96 1829.7 8.28C1830.42 8.6 1830.97 9.05867 1831.35 9.656C1831.74 10.2533 1831.93 10.9627 1831.93 11.784C1831.93 12.6053 1831.74 13.3147 1831.35 13.912C1830.97 14.4987 1830.42 14.952 1829.7 15.272C1829 15.5813 1828.15 15.736 1827.16 15.736H1823.7L1824.63 14.792V19H1822.55ZM1829.88 19L1827.05 14.936H1829.27L1832.12 19H1829.88ZM1824.63 15.016L1823.7 14.024H1827.06C1827.98 14.024 1828.67 13.8267 1829.13 13.432C1829.6 13.0373 1829.83 12.488 1829.83 11.784C1829.83 11.0693 1829.6 10.52 1829.13 10.136C1828.67 9.752 1827.98 9.56 1827.06 9.56H1823.7L1824.63 8.536V15.016ZM1839.98 19.16C1839.11 19.16 1838.3 19.016 1837.57 18.728C1836.83 18.44 1836.19 18.04 1835.65 17.528C1835.1 17.0053 1834.68 16.3973 1834.38 15.704C1834.08 15 1833.93 14.232 1833.93 13.4C1833.93 12.568 1834.08 11.8053 1834.38 11.112C1834.68 10.408 1835.1 9.8 1835.65 9.288C1836.19 8.76533 1836.83 8.36 1837.57 8.072C1838.3 7.784 1839.1 7.64 1839.97 7.64C1840.84 7.64 1841.64 7.784 1842.37 8.072C1843.1 8.36 1843.74 8.76533 1844.29 9.288C1844.83 9.8 1845.25 10.408 1845.55 11.112C1845.85 11.8053 1846 12.568 1846 13.4C1846 14.232 1845.85 15 1845.55 15.704C1845.25 16.408 1844.83 17.016 1844.29 17.528C1843.74 18.04 1843.1 18.44 1842.37 18.728C1841.64 19.016 1840.85 19.16 1839.98 19.16ZM1839.97 17.336C1840.53 17.336 1841.05 17.24 1841.53 17.048C1842.01 16.856 1842.43 16.584 1842.78 16.232C1843.13 15.8693 1843.41 15.4533 1843.6 14.984C1843.8 14.504 1843.9 13.976 1843.9 13.4C1843.9 12.824 1843.8 12.3013 1843.6 11.832C1843.41 11.352 1843.13 10.936 1842.78 10.584C1842.43 10.2213 1842.01 9.944 1841.53 9.752C1841.05 9.56 1840.53 9.464 1839.97 9.464C1839.4 9.464 1838.88 9.56 1838.4 9.752C1837.93 9.944 1837.51 10.2213 1837.15 10.584C1836.8 10.936 1836.52 11.352 1836.32 11.832C1836.13 12.3013 1836.03 12.824 1836.03 13.4C1836.03 13.9653 1836.13 14.488 1836.32 14.968C1836.52 15.448 1836.8 15.8693 1837.15 16.232C1837.5 16.584 1837.92 16.856 1838.4 17.048C1838.88 17.24 1839.4 17.336 1839.97 17.336ZM1848.68 19V7.8H1853.58C1854.8 7.8 1855.86 8.03467 1856.78 8.504C1857.7 8.97333 1858.41 9.624 1858.92 10.456C1859.44 11.288 1859.69 12.2693 1859.69 13.4C1859.69 14.52 1859.44 15.5013 1858.92 16.344C1858.41 17.176 1857.7 17.8267 1856.78 18.296C1855.86 18.7653 1854.8 19 1853.58 19H1848.68ZM1850.76 17.24H1853.48C1854.33 17.24 1855.05 17.08 1855.66 16.76C1856.28 16.44 1856.75 15.992 1857.08 15.416C1857.42 14.84 1857.6 14.168 1857.6 13.4C1857.6 12.6213 1857.42 11.9493 1857.08 11.384C1856.75 10.808 1856.28 10.36 1855.66 10.04C1855.05 9.72 1854.33 9.56 1853.48 9.56H1850.76V17.24ZM1867.2 19.16C1865.66 19.16 1864.46 18.728 1863.58 17.864C1862.72 17 1862.29 15.752 1862.29 14.12V7.8H1864.37V14.04C1864.37 15.192 1864.61 16.0293 1865.1 16.552C1865.6 17.0747 1866.31 17.336 1867.21 17.336C1868.12 17.336 1868.82 17.0747 1869.31 16.552C1869.8 16.0293 1870.05 15.192 1870.05 14.04V7.8H1872.09V14.12C1872.09 15.752 1871.66 17 1870.78 17.864C1869.92 18.728 1868.72 19.16 1867.2 19.16ZM1880.67 19.16C1879.82 19.16 1879.02 19.0213 1878.29 18.744C1877.56 18.456 1876.93 18.056 1876.38 17.544C1875.85 17.0213 1875.43 16.408 1875.14 15.704C1874.84 15 1874.69 14.232 1874.69 13.4C1874.69 12.568 1874.84 11.8 1875.14 11.096C1875.43 10.392 1875.86 9.784 1876.4 9.272C1876.94 8.74933 1877.58 8.34933 1878.3 8.072C1879.03 7.784 1879.82 7.64 1880.69 7.64C1881.6 7.64 1882.44 7.8 1883.2 8.12C1883.96 8.42933 1884.6 8.89333 1885.12 9.512L1883.78 10.776C1883.37 10.3387 1882.92 10.0133 1882.42 9.8C1881.91 9.576 1881.37 9.464 1880.78 9.464C1880.2 9.464 1879.66 9.56 1879.17 9.752C1878.69 9.944 1878.27 10.216 1877.9 10.568C1877.55 10.92 1877.27 11.336 1877.07 11.816C1876.88 12.296 1876.78 12.824 1876.78 13.4C1876.78 13.976 1876.88 14.504 1877.07 14.984C1877.27 15.464 1877.55 15.88 1877.9 16.232C1878.27 16.584 1878.69 16.856 1879.17 17.048C1879.66 17.24 1880.2 17.336 1880.78 17.336C1881.37 17.336 1881.91 17.2293 1882.42 17.016C1882.92 16.792 1883.37 16.456 1883.78 16.008L1885.12 17.288C1884.6 17.896 1883.96 18.36 1883.2 18.68C1882.44 19 1881.6 19.16 1880.67 19.16ZM1889.74 19V9.56H1886.03V7.8H1895.53V9.56H1891.82V19H1889.74ZM1897.57 19V7.8H1899.65V19H1897.57ZM1908.41 19.16C1907.53 19.16 1906.73 19.016 1905.99 18.728C1905.26 18.44 1904.62 18.04 1904.07 17.528C1903.53 17.0053 1903.11 16.3973 1902.81 15.704C1902.51 15 1902.36 14.232 1902.36 13.4C1902.36 12.568 1902.51 11.8053 1902.81 11.112C1903.11 10.408 1903.53 9.8 1904.07 9.288C1904.62 8.76533 1905.26 8.36 1905.99 8.072C1906.73 7.784 1907.53 7.64 1908.39 7.64C1909.27 7.64 1910.07 7.784 1910.79 8.072C1911.53 8.36 1912.17 8.76533 1912.71 9.288C1913.26 9.8 1913.68 10.408 1913.98 11.112C1914.28 11.8053 1914.43 12.568 1914.43 13.4C1914.43 14.232 1914.28 15 1913.98 15.704C1913.68 16.408 1913.26 17.016 1912.71 17.528C1912.17 18.04 1911.53 18.44 1910.79 18.728C1910.07 19.016 1909.27 19.16 1908.41 19.16ZM1908.39 17.336C1908.96 17.336 1909.48 17.24 1909.96 17.048C1910.44 16.856 1910.86 16.584 1911.21 16.232C1911.56 15.8693 1911.83 15.4533 1912.03 14.984C1912.23 14.504 1912.33 13.976 1912.33 13.4C1912.33 12.824 1912.23 12.3013 1912.03 11.832C1911.83 11.352 1911.56 10.936 1911.21 10.584C1910.86 10.2213 1910.44 9.944 1909.96 9.752C1909.48 9.56 1908.96 9.464 1908.39 9.464C1907.83 9.464 1907.31 9.56 1906.83 9.752C1906.36 9.944 1905.94 10.2213 1905.58 10.584C1905.23 10.936 1904.95 11.352 1904.75 11.832C1904.55 12.3013 1904.46 12.824 1904.46 13.4C1904.46 13.9653 1904.55 14.488 1904.75 14.968C1904.95 15.448 1905.23 15.8693 1905.58 16.232C1905.93 16.584 1906.35 16.856 1906.83 17.048C1907.31 17.24 1907.83 17.336 1908.39 17.336ZM1917.11 19V7.8H1918.82L1925.85 16.424H1925V7.8H1927.06V19H1925.35L1918.33 10.376H1919.17V19H1917.11Z" fill="white"/>
<path d="M1971.75 19.16C1970.88 19.16 1970.07 19.016 1969.34 18.728C1968.6 18.44 1967.96 18.04 1967.42 17.528C1966.87 17.0053 1966.45 16.3973 1966.15 15.704C1965.85 15 1965.7 14.232 1965.7 13.4C1965.7 12.568 1965.85 11.8053 1966.15 11.112C1966.45 10.408 1966.87 9.8 1967.42 9.288C1967.96 8.76533 1968.6 8.36 1969.34 8.072C1970.07 7.784 1970.87 7.64 1971.74 7.64C1972.61 7.64 1973.41 7.784 1974.14 8.072C1974.87 8.36 1975.51 8.76533 1976.06 9.288C1976.6 9.8 1977.02 10.408 1977.32 11.112C1977.62 11.8053 1977.77 12.568 1977.77 13.4C1977.77 14.232 1977.62 15 1977.32 15.704C1977.02 16.408 1976.6 17.016 1976.06 17.528C1975.51 18.04 1974.87 18.44 1974.14 18.728C1973.41 19.016 1972.62 19.16 1971.75 19.16ZM1971.74 17.336C1972.3 17.336 1972.82 17.24 1973.3 17.048C1973.78 16.856 1974.2 16.584 1974.55 16.232C1974.9 15.8693 1975.18 15.4533 1975.37 14.984C1975.57 14.504 1975.67 13.976 1975.67 13.4C1975.67 12.824 1975.57 12.3013 1975.37 11.832C1975.18 11.352 1974.9 10.936 1974.55 10.584C1974.2 10.2213 1973.78 9.944 1973.3 9.752C1972.82 9.56 1972.3 9.464 1971.74 9.464C1971.17 9.464 1970.65 9.56 1970.17 9.752C1969.7 9.944 1969.28 10.2213 1968.92 10.584C1968.57 10.936 1968.29 11.352 1968.09 11.832C1967.9 12.3013 1967.8 12.824 1967.8 13.4C1967.8 13.9653 1967.9 14.488 1968.09 14.968C1968.29 15.448 1968.57 15.8693 1968.92 16.232C1969.27 16.584 1969.69 16.856 1970.17 17.048C1970.65 17.24 1971.17 17.336 1971.74 17.336ZM1980.45 19V7.8H1982.16L1987.06 15.976H1986.16L1990.98 7.8H1992.69L1992.71 19H1990.74L1990.72 10.888H1991.14L1987.04 17.72H1986.12L1981.96 10.888H1982.44V19H1980.45ZM1998.13 12.456H2003.7V14.168H1998.13V12.456ZM1998.29 17.256H2004.61V19H1996.21V7.8H2004.39V9.544H1998.29V17.256ZM2012.64 19.16C2011.77 19.16 2010.96 19.0213 2010.23 18.744C2009.5 18.456 2008.87 18.056 2008.32 17.544C2007.78 17.0213 2007.36 16.408 2007.06 15.704C2006.76 15 2006.61 14.232 2006.61 13.4C2006.61 12.568 2006.76 11.8 2007.06 11.096C2007.36 10.392 2007.78 9.784 2008.32 9.272C2008.88 8.74933 2009.52 8.34933 2010.26 8.072C2011 7.784 2011.8 7.64 2012.68 7.64C2013.63 7.64 2014.48 7.79467 2015.24 8.104C2016 8.41333 2016.65 8.86667 2017.17 9.464L2015.86 10.744C2015.42 10.3067 2014.95 9.98667 2014.44 9.784C2013.94 9.57067 2013.38 9.464 2012.77 9.464C2012.19 9.464 2011.64 9.56 2011.14 9.752C2010.64 9.944 2010.21 10.216 2009.84 10.568C2009.48 10.92 2009.2 11.336 2009 11.816C2008.8 12.296 2008.71 12.824 2008.71 13.4C2008.71 13.9653 2008.8 14.488 2009 14.968C2009.2 15.448 2009.48 15.8693 2009.84 16.232C2010.21 16.584 2010.63 16.856 2011.12 17.048C2011.62 17.24 2012.16 17.336 2012.76 17.336C2013.31 17.336 2013.84 17.2507 2014.36 17.08C2014.88 16.8987 2015.38 16.6 2015.84 16.184L2017.03 17.736C2016.44 18.2053 2015.76 18.5627 2014.98 18.808C2014.21 19.0427 2013.43 19.16 2012.64 19.16ZM2015.06 17.464V13.272H2017.03V17.736L2015.06 17.464ZM2018.67 19L2023.71 7.8H2025.76L2030.81 19H2028.64L2024.3 8.904H2025.13L2020.81 19H2018.67ZM2020.99 16.408L2021.55 14.776H2027.6L2028.16 16.408H2020.99ZM2037.62 19V7.8H2042.23C2043.22 7.8 2044.07 7.96 2044.77 8.28C2045.49 8.6 2046.03 9.05867 2046.42 9.656C2046.8 10.2533 2046.99 10.9627 2046.99 11.784C2046.99 12.6053 2046.8 13.3147 2046.42 13.912C2046.03 14.5093 2045.49 14.968 2044.77 15.288C2044.07 15.608 2043.22 15.768 2042.23 15.768H2038.77L2039.7 14.792V19H2037.62ZM2039.7 15.016L2038.77 14.008H2042.13C2043.05 14.008 2043.74 13.816 2044.19 13.432C2044.66 13.0373 2044.9 12.488 2044.9 11.784C2044.9 11.0693 2044.66 10.52 2044.19 10.136C2043.74 9.752 2043.05 9.56 2042.13 9.56H2038.77L2039.7 8.536V15.016ZM2049.55 19V7.8H2054.16C2055.15 7.8 2056 7.96 2056.7 8.28C2057.42 8.6 2057.97 9.05867 2058.35 9.656C2058.74 10.2533 2058.93 10.9627 2058.93 11.784C2058.93 12.6053 2058.74 13.3147 2058.35 13.912C2057.97 14.4987 2057.42 14.952 2056.7 15.272C2056 15.5813 2055.15 15.736 2054.16 15.736H2050.7L2051.63 14.792V19H2049.55ZM2056.88 19L2054.05 14.936H2056.27L2059.12 19H2056.88ZM2051.63 15.016L2050.7 14.024H2054.06C2054.98 14.024 2055.67 13.8267 2056.13 13.432C2056.6 13.0373 2056.83 12.488 2056.83 11.784C2056.83 11.0693 2056.6 10.52 2056.13 10.136C2055.67 9.752 2054.98 9.56 2054.06 9.56H2050.7L2051.63 8.536V15.016ZM2066.98 19.16C2066.11 19.16 2065.3 19.016 2064.57 18.728C2063.83 18.44 2063.19 18.04 2062.65 17.528C2062.1 17.0053 2061.68 16.3973 2061.38 15.704C2061.08 15 2060.93 14.232 2060.93 13.4C2060.93 12.568 2061.08 11.8053 2061.38 11.112C2061.68 10.408 2062.1 9.8 2062.65 9.288C2063.19 8.76533 2063.83 8.36 2064.57 8.072C2065.3 7.784 2066.1 7.64 2066.97 7.64C2067.84 7.64 2068.64 7.784 2069.37 8.072C2070.1 8.36 2070.74 8.76533 2071.29 9.288C2071.83 9.8 2072.25 10.408 2072.55 11.112C2072.85 11.8053 2073 12.568 2073 13.4C2073 14.232 2072.85 15 2072.55 15.704C2072.25 16.408 2071.83 17.016 2071.29 17.528C2070.74 18.04 2070.1 18.44 2069.37 18.728C2068.64 19.016 2067.85 19.16 2066.98 19.16ZM2066.97 17.336C2067.53 17.336 2068.05 17.24 2068.53 17.048C2069.01 16.856 2069.43 16.584 2069.78 16.232C2070.13 15.8693 2070.41 15.4533 2070.6 14.984C2070.8 14.504 2070.9 13.976 2070.9 13.4C2070.9 12.824 2070.8 12.3013 2070.6 11.832C2070.41 11.352 2070.13 10.936 2069.78 10.584C2069.43 10.2213 2069.01 9.944 2068.53 9.752C2068.05 9.56 2067.53 9.464 2066.97 9.464C2066.4 9.464 2065.88 9.56 2065.4 9.752C2064.93 9.944 2064.51 10.2213 2064.15 10.584C2063.8 10.936 2063.52 11.352 2063.32 11.832C2063.13 12.3013 2063.03 12.824 2063.03 13.4C2063.03 13.9653 2063.13 14.488 2063.32 14.968C2063.52 15.448 2063.8 15.8693 2064.15 16.232C2064.5 16.584 2064.92 16.856 2065.4 17.048C2065.88 17.24 2066.4 17.336 2066.97 17.336ZM2075.68 19V7.8H2080.58C2081.8 7.8 2082.86 8.03467 2083.78 8.504C2084.7 8.97333 2085.41 9.624 2085.92 10.456C2086.44 11.288 2086.69 12.2693 2086.69 13.4C2086.69 14.52 2086.44 15.5013 2085.92 16.344C2085.41 17.176 2084.7 17.8267 2083.78 18.296C2082.86 18.7653 2081.8 19 2080.58 19H2075.68ZM2077.76 17.24H2080.48C2081.33 17.24 2082.05 17.08 2082.66 16.76C2083.28 16.44 2083.75 15.992 2084.08 15.416C2084.42 14.84 2084.6 14.168 2084.6 13.4C2084.6 12.6213 2084.42 11.9493 2084.08 11.384C2083.75 10.808 2083.28 10.36 2082.66 10.04C2082.05 9.72 2081.33 9.56 2080.48 9.56H2077.76V17.24ZM2094.2 19.16C2092.66 19.16 2091.46 18.728 2090.58 17.864C2089.72 17 2089.29 15.752 2089.29 14.12V7.8H2091.37V14.04C2091.37 15.192 2091.61 16.0293 2092.1 16.552C2092.6 17.0747 2093.31 17.336 2094.21 17.336C2095.12 17.336 2095.82 17.0747 2096.31 16.552C2096.8 16.0293 2097.05 15.192 2097.05 14.04V7.8H2099.09V14.12C2099.09 15.752 2098.66 17 2097.78 17.864C2096.92 18.728 2095.72 19.16 2094.2 19.16ZM2107.67 19.16C2106.82 19.16 2106.02 19.0213 2105.29 18.744C2104.56 18.456 2103.93 18.056 2103.38 17.544C2102.85 17.0213 2102.43 16.408 2102.14 15.704C2101.84 15 2101.69 14.232 2101.69 13.4C2101.69 12.568 2101.84 11.8 2102.14 11.096C2102.43 10.392 2102.86 9.784 2103.4 9.272C2103.94 8.74933 2104.58 8.34933 2105.3 8.072C2106.03 7.784 2106.82 7.64 2107.69 7.64C2108.6 7.64 2109.44 7.8 2110.2 8.12C2110.96 8.42933 2111.6 8.89333 2112.12 9.512L2110.78 10.776C2110.37 10.3387 2109.92 10.0133 2109.42 9.8C2108.91 9.576 2108.37 9.464 2107.78 9.464C2107.2 9.464 2106.66 9.56 2106.17 9.752C2105.69 9.944 2105.27 10.216 2104.9 10.568C2104.55 10.92 2104.27 11.336 2104.07 11.816C2103.88 12.296 2103.78 12.824 2103.78 13.4C2103.78 13.976 2103.88 14.504 2104.07 14.984C2104.27 15.464 2104.55 15.88 2104.9 16.232C2105.27 16.584 2105.69 16.856 2106.17 17.048C2106.66 17.24 2107.2 17.336 2107.78 17.336C2108.37 17.336 2108.91 17.2293 2109.42 17.016C2109.92 16.792 2110.37 16.456 2110.78 16.008L2112.12 17.288C2111.6 17.896 2110.96 18.36 2110.2 18.68C2109.44 19 2108.6 19.16 2107.67 19.16ZM2116.74 19V9.56H2113.03V7.8H2122.53V9.56H2118.82V19H2116.74ZM2124.57 19V7.8H2126.65V19H2124.57ZM2135.41 19.16C2134.53 19.16 2133.73 19.016 2132.99 18.728C2132.26 18.44 2131.62 18.04 2131.07 17.528C2130.53 17.0053 2130.11 16.3973 2129.81 15.704C2129.51 15 2129.36 14.232 2129.36 13.4C2129.36 12.568 2129.51 11.8053 2129.81 11.112C2130.11 10.408 2130.53 9.8 2131.07 9.288C2131.62 8.76533 2132.26 8.36 2132.99 8.072C2133.73 7.784 2134.53 7.64 2135.39 7.64C2136.27 7.64 2137.07 7.784 2137.79 8.072C2138.53 8.36 2139.17 8.76533 2139.71 9.288C2140.26 9.8 2140.68 10.408 2140.98 11.112C2141.28 11.8053 2141.43 12.568 2141.43 13.4C2141.43 14.232 2141.28 15 2140.98 15.704C2140.68 16.408 2140.26 17.016 2139.71 17.528C2139.17 18.04 2138.53 18.44 2137.79 18.728C2137.07 19.016 2136.27 19.16 2135.41 19.16ZM2135.39 17.336C2135.96 17.336 2136.48 17.24 2136.96 17.048C2137.44 16.856 2137.86 16.584 2138.21 16.232C2138.56 15.8693 2138.83 15.4533 2139.03 14.984C2139.23 14.504 2139.33 13.976 2139.33 13.4C2139.33 12.824 2139.23 12.3013 2139.03 11.832C2138.83 11.352 2138.56 10.936 2138.21 10.584C2137.86 10.2213 2137.44 9.944 2136.96 9.752C2136.48 9.56 2135.96 9.464 2135.39 9.464C2134.83 9.464 2134.31 9.56 2133.83 9.752C2133.36 9.944 2132.94 10.2213 2132.58 10.584C2132.23 10.936 2131.95 11.352 2131.75 11.832C2131.55 12.3013 2131.46 12.824 2131.46 13.4C2131.46 13.9653 2131.55 14.488 2131.75 14.968C2131.95 15.448 2132.23 15.8693 2132.58 16.232C2132.93 16.584 2133.35 16.856 2133.83 17.048C2134.31 17.24 2134.83 17.336 2135.39 17.336ZM2144.11 19V7.8H2145.82L2152.85 16.424H2152V7.8H2154.06V19H2152.35L2145.33 10.376H2146.17V19H2144.11Z" fill="white"/>
</svg>
