<svg width="75" height="61" viewBox="0 0 75 61" fill="none" xmlns="http://www.w3.org/2000/svg">
<path d="M34.3506 0.397461L33.9844 0.749023V9.40625V18.0635L34.3506 18.415L34.7021 18.7812H43.4619H52.207L55.1514 21.7109C57.7734 24.3184 58.1543 24.6406 58.5791 24.6406C58.8867 24.6406 59.165 24.5088 59.3994 24.2744L59.7656 23.9229V12.3359V0.749023L59.3994 0.397461L59.0479 0.03125H46.875H34.7021L34.3506 0.397461ZM57.4219 11.4863V20.5977L55.3271 18.5176L53.2178 16.4375H44.7803H36.3281V9.40625V2.375H46.875H57.4219V11.4863Z" fill="#2B6CFE"/>
<path d="M19.1162 3.91309L18.75 4.26465V15.8516V27.4385L19.1162 27.79C19.3506 28.0244 19.6289 28.1562 19.9365 28.1562C20.3613 28.1562 20.7422 27.834 23.3643 25.2266L26.3086 22.2969H35.0537H43.8135L44.165 21.9307C44.6484 21.4619 44.6484 20.7881 44.165 20.3193L43.8135 19.9531H34.5557H25.2979L23.1885 22.0332L21.0938 24.1133V15.002V5.89062H26.001H30.9229L31.2744 5.52441C31.5088 5.30469 31.6406 4.99707 31.6406 4.71875C31.6406 4.44043 31.5088 4.13281 31.2744 3.91309L30.9229 3.54688H25.1953H19.4678L19.1162 3.91309Z" fill="#2B6CFE"/>
<path d="M12.0406 28.376C9.38927 28.9619 6.88439 30.9102 5.72716 33.3125C4.36486 36.1397 4.35021 38.9082 5.69786 41.6914C6.3424 43.0098 7.52892 44.4307 8.58361 45.1338L9.25743 45.5732L8.70079 45.8076C7.7047 46.2178 5.77111 47.6094 4.68712 48.6934C2.28478 51.0957 0.746692 54.0693 0.219348 57.3652C-0.117566 59.3867 -0.0736206 60.1777 0.365833 60.6025L0.717395 60.9688H37.4996H74.2819L74.6334 60.6025C75.0875 60.1631 75.1168 59.3428 74.7653 57.292C73.9303 52.4873 71.1617 48.5469 66.8844 46.1152C65.9322 45.5732 65.8004 45.4561 66.0641 45.3682C66.5475 45.2217 68.4225 43.2588 68.9645 42.3359C71.1764 38.5859 70.5904 34.001 67.5143 30.9248C63.8668 27.2481 58.0221 27.2481 54.3307 30.9248C52.0602 33.21 51.1227 36.3594 51.7818 39.4941C52.236 41.6182 53.8033 44.0352 55.4293 45.1045L56.0885 45.5439L55.4293 45.8516C53.4518 46.8184 51.0641 48.8838 49.8483 50.6855L49.2477 51.5938L48.5885 50.6855C47.2701 48.8398 45.5563 47.3164 43.4469 46.1152C42.4947 45.5732 42.3629 45.4561 42.6266 45.3682C43.11 45.2217 44.985 43.2588 45.527 42.3359C47.7389 38.5859 47.1529 34.001 44.0768 30.9248C40.4293 27.2481 34.5846 27.2481 30.8932 30.9248C28.0074 33.8105 27.3336 37.9707 29.1354 41.6914C29.7799 43.0098 30.9664 44.4307 32.0211 45.1338L32.6949 45.5732L32.1383 45.8076C30.4391 46.5107 27.7438 48.8105 26.4108 50.6709L25.7516 51.5938L25.151 50.7148C23.9498 48.9277 21.9723 47.1553 19.9361 46.0566C19.0133 45.5586 18.9108 45.4561 19.1744 45.3682C19.6725 45.2217 21.5475 43.2588 22.0895 42.3359C24.3014 38.5859 23.7154 34.001 20.6393 30.9248C18.3981 28.6543 15.1608 27.7022 12.0406 28.376ZM15.7467 30.7197C18.5299 31.4522 20.5807 33.752 20.9908 36.5938C21.5035 40.0801 19.2184 43.4346 15.7467 44.3428C12.0699 45.2949 8.23204 42.9658 7.2506 39.2158C5.94689 34.1914 10.7223 29.416 15.7467 30.7197ZM39.1842 30.7197C41.9674 31.4522 44.0182 33.752 44.4283 36.5938C44.941 40.0801 42.6559 43.4346 39.1842 44.3428C35.5074 45.2949 31.6695 42.9658 30.6881 39.2158C29.3844 34.1914 34.1598 29.416 39.1842 30.7197ZM62.6217 30.7197C65.4049 31.4522 67.4557 33.752 67.8658 36.5938C68.3785 40.0801 66.0934 43.4346 62.6217 44.3428C58.9449 45.2949 55.107 42.9658 54.1256 39.2158C52.8219 34.1914 57.5973 29.416 62.6217 30.7197ZM17.0651 47.4043C19.9068 48.3564 22.2213 50.3047 23.9498 53.1758L24.5065 54.1133L24.1256 55.373C23.9059 56.0762 23.7008 56.9697 23.6569 57.3799C23.5983 57.7754 23.525 58.2295 23.4811 58.3613C23.4225 58.6104 22.7926 58.625 12.9049 58.625H2.38732L2.5045 57.8779C3.22228 53.3369 6.44493 49.2061 10.5465 47.5801C12.524 46.7891 15.0289 46.7305 17.0651 47.4043ZM39.4039 47.1113C44.15 48.1221 48.2369 52.6631 49.0572 57.8486L49.1744 58.625H37.4996H25.8248L25.942 57.8779C26.6598 53.3369 29.8824 49.2061 33.984 47.5801C35.6246 46.9209 37.6901 46.7451 39.4039 47.1113ZM62.8414 47.1113C67.6022 48.1221 71.6744 52.6631 72.4947 57.8779L72.6119 58.625H62.0944H51.5621L51.5035 58.2881C51.4596 58.1123 51.357 57.541 51.2692 57.0137C51.1813 56.4863 50.9615 55.6221 50.8004 55.0947L50.4928 54.1279L51.0494 53.1904C53.7301 48.6201 58.4469 46.1885 62.8414 47.1113Z" fill="#2B6CFE"/>
</svg>
