<svg width="63" height="63" viewBox="0 0 63 63" fill="none" xmlns="http://www.w3.org/2000/svg">
<path d="M28.6703 0.863504C26.2832 1.1096 23.8961 1.63869 21.6936 2.37696C11.53 5.85915 3.8397 14.6569 1.83406 25.1035C1.69871 25.8171 1.56336 26.5185 1.53875 26.6538C1.50184 26.8138 1.35418 26.9492 1.16961 26.9984C1.00966 27.0353 0.677432 27.2445 0.431341 27.4536L0.000681693 27.8351V31.0589C0.000681693 34.6887 -0.060841 34.4303 0.985046 34.984C1.52645 35.267 1.52645 35.267 1.68641 36.2391C2.4739 40.9517 4.73794 45.9351 7.8756 49.8972C9.06914 51.3983 11.7146 53.97 13.2896 55.1512C17.3132 58.1535 21.8167 60.1099 26.5293 60.8974C27.3783 61.0451 27.4029 61.0574 27.6121 61.525C27.8705 62.1156 28.5103 62.6693 29.1502 62.8661C29.7408 63.0384 33.2476 63.0507 33.8751 62.8661C35.77 62.3494 36.3114 59.6301 34.7734 58.3627C34.0966 57.809 33.5921 57.7105 31.4265 57.7105C29.6177 57.7105 29.4209 57.7351 28.8303 58.0058C28.4119 58.2027 28.0674 58.4857 27.8459 58.8056C27.5137 59.2732 27.4768 59.2855 26.9477 59.224C26.64 59.1871 25.5572 58.941 24.5237 58.6826C15.0122 56.2955 7.26037 48.9497 4.24575 39.4998C4.06118 38.9215 3.75357 37.6787 3.5567 36.7313L3.19987 35.0086L3.47057 34.8241C3.63053 34.7256 3.88892 34.5042 4.04888 34.3319C4.60258 33.7413 4.67641 33.3844 4.67641 31.0466C4.67641 28.5364 4.56567 28.1304 3.72896 27.4536L3.23678 27.0599L3.35982 26.297C3.54439 25.0666 4.23345 22.4334 4.73794 21.1045C8.03556 12.2698 15.5413 5.55154 24.6221 3.33672C27.2061 2.70919 28.6949 2.53692 31.5003 2.53692C34.3796 2.53692 36.0161 2.7338 38.5632 3.37363C47.9023 5.73611 55.4204 12.6882 58.5211 21.8059C59.0256 23.2824 59.3579 24.5744 59.6039 25.9648L59.7762 26.9984L59.2963 27.4167C58.3981 28.1796 58.3243 28.4749 58.3243 31.0466C58.3243 33.1753 58.3366 33.3352 58.6073 33.852C58.7672 34.1473 59.1364 34.5534 59.4194 34.7626C59.8993 35.0948 60.0346 35.1317 60.9082 35.1317C61.7818 35.1317 61.9172 35.0948 62.4094 34.7626L62.9385 34.3811L62.9754 31.1081L63 27.8351L62.5693 27.4536C62.3356 27.2445 62.0033 27.0476 61.8311 26.9984C61.5973 26.9369 61.5111 26.8138 61.4496 26.4693C60.699 22.0519 59.3948 18.5328 57.2169 15.0137C53.1317 8.43081 46.598 3.64433 39.0676 1.72482C38.0587 1.46643 36.5821 1.15881 35.8069 1.04807C34.1581 0.814286 30.1715 0.703545 28.6703 0.863504ZM2.63386 28.8071L2.95377 29.0532V31.022C2.95377 32.8184 2.92917 33.003 2.70768 33.2245C2.57233 33.3598 2.30163 33.4706 2.09246 33.4706C1.88328 33.4706 1.61258 33.3598 1.47723 33.2245C1.25575 33.003 1.23114 32.8184 1.23114 31.022V29.0532L1.55106 28.8071C1.73562 28.6595 1.96941 28.5488 2.09246 28.5488C2.2155 28.5488 2.44929 28.6595 2.63386 28.8071ZM61.4496 28.8071L61.7695 29.0532V31.022C61.7695 32.8184 61.7449 33.003 61.5235 33.2245C61.3881 33.3598 61.1174 33.4706 60.9082 33.4706C60.699 33.4706 60.4283 33.3598 60.293 33.2245C60.0715 33.003 60.0469 32.8184 60.0469 31.022V29.0532L60.3668 28.8071C60.5514 28.6595 60.7852 28.5488 60.9082 28.5488C61.0313 28.5488 61.2651 28.6595 61.4496 28.8071ZM33.6413 59.6916C33.8751 59.8761 33.9613 60.0607 33.9613 60.356C33.9613 60.6513 33.8751 60.8359 33.6413 61.0205C33.346 61.2543 33.1492 61.2789 31.4757 61.2789C29.6916 61.2789 29.63 61.2666 29.347 60.9712C29.1748 60.8113 29.0394 60.5283 29.0394 60.356C29.0394 60.1838 29.1748 59.9008 29.347 59.7408C29.63 59.4455 29.6916 59.4332 31.4757 59.4332C33.1492 59.4332 33.346 59.4578 33.6413 59.6916Z" fill="#2B6CFE"/>
<path d="M30.0236 8.51737C23.1823 8.8742 16.624 12.664 12.7357 18.5087C5.59909 29.2382 8.77367 43.5484 19.8109 50.3652C23.6991 52.7522 28.6332 53.9335 33.2105 53.5643C35.0931 53.4044 37.2464 52.9614 38.8706 52.4077C40.421 51.8663 43.2018 50.439 44.543 49.4915C45.958 48.4949 48.2344 46.317 49.2803 44.9758C56.1831 36.1534 55.6171 23.775 47.9637 15.5556C46.118 13.5868 43.8417 11.9257 41.2946 10.6953C37.7386 8.97264 34.1949 8.29589 30.0236 8.51737ZM35.6222 10.5722C38.4153 11.1752 41.3561 12.4425 43.5587 14.0052C45.0598 15.0634 47.4469 17.4505 48.5174 18.9516C49.5018 20.342 50.7937 22.8768 51.3105 24.4518C53.3408 30.5917 52.4425 37.1993 48.8496 42.601C45.6012 47.4982 40.5071 50.7343 34.5148 51.6941C33.1367 51.9278 29.6299 51.8909 28.178 51.6448C21.472 50.5005 15.7996 46.2801 12.7603 40.177C10.3856 35.4028 10.0041 29.4351 11.7637 24.3533C14.0769 17.5981 19.5525 12.5533 26.4184 10.8183C28.5225 10.2892 29.1131 10.2277 31.8693 10.2646C33.8873 10.3015 34.6378 10.3631 35.6222 10.5722Z" fill="#2B6CFE"/>
<path d="M29.8517 20.736C27.4769 21.3389 25.459 23.2461 24.7207 25.5963C24.2162 27.1959 24.4008 29.2508 25.1883 30.8134L25.4959 31.4287L25.1513 31.6748C23.6748 32.7453 23.2072 33.5327 22.2229 36.5966C21.2631 39.6235 21.2754 39.5251 21.4354 40.0911C21.6199 40.7678 22.1983 41.3092 22.9119 41.4569C23.6502 41.6168 39.2893 41.6292 40.1137 41.4815C40.5074 41.3954 40.7781 41.2354 41.1104 40.8909C41.8732 40.0665 41.8609 39.8204 40.8643 36.7688C39.7938 33.5327 39.2647 32.6345 37.8004 31.6132L37.5174 31.4164L37.7635 30.998C38.1573 30.3213 38.4895 29.1523 38.5756 28.1803C38.8463 25.0672 36.7053 21.8557 33.7276 20.9083C32.6694 20.5637 30.8361 20.4899 29.8517 20.736ZM32.6325 22.4094C35.3395 22.9877 37.2836 25.7809 36.8161 28.4141C36.4469 30.5181 35.0688 32.13 33.1124 32.733C29.987 33.705 26.6648 31.6502 26.2341 28.451C25.9881 26.6791 26.5541 25.018 27.7968 23.8368C29.1749 22.5202 30.8361 22.028 32.6325 22.4094ZM27.28 33.3113C29.7409 35.1939 33.4446 35.1693 35.8563 33.2374C36.1147 33.0283 36.3977 32.856 36.4838 32.856C36.7792 32.856 37.9112 34.0003 38.2311 34.6279C38.6002 35.3538 39.9906 39.5866 39.8922 39.685C39.8553 39.7219 36.0655 39.7466 31.4759 39.7466C23.9332 39.7466 23.1334 39.7219 23.1334 39.5497C23.1334 39.1928 24.5115 35.1446 24.8314 34.5417C25.1637 33.9142 26.2341 32.856 26.5295 32.856C26.6279 32.856 26.9601 33.0529 27.28 33.3113Z" fill="#2B6CFE"/>
</svg>
