<svg width="75" height="63" viewBox="0 0 75 63" fill="none" xmlns="http://www.w3.org/2000/svg">
<path d="M53.6865 0.416012C52.9248 0.987301 47.5488 6.42187 47.3291 6.86132C47.0947 7.30078 47.2412 7.74023 47.8418 8.37011L48.3545 8.88281L46.8018 10.3916C44.9707 12.1641 44.2676 12.5449 42.3779 12.7646C40.9424 12.9111 39.3018 13.5996 38.1006 14.5371L37.4414 15.0352L36.3721 14.2734C35.0098 13.292 34.0283 12.9258 32.3291 12.7793C30.5566 12.6035 30.0879 12.3545 28.1836 10.5234L26.6455 9.04394L27.1582 8.5166C27.7588 7.88672 27.9053 7.44726 27.6709 7.00781C27.4365 6.52441 21.5479 0.62109 21.0352 0.357418C20.8154 0.225582 20.4785 0.166988 20.3027 0.210934C20.1416 0.254879 15.498 4.79589 10.0049 10.2891C1.30371 18.9902 0 20.3525 0 20.7334C0 21.0996 0.498047 21.6709 3.35449 24.5273C6.48926 27.6621 6.75293 27.8965 7.23633 27.8965C7.63184 27.8965 7.88086 27.7793 8.27637 27.3984L8.78906 26.9004L10.1953 28.2773C10.957 29.0391 11.748 29.9326 11.9385 30.2549C12.1289 30.5771 12.4512 31.6318 12.6562 32.5986C13.2129 35.2061 13.8721 36.4512 15.7031 38.3262C16.4941 39.1318 17.1387 39.8643 17.1387 39.9229C17.1387 39.9961 16.6699 40.5234 16.1133 41.1094C14.8535 42.4131 14.458 43.2187 14.458 44.5518C14.458 46.2803 15.4541 47.833 17.0508 48.5801C17.4609 48.7705 18.0615 48.9316 18.3984 48.9316H18.999L19.0869 49.6934C19.3359 51.7441 20.9473 53.3701 22.9395 53.5752C23.7158 53.6631 23.7305 53.6631 23.7305 54.1465C23.7305 55.0107 24.3018 56.2559 25.0488 56.9883C25.7812 57.7354 27.0264 58.3066 27.9053 58.3066C28.4033 58.3066 28.418 58.3213 28.418 58.9219C28.418 59.2734 28.5791 59.8887 28.7695 60.2988C29.5166 61.9248 31.0986 62.9062 32.8857 62.9062C34.2188 62.8916 34.9219 62.5547 36.3867 61.207L37.5146 60.167L38.5693 61.207C39.9023 62.5254 40.5762 62.833 42.0557 62.8477C43.8867 62.8477 45.2637 61.998 46.04 60.4014C46.2158 60.0498 46.3916 59.7861 46.4355 59.8154C47.9883 60.7236 49.4971 60.8408 50.874 60.167C52.3535 59.4346 53.4668 57.8086 53.4668 56.373C53.4668 56.0215 53.5254 55.9629 53.877 55.9629C55.8105 55.9629 57.8174 54.1025 58.0957 52.0518L58.1836 51.3193L58.96 51.2314C61.1133 51.0117 62.7686 49.0781 62.7686 46.8076C62.7539 45.3281 62.4463 44.8301 59.8682 42.2373L57.6562 40.0107L58.9893 38.6191C61.3037 36.2021 61.9922 34.9424 62.2998 32.4961C62.5635 30.5332 62.7832 30.1377 64.7314 28.2187L66.1963 26.7686L66.7822 27.2959C67.8076 28.2334 67.7637 28.2627 71.5869 24.4248C74.502 21.5244 75 20.9531 75 20.5869C75 20.2061 74.1064 19.2539 68.3057 13.4531C64.6143 9.76172 61.4795 6.70019 61.333 6.65625C60.7178 6.46582 59.9121 7.15429 59.9121 7.88672C59.9121 8.01855 62.71 10.9336 66.1377 14.3613L72.3633 20.5869L70.0488 22.9014L67.749 25.2012L58.8135 16.2656L49.8779 7.33007L52.1777 5.03027L54.4775 2.73046L55.8545 4.07812C57.3779 5.57226 57.7441 5.7041 58.374 5.05957C59.0625 4.38574 58.916 4.09277 56.8799 2.04199C55.8252 0.987301 54.8438 0.123043 54.6387 0.0790976C54.3604 0.0205038 54.1113 0.108394 53.6865 0.416012ZM22.8516 5.20605L25.1221 7.47656L19.6582 12.9404C16.6699 15.9434 14.209 18.5068 14.209 18.6387C14.209 19.3857 14.9414 20.0303 15.5859 19.8398C15.7471 19.7959 17.9736 17.6865 20.5078 15.1523L25.1221 10.5527L25.8984 11.3291L26.6748 12.1201L19.2627 19.415L11.8506 26.71L11.1328 26.0068L10.4004 25.2891L11.7188 23.9414C13.1543 22.4912 13.2715 22.1836 12.7295 21.4805C12.5244 21.2168 12.29 21.0996 11.9678 21.0996C11.5576 21.0996 11.2207 21.3633 9.44824 23.1504C8.32031 24.2783 7.33887 25.2012 7.25098 25.2012C7.17773 25.2012 6.1084 24.1904 4.87793 22.9746L2.63672 20.7334L11.5283 11.8418C16.4355 6.93457 20.4639 2.93554 20.5078 2.93554C20.5518 2.93554 21.6064 3.96093 22.8516 5.20605ZM63.8965 25.9629L63.1348 26.7393L55.7373 19.3418L48.3398 11.9443L49.1016 11.1826L49.8779 10.4062L57.2754 17.8037L64.6729 25.2012L63.8965 25.9629ZM54.1846 20.8652L61.5674 28.248L61.1279 28.9658C60.5127 29.9619 60.3809 30.3574 60.1465 32.042C59.8535 34.21 59.4873 34.8984 57.6123 36.8027L56.0449 38.3848L54.4922 36.8467C53.1006 35.4551 52.8955 35.3086 52.4121 35.3086C51.7822 35.3086 51.416 35.7041 51.416 36.3926C51.416 36.7734 52.0166 37.4326 55.7959 41.2412C58.2129 43.6582 60.2637 45.8262 60.3369 46.0459C60.9082 47.54 59.8389 49.0781 58.2568 49.0781H57.5244L54.7119 46.2949C51.8555 43.4678 51.6504 43.3213 50.9033 43.5996C50.4932 43.7607 50.2295 44.4639 50.4053 44.9326C50.4785 45.1523 51.709 46.5 53.1006 47.9062C55.8838 50.6895 56.0889 51.0117 55.7812 52.0371C55.5908 52.667 54.7119 53.5605 54.126 53.707C53.1299 53.9561 52.8076 53.7363 49.9365 50.8945C47.5635 48.5361 47.1533 48.1992 46.7578 48.1992C46.1426 48.1992 45.7031 48.6533 45.7031 49.2686C45.7031 49.6934 45.9961 50.0303 48.3398 52.374C51.1084 55.1279 51.3867 55.5381 51.1963 56.4902C51.0645 57.208 50.2002 58.1162 49.4824 58.3066C48.4277 58.5996 48.0762 58.3652 45.1758 55.5088C43.0957 53.4434 42.4512 52.8867 42.1436 52.8867C41.8359 52.8867 41.7041 52.7695 41.4844 52.2422C40.8691 50.8652 39.4189 49.7666 37.9248 49.5762L37.2363 49.4883L37.1484 48.7998C36.8848 46.8223 35.2148 45.167 33.208 44.8887L32.5635 44.8008L32.4756 44.0977C32.2412 42.1348 30.6006 40.5088 28.5352 40.2158C27.8613 40.1279 27.832 40.0986 27.832 39.6445C27.832 37.5791 25.6494 35.6016 23.3789 35.6016C22.0605 35.6016 21.3135 35.9531 19.9951 37.2422L18.7939 38.3848L17.4023 36.9492C15.7471 35.2353 15.2637 34.3271 14.7949 32.0859C14.6045 31.1484 14.2822 30.123 13.96 29.4639L13.4473 28.3799L20.8447 20.9824L28.2422 13.585L28.6963 13.9072C29.5312 14.5078 30.4688 14.8154 31.8896 14.9619C33.4717 15.123 33.9258 15.2842 35.0977 16.0605L35.9033 16.6025L31.6553 20.8652C26.6455 25.9043 26.5869 25.9775 26.5869 28.2773C26.5869 29.4785 26.6455 29.7861 26.9678 30.4893C27.5098 31.6465 28.2861 32.4375 29.4141 32.9941C30.3223 33.4482 30.498 33.4775 31.8604 33.4775C34.0283 33.4629 34.1748 33.375 37.9395 29.6543L41.0889 26.5342L44.8242 30.2549C48.0469 33.4629 48.6328 33.9902 49.0137 33.9902C49.7021 33.9902 50.0977 33.624 50.0977 32.9941C50.0977 32.4814 49.8926 32.2471 46.3623 28.7168L42.6416 24.9961L43.5791 24.0146C44.6484 22.916 44.7656 22.4912 44.165 21.9053C43.418 21.1436 43.4033 21.1436 38.3203 26.2119C35.2002 29.332 33.4424 30.9727 33.0762 31.1191C32.1387 31.5146 31.084 31.4268 30.1758 30.8701C28.7988 30.0352 28.3008 28.3506 29.0039 26.8857C29.1943 26.4902 31.0693 24.5273 34.4531 21.1582C40.3125 15.3281 40.5176 15.1816 42.7734 14.9326C44.1357 14.7715 45.2344 14.4346 46.0693 13.8779C46.3916 13.6728 46.6846 13.4971 46.7285 13.4971C46.7725 13.4824 50.127 16.8076 54.1846 20.8652ZM24.5801 38.0918C25.5469 38.6777 25.9131 39.9229 25.4004 40.9189C25.1367 41.4463 21.4014 45.2842 20.3174 46.1631C19.7021 46.6611 19.4971 46.7344 18.8818 46.7344C18.4717 46.7344 17.959 46.6318 17.7246 46.5146C16.8604 46.0752 16.4209 44.4639 16.9043 43.541C17.1387 43.1016 22.0312 38.209 22.4854 37.96C22.9688 37.7109 24.0527 37.7695 24.5801 38.0918ZM29.2676 42.7646C29.7217 42.999 30.1611 43.6289 30.2637 44.1709C30.4541 45.2402 30.293 45.4893 27.4805 48.3164C26.0303 49.7959 24.6533 51.0996 24.4336 51.2168C23.4375 51.7295 22.1191 51.29 21.5771 50.25C21.1963 49.5176 21.1523 48.9316 21.4453 48.375C21.5625 48.1553 22.8809 46.7637 24.3604 45.2842C26.6895 42.9697 27.1436 42.5742 27.6416 42.4863C28.2129 42.3984 28.7402 42.4717 29.2676 42.7646ZM34.3652 47.8184C34.9951 48.5508 35.127 49.2979 34.7461 50.1328C34.3359 51.041 29.5752 55.6992 28.8135 55.9629C26.9678 56.5635 25.2979 54.6885 26.1621 52.9893C26.4404 52.4619 30.5273 48.2432 31.4209 47.584C31.9629 47.1885 32.0947 47.1592 32.9443 47.2031C33.8232 47.2617 33.9258 47.3057 34.3652 47.8184ZM38.2764 51.9199C38.9062 52.1836 39.5215 52.916 39.6387 53.5605C39.7998 54.4687 39.4043 55.0254 36.5039 57.9111C33.4424 60.9434 33.252 61.0605 31.9922 60.5771C30.8643 60.1523 30.2783 58.6436 30.8203 57.6035C31.1133 57.0469 36.1816 52.0518 36.6211 51.876C37.1484 51.6709 37.7344 51.6855 38.2764 51.9199ZM44.165 58.0576C44.3994 59.3174 43.8281 60.3135 42.6562 60.665C41.792 60.9141 41.0156 60.5918 39.9316 59.4932L39.0674 58.6143L40.1074 57.4863C40.6787 56.8711 41.2646 56.0654 41.4111 55.7139L41.6748 55.084L42.876 56.2852C43.7842 57.2227 44.0918 57.6328 44.165 58.0576Z" fill="white"/>
</svg>
